<?xml version="1.0" encoding="UTF-8"?>
<svg width="212px" height="212px" viewBox="0 0 212 212" version="1.1" xmlns="http://www.w3.org/2000/svg" xmlns:xlink="http://www.w3.org/1999/xlink">
    <title>a</title>
    <g id="a" stroke="none" stroke-width="1" fill="none" fill-rule="evenodd">
        <path d="M185.491283,175.932223 L144.815961,134.099042 C155.274301,121.805112 161.004487,106.336832 161.004487,90.2336832 C161.004487,52.6102236 130.049481,22 92.0022435,22 C53.9550065,22 23,52.6102236 23,90.2336832 C23,127.857143 53.9550065,158.467366 92.0022435,158.467366 C106.285708,158.467366 119.89715,154.207211 131.534529,146.120037 L172.518861,188.270653 C174.231917,190.029895 176.535992,191 179.005072,191 C181.342148,191 183.55922,190.118895 185.242275,188.516887 C188.818391,185.114103 188.932395,179.471474 185.491283,175.932223 Z M92.0022435,39.8000913 C120.125158,39.8000913 143.003902,62.4240073 143.003902,90.2336832 C143.003902,118.043359 120.125158,140.667275 92.0022435,140.667275 C63.8793291,140.667275 41.0005853,118.043359 41.0005853,90.2336832 C41.0005853,62.4240073 63.8793291,39.8000913 92.0022435,39.8000913 Z" id="Shape" fill="#BEBEBE" fill-rule="nonzero"></path>
        <circle id="Oval" fill="#BEBEBE" cx="63" cy="87" r="6"></circle>
        <circle id="Oval-Copy" fill="#BEBEBE" cx="119" cy="87" r="6"></circle>
        <path d="M69,117.351532 C69,117.351532 74.4047241,106 91,106 C107.595276,106 113,117.351532 113,117.351532" id="Path-2" stroke="#BEBEBE" stroke-width="7" stroke-linecap="round" stroke-linejoin="round"></path>
    </g>
</svg>