<?xml version="1.0" encoding="UTF-8"?>
<svg width="43px" height="43px" viewBox="0 0 43 43" version="1.1" xmlns="http://www.w3.org/2000/svg" xmlns:xlink="http://www.w3.org/1999/xlink">
    <title>Artboard Copy 6</title>
    <g id="Artboard-Copy-6" stroke="none" stroke-width="1" fill="none" fill-rule="evenodd">
        <g id="Group-5-Copy" transform="translate(4, 4)">
            <path d="M17.5,33.542 C13.234,33.542 9.37,31.865 6.49,29.167 L6.49,29.021 C6.49,25.266 8.349,21.802 11.484,19.724 C12.979,21.474 15.203,22.568 17.682,22.568 C20.161,22.568 22.349,21.474 23.88,19.724 C26.943,21.766 28.802,25.157 28.839,28.839 C25.922,31.756 21.911,33.542 17.5,33.542 M10.938,14.401 C10.938,10.683 13.964,7.657 17.682,7.657 C21.401,7.657 24.427,10.683 24.427,14.401 C24.427,18.12 21.401,21.146 17.682,21.146 C13.964,21.11 10.938,18.084 10.938,14.401 M17.5,1.459 C26.359,1.459 33.542,8.641 33.542,17.5 C33.542,21.183 32.302,24.573 30.188,27.308 C29.714,23.771 27.745,20.599 24.719,18.558 C25.448,17.318 25.849,15.896 25.849,14.401 C25.885,9.881 22.203,6.198 17.682,6.198 C13.161,6.198 9.479,9.881 9.479,14.401 C9.479,15.933 9.88,17.355 10.609,18.558 C7.51,20.672 5.505,23.99 5.141,27.709 C2.844,24.938 1.458,21.365 1.458,17.5 C1.458,8.641 8.641,1.459 17.5,1.459 M17.5,0 C7.839,0 0,7.839 0,17.5 C0,27.162 7.839,35 17.5,35 C27.161,35 35,27.162 35,17.5 C35,7.839 27.161,0 17.5,0" id="Fill-1" fill="#000000"></path>
            <path d="M17.5,33.542 C13.234,33.542 9.37,31.865 6.49,29.167 L6.49,29.021 C6.49,25.266 8.349,21.802 11.484,19.724 C12.979,21.474 15.203,22.568 17.682,22.568 C20.161,22.568 22.349,21.474 23.88,19.724 C26.943,21.766 28.802,25.157 28.839,28.839 C25.922,31.756 21.911,33.542 17.5,33.542 Z M10.938,14.401 C10.938,10.683 13.964,7.657 17.682,7.657 C21.401,7.657 24.427,10.683 24.427,14.401 C24.427,18.12 21.401,21.146 17.682,21.146 C13.964,21.11 10.938,18.084 10.938,14.401 Z M17.5,1.459 C26.359,1.459 33.542,8.641 33.542,17.5 C33.542,21.183 32.302,24.573 30.188,27.308 C29.714,23.771 27.745,20.599 24.719,18.558 C25.448,17.318 25.849,15.896 25.849,14.401 C25.885,9.881 22.203,6.198 17.682,6.198 C13.161,6.198 9.479,9.881 9.479,14.401 C9.479,15.933 9.88,17.355 10.609,18.558 C7.51,20.672 5.505,23.99 5.141,27.709 C2.844,24.938 1.458,21.365 1.458,17.5 C1.458,8.641 8.641,1.459 17.5,1.459 Z M17.5,0 C7.839,0 0,7.839 0,17.5 C0,27.162 7.839,35 17.5,35 C27.161,35 35,27.162 35,17.5 C35,7.839 27.161,0 17.5,0 Z" id="Stroke-3" stroke="#000000" stroke-width="0.75"></path>
        </g>
    </g>
</svg>