<?xml version="1.0" encoding="UTF-8"?>
<svg width="32px" height="23px" viewBox="0 0 32 23" version="1.1" xmlns="http://www.w3.org/2000/svg" xmlns:xlink="http://www.w3.org/1999/xlink">
    <title>Group 29</title>
    <g id="Page-1" stroke="none" stroke-width="1" fill="none" fill-rule="evenodd">
        <g id="1_Home" transform="translate(-1324, -4781)" fill="#3C7630" fill-rule="nonzero">
            <g id="footer" transform="translate(0, 4515)">
                <g id="Group-32" transform="translate(1319, 255)">
                    <g id="Group-29" transform="translate(5.14, 11.14)">
                        <path d="M21.2100932,0.495080284 C24.6382814,3.66865601 27.1807614,6.05022983 28.8406706,7.64287968 C29.3756386,8.15617087 29.8205095,8.58899909 30.1770033,8.9432243 L30.4609661,9.22763959 C30.5484327,9.31605703 30.6287249,9.39810129 30.7018829,9.47381574 C30.9268528,9.70664708 31.0928001,9.88789706 31.2143318,10.0371541 C31.3317243,10.1813276 31.4206698,10.3060905 31.5081379,10.4775087 C31.6448266,10.7215142 31.6448266,10.7215142 31.7111061,11.5315983 C31.2984903,12.444108 31.1437593,12.7862991 30.7919884,12.9703812 L30.7215385,13.0040086 L30.7041014,13.0187439 C30.6368567,13.0741081 30.5496399,13.1488617 30.4444837,13.2415771 L30.3334231,13.340227 C29.9101867,13.7187159 29.2904305,14.2992495 28.4796914,15.0771376 C26.8394771,16.6508905 24.4315799,19.0187725 21.2589762,22.1780023 C20.5310684,22.9028416 19.3533842,22.9003541 18.6285448,22.1724464 C17.9037055,21.4445386 17.906193,20.2668543 18.6341007,19.542015 C21.4737205,16.7143654 23.5165844,14.6814626 25.0139645,13.2203828 L1.86,13.2200086 C0.832750365,13.2200086 0,12.3872583 0,11.3600086 C0,10.332759 0.832750365,9.50000864 1.86,9.50000864 L25.398742,9.50033438 C23.7829344,7.96562041 21.5437326,5.87321723 18.6829837,3.22493699 C17.9291546,2.52709497 17.8837681,1.350283 18.5816101,0.59645389 C19.2794521,-0.157375223 20.4562641,-0.202761733 21.2100932,0.495080284 Z" id="Combined-Shape"></path>
                    </g>
                </g>
            </g>
        </g>
    </g>
</svg>