<?xml version="1.0" encoding="UTF-8"?>
<svg width="32px" height="23px" viewBox="0 0 32 23" version="1.1" xmlns="http://www.w3.org/2000/svg" xmlns:xlink="http://www.w3.org/1999/xlink">
    <title>Combined Shape</title>
    <g id="Page-1" stroke="none" stroke-width="1" fill="none" fill-rule="evenodd">
        <g id="1_Home-Toluca-V2" transform="translate(-1462, -5315)" fill="#FFFFFF" fill-rule="nonzero">
            <g id="Group-23" transform="translate(0, 5038)">
                <path d="M1483.35009,277.635072 C1486.77828,280.808647 1489.32076,283.190221 1490.98067,284.782871 C1491.51564,285.296162 1491.96051,285.72899 1492.317,286.083216 L1492.60097,286.367631 C1492.68843,286.456048 1492.76872,286.538093 1492.84188,286.613807 C1493.06685,286.846638 1493.2328,287.027888 1493.35433,287.177146 C1493.47172,287.321319 1493.56067,287.446082 1493.64814,287.6175 C1493.78483,287.861506 1493.78483,287.861506 1493.85111,288.67159 C1493.43849,289.584099 1493.28376,289.92629 1492.93199,290.110373 L1492.86154,290.144 L1492.8441,290.158735 C1492.77686,290.2141 1492.68964,290.288853 1492.58448,290.381568 L1492.47342,290.480218 C1492.05019,290.858707 1491.43043,291.439241 1490.61969,292.217129 C1488.97948,293.790882 1486.57158,296.158764 1483.39898,299.317994 C1482.67107,300.042833 1481.49338,300.040346 1480.76854,299.312438 C1480.04371,298.58453 1480.04619,297.406846 1480.7741,296.682006 C1483.61372,293.854357 1485.65658,291.821454 1487.15396,290.360374 L1464,290.36 C1462.97275,290.36 1462.14,289.52725 1462.14,288.5 C1462.14,287.47275 1462.97275,286.64 1464,286.64 L1487.53874,286.640326 C1485.92293,285.105612 1483.68373,283.013209 1480.82298,280.364928 C1480.06915,279.667086 1480.02377,278.490274 1480.72161,277.736445 C1481.41945,276.982616 1482.59626,276.93723 1483.35009,277.635072 Z" id="Combined-Shape"></path>
            </g>
        </g>
    </g>
</svg>