<?xml version="1.0" encoding="UTF-8"?>
<svg width="48px" height="32px" viewBox="0 0 48 32" version="1.1" xmlns="http://www.w3.org/2000/svg" xmlns:xlink="http://www.w3.org/1999/xlink">
    <title>Artboard Copy 13</title>
    <g id="Artboard-Copy-13" stroke="none" stroke-width="1" fill="none" fill-rule="evenodd">
        <path d="M22.7346369,28.1820298 C22.64172,28.089113 22.5614647,27.9883292 22.493871,27.8818226 L1.73463687,7.12057728 C1.05276576,6.43870617 1.05276576,5.33317465 1.73463687,4.65130354 C2.41650799,3.96943242 3.5220395,3.96943242 4.20391061,4.65130354 L23.9998025,24.4464692 L43.7960894,4.65130354 C44.4779605,3.96943242 45.583492,3.96943242 46.2653631,4.65130354 C46.9472342,5.33317465 46.9472342,6.43870617 46.2653631,7.12057728 L25.5042365,27.884798 C25.4370387,27.9902065 25.3574143,28.0899786 25.2653631,28.1820298 C24.9444826,28.5029103 24.5297811,28.6727882 24.1095607,28.6916636 L23.8904393,28.6916636 C23.4702189,28.6727882 23.0555174,28.5029103 22.7346369,28.1820298 Z" id="Combined-Shape" fill="#92E47F"></path>
    </g>
</svg>