<?xml version="1.0" encoding="UTF-8"?>
<svg id="Capa_1" data-name="Capa 1" xmlns="http://www.w3.org/2000/svg" version="1.1" viewBox="0 0 129 129">
  <defs>
    <style>
      .cls-1 {
        fill: #000;
        fill-rule: evenodd;
        stroke-width: 0px;
      }
    </style>
  </defs>
  <path class="cls-1" d="M109.8,36.6c0-5.5-4.3-10.3-9.8-11-2.3-.3-4.6-.5-6.8-.8-7.1-1.1-13.5-3.6-19.3-8-1.7-1.3-3.2-2.7-4.8-4-2.5-2.1-5.5-2.4-8.1-.8-1,.6-1.9,1.5-2.8,2.3-5.1,4.6-10.9,7.7-17.5,9.5-3.9,1.1-7.9,1.4-11.9,1.8-5,.6-9.5,5.4-9.6,10.5,0,7-.1,14.1,0,21.1.1,6.3,1,12.5,2.5,18.6,4,15.9,13,27.9,27.3,36,4.6,2.6,9.3,4.6,14.3,6.3h2.5c6.2-2.1,12.2-4.8,17.7-8.3,11.3-7.3,18.9-17.4,22.9-30.2,2.6-8.3,3.5-16.8,3.7-25.4.1-5.8,0-11.6-.1-17.4ZM91.1,65.6c-.5,15-13.8,27.1-29.6,25.4-14.1-1.5-25.3-14.1-23.6-29.5,1.5-14.1,14.2-25.2,29.4-23.5,14.4,1.5,24.4,14.1,23.7,27.6Z"/>
  <path id="Fill-6" class="cls-1" d="M58.1,69.7c2.1-2.1,3.9-3.9,5.7-5.7,3.6-3.6,7.1-7.2,10.7-10.7,1.9-1.8,4.4-1.8,6.1-.1,1.7,1.7,1.6,4.3-.2,6.1-6.3,6.4-12.7,12.7-19.1,19.1-2,2-4.3,2-6.4,0-2.4-2.3-4.7-4.6-7-7-1.8-1.9-1.9-4.4-.3-6.1,1.7-1.8,4.2-1.7,6.2.2.7.7,1.4,1.4,2.1,2.1.7.7,1.3,1.4,2.1,2.3"/>
</svg>