<?xml version="1.0" encoding="UTF-8"?>
<svg id="Capa_1" data-name="Capa 1" xmlns="http://www.w3.org/2000/svg" version="1.1" viewBox="0 0 29 29">
  <defs>
    <style>
      .cls-1 {
        fill: none;
      }

      .cls-1, .cls-2 {
        stroke-width: 0px;
      }

      .cls-2 {
        fill: #000;
      }
    </style>
  </defs>
  <g id="Page-1">
    <g id="Artboard-1">
      <rect id="Rectangle" class="cls-1" width="29" height="29"/>
      <path id="Shape" class="cls-2" d="M23.7,23.7h-5.4q-.2,0-.2-.2c-1.6-2.2-3.2-4.3-4.8-6.5-.1-.1-.1-.2-.2-.2-.3.3-.8.8-1,1.2-1.7,1.8-3.5,3.8-5.2,5.5-.1.1-.2.2-.3.2h-1.4c2.4-2.7,4.8-5.3,7.3-7.8-2.4-3.2-5-6.5-7.3-9.7h5.5c.1,0,.2,0,.2.1,1.5,2,3,4,4.5,6,0,.1.1.1.2.2,0-.1.1-.2.1-.2,1.8-2,3.8-4,5.5-6,.1-.1.2-.2.3-.2h1.4c-2.3,2.4-4.5,4.8-6.8,7.3,2.5,3.6,5.1,6.9,7.6,10.4ZM21.3,22.5c-.1-.1-.1-.2-.1-.2-1.3-1.7-2.5-3.3-3.8-5.1-2.5-3.2-4.8-6.6-7.3-9.7-.1-.1-.2-.2-.2-.2h-2.4c0,.1,0,.2.1.2,2.7,3.5,5.2,6.9,7.8,10.4,1.2,1.5,2.2,2.9,3.2,4.4,0,.1.1.1.2.1.8.1,1.5.1,2.4.1Z"/>
    </g>
  </g>
</svg>