<?xml version="1.0" encoding="UTF-8"?>
<svg width="204px" height="42px" viewBox="0 0 204 42" version="1.1" xmlns="http://www.w3.org/2000/svg" xmlns:xlink="http://www.w3.org/1999/xlink">
    <title>Group 7</title>
    <g id="Page-1" stroke="none" stroke-width="1" fill="none" fill-rule="evenodd">
        <g id="1_Home" transform="translate(-69, -57)" fill="#FFFFFF">
            <g id="Group-7" transform="translate(69, 57)">
                <path d="M182.093306,18.7882319 C183.288832,19.8039961 183.909356,20.9973244 183.909356,22.3735681 L183.909356,29.1321944 C183.909356,32.2451613 180.607882,34.4591185 177.01124,34.4591185 C173.495577,34.4591185 170.134686,32.2451613 170.134686,29.1321944 L170.134686,22.3735681 C170.134686,19.3262756 173.495577,16.9955638 177.01124,16.9955638 C179.006979,16.9955638 180.663466,17.5900388 182.093306,18.7882319 M177.01124,9.51549198 C173.31541,9.51549198 170.064249,10.6533619 167.338736,13.1056929 C164.432097,15.6193201 162.951944,18.7274223 162.951944,22.3735681 L162.951944,29.1321944 C162.951944,36.2513002 169.5041,42 177.01124,42 C179.987358,42 182.93856,41.1618 185.274509,39.2426478 C186.020096,40.5070018 187.155247,41.1009903 188.585566,41.1009903 L191.026453,41.1009903 L191.026453,22.3735681 C191.026453,18.7274223 189.5463,15.6757514 186.655474,13.1056929 C183.909356,10.6533619 180.718091,9.51549198 177.01124,9.51549198 M134.166348,21.896334 L134.166348,29.6099149 C134.166348,36.3121098 140.154043,42 147.671246,42 C153.248293,42 158.605402,38.5319048 160.601141,32.9612556 L157.520085,31.2902068 C155.924452,30.3863323 154.21909,30.7521631 153.028834,32.1284068 C151.597556,33.7984827 149.777673,34.4591185 147.671246,34.4591185 C144.245667,34.4591185 141.344778,32.367267 141.344778,29.6099149 L141.344778,21.896334 C141.344778,19.3262756 144.245667,16.9955638 147.671246,16.9955638 C149.777673,16.9955638 151.597556,17.7671165 153.028834,19.3870852 C154.33409,20.8805699 155.924452,21.1135924 157.579981,20.219934 L160.601141,18.605803 C158.605402,13.0448833 153.078668,9.51549198 147.671246,9.51549198 C140.263773,9.51549198 134.166348,15.1372213 134.166348,21.896334 M104.606416,14.2990213 L104.606416,29.6099149 C104.606416,36.3121098 110.647778,42 117.991521,42 C121.582892,42 124.713303,40.8572653 127.27494,38.5927144 C130.06562,36.1291944 131.485877,33.144171 131.485877,29.6099149 L131.485877,10.4091504 L128.184882,10.4091504 C125.624203,10.4091504 124.317989,11.7294492 124.317989,14.2990213 L124.317989,29.6099149 C124.317989,32.4835351 121.242682,34.4591185 117.991521,34.4591185 C114.689568,34.4591185 111.728783,32.4835351 111.728783,29.6099149 L111.728783,10.4091504 L108.427788,10.4091504 C105.867109,10.4091504 104.606416,11.7294492 104.606416,14.2990213 M94.4029919,22.3735681 L94.4029919,37.211606 C94.4029919,39.7806915 95.6531437,41.1009903 98.2143017,41.1009903 L101.460192,41.1009903 L101.460192,22.3735681 C101.460192,14.4814502 96.9061705,9.51549198 89.5538021,9.51549198 C86.1948277,9.51549198 83.4669189,10.6533619 81.3010752,12.8678056 C79.0705438,10.6533619 76.2865722,9.51549198 72.9228061,9.51549198 C65.4032078,9.51549198 61.0739163,14.6599873 61.0739163,22.3735681 L61.0739163,37.211606 C61.0739163,39.7806915 62.3216722,41.1009903 64.8900178,41.1009903 L68.1938877,41.1009903 L68.1938877,22.3735681 C68.1938877,18.7882319 69.5643109,16.9955638 72.9228061,16.9955638 C75.9463622,16.9955638 77.7073081,19.2041698 77.7073081,22.3735681 L77.7073081,37.211606 C77.7073081,39.7806915 78.9675224,41.1009903 81.5258055,41.1009903 L84.8296754,41.1009903 L84.8296754,22.3735681 C84.8296754,19.2041698 86.5326419,16.9955638 89.5538021,16.9955638 C92.9721934,16.9955638 94.4029919,18.7882319 94.4029919,22.3735681 M49.3472145,18.7882319 C50.5379494,19.8039961 51.1704524,20.9973244 51.1704524,22.3735681 L51.1704524,29.1321944 C51.1704524,32.2451613 47.8613116,34.4591185 44.2756903,34.4591185 C40.7394235,34.4591185 37.3804491,32.2451613 37.3804491,29.1321944 L37.3804491,22.3735681 C37.3804491,19.3262756 40.7394235,16.9955638 44.2756903,16.9955638 C46.2661582,16.9955638 47.9168952,17.5900388 49.3472145,18.7882319 M44.2756903,9.51549198 C40.5741102,9.51549198 37.3229488,10.6533619 34.58929,13.1056929 C31.6860053,15.6193201 30.2106441,18.7274223 30.2106441,22.3735681 L30.2106441,29.1321944 C30.2106441,36.2513002 36.7551336,42 44.2756903,42 C47.9168952,42 51.2250776,40.6850524 53.8988404,38.4710952 C56.6372909,36.0129264 58.2875488,32.7228818 58.2875488,29.1321944 L58.2875488,22.3735681 C58.2875488,18.7274223 56.8050001,15.6757514 53.8988404,13.1056929 C51.1704524,10.6533619 47.9791872,9.51549198 44.2756903,9.51549198 M7.17507589,29.1321944 L7.17507589,22.3735681 C7.17507589,19.3262756 10.5359669,16.9955638 14.0698379,16.9955638 C17.6564175,16.9955638 20.9070997,19.3262756 20.9070997,22.3735681 L20.9070997,29.1321944 C20.9070997,32.2451613 17.603709,34.4591185 14.0698379,34.4591185 C10.5359669,34.4591185 7.17507589,32.2451613 7.17507589,29.1321944 M0,3.88938437 L0,29.1321944 C0,36.073736 6.31975931,42 14.0698379,42 C21.5903946,42 28.0826548,36.2513002 28.0826548,29.1321944 L28.0826548,22.3735681 C28.0826548,18.7274223 26.6068144,15.6193201 23.6982589,13.1056929 C20.9598083,10.6533619 17.7733348,9.51549198 14.0698379,9.51549198 C11.5038882,9.51549198 9.28821096,9.99321249 7.17507589,11.191892 L7.17507589,0 L3.87120596,0 C1.30813124,0 0,1.32029884 0,3.88938437" id="Fill-1"></path>
                <path d="M197.88245,35.8272867 L198.31514,35.8272867 C198.931351,35.8272867 199.313248,35.8034494 199.46227,35.7548016 C199.610333,35.7071269 199.728209,35.6229664 199.813501,35.5028065 C199.90023,35.3826467 199.942876,35.2454601 199.942876,35.0927063 C199.942876,34.9443308 199.901189,34.8115226 199.816855,34.695741 C199.73348,34.5804459 199.613687,34.4967719 199.458437,34.4466647 C199.303665,34.3970441 198.922726,34.3712608 198.31514,34.3712608 L197.88245,34.3712608 L197.88245,35.8272867 Z M196.816299,38.8575526 L196.816299,33.5247906 L197.88245,33.5247906 C198.881996,33.5247906 199.441187,33.5296554 199.561937,33.5388985 C199.915564,33.5690601 200.189648,33.6400857 200.386108,33.751489 C200.581609,33.8633787 200.745484,34.0336457 200.876298,34.2627764 C201.008069,34.4928801 201.073715,34.7473076 201.073715,35.0270319 C201.073715,35.4123218 200.95009,35.7411803 200.702359,36.0145804 C200.454629,36.2874941 200.107231,36.4567881 199.658729,36.5224625 C199.818293,36.5837586 199.94096,36.650406 200.027689,36.7228911 C200.112981,36.7944032 200.231815,36.9320762 200.382274,37.1325048 C200.421566,37.1850443 200.550463,37.4015266 200.769922,37.7824382 L201.389967,38.8575526 L200.072252,38.8575526 L199.632854,37.9916233 C199.336249,37.4097967 199.090435,37.0439659 198.896851,36.893158 C198.702787,36.7418637 198.457453,36.6669462 198.159889,36.6669462 L197.88245,36.6669462 L197.88245,38.8575526 L196.816299,38.8575526 Z M199.058331,32.1281149 C198.377911,32.1281149 197.725283,32.3013007 197.100446,32.6466995 C196.476568,32.9916117 195.984462,33.4878184 195.625085,34.1353194 C195.265229,34.7828204 195.085062,35.4599965 195.085062,36.1683072 C195.085062,36.8722395 195.260917,37.5430914 195.612147,38.1818359 C195.962899,38.8200938 196.453089,39.3187328 197.08128,39.6772665 C197.710428,40.0353136 198.369286,40.2148237 199.058331,40.2148237 C199.751209,40.2148237 200.411504,40.0353136 201.038257,39.6772665 C201.66501,39.3187328 202.154241,38.8200938 202.507868,38.1818359 C202.861495,37.5430914 203.03735,36.8722395 203.03735,36.1683072 C203.03735,35.4599965 202.857661,34.7828204 202.498285,34.1353194 C202.138908,33.4878184 201.645843,32.9916117 201.018611,32.6466995 C200.392337,32.3013007 199.738271,32.1281149 199.058331,32.1281149 L199.058331,32.1281149 Z M199.052101,31.1444582 C199.90023,31.1444582 200.714338,31.3599676 201.493467,31.7904998 C202.273075,32.2215185 202.885932,32.8388579 203.33108,33.6434911 C203.777186,34.4476377 204,35.290216 204,36.1683072 C204,37.0425065 203.781499,37.8768147 203.344018,38.6702589 C202.907016,39.4641895 202.297513,40.0829884 201.516467,40.5266555 C200.734464,40.9703226 199.913168,41.1921561 199.052101,41.1921561 C198.190556,41.1921561 197.36926,40.9703226 196.587256,40.5266555 C195.805732,40.0829884 195.196708,39.4641895 194.759227,38.6702589 C194.322225,37.8768147 194.103244,37.0425065 194.103244,36.1683072 C194.103244,35.290216 194.326058,34.4476377 194.772164,33.6434911 C195.217791,32.8388579 195.830649,32.2215185 196.609777,31.7904998 C197.389385,31.3599676 198.203014,31.1444582 199.052101,31.1444582 L199.052101,31.1444582 Z" id="Fill-4"></path>
            </g>
        </g>
    </g>
</svg>