<?xml version="1.0" encoding="utf-8"?>
<!-- Generator: Adobe Illustrator 28.1.0, SVG Export Plug-In . SVG Version: 6.00 Build 0)  -->
<svg version="1.1" id="Layer_1" xmlns="http://www.w3.org/2000/svg" xmlns:xlink="http://www.w3.org/1999/xlink" x="0px" y="0px"
	 viewBox="0 0 32 28" style="enable-background:new 0 0 32 28;" xml:space="preserve">
<style type="text/css">
	.st0{fill-rule:evenodd;clip-rule:evenodd;fill:#FFFFFF;stroke:#FFFFFF;}
</style>
<g id="Page-1">
	<g id="Friso_Home-Copy" transform="translate(-1295.000000, -69.000000)">
		<g id="Group-3" transform="translate(1296.000000, 70.000000)">
			<path id="Fill-1" class="st0" d="M21.8,21.2c-1.3,0-2.4,1.1-2.4,2.4c0,1.3,1.1,2.4,2.4,2.4c1.3,0,2.4-1.1,2.4-2.4
				C24.2,22.3,23.1,21.2,21.8,21.2L21.8,21.2z M12,21.2c-1.3,0-2.4,1.1-2.4,2.4c0,1.3,1.1,2.4,2.4,2.4c1.3,0,2.4-1.1,2.4-2.4
				C14.5,22.3,13.4,21.2,12,21.2L12,21.2z M5.3,5.4c7.7,0,15.5,0,23.2,0l-2,8.9H7.3L5.3,5.4z M0.7,0c-0.8,0-1,1.2-0.2,1.3l2.5,0.5
				l0.7,3c0,0,0,0,0,0L7,19.3c0.1,0.3,0.3,0.5,0.7,0.5h18.4c0.9,0,0.9-1.3,0-1.3H8.2l-0.6-2.8H27c0.3,0,0.6-0.2,0.7-0.5L30,4.9
				c0.1-0.4-0.2-0.8-0.7-0.8c-8.1,0-16.2,0-24.3,0L4.3,1.2C4.3,0.9,4.1,0.7,3.8,0.7L0.8,0C0.8,0,0.7,0,0.7,0L0.7,0z"/>
		</g>
	</g>
</g>
</svg>
