<?xml version="1.0" encoding="UTF-8"?>
<svg width="43px" height="43px" viewBox="0 0 43 43" version="1.1" xmlns="http://www.w3.org/2000/svg" xmlns:xlink="http://www.w3.org/1999/xlink">
    <title>Artboard Copy 7</title>
    <g id="Artboard-Copy-7" stroke="none" stroke-width="1" fill="none" fill-rule="evenodd">
        <g id="Group-8-Copy" transform="translate(2, 6)" fill="#000000">
            <path d="M15.286797,25.8604863 C14.1236076,25.8604863 13.2776516,26.7221724 13.2776516,27.9069909 C13.2776516,28.9840985 14.1236076,29.8457847 15.286797,29.8457847 C16.344242,29.8457847 17.2959424,28.9840985 17.2959424,27.9069909 C17.2959424,26.7221724 16.344242,25.8604863 15.286797,25.8604863 M15.286797,23.706271 C17.5074314,23.706271 19.4108323,25.537354 19.4108323,27.9069909 C19.4108323,30.168917 17.5074314,32 15.286797,32 C13.0661626,32 11.1627617,30.168917 11.1627617,27.9069909 C11.1627617,25.537354 13.0661626,23.706271 15.286797,23.706271" id="Fill-1"></path>
            <path d="M28.6899117,25.8604863 C27.6324668,25.8604863 26.6807663,26.7221724 26.6807663,27.9069909 C26.6807663,28.9840985 27.6324668,29.8457847 28.6899117,29.8457847 C29.7473567,29.8457847 30.6990571,28.9840985 30.6990571,27.9069909 C30.6990571,26.7221724 29.7473567,25.8604863 28.6899117,25.8604863 M28.6899117,23.706271 C30.9105461,23.706271 32.813947,25.537354 32.813947,27.9069909 C32.813947,30.168917 30.9105461,32 28.6899117,32 C26.4692774,32 24.5658764,30.168917 24.5658764,27.9069909 C24.5658764,25.537354 26.4692774,23.706271 28.6899117,23.706271" id="Fill-3"></path>
            <g id="Group-7">
                <path d="M7.59082949,6.16023406 L10.0840322,18.6662115 L32.976166,18.6662115 L36.3759879,6.16023406 L7.59082949,6.16023406 Z M5.73317346,0.24634793 C6.18648304,0.361081667 6.41313783,0.590549143 6.52646523,1.04948409 L7.13751991,3.8655593 L38.0758988,3.8655593 C38.6425358,3.8655593 39.0958454,4.43922799 38.982518,5.12763042 L34.7894044,20.2724838 C34.676077,20.7314188 34.3360948,20.9608862 33.8827852,20.9608862 L10.6506692,20.9608862 L11.1039787,22.4483123 L33.542803,22.4483123 C34.7894044,22.4483123 34.7894044,24.7429871 33.542803,24.7429871 L10.0840322,24.7429871 C9.63072261,24.7429871 9.17741303,24.3987859 9.06408563,23.9398509 L4.48657211,2.31155521 L0.787118442,2.31155521 C-0.572810301,1.967354 -0.00617332437,-0.212587022 1.24042802,0.0168804539 L5.73317346,0.24634793 Z" id="Fill-5"></path>
            </g>
        </g>
    </g>
</svg>