<?xml version="1.0" encoding="UTF-8"?>
<svg width="33px" height="33px" viewBox="0 0 33 33" version="1.1" xmlns="http://www.w3.org/2000/svg" xmlns:xlink="http://www.w3.org/1999/xlink">
    <title>Artboard Copy 12</title>
    <g id="Artboard-Copy-12" stroke="none" stroke-width="1" fill="none" fill-rule="evenodd">
        <path d="M4.50173458,25.9456583 L26.0289917,4.41840125 C26.5822344,3.86515851 27.4792181,3.86515851 28.0324608,4.41840125 L28.4982654,4.88420583 C29.0515082,5.43744856 29.0515082,6.33443226 28.4982654,6.88767499 L6.97100832,28.4149321 C6.41776559,28.9681748 5.5207819,28.9681748 4.96753916,28.4149321 L4.50173458,27.9491275 C3.94849185,27.3958848 3.94849185,26.4989011 4.50173458,25.9456583 Z" id="Rectangle" fill="#92E47F"></path>
        <path d="M6.97100832,4.41840125 L28.4982654,25.9456583 C29.0515082,26.4989011 29.0515082,27.3958848 28.4982654,27.9491275 L28.0324608,28.4149321 C27.4792181,28.9681748 26.5822344,28.9681748 26.0289917,28.4149321 L4.50173458,6.88767499 C3.94849185,6.33443226 3.94849185,5.43744856 4.50173458,4.88420583 L4.96753916,4.41840125 C5.5207819,3.86515851 6.41776559,3.86515851 6.97100832,4.41840125 Z" id="Rectangle-Copy" fill="#92E47F"></path>
    </g>
</svg>