<?xml version="1.0" encoding="UTF-8"?>
<svg width="132px" height="132px" viewBox="0 0 132 132" version="1.1" xmlns="http://www.w3.org/2000/svg" xmlns:xlink="http://www.w3.org/1999/xlink">
    <title>Group 18</title>
    <g id="Page-1" stroke="none" stroke-width="1" fill="none" fill-rule="evenodd">
        <g id="Group-18">
            <circle id="Oval" fill="#C8102E" cx="66" cy="66" r="66"></circle>
            <g id="Group-36" transform="translate(4, 3.9996)" fill="#FEFEFE">
                <path d="M67.5007855,8.36826934 L67.011201,8.31530643 L66.7812642,10.4467407 L67.3057268,10.5061625 C68.0717521,10.5862528 68.3042725,10.1276715 68.3636943,9.58124921 C68.4295751,8.95344493 68.2758533,8.45094315 67.5007855,8.36826934" id="Fill-1"></path>
                <path d="M28.2960467,23.9671388 L27.831006,24.3792161 L29.2997596,26.0378595 L29.7376729,25.650326 C30.3215573,25.1323229 30.1923793,24.5884842 29.8125961,24.1596138 C29.2790911,23.5563533 28.7430025,23.5718546 28.2960467,23.9671388" id="Fill-3"></path>
                <path d="M26.1624142,21.6743614 L25.7567954,22.032184 L26.9814025,23.4156786 L27.3753953,23.0656067 C27.8753141,22.6251103 27.8301018,22.1600701 27.4412761,21.7221572 C27.1609599,21.4043798 26.6868768,21.2093212 26.1624142,21.6743614" id="Fill-5"></path>
                <path d="M44.0814655,11.0965052 L43.5712125,11.2708953 L45.321574,16.3243322 L45.8072831,16.1576928 C46.6546906,15.8631673 46.8290809,15.4265463 46.0268857,13.1065123 C45.3732452,11.2205159 45.0451331,10.7645182 44.0814655,11.0965052" id="Fill-7"></path>
                <path d="M79.6988028,10.7922914 C78.9844486,10.5429782 78.6369599,11.1875756 77.8941866,13.3086756 C77.1501215,15.433651 77.0170682,16.1544634 77.7340059,16.4037766 C78.4677368,16.6608405 78.8165173,16.0162431 79.5605824,13.895143 C80.3046475,11.7701676 80.4338255,11.0519389 79.6988028,10.7922914" id="Fill-9"></path>
                <path d="M90.5808842,16.3145147 L90.0900079,16.0006126 L88.9609924,17.7703489 L89.4634947,18.0881264 C90.1197188,18.5105379 90.6080115,18.1268797 90.8676593,17.7199695 C91.2009384,17.2006746 91.2306493,16.726592 90.5808842,16.3145147" id="Fill-11"></path>
                <path d="M112.54256,55.1048101 C110.310365,55.5233463 108.33265,55.7442404 107.827564,53.0612168 C107.357356,50.5706681 108.92041,49.9260707 111.47555,49.4429456 C114.035857,48.9636958 115.72163,48.9946985 116.193129,51.4878307 C116.696923,54.1695626 114.774755,54.6849821 112.54256,55.1048101 L112.54256,55.1048101 Z M105.411936,44.1944501 L104.434059,41.9441723 L111.232695,37.0237885 L112.054267,38.9188274 L106.632668,42.3394564 L106.64171,42.3614167 L112.844836,40.7441102 L113.668992,42.6352737 L105.411936,44.1944501 Z M100.00713,34.4027702 L106.75022,29.7562435 L107.844357,31.3425473 L101.099975,35.9877823 L100.00713,34.4027702 Z M94.265169,27.8095335 L98.9375362,23.1061686 L97.7180962,21.8944805 L98.8174007,20.7874264 L102.626859,24.5710452 L101.526263,25.6780993 L100.302947,24.4664112 L95.631872,29.1671926 L94.265169,27.8095335 Z M92.6284842,18.5448992 C91.9864696,19.5499028 91.2656566,19.7837146 90.3949971,19.4878974 L90.3846628,19.5059823 C91.3250784,20.312052 90.9685472,20.9966945 90.3962888,21.9384009 C89.556632,23.3180202 89.5204622,23.4872432 89.6896853,23.7300975 L89.6315553,23.8166466 L87.8837773,22.7018419 C87.9070294,22.3905233 88.1046717,21.9719872 88.6032986,21.1865859 C89.3680322,19.9903992 89.3641569,19.6338683 88.8500285,19.3070484 L88.2325578,18.9117642 L86.413732,21.7627191 L84.7873814,20.7292964 L89.1910584,13.8247411 L91.9192971,15.5608912 C93.3015014,16.4444676 93.2343288,17.5967339 92.6284842,18.5448992 L92.6284842,18.5448992 Z M81.4442555,14.5545959 C80.6924398,16.6989479 79.8979952,18.5216472 77.319603,17.6199859 C74.9259352,16.7829135 75.1455377,15.1087688 76.0084466,12.6492228 C76.8700636,10.1935522 77.7407231,8.74546862 80.1330991,9.58383277 C82.7127832,10.4854941 82.1960713,12.4102438 81.4442555,14.5545959 L81.4442555,14.5545959 Z M70.3517433,9.74659684 C70.1967297,11.2101817 69.3880756,12.1609306 67.4723663,11.954246 L66.630126,11.8638216 L66.2865126,15.0454716 L64.3708033,14.8413707 L65.2453381,6.69541637 L68.2112643,7.01448563 C70.2316078,7.22892083 70.4628363,8.73255084 70.3517433,9.74659684 L70.3517433,9.74659684 Z M54.3879298,15.3865011 L53.4849758,7.24571395 L58.1935128,6.72254372 L58.3666112,8.27396952 L55.5724918,8.58270455 L55.7533409,10.2129288 L58.3769455,9.91969514 L58.5487522,11.4749963 L55.9251476,11.7669382 L56.1318324,13.6232237 L59.0512545,13.2976955 L59.2230612,14.8504131 L54.3879298,15.3865011 Z M46.4783627,17.4313863 L43.9632676,18.2994613 L41.2841165,10.5591254 L43.9852279,9.62516968 C45.784677,9.00124073 46.8775226,9.66909014 47.8063122,12.3572809 C48.7803141,15.165607 48.8759058,16.6020646 46.4783627,17.4313863 L46.4783627,17.4313863 Z M30.9279187,26.4945032 L28.7964822,28.3804996 L23.3710075,22.2419688 L25.613537,20.2590891 C26.6650457,19.3315922 27.7953529,19.2062897 28.6957234,20.2306699 C29.3299872,20.9424398 29.4449556,21.8363504 28.9592464,22.4654465 L28.973456,22.4822396 C29.4875843,22.147669 30.3440343,21.7433424 31.4510895,22.998951 C32.0905204,23.721055 32.6395268,24.9831225 30.9279187,26.4945032 L30.9279187,26.4945032 Z M23.7908359,34.6327068 C22.4900137,36.4515307 21.198234,36.0924163 19.8896612,35.1584606 L15.4265623,31.9729352 L16.5465353,30.4034245 L21.4669242,33.9170616 C21.9888032,34.2890937 22.4422179,34.3045951 22.7457861,33.8847671 C23.0441872,33.4636474 22.8827147,33.0412359 22.3608357,32.6653284 L17.4404469,29.152983 L18.5604199,27.5834723 L23.0235187,30.7702895 C24.329508,31.7042453 25.0903662,32.8100075 23.7908359,34.6327068 L23.7908359,34.6327068 Z M17.8951533,45.2394988 L10.3627859,42.0178036 L11.1223524,40.2441919 L17.2195525,42.8535842 L18.3136899,40.290696 L19.7488572,40.9055825 L17.8951533,45.2394988 Z M15.9393989,52.9436649 C15.4769417,55.3683329 13.6245296,55.2120277 11.2011509,54.7482793 C9.14076232,54.3542869 7.09845862,53.846618 7.61387871,51.1635944 C7.93165652,49.4959085 8.82815163,48.7221333 10.7193171,49.0825394 L11.0603469,49.1484201 L10.7089829,50.9737029 C9.5360469,50.7476417 8.99349943,50.7863951 8.87336392,51.4167829 C8.72739281,52.1711815 9.43528809,52.3739907 11.5434726,52.7809008 C13.9319732,53.2407739 14.5675288,53.2782355 14.7186671,52.4876672 C14.8530121,51.7901069 14.0663183,51.5588785 12.8184591,51.3095653 L13.1672396,49.4829907 L13.4475558,49.5346619 C15.1849995,49.8679407 16.3876464,50.6016708 15.9393989,52.9436649 L15.9393989,52.9436649 Z M61.8750849,3.93488604 C30.8452448,3.93488604 5.59999417,28.3947091 4.1790365,59.0731532 L17.9209889,59.0731532 C19.3212781,35.9800316 38.4292834,17.6664899 61.8750849,17.6664899 C85.3208864,17.6664899 104.4276,35.9800316 105.827889,59.0731532 L119.567258,59.0731532 C118.150176,28.3947091 92.9062168,3.93488604 61.8750849,3.93488604 L61.8750849,3.93488604 Z" id="Fill-13"></path>
                <path d="M111.846678,51.406707 C109.635151,51.8239514 108.947925,52.0693893 109.087437,52.8134537 C109.233408,53.5781864 109.963263,53.5613933 112.173499,53.1415654 C114.382442,52.7256127 115.069669,52.4814666 114.927573,51.7154421 C114.786769,50.9687942 114.055622,50.9920462 111.846678,51.406707" id="Fill-15"></path>
                <path d="M23.1445585,95.1534268 C21.3451094,96.5356296 19.6787136,97.6271824 18.0187766,95.4634536 C16.4738081,93.4521547 17.5744044,92.1745859 19.6373766,90.5869903 C21.7003488,88.9993947 23.223357,88.2669564 24.7644502,90.2756718 C26.4295543,92.441984 24.9465912,93.7686404 23.1445585,95.1534268 L23.1445585,95.1534268 Z M14.9236725,74.1943231 L14.5736002,72.5085523 L8.07982365,73.8558771 L7.68712262,71.968589 L14.1821909,70.6212641 L13.8334104,68.9354934 L15.360294,68.6190077 L16.4505561,73.8791291 L14.9236725,74.1943231 Z M17.7707549,61.7712906 C17.7707549,61.5000172 17.7862563,61.2313273 17.8043412,60.9639292 L4.07530659,60.9639292 C4.05851345,61.2313273 4.04172032,61.5000172 4.04172032,61.7712906 C4.04172032,81.881696 14.346247,99.546765 29.9264019,109.905536 L37.6887061,98.5740559 C25.7126165,90.687749 17.7707549,77.1809146 17.7707549,61.7712906 L17.7707549,61.7712906 Z" id="Fill-17"></path>
                <path d="M20.8528121,92.1699355 C19.0688644,93.5392206 18.5676538,94.0688497 19.030111,94.6708184 C19.5067777,95.2882885 20.1475004,94.9395083 21.9288646,93.5702233 C23.7128124,92.1996464 24.2166065,91.6687255 23.738648,91.0512555 C23.2787744,90.4492868 22.6341763,90.7993587 20.8528121,92.1699355" id="Fill-19"></path>
                <path d="M115.653424,73.9364841 L114.067118,73.8460596 L113.591743,75.7501409 L115.034661,76.4063643 L114.54766,78.3440318 L107.110885,74.3291847 L107.697353,71.9910659 L116.139133,71.9988166 L115.653424,73.9364841 Z M103.873685,97.7103729 C102.270586,99.5873268 100.739827,98.5345275 98.8615796,96.9314305 C97.2662316,95.5686044 95.7458069,94.1153537 97.5181287,92.0407577 C98.6226003,90.7489793 99.7839103,90.5203346 101.25008,91.770776 L101.512311,91.9955454 L100.303206,93.408751 C99.3950846,92.6311004 98.9067918,92.3934132 98.4882552,92.8829972 C97.9870447,93.4681728 98.501173,93.9965101 100.133983,95.3929225 C101.986395,96.9701839 102.514733,97.3202558 103.037903,96.7105364 C103.50036,96.1679895 102.933269,95.5802304 101.970893,94.7444498 L103.178707,93.3299525 L103.397018,93.513385 C104.740469,94.6630677 105.42382,95.8954243 103.873685,97.7103729 L103.873685,97.7103729 Z M119.676026,60.9644459 L105.945699,60.9644459 C105.962493,61.231844 105.979286,61.4992421 105.979286,61.7705156 C105.979286,77.0160837 98.207939,90.4182841 86.4411178,98.3394689 L92.7333767,110.607488 C108.924543,100.355935 119.710904,82.3485447 119.710904,61.7705156 C119.710904,61.4992421 119.694111,61.231844 119.676026,60.9644459 L119.676026,60.9644459 Z" id="Fill-21"></path>
                <polygon id="Fill-23" points="112.55199 73.7613189 108.84329 73.5546344 108.836832 73.5765946 112.212252 75.1202698"></polygon>
                <path d="M73.3043641,115.865155 C71.1160893,116.327612 70.4069023,115.188263 70.0762067,113.616169 L68.9407323,108.24883 L70.8280225,107.84967 L72.0771734,113.764723 C72.2089349,114.393819 72.5344634,114.715472 73.0395493,114.608255 C73.5446352,114.501037 73.7164419,114.077334 73.5820968,113.449529 L72.3329458,107.531893 L74.2176524,107.136609 L75.351835,112.500072 C75.6838223,114.072167 75.4952225,115.402698 73.3043641,115.865155 L73.3043641,115.865155 Z M51.1503423,115.889699 L46.5761504,114.758101 L48.5461145,106.805913 L50.4179032,107.269662 L48.8199717,113.70401 L51.5262502,114.375735 L51.1503423,115.889699 Z M84.8399568,99.3626866 C78.1446627,103.465375 70.3022681,105.874541 61.8746974,105.874541 C53.6060155,105.874541 45.9031332,103.544173 39.2918047,99.5809971 L31.5127074,110.938312 C40.3420216,116.40641 50.7253468,119.604853 61.8746974,119.604853 C72.560299,119.604853 82.5302547,116.647973 91.1141308,111.595828 L84.8399568,99.3626866 Z" id="Fill-25"></path>
                <path d="M92.8275474,73.9593486 C87.9446202,86.4973492 75.760554,95.3873679 61.4980144,95.3873679 C42.9235141,95.3873679 27.8704053,80.3291076 27.8704053,61.7572103 C27.8704053,43.1878965 42.9235141,28.1399704 61.4980144,28.1399704 C75.8832731,28.1399704 88.1590556,37.1850025 92.9593089,49.8935179 L99.584847,49.8935179 C94.5378637,33.6636147 79.3878714,21.8696783 61.4980144,21.8696783 C39.4667117,21.8696783 21.6052738,39.7336811 21.6052738,61.7572103 C21.6052738,83.7936572 39.4667117,101.652493 61.4980144,101.652493 C79.2690277,101.652493 94.319553,90.0200288 99.473754,73.9593486 L92.8275474,73.9593486 Z" id="Fill-27"></path>
                <path d="M62.4879052,33.3459664 L62.4879052,40.0205851 C63.8391068,40.0593385 65.1580138,40.2233943 66.4394593,40.5011267 L66.4394593,83.0161358 L66.4394593,89.7540517 C69.2361623,89.2644677 71.8998121,88.3628064 74.3503182,87.1201156 L74.3503182,79.5335013 L74.3503182,43.9837611 C76.4352506,45.4615555 78.2669942,47.2958808 79.716371,49.3937288 L87.1040591,49.3937288 C82.6370849,40.1678478 73.3375629,33.7205821 62.4879052,33.3459664" id="Fill-29"></path>
                <path d="M60.1380287,36.5252912 C60.1251109,34.9893668 58.8798353,33.7440925 57.3361586,33.7440925 C57.2289409,33.7440925 57.1230149,33.7505513 57.0157972,33.7725116 C56.9537918,33.7828458 56.8917864,33.7905965 56.8297809,33.8022225 C56.7432317,33.8138485 56.6515153,33.8371005 56.5636743,33.8500183 C47.8635381,35.3704414 40.5365636,40.8592076 36.5023356,48.3773576 C36.4041604,48.6602571 36.3511974,48.9586579 36.3511974,49.2738518 C36.3511974,50.7813571 37.4815046,52.0162972 38.8779185,52.0162972 C39.0833115,52.0162972 39.2744949,51.9852946 39.4682618,51.9284563 L39.4682618,69.2486205 L39.4682618,70.0004355 L39.4682618,71.6978322 C39.2744949,71.6435775 39.0833115,71.6048242 38.8779185,71.6048242 C37.4815046,71.6048242 36.3511974,72.8358889 36.3511974,74.3472696 C36.3511974,74.5888322 36.3951179,74.8252276 36.4480809,75.0448299 C40.4680993,82.6120675 47.8273682,88.1382953 56.5520483,89.672928 C56.6502236,89.6923046 56.7432317,89.707806 56.8349481,89.7258909 C56.8917864,89.731058 56.9499165,89.7401004 57.0041712,89.75431 C57.1113889,89.765936 57.2211902,89.777562 57.3322832,89.777562 C58.8798353,89.777562 60.1341534,88.5219535 60.1341534,86.9731112 C60.1341534,86.9356496 60.1380287,36.6467184 60.1380287,36.6467184 L60.1380287,36.5679199 C60.1380287,36.561461 60.1457794,36.5562939 60.1457794,36.5550022 C60.1457794,36.5395008 60.1380287,36.5343337 60.1380287,36.5252912 L60.1380287,36.5252912 Z M45.6726797,46.5081544 C47.6180999,44.4400172 49.9639718,42.7607054 52.5966189,41.5761446 L52.5966189,81.280244 C49.9639718,80.1047257 47.6180999,78.4215385 45.6726797,76.3559849 L45.6726797,46.5081544 Z" id="Fill-31"></path>
                <g id="Group-35">
                    <path d="M62.0002584,1.46358487 C28.6193792,1.46358487 1.4635864,28.6206412 1.4635864,62.0001938 C1.4635864,95.3810382 28.6193792,122.536803 62.0002584,122.536803 C95.3811375,122.536803 122.53693,95.3810382 122.53693,62.0001938 C122.53693,28.6206412 95.3811375,1.46358487 62.0002584,1.46358487 M62.0002584,124.000388 C27.8133087,124.000388 0,96.1871078 0,62.0001938 C0,27.8132797 27.8133087,0 62.0002584,0 C96.187208,0 124.000517,27.8132797 124.000517,62.0001938 C124.000517,96.1871078 96.187208,124.000388 62.0002584,124.000388" id="Fill-33"></path>
                </g>
            </g>
        </g>
    </g>
</svg>