<?xml version="1.0" encoding="UTF-8"?>
<svg width="114px" height="114px" viewBox="0 0 114 114" version="1.1" xmlns="http://www.w3.org/2000/svg" xmlns:xlink="http://www.w3.org/1999/xlink">
    <title>Group 44</title>
    <g id="Page-1" stroke="none" stroke-width="1" fill="none" fill-rule="evenodd">
        <g id="Group-44">
            <ellipse id="Oval" fill="#C8102E" cx="56.7832957" cy="56.7985075" rx="56.7832957" ry="56.7985075"></ellipse>
            <g id="Group" transform="translate(11.8849, 11.8881)" fill="#FFFFFF">
                <path d="M80.8073035,59.5019886 C75.2685326,73.8281141 61.4448217,83.9863618 45.2653565,83.9863618 C24.1895988,83.9863618 7.11085318,66.782416 7.11085318,45.568033 C7.11085318,24.3526957 24.1895988,7.15542925 45.2653565,7.15542925 C61.586963,7.15542925 75.5187012,17.4911553 80.9551304,32.0128886 L88.476298,32.0128886 C82.744215,13.4664053 65.5602848,0 45.2653565,0 C20.2646049,0 0,20.4033263 0,45.568033 C0,70.7403732 20.2646049,91.141791 45.2653565,91.141791 C65.4247768,91.141791 82.5016272,77.8509557 88.3512137,59.5019886 L80.8073035,59.5019886 Z" id="Fill-1"></path>
                <path d="M46.3843872,13.1114486 L46.3843872,20.7306115 C47.9223556,20.7802291 49.4157863,20.9701118 50.8713128,21.2830843 L50.8713128,69.8491649 L50.8713128,77.5465709 C54.0439056,76.9874188 57.0620382,75.9645331 59.8423212,74.5380273 L59.8423212,65.872124 L59.8423212,25.2601252 C62.2122897,26.9471233 64.2866044,29.0415582 65.9344954,31.4422863 L74.3160914,31.4422863 C69.2444914,20.9004564 58.6928722,13.5312898 46.3843872,13.1114486" id="Fill-4"></path>
                <path d="M43.7224605,16.7410709 C43.7072988,14.9825089 42.2868338,13.5607741 40.5384964,13.5607741 C40.4162549,13.5607741 40.3034895,13.5750869 40.1793528,13.5932164 C40.1092298,13.606575 40.0419496,13.6161168 39.970879,13.6285212 C39.8704325,13.6447423 39.7671432,13.6657344 39.6666967,13.6800472 C29.7954603,15.422388 21.4820921,21.6961508 16.8994581,30.2799942 C16.7942736,30.599646 16.7307838,30.9469691 16.7307838,31.3038341 C16.7307838,33.0270912 18.0157407,34.4364217 19.6001419,34.4364217 C19.8313584,34.4364217 20.0512035,34.3963459 20.2710487,34.3381407 L20.2710487,54.1231554 L20.2710487,54.9819214 L20.2710487,56.91987 C20.0512035,56.8568939 19.8313584,56.8139556 19.6001419,56.8139556 C18.0157407,56.8139556 16.7307838,58.2223318 16.7307838,59.9513141 C16.7307838,60.2261192 16.7743738,60.4913825 16.8397588,60.7432872 C21.4005978,69.3872442 29.7509228,75.7048995 39.6543778,77.4567821 C39.7595623,77.4739575 39.8704325,77.4959037 39.9737218,77.513079 C40.0419496,77.523575 40.1054394,77.5331169 40.1613483,77.5474297 C40.2864326,77.5607882 40.4115169,77.575101 40.5337584,77.575101 C42.2868338,77.575101 43.7148796,76.1438243 43.7148796,74.3709496 C43.7148796,74.331828 43.7224605,16.8765651 43.7224605,16.8765651 L43.7224605,16.7925969 C43.7224605,16.7840092 43.7300414,16.7773299 43.7300414,16.7696964 C43.7300414,16.7553837 43.7224605,16.7496586 43.7224605,16.7410709 L43.7224605,16.7410709 Z M27.3060932,28.1445294 C29.5159159,25.7781519 32.1758526,23.8611953 35.1598713,22.5091159 L35.1598713,67.8729534 C32.1758526,66.5246908 29.5159159,64.6039175 27.3060932,62.2432651 L27.3060932,28.1445294 Z" id="Fill-6"></path>
            </g>
        </g>
    </g>
</svg>