<?xml version="1.0" encoding="UTF-8"?>
<svg width="44px" height="29px" viewBox="0 0 44 29" version="1.1" xmlns="http://www.w3.org/2000/svg" xmlns:xlink="http://www.w3.org/1999/xlink">
    <title>Group 8</title>
    <defs>
        <polygon id="path-1" points="0 0 44 0 44 29 0 29"></polygon>
    </defs>
    <g id="Page-1" stroke="none" stroke-width="1" fill="none" fill-rule="evenodd">
        <g id="Champion_Product-detail-page" transform="translate(-989, -838)">
            <g id="Group-3" transform="translate(989, 838)">
                <mask id="mask-2" fill="white">
                    <use xlink:href="#path-1"></use>
                </mask>
                <g id="Clip-2"></g>
                <path d="M42.2600596,17.9156662 C41.723359,17.9156662 41.1983953,17.9011911 40.6744987,17.9199779 C40.2085249,17.9367628 39.8751639,18.2502872 39.8146498,18.6811522 C39.7606901,19.0653582 40.0065572,19.4769744 40.3865614,19.5967789 C40.5330451,19.642976 40.696296,19.6454399 40.8522303,19.6475957 C41.3082963,19.6537553 41.7643622,19.6497516 42.250609,19.6497516 L42.250609,22.7334085 C42.1596092,22.742648 42.051385,22.7629747 41.9433132,22.7631287 C40.826165,22.7654385 39.7090168,22.7588169 38.5918686,22.7694423 C38.3652075,22.7715981 38.2481425,22.7076921 38.1324492,22.4936455 C37.2879956,20.9307974 35.9871711,20.0675274 34.21016,20.0647556 C32.4180586,20.0618298 31.1114418,20.9269476 30.2343685,22.4941075 C30.1631844,22.6211496 29.9699051,22.7428019 29.8260126,22.7525033 C29.3444911,22.7845333 28.8596162,22.7646686 28.3535537,22.7646686 L28.3535537,5.23409811 L31.3129523,5.23409811 C31.3129523,5.40379549 31.312495,5.56948911 31.3131047,5.73533673 C31.3184397,7.26877273 31.2620412,8.8057505 31.3428282,10.3351827 C31.4877877,13.0775971 33.5185921,14.9836897 36.2382207,15.0054024 C38.0713254,15.0200314 39.9045826,15.0083282 41.7378397,15.0084822 C41.9056634,15.0084822 42.0733347,15.0084822 42.2600596,15.0084822 L42.2600596,17.9156662 Z M34.1787598,27.2676547 C32.7002037,27.2576453 31.4751361,26.0117093 31.4763547,24.5195427 C31.477575,23.0164428 32.6892289,21.7968392 34.1847045,21.7931356 C35.689021,21.7896016 36.8880233,22.9881086 36.8967591,24.5044517 C36.9055526,26.0295722 35.6775889,27.277972 34.1787598,27.2676547 L34.1787598,27.2676547 Z M33.0901157,5.24118167 C35.2085665,5.08303357 37.1994346,5.31586699 38.5662607,7.26646287 C38.9366618,7.79511177 39.2843511,8.34685923 39.5800624,8.9207813 C40.3048597,10.3271752 40.9935315,11.752664 41.6960743,13.1695293 C41.6447059,13.2295855 41.6355602,13.2492963 41.6267193,13.2492963 C39.6260958,13.2402109 37.6224236,13.2925676 35.6257632,13.1964776 C34.3726488,13.1362674 33.1888894,11.9810317 33.1166383,10.7203126 C33.0128345,8.90969399 33.0901157,7.08845002 33.0901157,5.24118167 L33.0901157,5.24118167 Z M26.5834019,22.7646686 L26.1389205,22.7646686 C23.2889656,22.7646686 20.4388582,22.7603568 17.5889032,22.7709822 C17.2948687,22.7720601 17.1491471,22.6819758 16.9994623,22.4143405 C16.1414425,20.8795186 14.8333015,20.0504345 13.0751916,20.0633697 C11.3372022,20.0761509 10.0467429,20.9073909 9.20030763,22.4286616 C9.06281716,22.6755082 8.93355782,22.7785277 8.64592531,22.7725221 C7.64523245,22.7520414 6.64377745,22.7646686 5.59400263,22.7646686 L5.59400263,18.8060384 C6.24868288,18.8060384 6.88979699,18.8174337 7.53045382,18.8023426 C8.04352803,18.7901774 8.37948036,18.4906662 8.42536132,18.0468659 C8.48206471,17.4981983 8.12446754,17.0972074 7.52222268,17.0788825 C6.89406499,17.0597877 6.26499273,17.0747248 5.6066542,17.0747248 L5.6066542,13.1205604 C5.86044759,13.1205604 6.10006513,13.1205604 6.33953024,13.1205604 C7.8147329,13.1205604 9.28978314,13.1231782 10.7649858,13.1193284 C11.4028989,13.1176345 11.7775681,12.7933309 11.7822934,12.2568284 C11.7868662,11.7100087 11.4233243,11.3867829 10.7832772,11.385397 C9.22225733,11.3820092 7.66123744,11.3841651 6.10021756,11.3841651 L5.60634934,11.3841651 L5.60634934,7.41829737 C6.17018222,7.41829737 6.72456454,7.4226091 7.27879443,7.41721943 C7.91320169,7.41090583 8.3041807,7.08352232 8.31073512,6.56411284 C8.3175944,6.03084423 7.91015312,5.68759972 7.25623502,5.68298001 C6.71465669,5.67928424 6.17307836,5.68221006 5.60436777,5.68221006 L5.60436777,1.74021085 C6.45324188,1.74021085 25.8314723,1.73759302 26.5834019,1.73759302 L26.5834019,22.7646686 Z M13.095617,27.2675171 C11.6105065,27.262265 10.3974808,26.0303421 10.3948858,24.5249324 C10.3924506,23.0155189 11.5945015,21.7979171 13.092416,21.7925084 C14.5933791,21.7869838 15.8053378,22.9928823 15.8136117,24.5001399 C15.8219525,26.0271083 14.5985616,27.2727363 13.095617,27.2675171 L13.095617,27.2675171 Z M42.5286385,10.9740887 C41.7783856,9.52950519 41.0746234,8.05458553 40.2332183,6.66528451 C38.9346802,4.52143073 36.9605792,3.50139859 34.4814827,3.48445965 C32.5910649,3.47152446 30.7004947,3.47737609 28.8100769,3.47321836 C28.65963,3.47291037 28.5093356,3.46059115 28.3279457,3.45242966 C28.3279457,3.24300277 28.3279457,3.08547063 28.3279457,2.92793849 C28.3277933,2.29118836 28.3352622,1.65443822 28.3253544,1.01799607 C28.314532,0.317339935 28.0073886,0.0119770529 27.3264907,0.00181368923 C27.1260473,-0.0011121276 26.9254514,0.00119772779 26.7248555,0.00119772779 C25.9842056,0.00119772779 5.81517633,-0.00219006011 4.87423543,0.00242965066 C4.15446823,0.00597142892 3.86073859,0.305020706 3.85890944,1.03478102 C3.85570845,2.42377406 3.85799487,3.8127671 3.85799487,5.20176014 C3.85799487,5.35328665 3.85799487,5.50481316 3.85799487,5.68221006 C3.50268413,5.68221006 3.21703319,5.68190208 2.93153468,5.68221006 C2.27273886,5.68282602 1.61333333,5.66727299 0.95529966,5.68990957 C0.437347745,5.70777246 0.0750252893,6.10568354 0.0913351348,6.58135976 C0.107187695,7.05087637 0.454267304,7.39088708 0.965359939,7.41167578 C1.35146123,7.42753679 1.73862953,7.41798938 2.12518811,7.41845136 C2.69283171,7.41906732 3.2604753,7.41860535 3.8227839,7.41860535 L3.8227839,11.3843191 C3.41656205,11.3843191 3.04509388,11.3806233 2.67393058,11.385243 C2.06650315,11.3927885 1.70753412,11.7140124 1.70570498,12.2445092 C1.70372341,12.7691544 2.07138086,13.1076252 2.66783344,13.1190205 C3.05027645,13.126258 3.43302432,13.1204064 3.82324118,13.1204064 L3.82324118,17.072107 C3.4462856,17.072107 3.10377884,17.071953 2.76127208,17.072261 C2.1454611,17.0728769 1.52919282,17.0600957 0.913991547,17.0787286 C0.35153052,17.0956675 -0.0107919351,17.4624725 -5.96321169e-05,17.9607853 C0.011005335,18.4469329 0.361133513,18.7784741 0.907132266,18.8040365 C1.17860736,18.8168177 1.45130188,18.8083483 1.72338668,18.8085023 C2.42166147,18.8088102 3.11993626,18.8086562 3.85799487,18.8086562 L3.85799487,19.3299136 C3.85799487,20.7189067 3.8549463,22.1078997 3.85936673,23.4968927 C3.86165316,24.1839977 4.17885679,24.4944423 4.86463244,24.5009099 C5.02224347,24.5022958 5.17970207,24.5010639 5.3373131,24.5010639 C6.43662717,24.5010639 7.53609367,24.5010639 8.62793875,24.5010639 C9.11327098,27.3880751 10.6896861,28.9835692 13.0643692,29 C14.131216,29.0071298 15.0939541,28.6686589 15.9170678,27.9758563 C16.9764456,27.0842521 17.4936354,25.9166972 17.5495767,24.5204667 L29.7185505,24.5204667 C30.285432,27.4342722 31.7298441,28.9252069 34.0693162,28.9974284 C35.0730576,29.0283804 35.9961643,28.7422663 36.8034255,28.1333885 C37.9906908,27.2377805 38.5773879,26.0141731 38.634701,24.5010639 C40.0589926,24.5010639 41.4463965,24.4819691 42.8327333,24.5109192 C43.3625747,24.5218526 43.7488284,24.3661683 44.0000305,23.8934179 L44.0000305,13.908683 C43.5104303,12.9299203 43.0328719,11.944998 42.5286385,10.9740887 L42.5286385,10.9740887 Z" id="Fill-1" fill="#000000" mask="url(#mask-2)"></path>
            </g>
        </g>
    </g>
</svg>