<?xml version="1.0" encoding="UTF-8"?>
<svg id="Capa_1" data-name="Capa 1" xmlns="http://www.w3.org/2000/svg" version="1.1" viewBox="0 0 29 29">
  <defs>
    <style>
      .cls-1 {
        fill: none;
      }

      .cls-1, .cls-2 {
        stroke-width: 0px;
      }

      .cls-2 {
        fill: #000;
      }
    </style>
  </defs>
  <g id="Page-1">
    <g id="Group-5">
      <path id="Fill-1" class="cls-2" d="M20.6,18.8l-.4.4c-.6.6-2,.5-2.8.4-2.9-.6-6.3-3.9-7-6.7-.3-1.4-.1-2.6.3-3.1l.4-.4c.2-.2.6-.2.8,0l1.7,1.7c.1.1.2.3.2.4s0,.3-.2.4l-.4.4c-.5.5-.5,1.2,0,1.7l2.8,2.7c.5.5,1.2.5,1.7,0l.4-.4c.2-.2.6-.2.8,0l1.7,1.7c.2.2.2.6,0,.8M6,15c0,1.6.4,3.2,1.3,4.6l-1.3,4.4,4.4-1.3c1.4.8,3,1.3,4.6,1.3,4.9,0,9-4.1,9-9s-4.1-9-9-9S6,10.1,6,15Z"/>
      <rect id="Rectangle-Copy-3" class="cls-1" width="29" height="29"/>
    </g>
  </g>
</svg>