<?xml version="1.0" encoding="UTF-8"?>
<svg width="68px" height="68px" viewBox="0 0 68 68" version="1.1" xmlns="http://www.w3.org/2000/svg" xmlns:xlink="http://www.w3.org/1999/xlink">
    <title>icons copy</title>
    <defs>
        <polygon id="path-1" points="0 0 24.65 0 24.65 24.65 14.948183 24.65 0 24.65"></polygon>
        <polygon id="path-3" points="0 0 41.65 0 41.65 51 0 51"></polygon>
    </defs>
    <g id="icons-copy" stroke="none" stroke-width="1" fill="none" fill-rule="evenodd">
        <g id="Group-7" transform="translate(9, 9)">
            <g id="Group-3" transform="translate(0, 26.35)">
                <mask id="mask-2" fill="white">
                    <use xlink:href="#path-1"></use>
                </mask>
                <g id="Clip-2"></g>
                <path d="M19.0509364,9.86801583 L11.3594929,17.5780116 C10.9836377,17.9562398 10.4903598,18.1448399 9.99554359,18.1448399 C9.50021462,18.1448399 9.00693671,17.9562398 8.62954322,17.5780116 L5.48528112,14.4303929 C4.72998137,13.6739366 4.72998137,12.4457229 5.48528112,11.6908083 C6.24109363,10.9333242 7.46352039,10.9333242 8.21882014,11.6908083 L9.99554359,13.4688917 L16.3194484,7.12997294 C17.0747482,6.37300275 18.2956366,6.37300275 19.0509364,7.12997294 C19.8098255,7.88591534 19.8098255,9.11310123 19.0509364,9.86801583 M-0.00025638145,12.355277 C-0.00025638145,23.4338672 13.4843824,28.795354 21.0958348,20.8787717 C30.8367916,10.7729883 18.7386638,-4.79551943 6.6671996,1.42366133 C2.71020831,3.46537387 -0.00025638145,7.58836901 -0.00025638145,12.355277 Z" id="Fill-1" fill="#DA1B5C" mask="url(#mask-2)"></path>
            </g>
            <g id="Group-6" transform="translate(9.35, 0)">
                <mask id="mask-4" fill="white">
                    <use xlink:href="#path-3"></use>
                </mask>
                <g id="Clip-5"></g>
                <path d="M18.1113077,1.1151979 C6.579675,12.5128651 0,0.403290877 0,13.8360003 C0,17.239662 0.420536431,20.7409362 1.22412558,24.1941708 C13.107489,22.5925078 22.8743064,36.7841418 14.7819326,47.2900087 C16.31363,48.5727701 17.9469955,49.732366 19.6994874,50.7115576 C20.399868,51.096897 21.2501834,51.096897 21.9459427,50.7084912 C34.6282739,43.6251952 41.6500513,27.8906701 41.6500513,13.8360003 C41.6500513,0.403290877 35.0708898,12.5128651 23.5356628,1.1151979 C22.0347739,-0.369943385 19.6121966,-0.373520807 18.1113077,1.1151979 Z" id="Fill-4" fill="#DA1B5C" mask="url(#mask-4)"></path>
            </g>
        </g>
    </g>
</svg>