<?xml version="1.0" encoding="UTF-8"?>
<svg width="68px" height="68px" viewBox="0 0 68 68" version="1.1" xmlns="http://www.w3.org/2000/svg" xmlns:xlink="http://www.w3.org/1999/xlink">
    <title>icons</title>
    <defs>
        <polygon id="path-1" points="0 0 36 0 36 27 0 27"></polygon>
        <polygon id="path-3" points="0 0 43 0 43 43 0 43"></polygon>
    </defs>
    <g id="icons" stroke="none" stroke-width="1" fill="none" fill-rule="evenodd">
        <g id="Group-11" transform="translate(7, 6)">
            <g id="Group-3" transform="translate(18, 0)">
                <mask id="mask-2" fill="white">
                    <use xlink:href="#path-1"></use>
                </mask>
                <g id="Clip-2"></g>
                <path d="M4.64758714,19.8142301 L15.2455875,7.29754673 C17.3802044,7.86269378 19.6644028,7.60659354 21.6083766,6.56320088 L28.7542691,12.3861722 C28.0579816,14.4505128 28.2169487,16.6921092 29.163712,18.6448016 L24.8293662,23.7639289 C25.6693693,24.7227221 26.3269416,25.8133063 26.7375577,27 L35.3405506,16.8377123 C36.3483197,15.6464145 36.1829001,13.8790351 34.9686498,12.8897401 L19.9436218,0.646997586 C18.7293714,-0.342297497 16.9273535,-0.178853748 15.920171,1.012444 L0,19.8142301 L4.64758714,19.8142301 Z" id="Fill-1" fill="#DA1B5C" mask="url(#mask-2)"></path>
            </g>
            <g id="Group-6" transform="translate(0, 11)">
                <mask id="mask-4" fill="white">
                    <use xlink:href="#path-3"></use>
                </mask>
                <g id="Clip-5"></g>
                <path d="M33.6231019,28.779433 L33.6231019,25.9753388 C33.6231019,23.0522623 36.0416701,20.673759 39.0165787,20.673759 L43,20.673759 L43,19.3603766 C43,15.221163 39.1038706,11.8662034 34.2987414,11.8662034 L7.99303018,11.8662034 C5.53779943,11.8662034 3.54521586,9.90814252 3.54521586,7.49531733 C3.54521586,5.28441895 5.85845175,3.48595465 8.70067668,3.48595465 L20.0486263,3.48595465 L22.9950196,0 L8.70067668,0 C3.89438354,0 0,3.35438761 0,7.49531733 L0,11.8662034 L0,23.6403098 L0,35.5065132 C0,39.6451548 3.89438354,43.0001144 8.70067668,43.0001144 L34.2987414,43.0001144 C39.1038706,43.0001144 43,39.6451548 43,35.5065132 L43,34.0821569 L39.0165787,34.0821569 C36.0416701,34.0821569 33.6231019,31.7030815 33.6231019,28.779433" id="Fill-4" fill="#DA1B5C" mask="url(#mask-4)"></path>
            </g>
            <path d="M39.6386056,39.8141085 C38.6108164,39.8141085 37.7769165,39.0012638 37.7769165,37.9994256 C37.7769165,36.9981618 38.6108164,36.1853171 39.6386056,36.1853171 C40.6658053,36.1853171 41.4997053,36.9981618 41.4997053,37.9994256 C41.4997053,39.0012638 40.6658053,39.8141085 39.6386056,39.8141085 M38.6838932,33 C36.6495308,33 35,34.6084559 35,36.5914522 L35,39.4073989 C35,41.3921186 36.6495308,43 38.6838932,43 L44.3161068,43 C46.3504692,43 48,41.3921186 48,39.4073989 L48,36.5914522 C48,34.6084559 46.3504692,33 44.3161068,33 L38.6838932,33 Z" id="Fill-7" fill="#DA1B5C"></path>
            <path d="M33.6160045,15 C30.2454404,15 27.3589707,17.0591039 26,20.0169392 L34.2725859,20.0169392 C37.2817758,20.0169392 40.0082002,21.157366 42,23 C41.615439,18.5227689 38.0311042,15 33.6160045,15" id="Fill-9" fill="#DA1B5C"></path>
        </g>
    </g>
</svg>