<?xml version="1.0" encoding="UTF-8"?>
<svg width="33px" height="33px" viewBox="0 0 33 33" version="1.1" xmlns="http://www.w3.org/2000/svg" xmlns:xlink="http://www.w3.org/1999/xlink">
    <title>Artboard Copy 10</title>
    <g id="Artboard-Copy-10" stroke="none" stroke-width="1" fill="none" fill-rule="evenodd">
        <path d="M5.26163603,7 C5.35586556,7.10136483 5.41530978,7.17036619 5.48001044,7.23425351 C8.94246236,10.6540953 12.4050689,14.0737843 15.8685257,17.4927101 C16.5915962,18.2065384 17.4116018,18.2053171 18.1368368,17.4893517 C21.6002163,14.0703495 25.0628228,10.6505841 28.5251974,7.23058972 C28.5890478,7.16746569 28.6467141,7.09815901 28.7362282,7 L5.26163603,7 Z M4.1269394,8.18592271 C4.08921667,8.21538568 4.05141664,8.24484865 4.0136166,8.27431162 C4.00905586,8.37399721 4.00055279,8.47375914 4.00055279,8.57352106 C3.99990117,14.8583695 3.99990117,18.1328809 4.00016629,24.4178057 C4.00024359,25.4158066 4.59383548,25.9993413 5.6125038,25.9994176 C13.2038941,26.0001809 20.7952843,26.0001809 28.3866746,25.9994939 C29.4047245,25.9993413 29.9997078,25.4149669 29.9997851,24.418111 C30.0001105,18.1332626 30.0001105,14.8586748 29.9994759,8.57382637 C29.9994759,8.47429344 29.9905863,8.37483683 29.9859483,8.2753039 C29.9486894,8.2468332 29.911585,8.21828618 29.8744034,8.18973916 C29.8171236,8.28736387 29.7780095,8.40284955 29.7000131,8.48001811 C26.273506,11.8696336 22.8466897,15.2589438 19.4087421,18.6371099 C19.107424,18.9331135 18.759571,19.2117141 18.3825756,19.3984147 C17.1130666,20.0272888 15.7099047,19.7488409 14.6463247,18.6993943 C11.1951587,15.2939787 7.74569328,11.8869603 4.2988561,8.47727027 C4.22109162,8.40025437 4.18336889,8.28385274 4.1269394,8.18592271 L4.1269394,8.18592271 Z" id="Fill-3" fill="#042868"></path>
    </g>
</svg>