<?xml version="1.0" encoding="UTF-8"?>
<svg width="25px" height="25px" viewBox="0 0 25 25" version="1.1" xmlns="http://www.w3.org/2000/svg" xmlns:xlink="http://www.w3.org/1999/xlink">
    <title>Artboard Copy 6</title>
    <g id="Artboard-Copy-6" stroke="none" stroke-width="1" fill="none" fill-rule="evenodd">
        <path d="M22,21 C21.9095477,21 21.8190955,21 21.8190955,21 C20.1909548,21 18.4723618,21 16.8442211,21 C16.6633166,21 16.6633166,21 16.5728643,20.8191489 C15.0351759,18.7393617 13.4070352,16.6595745 11.8693467,14.5797872 C11.7788945,14.4893617 11.7788945,14.3989362 11.6884422,14.3989362 C11.3266332,14.7606383 10.9648241,15.1223404 10.6934673,15.4840426 C9.06532663,17.2925532 7.34673367,19.1010638 5.71859296,20.8191489 C5.6281407,20.9095745 5.53768844,21 5.35678392,21 C4.90452261,21 4.45226131,21 4,21 C6.35175879,18.4680851 8.70351759,15.9361702 11.0552764,13.4042553 C8.61306533,10.2393617 6.26130653,7.16489362 4,4.09042553 C4.09045226,4.09042553 4.09045226,4.09042553 4.18090452,4.09042553 C5.89949749,4.09042553 7.52763819,4.09042553 9.24623116,4.09042553 C9.33668342,4.09042553 9.42713568,4.09042553 9.51758794,4.18085106 C10.9648241,6.07978723 12.4120603,8.06914894 13.8592965,9.96808511 C13.8592965,10.0585106 13.9497487,10.0585106 14.040201,10.1489362 C14.040201,10.0585106 14.1306533,9.96808511 14.1306533,9.96808511 C15.9396985,8.06914894 17.7487437,6.07978723 19.4673367,4.18085106 C19.5577889,4.09042553 19.6482412,4 19.8291457,4 C20.1909548,4 20.5527638,4 20.9145729,4 C21.0050251,4 21.0050251,4 21.0954774,4 C18.9246231,6.35106383 16.7537688,8.70212766 14.5829146,11.0531915 C17.1155779,14.3989362 19.5577889,17.6542553 22,21 Z M19.6482412,19.8244681 C19.5577889,19.7340426 19.5577889,19.643617 19.5577889,19.643617 C18.3819095,18.0159574 17.1155779,16.3882979 15.9396985,14.7606383 C13.4974874,11.5957447 11.2361809,8.43085106 8.88442211,5.35638298 C8.79396985,5.26595745 8.70351759,5.17553191 8.61306533,5.17553191 C7.88944724,5.17553191 7.16582915,5.17553191 6.53266332,5.17553191 C6.44221106,5.17553191 6.44221106,5.17553191 6.35175879,5.17553191 C6.35175879,5.26595745 6.35175879,5.35638298 6.44221106,5.35638298 C8.97487437,8.70212766 11.4170854,12.0478723 13.9497487,15.393617 C15.0351759,16.8404255 16.0301508,18.1968085 17.1155779,19.643617 C17.1155779,19.7340426 17.2060302,19.7340426 17.2964824,19.7340426 C18.1105528,19.8244681 18.8341709,19.8244681 19.6482412,19.8244681 Z" id="Shape" fill="#042868" fill-rule="nonzero"></path>
    </g>
</svg>