<?xml version="1.0" encoding="UTF-8"?>
<svg width="43px" height="43px" viewBox="0 0 43 43" version="1.1" xmlns="http://www.w3.org/2000/svg" xmlns:xlink="http://www.w3.org/1999/xlink">
    <title>Artboard Copy 11</title>
    <defs>
        <polygon id="path-1" points="0 0 29 0 29 36 0 36"></polygon>
    </defs>
    <g id="Artboard-Copy-11" stroke="none" stroke-width="1" fill="none" fill-rule="evenodd">
        <g id="Group-3" transform="translate(7, 4)">
            <mask id="mask-2" fill="white">
                <use xlink:href="#path-1"></use>
            </mask>
            <g id="Clip-2"></g>
            <path d="M14.5060308,22.0642579 C15.3945654,22.0642579 16.0860946,22.7566426 16.0860946,23.6371317 C16.0860946,24.5136187 15.3945654,25.1979989 14.5060308,25.1979989 C13.6174962,25.1979989 12.917926,24.5136187 12.917926,23.6371317 C12.917926,22.7566426 13.6174962,22.0642579 14.5060308,22.0642579 M14.5060308,19.9470817 C12.4716484,19.9470817 10.7910717,21.6120067 10.7910717,23.6371317 C10.7910717,25.2940523 11.9168169,26.7028349 13.4365729,27.1590884 L13.4365729,29.0761534 C13.4405934,29.660478 13.9190351,30.1327404 14.5060308,30.1327404 L14.5060308,30.1327404 C15.089006,30.1287382 15.5634271,29.660478 15.5674477,29.0761534 L15.5674477,27.1630906 C17.0912242,26.7068371 18.2129488,25.2940523 18.2129488,23.6371317 C18.2129488,21.6120067 16.5404131,19.9470817 14.5060308,19.9470817 M3.83557466,16.1929961 L6.24386524,16.1929961 L22.5792319,16.1929961 L25.1764869,16.1929961 C26.1414113,16.1929961 26.8731457,16.9294052 26.8731457,17.8819344 L26.8731457,32.1978877 C26.8731457,33.1504169 26.1414113,33.8828238 25.1764869,33.8828238 L3.83557466,33.8828238 C2.87065021,33.8828238 2.13087481,33.1504169 2.13087481,32.1978877 L2.13087481,17.8819344 C2.13087481,16.9294052 2.87065021,16.1929961 3.83557466,16.1929961 M14.4135589,2.11717621 C18.3657285,2.11717621 21.5178151,5.24291273 21.5178151,9.16509172 L21.5178151,14.0758199 L7.31332317,14.0758199 L7.31332317,9.16509172 C7.31332317,5.24291273 10.4573686,2.11717621 14.4135589,2.11717621 M14.4135589,0 C9.3195619,0 5.18646888,4.10227904 5.18646888,9.16509172 L5.18646888,14.0758199 L3.83557466,14.0758199 C1.73284348,14.0758199 0,15.7887715 0,17.8819344 L0,32.1978877 C0,34.2870484 1.73284348,36 3.83557466,36 L25.1764869,36 C27.2792181,36 29,34.2870484 29,32.1978877 L29,17.8819344 C29,15.7887715 27.2792181,14.0758199 25.1764869,14.0758199 L23.6446693,14.0758199 L23.6446693,9.16509172 C23.6446693,4.10227904 19.5075558,0 14.4135589,0" id="Fill-1" fill="#000000" mask="url(#mask-2)"></path>
        </g>
    </g>
</svg>