<?xml version="1.0" encoding="UTF-8"?>
<svg width="78px" height="77px" viewBox="0 0 78 77" version="1.1" xmlns="http://www.w3.org/2000/svg" xmlns:xlink="http://www.w3.org/1999/xlink">
    <title>zzzz </title>
    <g id="zzzz-" stroke="none" stroke-width="1" fill="none" fill-rule="evenodd">
        <path d="M51.6000244,58.50918 C53.0849285,58.50918 54.3474556,57.7659146 55.088712,56.651615 C55.8311641,57.8401215 57.1678168,58.6575937 58.6515253,58.6575937 C61.0271326,58.6575937 62.8838605,56.7258218 62.8838605,54.4230157 C62.8838605,52.1190126 60.953007,50.1872407 58.6515253,50.1872407 C57.1678168,50.1872407 55.9064853,50.9305061 55.1628377,52.0448058 C54.4203856,50.8551024 53.0849285,50.038827 51.6000244,50.038827 C49.2256126,50.038827 47.3700804,51.9705989 47.3700804,54.2734051 C47.3700804,56.5774081 49.2997383,58.50918 51.6000244,58.50918" id="Fill-1" fill="#F28400"></path>
        <path d="M69.4970977,37.8337264 L42.1721596,37.8337264 L42.1721596,32.8159779 L67.4274445,32.8159779 C68.6409668,32.8159779 69.5683461,33.7346084 69.5683461,34.9366824 L69.5683461,37.8337264 L69.4970977,37.8337264 Z M69.4970977,62.6401632 C69.4970977,63.7705226 68.5685692,64.7597294 67.3573452,64.7597294 L23.3372813,64.7597294 C22.1950075,64.7597294 21.1963797,63.8410989 21.1963797,62.6401632 L21.1963797,53.0281243 L35.5368584,53.0281243 C39.1751271,53.0281243 42.099762,50.1310803 42.099762,46.5271349 L42.099762,45.1839082 L69.4970977,45.1839082 L69.4970977,62.6401632 Z M12.5638229,48.7878537 C11.2802013,48.7878537 10.2091758,47.7269323 10.2091758,46.4554202 L10.2091758,30.5541208 C10.2091758,29.2826088 11.2802013,28.2228257 12.5638229,28.2228257 L35.5368584,28.2228257 C36.82048,28.2228257 37.8915054,29.2826088 37.8915054,30.5541208 L37.8915054,46.5271349 C37.8915054,47.7986469 36.82048,48.8595683 35.5368584,48.8595683 L12.5638229,48.8595683 L12.5638229,48.7878537 Z M17.4857133,19.7411462 C17.4857133,16.1372007 20.4114973,13.2401568 24.0497661,13.2401568 C27.689184,13.2401568 30.6138188,16.1372007 30.6138188,19.7411462 L30.6138188,24.0531314 L17.4857133,24.0531314 L17.4857133,19.7411462 Z M67.3573452,28.5757073 L41.8147681,28.5757073 C40.9586372,25.9609686 38.5338909,24.0531314 35.6081068,24.0531314 L34.894473,24.0531314 L34.894473,19.7411462 C34.894473,13.8059056 30.0426819,8.99988617 24.0497661,8.99988617 C18.0568503,8.99988617 13.2062083,13.8059056 13.2062083,19.7411462 L13.2062083,24.0531314 L12.5638229,24.0531314 C8.92555418,24.0531314 5.99977017,26.9501754 5.99977017,30.5541208 L5.99977017,46.5271349 C5.99977017,50.1310803 8.92555418,53.0281243 12.5638229,53.0281243 L16.986974,53.0281243 L16.986974,62.6401632 C16.986974,66.1735324 19.8403604,69 23.4085298,69 L67.4274445,69 C70.9956139,69 73.8490003,66.1735324 73.8490003,62.6401632 L73.8490003,34.9366824 C73.7777518,31.4033133 70.9232163,28.5757073 67.3573452,28.5757073 L67.3573452,28.5757073 Z" id="Fill-3" fill="#F28400"></path>
        <path d="M29.8097689,33.5159729 L24.5188172,39.2308612 L21.7629916,36.2561433 C20.8930382,35.3166923 19.5162931,35.3166923 18.7187385,36.2561433 C17.8487851,37.1955942 17.8487851,38.6835837 18.7187385,39.5435912 L22.9949391,44.1626635 C23.4304997,44.6317585 23.938459,44.867567 24.5188172,44.867567 C25.0980077,44.867567 25.6047994,44.6317585 26.0403599,44.1626635 L32.9275885,36.7252383 C33.7975419,35.7857873 33.7975419,34.2990589 32.9275885,33.4377904 C32.0576351,32.5765219 30.6797223,32.5765219 29.8097689,33.5159729" id="Fill-6" fill="#F28400"></path>
    </g>
</svg>