<?xml version="1.0" encoding="UTF-8"?>
<svg width="20px" height="20px" viewBox="0 0 20 20" version="1.1" xmlns="http://www.w3.org/2000/svg" xmlns:xlink="http://www.w3.org/1999/xlink">
    <title>Artboard</title>
    <g id="Artboard" stroke="none" stroke-width="1" fill="none" fill-rule="evenodd">
        <path d="M16.5,2 C16.5233125,2.009375 16.5458125,2.02278125 16.5700312,2.0275625 C17.2317187,2.15846875 17.6753125,2.54428125 17.9070313,3.17478125 C17.9458437,3.2803125 17.9694063,3.3914375 18,3.5 L18,9.90625 C17.9387813,9.9946875 17.8894375,10.0949687 17.8146562,10.1698438 C15.3839375,12.6047187 12.9505312,15.0369375 10.5182813,17.4702812 C10.2728438,17.7158125 9.98490625,17.8816562 9.64628125,17.9594687 C9.59703125,17.9707813 9.54875,17.986375 9.5,18 L9.0625,18 C8.5004375,17.912875 8.11115625,17.5585313 7.72815625,17.1725625 C6.0976875,15.5293125 4.46065625,13.8925313 2.816875,12.2626563 C2.4335625,11.8825937 2.08659375,11.4939688 2,10.9375 L2,10.5 C2.09290625,9.94584375 2.4439375,9.56071875 2.82575,9.18078125 C5.139,6.87903125 7.443125,4.568125 9.752875,2.26284375 C9.85359375,2.1623125 9.9795625,2.08703125 10.09375,2 L16.5,2 Z M15.2652122,4.00046841 L12.8903446,4.00036221 C12.0810467,4.00036221 11.2717222,3.99829144 10.4624509,4.00405243 C10.3932887,4.00453029 10.306929,4.03936166 10.2581227,4.08794504 C8.95712599,5.38291783 7.66003063,6.68176667 6.36224525,7.97997835 C5.64925947,8.69319832 4.93518557,9.40535636 4.22379217,10.1201958 C3.92999904,10.4154128 3.9246115,10.8114338 4.21272517,11.1001199 C5.77497745,12.6653544 7.3382117,14.2296065 8.90518804,15.7900623 C8.98623991,15.8707691 9.09797153,15.9359983 9.20736768,15.9697677 C9.49120847,16.0573505 9.7199531,15.9464052 9.92287471,15.7430718 C11.9193941,13.7424453 13.9187267,11.7446329 15.9138926,9.74265247 C15.9623539,9.69401599 15.9961122,9.60677829 15.996298,9.53743414 C16.0008894,7.93598782 16,6.33451495 15.9996951,4.73306864 C15.9995889,4.27208402 15.7272132,4.00070734 15.2652122,4.00046841 Z M12.7702849,5.82352941 C13.5453431,5.82705248 14.1783257,6.4647954 14.1764706,7.24041409 C14.1746673,8.01828173 13.5429142,8.64702884 12.7631482,8.64705882 C11.9801137,8.6471188 11.3554073,8.02415899 11.3529412,7.2408039 C11.3504596,6.45570963 11.9862009,5.82000576 12.7702849,5.82352941 Z M12.7564544,6.76474598 C12.49648,6.76818952 12.291498,6.98039448 12.294143,7.2433435 C12.2968154,7.50700878 12.5040841,7.70869026 12.7694861,7.70585278 C13.0305626,7.70304285 13.2390986,7.49023183 13.2352415,7.23050597 C13.2314394,6.97317681 13.0136736,6.76135753 12.7564544,6.76474598 Z" id="Combined-Shape" fill="#FFFFFF"></path>
    </g>
</svg>