<?xml version="1.0" encoding="UTF-8"?>
<svg width="78px" height="77px" viewBox="0 0 78 77" version="1.1" xmlns="http://www.w3.org/2000/svg" xmlns:xlink="http://www.w3.org/1999/xlink">
    <title>zzzz  copy 3</title>
    <g id="zzzz--copy-3" stroke="none" stroke-width="1" fill="none" fill-rule="evenodd">
        <g id="Group-2" transform="translate(11, 3)">
            <g id="Group" transform="translate(4, 42)" stroke="#F28400" stroke-width="2">
                <path d="M43.8146731,3.37391345 L43.8146731,24.0140998 L36.8146731,17.23792 L29.8146731,24.0140998 L29.8146731,3.37391345 L43.8146731,3.37391345 Z" id="Rectangle" transform="translate(36.8147, 14.3739) rotate(-29) translate(-36.8147, -14.3739)"></path>
                <path d="M19.8146731,3.37391345 L19.8146731,24.0140998 L12.8146731,17.23792 L5.8146731,24.0140998 L5.8146731,3.37391345 L19.8146731,3.37391345 Z" id="Rectangle-Copy" transform="translate(12.8147, 14.3739) scale(-1, 1) rotate(-29) translate(-12.8147, -14.3739)"></path>
            </g>
            <path d="M26.3337583,51.3185418 L23.5966735,53.1466591 C22.2188764,54.066899 20.3559495,53.6959756 19.4357096,52.3181786 C19.3631892,52.2096 19.2978347,52.0964027 19.2400631,51.9793089 L17.7837367,49.0275704 C17.2470466,47.9397861 16.1081154,47.2822239 14.8977215,47.3613287 L11.6132778,47.5759824 C9.95995065,47.684035 8.53207024,46.4313424 8.42401765,44.7780153 C8.41550246,44.6477232 8.41550246,44.5170143 8.42401765,44.3867222 L8.63867128,41.1022785 C8.71777613,39.8918846 8.06021392,38.7529534 6.9724296,38.2162633 L4.0206911,36.7599369 C2.5348415,36.0268496 1.92460706,34.2280459 2.65769434,32.7421963 C2.71546599,32.6251025 2.78082048,32.5119052 2.85334087,32.4033265 L4.68145822,29.6662417 C5.355162,28.6575622 5.355162,27.3424378 4.68145822,26.3337583 L2.85334087,23.5966735 C1.93310101,22.2188764 2.30402436,20.3559495 3.68182136,19.4357096 C3.79039999,19.3631892 3.90359729,19.2978347 4.0206911,19.2400631 L6.9724296,17.7837367 C8.06021392,17.2470466 8.71777613,16.1081154 8.63867128,14.8977215 L8.42401765,11.6132778 C8.31596505,9.95995065 9.56865758,8.53207024 11.2219847,8.42401765 C11.3522768,8.41550246 11.4829857,8.41550246 11.6132778,8.42401765 L14.8977215,8.63867128 C16.1081154,8.71777613 17.2470466,8.06021392 17.7837367,6.9724296 L19.2400631,4.0206911 C19.9731504,2.5348415 21.7719541,1.92460706 23.2578037,2.65769434 C23.3748975,2.71546599 23.4880948,2.78082048 23.5966735,2.85334087 L26.3337583,4.68145822 C27.3424378,5.355162 28.6575622,5.355162 29.6662417,4.68145822 L32.4033265,2.85334087 C33.7811236,1.93310101 35.6440505,2.30402436 36.5642904,3.68182136 C36.6368108,3.79039999 36.7021653,3.90359729 36.7599369,4.0206911 L38.2162633,6.9724296 C38.7529534,8.06021392 39.8918846,8.71777613 41.1022785,8.63867128 L44.3867222,8.42401765 C46.0400494,8.31596505 47.4679298,9.56865758 47.5759824,11.2219847 C47.5844975,11.3522768 47.5844975,11.4829857 47.5759824,11.6132778 L47.3613287,14.8977215 C47.2822239,16.1081154 47.9397861,17.2470466 49.0275704,17.7837367 L51.9793089,19.2400631 C53.4651585,19.9731504 54.0753929,21.7719541 53.3423057,23.2578037 C53.284534,23.3748975 53.2191795,23.4880948 53.1466591,23.5966735 L51.3185418,26.3337583 C50.644838,27.3424378 50.644838,28.6575622 51.3185418,29.6662417 L53.1466591,32.4033265 C54.066899,33.7811236 53.6959756,35.6440505 52.3181786,36.5642904 C52.2096,36.6368108 52.0964027,36.7021653 51.9793089,36.7599369 L49.0275704,38.2162633 C47.9397861,38.7529534 47.2822239,39.8918846 47.3613287,41.1022785 L47.5759824,44.3867222 C47.684035,46.0400494 46.4313424,47.4679298 44.7780153,47.5759824 C44.6477232,47.5844975 44.5170143,47.5844975 44.3867222,47.5759824 L41.1022785,47.3613287 C39.8918846,47.2822239 38.7529534,47.9397861 38.2162633,49.0275704 L36.7599369,51.9793089 C36.0268496,53.4651585 34.2280459,54.0753929 32.7421963,53.3423057 C32.6251025,53.284534 32.5119052,53.2191795 32.4033265,53.1466591 L29.6662417,51.3185418 C28.6575622,50.644838 27.3424378,50.644838 26.3337583,51.3185418 Z" id="Star" fill="#FFFFFF"></path>
            <path d="M36.5642904,3.68182136 C36.6368108,3.79039999 36.7021653,3.90359729 36.7599369,4.0206911 L38.2162633,6.9724296 C38.7529534,8.06021392 39.8918846,8.71777613 41.1022785,8.63867128 L44.3867222,8.42401765 C46.0400494,8.31596505 47.4679298,9.56865758 47.5759824,11.2219847 C47.5844975,11.3522768 47.5844975,11.4829857 47.5759824,11.6132778 L47.3613287,14.8977215 C47.2822239,16.1081154 47.9397861,17.2470466 49.0275704,17.7837367 L51.9793089,19.2400631 C53.4651585,19.9731504 54.0753929,21.7719541 53.3423057,23.2578037 C53.284534,23.3748975 53.2191795,23.4880948 53.1466591,23.5966735 L51.3185418,26.3337583 C50.644838,27.3424378 50.644838,28.6575622 51.3185418,29.6662417 L53.1466591,32.4033265 C54.066899,33.7811236 53.6959756,35.6440505 52.3181786,36.5642904 C52.2096,36.6368108 52.0964027,36.7021653 51.9793089,36.7599369 L49.0275704,38.2162633 C47.9397861,38.7529534 47.2822239,39.8918846 47.3613287,41.1022785 L47.5759824,44.3867222 C47.684035,46.0400494 46.4313424,47.4679298 44.7780153,47.5759824 C44.6477232,47.5844975 44.5170143,47.5844975 44.3867222,47.5759824 L41.1022785,47.3613287 C39.8918846,47.2822239 38.7529534,47.9397861 38.2162633,49.0275704 L36.7599369,51.9793089 C36.0268496,53.4651585 34.2280459,54.0753929 32.7421963,53.3423057 C32.6251025,53.284534 32.5119052,53.2191795 32.4033265,53.1466591 L29.6662417,51.3185418 C28.6575622,50.644838 27.3424378,50.644838 26.3337583,51.3185418 L23.5966735,53.1466591 C22.2188764,54.066899 20.3559495,53.6959756 19.4357096,52.3181786 C19.3631892,52.2096 19.2978347,52.0964027 19.2400631,51.9793089 L17.7837367,49.0275704 C17.2470466,47.9397861 16.1081154,47.2822239 14.8977215,47.3613287 L11.6132778,47.5759824 C9.95995065,47.684035 8.53207024,46.4313424 8.42401765,44.7780153 C8.41550246,44.6477232 8.41550246,44.5170143 8.42401765,44.3867222 L8.63867128,41.1022785 C8.71777613,39.8918846 8.06021392,38.7529534 6.9724296,38.2162633 L4.0206911,36.7599369 C2.5348415,36.0268496 1.92460706,34.2280459 2.65769434,32.7421963 C2.71546599,32.6251025 2.78082048,32.5119052 2.85334087,32.4033265 L4.68145822,29.6662417 C5.355162,28.6575622 5.355162,27.3424378 4.68145822,26.3337583 L2.85334087,23.5966735 C1.93310101,22.2188764 2.30402436,20.3559495 3.68182136,19.4357096 C3.79039999,19.3631892 3.90359729,19.2978347 4.0206911,19.2400631 L6.9724296,17.7837367 C8.06021392,17.2470466 8.71777613,16.1081154 8.63867128,14.8977215 L8.42401765,11.6132778 C8.31596505,9.95995065 9.56865758,8.53207024 11.2219847,8.42401765 C11.3522768,8.41550246 11.4829857,8.41550246 11.6132778,8.42401765 L14.8977215,8.63867128 C16.1081154,8.71777613 17.2470466,8.06021392 17.7837367,6.9724296 L19.2400631,4.0206911 C19.9731504,2.5348415 21.7719541,1.92460706 23.2578037,2.65769434 C23.3748975,2.71546599 23.4880948,2.78082048 23.5966735,2.85334087 L26.3337583,4.68145822 C27.3424378,5.355162 28.6575622,5.355162 29.6662417,4.68145822 L32.4033265,2.85334087 C33.7811236,1.93310101 35.6440505,2.30402436 36.5642904,3.68182136 Z M21.0336422,4.90560573 L19.5773159,7.85734423 C18.6828323,9.67031809 16.7846137,10.7662551 14.7672905,10.6344137 L11.4828468,10.4197601 C11.4394161,10.4169217 11.3958464,10.4169217 11.3524157,10.4197601 C10.8013067,10.4557776 10.3837425,10.9317377 10.4197601,11.4828468 L10.6344137,14.7672905 C10.7662551,16.7846137 9.67031809,18.6828323 7.85734423,19.5773159 L4.90560573,21.0336422 C4.86657445,21.0528994 4.82884202,21.0746843 4.79264915,21.0988577 C4.33338348,21.4056044 4.20974236,22.02658 4.51648898,22.4858457 L6.34460633,25.2229305 C7.46744596,26.904063 7.46744596,29.095937 6.34460633,30.7770695 L4.51648898,33.5141543 C4.49231552,33.5503472 4.47053069,33.5880796 4.45127347,33.6271109 C4.20691105,34.1223941 4.41032252,34.7219954 4.90560573,34.9663578 L7.85734423,36.4226841 C9.67031809,37.3171677 10.7662551,39.2153863 10.6344137,41.2327095 L10.4197601,44.5171532 C10.4169217,44.5605839 10.4169217,44.6041536 10.4197601,44.6475843 C10.4557776,45.1986933 10.9317377,45.6162575 11.4828468,45.5802399 L14.7672905,45.3655863 C16.7846137,45.2337449 18.6828323,46.3296819 19.5773159,48.1426558 L21.0336422,51.0943943 C21.0528994,51.1334255 21.0746843,51.171158 21.0988577,51.2073509 C21.4056044,51.6666165 22.02658,51.7902576 22.4858457,51.483511 L25.2229305,49.6553937 C26.904063,48.532554 29.095937,48.532554 30.7770695,49.6553937 L33.5141543,51.483511 C33.5503472,51.5076845 33.5880796,51.5294693 33.6271109,51.5487265 C34.1223941,51.793089 34.7219954,51.5896775 34.9663578,51.0943943 L36.4226841,48.1426558 C37.3171677,46.3296819 39.2153863,45.2337449 41.2327095,45.3655863 L44.5171532,45.5802399 C44.5605839,45.5830783 44.6041536,45.5830783 44.6475843,45.5802399 C45.1986933,45.5442224 45.6162575,45.0682623 45.5802399,44.5171532 L45.3655863,41.2327095 C45.2337449,39.2153863 46.3296819,37.3171677 48.1426558,36.4226841 L51.0943943,34.9663578 C51.1334255,34.9471006 51.171158,34.9253157 51.2073509,34.9011423 C51.6666165,34.5943956 51.7902576,33.97342 51.483511,33.5141543 L49.6553937,30.7770695 C48.532554,29.095937 48.532554,26.904063 49.6553937,25.2229305 L51.483511,22.4858457 C51.5076845,22.4496528 51.5294693,22.4119204 51.5487265,22.3728891 C51.793089,21.8776059 51.5896775,21.2780046 51.0943943,21.0336422 L48.1426558,19.5773159 C46.3296819,18.6828323 45.2337449,16.7846137 45.3655863,14.7672905 L45.5802399,11.4828468 C45.5830783,11.4394161 45.5830783,11.3958464 45.5802399,11.3524157 C45.5442224,10.8013067 45.0682623,10.3837425 44.5171532,10.4197601 L41.2327095,10.6344137 C39.2153863,10.7662551 37.3171677,9.67031809 36.4226841,7.85734423 L34.9663578,4.90560573 C34.9471006,4.86657445 34.9253157,4.82884202 34.9011423,4.79264915 C34.5943956,4.33338348 33.97342,4.20974236 33.5141543,4.51648898 L30.7770695,6.34460633 C29.095937,7.46744596 26.904063,7.46744596 25.2229305,6.34460633 L22.4858457,4.51648898 C22.4496528,4.49231552 22.4119204,4.47053069 22.3728891,4.45127347 C21.8776059,4.20691105 21.2780046,4.41032252 21.0336422,4.90560573 Z" id="Star" fill="#F28400" fill-rule="nonzero"></path>
            <path d="M29.006442,16.518663 L29.1545317,16.5245488 C29.4016277,16.5436142 29.6492963,16.6092392 29.8851314,16.7256308 C30.2795566,16.9202912 30.5988117,17.2395463 30.7934722,17.6339715 L32.6491556,21.3939969 C32.9404797,21.9842839 33.5036108,22.3934226 34.1550312,22.4880795 L38.3044656,23.0910277 C39.3975553,23.2498629 40.1549182,24.2647486 39.996083,25.3578383 C39.932834,25.7931124 39.7278596,26.1953972 39.4128923,26.5024144 L36.4103334,29.429186 C35.9389612,29.8886603 35.7238642,30.5506607 35.8351401,31.1994489 L36.5439481,35.3321167 C36.7306701,36.4207896 35.9994945,37.4547015 34.9108216,37.6414235 L34.7244702,37.6644447 L34.5378054,37.6699042 C34.2271073,37.6644748 33.9201356,37.5866684 33.6420492,37.4404697 L29.9306823,35.4892886 C29.6658422,35.350054 29.3775683,35.2741078 29.0871639,35.2614501 L28.9128361,35.2614501 C28.6224317,35.2741078 28.3341578,35.350054 28.0693177,35.4892886 L24.3579508,37.4404697 C24.1251676,37.562851 23.8792572,37.6347848 23.6327292,37.6601597 L23.4848384,37.6698286 C22.7460145,37.6905491 22.0241497,37.2992385 21.6570057,36.6008891 C21.4523275,36.2115682 21.3816982,35.765632 21.4560519,35.3321167 L22.1648599,31.1994489 C22.2761358,30.5506607 22.0610388,29.8886603 21.5896666,29.429186 L18.5871077,26.5024144 C17.7961405,25.731412 17.7799559,24.4651855 18.5509583,23.6742183 C18.8579755,23.359251 19.2602604,23.1542767 19.6955344,23.0910277 L23.8449688,22.4880795 C24.4963892,22.3934226 25.0595203,21.9842839 25.3508444,21.3939969 L27.2065278,17.6339715 C27.5557026,16.9264663 28.2673298,16.5168331 29.006442,16.518663 Z" id="Combined-Shape" fill="#F28400"></path>
            <path d="M28.5,11 C37.6126984,11 45,18.3873016 45,27.5 C45,36.6126984 37.6126984,44 28.5,44 C19.3873016,44 12,36.6126984 12,27.5 C12,18.3873016 19.3873016,11 28.5,11 Z M28.5,13 C20.4918711,13 14,19.4918711 14,27.5 C14,35.5081289 20.4918711,42 28.5,42 C36.5081289,42 43,35.5081289 43,27.5 C43,19.4918711 36.5081289,13 28.5,13 Z" id="Oval" fill="#F28400" fill-rule="nonzero"></path>
        </g>
    </g>
</svg>