<?xml version="1.0" encoding="UTF-8"?>
<svg width="68px" height="68px" viewBox="0 0 68 68" version="1.1" xmlns="http://www.w3.org/2000/svg" xmlns:xlink="http://www.w3.org/1999/xlink">
    <title>Artboard</title>
    <g id="Artboard" stroke="none" stroke-width="1" fill="none" fill-rule="evenodd">
        <g id="Group-12" transform="translate(4, 16)" fill="#B4B4B4">
            <path d="M49.4623678,30.3621251 C50.2343026,30.3621251 51.0072935,30.382831 51.7785243,30.3574027 C53.0295304,30.3156275 53.965145,29.3638795 54.009849,28.1229746 C54.0520889,26.9445508 53.1749062,25.8293348 51.975644,25.7704862 C50.3191345,25.6894787 48.652065,25.6840297 46.9969635,25.7813841 C45.7734133,25.8533101 44.9838785,26.9252979 45.0310464,28.1709253 C45.0768064,29.3893079 45.981797,30.3105418 47.2166112,30.3555863 C47.964258,30.3831943 48.7136649,30.360672 49.4623678,30.3621251 L49.4623678,30.3621251 Z M42.0436269,35.9934214 C38.4145123,35.9934214 34.7853978,35.9985071 31.1562832,35.9919683 C27.0579534,35.9847031 24.0370939,32.9303914 24.0205499,28.6987458 C23.99239,21.5693546 23.9941499,14.4399635 24.0198459,7.31057234 C24.0349819,3.07674712 27.0364814,0.0329700685 31.1446672,0.00427232571 C31.8937221,-0.000813350233 32.643129,-0.0022664005 33.3921839,0.00499885084 C34.2464866,0.0133538899 34.5150622,0.290159966 34.5164702,1.18451241 C34.5213982,4.06046215 34.5175262,6.9364119 34.5189342,9.81236164 C34.5196382,11.2803057 35.0018775,11.796865 36.3964994,11.7986814 C40.1424778,11.8034038 43.8888081,11.8030405 47.6351385,11.7986814 C49.0142725,11.796865 49.5179837,11.2617793 49.5200957,9.80509639 C49.5239677,6.97746057 49.5197437,4.14982474 49.5222077,1.32218892 C49.5232637,0.208425888 49.7193274,-0.00989491441 50.7844778,0.00826821395 C51.975996,0.0289741803 53.1865222,-0.0407722326 54.3537525,0.153936503 C57.5189317,0.681757014 59.9364641,3.52101724 59.9589921,6.81362915 C60.010032,14.2568792 60.017424,21.7008557 59.9593441,29.1441057 C59.9297761,32.9194935 56.8775887,35.9512829 53.2118662,35.98325 C49.4894717,36.0163069 45.7663733,35.9905153 42.0436269,35.9905153 L42.0436269,35.9934214 Z" id="Fill-1"></path>
            <path d="M10.5121576,5.00119342 C13.1628562,5.00119342 15.8139075,4.99845601 18.4646061,5.00236659 C19.965128,5.00432189 20.9904082,6.01090658 21,7.47815825 C21.0094602,8.95010261 19.98418,9.99422893 18.4977707,9.99579316 C13.1494492,10.001268 7.80077491,10.0020501 2.4521006,9.99501105 C1.00661784,9.99344681 0.00674033434,8.96652707 0,7.51530881 C-0.00701944785,6.02811316 0.999914356,5.005104 2.48914617,5.00236659 C5.16348332,4.99806495 7.83782047,5.00119342 10.5121576,5.00119342" id="Fill-4"></path>
            <path d="M42.5034534,8.99709566 C41.3562001,8.99709566 40.2089469,9.00571891 39.0616936,8.99372135 C38.3321672,8.98622287 38.0161447,8.67766056 38.0112178,7.9135658 C37.9960853,5.64340204 37.9967892,3.37286334 38.010162,1.10269958 C38.0150889,0.320608475 38.3135155,0.0105464709 39.0398746,0.0075470803 C41.3576078,-0.00220093918 43.6756929,-0.002575863 45.993426,0.0075470803 C46.6958547,0.0105464709 46.987243,0.308610913 46.9911141,1.04271176 C47.0030793,3.3376205 47.0027274,5.63327909 46.991466,7.92856276 C46.9875949,8.69828137 46.694447,8.98697272 45.9452132,8.99409627 C44.79796,9.00534399 43.6507067,8.99709566 42.5034534,8.99709566" id="Fill-6"></path>
            <path d="M13.4902297,19.9973963 C11.8076408,19.9973963 10.1250519,20.0028616 8.44246294,19.9958348 C7.01738083,19.9895888 6.00459104,18.950018 6,17.5056274 C5.99509284,16.0690443 7.01069691,15.0107355 8.43366831,15.0072221 C11.8224158,14.9982434 15.2111633,14.9970723 18.5999107,15.0076125 C20.0144393,15.0119066 21.0166755,16.0862209 20.9997898,17.5356863 C20.9832559,18.9543121 19.9891107,19.9868562 18.6083536,19.9950541 C16.902195,20.0048134 15.1963883,19.9973963 13.4902297,19.9973963" id="Fill-8"></path>
            <path d="M15.5178658,26.0053849 C16.5466784,26.0057749 17.5758593,25.9909545 18.6043037,26.009285 C19.9744582,26.0338556 21.0076895,27.1247127 21,28.5088571 C20.9925924,29.8625807 19.984032,30.959288 18.6488586,30.9776184 C16.542628,31.0064791 14.4352927,31.0092092 12.3294303,30.9760584 C11.0097222,30.9549979 9.99121974,29.8196797 10,28.4788263 C10.0092626,27.1340729 11.0369706,26.0560862 12.3577834,26.0069449 C12.4067569,26.0049949 12.4557305,26.0049949 12.5050723,26.0049949 C13.509214,26.0049949 14.5133558,26.0049949 15.5178658,26.0053849" id="Fill-10"></path>
        </g>
    </g>
</svg>