<?xml version="1.0" encoding="UTF-8"?>
<svg width="72px" height="76px" viewBox="0 0 72 76" version="1.1" xmlns="http://www.w3.org/2000/svg" xmlns:xlink="http://www.w3.org/1999/xlink">
    <title>Group</title>
    <g id="Page-1" stroke="none" stroke-width="1" fill="none" fill-rule="evenodd" opacity="0.487762451">
        <g id="1_Home" transform="translate(-574, -2928)" fill="#F28400">
            <g id="Group" transform="translate(574, 2928)">
                <path d="M71.985973,20.9043258 L71.985973,20 C71.6480347,20.1712039 71.4336509,20.2742103 71.2246099,20.3857415 C60.0419224,26.3714829 48.8625741,32.3621971 37.6718722,38.3280477 C37.1228894,38.6207281 36.9993348,38.9673982 37,39.57265 C37.0166992,51.4013447 37.0126921,63.2300393 37.0126921,75.058734 L37.0126921,76 C37.4167488,75.8018013 37.7293084,75.6611442 38.0318501,75.4991754 C49.1163618,69.5631612 60.1982022,63.6214639 71.2900604,57.7017887 C71.821011,57.4190537 72.000666,57.1050615 72,56.4756565 C71.9806301,44.6185462 71.985973,32.761436 71.985973,20.9043258" id="Fill-30"></path>
                <path d="M31.3112133,36.7307238 C28.821948,35.3999112 26.3326827,34.0676775 23.8427494,32.7368648 C23.6349766,32.626023 23.4165145,32.5379179 23.0711173,32.3787604 L23.0711173,47.4630369 L23.0711173,52.0587104 C22.0689976,51.0035813 21.1022861,49.9967678 20.154949,48.9956386 C19.6097959,48.4201136 19.0699874,47.8460097 18.5375279,47.2669321 C18.1480373,46.8434594 17.7572107,46.670802 17.2060448,46.6835914 C15.7703414,46.7191176 14.3333018,46.6956703 12.8368031,46.6956703 L12.8368031,45.6604359 C12.8368031,41.5926823 12.8254457,31.6575779 12.8501647,27.5905348 C12.8535051,27.0214046 12.6824766,26.745721 12.2047996,26.4934847 C8.75082713,24.6731206 5.31288857,22.8186513 1.86960538,20.9741293 C1.73598942,20.9023663 1.60237347,20.8298928 1.46808943,20.7588403 C1.02181214,20.5193935 0.572194444,20.2863414 0.0297136611,20 C0.0130116666,20.2643152 0,20.3772886 0,20.490262 C0,22.4712047 0.0297136611,55.6043837 0.0297136611,57.5853264 C6.80374662,61.3621401 28.6602727,72.6576921 34.1378588,75.5900273 C34.390393,75.725027 34.6482718,75.8486583 34.9475715,76 C34.9649416,75.7797374 34.9816436,75.6667639 34.9816436,75.554501 C34.9829798,63.4649242 34.9776351,51.3753473 35,39.2857705 C35,38.7216139 34.7277733,38.5574827 34.3623336,38.362799 C33.3448481,37.8192476 32.3280307,37.2749857 31.3112133,36.7307238 Z" id="Fill-31"></path>
                <path d="M71,18.6915506 C70.7400459,18.5281778 70.5665232,18.4049441 70.3817843,18.3056528 C66.5900172,16.2670139 62.7936317,14.239642 59.0111015,12.182694 C58.5340792,11.9235509 58.1758176,11.9460851 57.7100115,12.2122701 C53.2116179,14.790321 48.7072863,17.3585131 44.204934,19.9295221 C39.986288,22.3385666 35.7702811,24.7518363 31.5516351,27.1601766 C29.3987665,28.3889936 27.2458979,29.6185147 25,30.9015545 C25.3213138,31.0853489 25.5462995,31.2205539 25.7765634,31.3444919 C28.4915663,32.8056926 31.2092083,34.2605555 33.9189329,35.7330232 C34.5457258,36.0731485 35.1751578,36.4097527 35.8006311,36.753399 C36.3746414,37.0681733 36.8081182,37.0900033 37.3992828,36.7702996 C46.2693919,31.9782657 55.1546758,27.2179205 64.0346816,22.4484207 C66.3346816,21.2132661 68.6300631,19.9696611 71,18.6915506" id="Fill-32"></path>
                <path d="M34.6653465,0.22698777 C25.560396,5.15724381 16.440264,10.0550268 7.32475248,14.9626929 C5.25478548,16.0766597 3.18811881,17.1990977 1,18.3829521 C2.00792079,18.9251109 3.00726073,19.4637399 4.00132013,19.9995453 C7.11221122,21.675437 10.1643564,23.3174438 13.2283828,24.932625 C13.5016502,25.076636 13.9940594,24.9700396 14.2943894,24.7984972 C22.6072607,20.0644914 30.9115512,15.313543 39.2165017,10.5633006 C41.3306931,9.3540325 43.4468647,8.14829405 45.5617162,6.93902592 C46.0171617,6.67853559 46.4653465,6.40392654 47,6.08696134 C46.6646865,5.88788743 46.4435644,5.74599432 46.2132013,5.62174961 C42.8930693,3.83432001 39.5650165,2.062421 36.2574257,0.248165846 C35.6891089,-0.0638578037 35.2567657,-0.0935071098 34.6653465,0.22698777" id="Fill-33"></path>
            </g>
        </g>
    </g>
</svg>