<?xml version="1.0" encoding="UTF-8"?>
<svg width="42px" height="42px" viewBox="0 0 42 42" version="1.1" xmlns="http://www.w3.org/2000/svg" xmlns:xlink="http://www.w3.org/1999/xlink">
    <title>Artboard Copy 2</title>
    <g id="Artboard-Copy-2" stroke="none" stroke-width="1" fill="none" fill-rule="evenodd">
        <path d="M31.2073399,8.6705023 C33.7535851,9.01426493 35.7863636,10.6601694 36.3953329,13.1988529 C36.6001911,14.0527247 36.720696,14.9277869 36.8235948,15.8069196 L36.9730819,17.1265316 C36.9985768,17.3462624 37.0250572,17.5657126 37.0535659,17.7846147 L37.1101601,18.3274217 L37.1882202,19.4177514 L37.1882202,22.5818821 C37.1708483,22.6880752 37.1482907,22.7936519 37.1369686,22.9004613 C36.9565077,24.6019279 36.828249,26.310967 36.5853009,28.0030998 C36.2843598,30.0990481 35.1900128,31.6764466 33.3370038,32.6861613 C32.3802497,33.2075287 31.3253137,33.3218228 30.2760819,33.4501174 C27.1095455,33.8374667 23.9300448,33.9956116 20.7412964,33.9999205 C17.1303489,34.0046812 13.5343534,33.7959052 9.95140845,33.3244644 C7.45148848,32.9954948 5.41516645,31.3190356 4.79565301,28.8359141 C4.47898207,27.5669686 4.36956466,26.2424611 4.20077145,24.9384701 C4.09965109,24.1575196 4.06473431,23.3677637 4,22.5818821 L4,19.4177514 C4.01996479,19.2449015 4.04036172,19.0721396 4.05989437,18.8992897 C4.25694942,17.1558215 4.38252881,15.4002017 4.66765365,13.6717907 C5.09771767,11.064249 7.13533611,9.11623141 9.69679257,8.72597629 C12.5520166,8.29098977 15.4273784,8.08987454 18.3111236,8.02577126 C22.6239501,7.92988051 26.9244174,8.09225199 31.2073399,8.6705023 Z M10.1261652,10.7811556 C8.46130922,11.0135299 7.0384507,12.2281462 6.73742318,13.9124422 C6.46578105,15.4321653 6.27892446,16.9735498 6.15783931,18.5138776 C5.91316261,21.6275534 6.12871319,24.7263481 6.6659475,27.7984625 C6.94770166,29.4098498 7.85519206,30.5378209 9.40432138,31.0414895 C9.96290333,31.2231448 10.5671191,31.2722789 11.1549136,31.3462443 C14.1167894,31.7194169 17.0918886,31.879411 20.0755442,31.8891849 C23.7083579,31.9063555 27.329331,31.7356188 30.9322407,31.2297489 C32.8221543,30.9643543 34.1998976,29.738291 34.5049872,27.8627418 C34.7425768,26.4026312 34.9188028,24.9275514 35.0318502,23.4519432 C35.2695262,20.3485697 35.0367766,17.2641278 34.527977,14.1986175 C34.23879,12.4569103 32.9973431,11.1210438 31.2821863,10.8338999 C28.5499488,10.3765476 25.788758,10.2058991 23.0240237,10.137305 C18.7104193,10.0301434 14.4078777,10.1834453 10.1261652,10.7811556 Z M17.8566524,15.2435802 C20.4888931,16.836124 23.1190595,18.4321019 25.7471517,20.03169 C26.5791908,20.5380883 26.5820429,21.4778 25.7548438,21.9794434 L17.860023,26.7599806 C17.5138803,26.9699892 17.1639347,27.0571626 16.7859001,26.8753312 C16.3593796,26.6701655 16.1770173,26.316717 16.1783923,25.8416659 C16.1832401,24.227725 16.1802151,22.6138721 16.1802151,21.0000193 C16.1801287,19.4080919 16.1783923,17.8160764 16.1807337,16.2242371 C16.1823758,15.2000815 16.9943636,14.7218605 17.8566524,15.2435802 Z M18.2764315,17.9500065 L18.2764315,24.0526737 C19.9611658,23.031424 21.6098598,22.0319236 23.3037554,21.0051264 C21.601822,19.9708447 19.9578816,18.9718726 18.2764315,17.9500065 Z" id="Combined-Shape" fill="#FFFFFF"></path>
    </g>
</svg>