<?xml version="1.0" encoding="UTF-8"?>
<svg width="68px" height="68px" viewBox="0 0 68 68" version="1.1" xmlns="http://www.w3.org/2000/svg" xmlns:xlink="http://www.w3.org/1999/xlink">
    <title>Artboard Copy 6</title>
    <g id="Artboard-Copy-6" stroke="none" stroke-width="1" fill="none" fill-rule="evenodd">
        <g id="Group-8" transform="translate(8, 10)" fill="#B4B4B4">
            <path d="M11.3937918,32.1273501 C10.3483326,32.1273501 9.30300032,32.1224378 8.25754108,32.1287356 C7.21601739,32.1349074 6.49314612,32.7899995 6.48469293,33.7216888 C6.47626135,34.6548896 7.19913262,35.3388254 8.22986529,35.34273 C10.303772,35.3507911 12.3776788,35.3506652 14.4515856,35.342856 C15.4833339,35.3389514 16.2063321,34.6571568 16.1992747,33.7240819 C16.1921133,32.7930224 15.4683534,32.1352852 14.4288609,32.1287356 C13.4171712,32.1223119 12.4054815,32.1273501 11.3937918,32.1273501 M0,25.6909222 C8.50586145,25.6909222 17.011596,25.6935672 25.5174574,25.6824832 C25.9112661,25.6819794 26.1538736,25.7914343 26.3799771,26.119925 C28.6050851,29.3524348 31.6251737,31.7173664 34.9177038,33.7791243 C35.3883192,34.0737331 35.8650283,34.359651 36.348339,34.6330994 C37.9900972,35.5616398 39.6703222,35.6198311 41.3106839,34.6899051 C44.370128,32.9555044 47.2490447,30.9709569 49.6221801,28.3486992 C50.2630396,27.6404541 50.8232839,26.8600368 51.4183133,26.1109822 C51.527493,25.9735653 51.625247,25.8270796 51.8173271,25.5618183 C51.8337041,25.8644882 51.8479228,26.0048021 51.8479228,26.145242 C51.849431,31.2570008 51.8505888,36.3688856 51.8480498,41.4806445 C51.8470341,43.6774261 50.5014576,44.9993241 48.2691133,44.9994501 C33.367098,45.0003317 18.4650826,45.0000517 3.56306728,44.9993241 C1.69558635,44.9993241 0.622197418,44.2008952 0.0721093926,42.4154827 C0.0576367328,42.3688793 0.0245019591,42.3280699 0,42.2846154 C0,36.7533004 0,31.2221113 0,25.6909222" id="Fill-1"></path>
            <path d="M3.80859474e-05,12.3154051 C0.289999094,11.3194787 0.754901551,10.4306141 1.75757758,9.99355015 C2.23885699,9.78383503 2.78716767,9.61908585 3.30589827,9.61707057 C9.66371232,9.59175361 16.0215264,9.60044451 22.3793404,9.60107428 C22.4608444,9.60107428 22.5423483,9.61064686 22.6855514,9.61958967 C22.6680319,12.842275 22.6067135,16.0548839 23.3811278,19.2545195 L3.80859474e-05,19.2545195 L3.80859474e-05,12.3154051 Z" id="Fill-4"></path>
            <path d="M37.3993714,16.5143805 C37.2729261,16.3418221 37.1714905,16.2125922 37.0798303,16.0766868 C36.51692,15.2424866 35.9697519,14.3974543 35.3909725,13.5742123 C34.8331403,12.7804437 33.8900053,12.5965493 33.1298098,13.0996137 C32.3762159,13.5981437 32.1795655,14.5492301 32.7094679,15.3553423 C33.7504838,16.9389749 34.8026716,18.5159318 35.87733,20.0771444 C36.5732872,21.0880594 37.7995278,21.1487698 38.574069,20.1981872 C40.7269406,17.5556507 42.8561989,14.894095 44.9897737,12.2360661 C45.3091878,11.8381741 45.4478207,11.379194 45.3225179,10.8700838 C45.1639534,10.2263276 44.7569416,9.81344705 44.1078301,9.65839641 C43.4518631,9.50170836 42.9015212,9.71620977 42.4813063,10.2172589 C41.8555542,10.9634165 41.2546849,11.7301047 40.6436593,12.488354 C39.5716669,13.8184391 38.4999283,15.1486501 37.3993714,16.5143805 M52,10.4083326 C51.8209961,12.7755314 51.7704687,15.1607418 51.4350585,17.5057725 C50.8148923,21.8425301 48.5685831,25.310072 45.2353011,28.1194989 C43.5581229,29.5332181 41.7296166,30.7277756 39.8359834,31.8307638 C39.2310516,32.18306 38.6280241,32.2266404 38.0154751,31.8723289 C35.294869,30.2986468 32.7135304,28.5427078 30.5686569,26.2209787 C28.1468985,23.5997287 26.7407653,20.506777 26.2269859,16.9985516 C25.71181,13.4805017 25.9918687,9.94066163 25.9330893,6.41039411 C25.9211557,5.68967945 26.3022691,5.16558058 26.9695349,4.8806703 C30.7136374,3.28179718 34.454566,1.67511485 38.2160611,0.117554978 C38.6050456,-0.0435415027 39.1802703,-0.0371177963 39.5711591,0.124860369 C43.316785,1.67675227 47.0417175,3.27827044 50.7717282,4.86719312 C51.5038671,5.17905776 51.8490527,5.74346224 51.8487988,6.52690252 C51.848291,7.81693391 51.8486718,9.1069653 51.8486718,10.3969967 C51.8990722,10.4007753 51.9495996,10.404554 52,10.4083326" id="Fill-6"></path>
        </g>
    </g>
</svg>