<?xml version="1.0" encoding="UTF-8"?>
<svg width="33px" height="33px" viewBox="0 0 33 33" version="1.1" xmlns="http://www.w3.org/2000/svg" xmlns:xlink="http://www.w3.org/1999/xlink">
    <title>Artboard Copy 7</title>
    <g id="Artboard-Copy-7" stroke="none" stroke-width="1" fill="none" fill-rule="evenodd">
        <g id="Group-18" transform="translate(2, 5)" fill="#042868">
            <path d="M22.6851071,17.4328902 C24.298211,17.4448505 25.6584943,18.8227276 25.6557336,20.4414728 C25.6529476,22.0593322 24.2846769,23.4292356 22.6678013,23.4327794 C21.043493,23.4326687 19.6675679,22.070628 19.6558088,20.4553158 C19.6500402,19.6763424 19.9765215,18.9004699 20.551275,18.3268159 C21.1213693,17.7578131 21.8903698,17.4327794 22.6642514,17.4327794 L22.6851071,17.4328902 Z M9.69276375,17.4330009 C11.3057205,17.4491702 12.6624711,18.8309742 12.6557336,20.4504438 C12.6489457,22.0673661 11.2765633,23.4327794 9.65861771,23.4327794 C8.03745704,23.4320042 6.66285736,22.0642651 6.6557336,20.4460138 C6.65221444,19.6680084 6.98026029,18.8937684 7.5558649,18.3220867 C8.12570459,17.7559424 8.89288176,17.4327794 9.66493695,17.4327794 C9.6742495,17.4327794 9.68356206,17.4328902 9.69276375,17.4330009 Z M5.74510574,-6.52811138e-14 L6.064,1.378 L6.718,4 L28.3980571,4 C28.3912557,4.04629703 28.3837209,4.0904958 28.3735189,4.13191946 C28.1896828,4.88201258 28.0048466,5.63176726 27.8198769,6.38158963 C27.6958526,6.88462988 27.5718282,7.38767013 27.4480706,7.89077806 C27.4041286,8.06960373 27.3597866,8.24822633 27.3153779,8.42691663 C27.2595669,8.65190395 27.2036893,8.87682359 27.1486785,9.1018786 L25.4000019,16.227154 L25.392067,16.2584925 C25.3840654,16.2905078 25.3759972,16.3224555 25.3674622,16.3543355 C25.2041635,16.96371 25.1568875,16.9998542 24.5254302,17 L7.54556382,17 C6.87243169,17 6.83135696,16.967365 6.66652461,16.3024882 C6.33045864,14.9477586 5.99439267,13.5763783 5.69513393,12.3549218 L4.311,6.686 L4.29761794,6.68972041 L3.377,2.999 L-1.61648472e-13,3 L-1.61464775e-13,-6.57252031e-14 L5.74510574,-6.52811138e-14 Z" id="Combined-Shape"></path>
        </g>
    </g>
</svg>