<?xml version="1.0" encoding="UTF-8"?>
<svg width="78px" height="77px" viewBox="0 0 78 77" version="1.1" xmlns="http://www.w3.org/2000/svg" xmlns:xlink="http://www.w3.org/1999/xlink">
    <title>zzzz  copy 2</title>
    <g id="zzzz--copy-2" stroke="none" stroke-width="1" fill="none" fill-rule="evenodd">
        <path d="M39.3721249,8 C40.660836,8.36915067 41.5707862,9.28671271 42.5393404,10.1336047 C46.0180522,13.1752913 50.0729887,15.0061062 54.6351532,15.723149 C55.8926859,15.9207955 57.1660965,16.0150223 58.4299803,16.1718754 C61.8555732,16.5967577 64.206374,19.1529466 64.2144573,22.5896387 C64.2248502,26.9614168 64.3036625,31.3412386 64.0753089,35.702962 C63.7730507,41.4755017 62.5481399,47.0604497 59.7452509,52.2118969 C57.2827272,56.7373681 53.8473188,60.3630884 49.5426656,63.1875937 C46.6473959,65.0870678 43.5321445,66.542412 40.2705274,67.6995629 C39.2959108,68.0451569 38.3114786,68.1192743 37.3296447,67.7808622 C31.7192476,65.8463404 26.6120368,63.0755558 22.4257464,58.8034627 C18.4077622,54.7031612 15.8947177,49.7841208 14.5254621,44.2574901 C13.3343281,39.4499131 13.0029122,34.5492585 13.0000125,29.6193016 C12.9985819,27.3544114 13.1201202,25.0889467 13.087787,22.8252057 C13.0366889,19.2402787 15.6490427,16.2807533 19.5426017,16.0854051 C22.3769579,15.9432031 25.1342339,15.384737 27.7922006,14.3611698 C30.3615396,13.3717886 32.6782751,11.9738997 34.7487581,10.174398 C35.733479,9.31888771 36.6489142,8.37518348 37.9586997,8 L39.3721249,8 Z M37.8377387,11.2640388 C33.9603464,14.8900464 29.4152146,17.2546216 24.207251,18.2965745 C22.3454907,18.6691725 20.4352304,18.7967233 18.552107,19.0707854 C16.89012,19.3129597 15.9238753,20.4143789 15.90742,22.0877662 C15.8851909,24.3474854 15.9019349,26.6074918 15.9019349,28.8674983 C15.7974292,33.7784949 16.0624464,38.6613384 17.2368364,43.4614461 C18.7071334,49.4707019 21.5969181,54.626171 26.3447101,58.6874029 C29.8528683,61.6880089 33.8939477,63.7368669 38.2309342,65.2462192 C38.5230882,65.3479151 38.9188819,65.3157401 39.2185419,65.2108841 C42.0156571,64.2315576 44.6987399,63.0057475 47.2143826,61.433769 C51.8568028,58.5325607 55.4660024,54.7000012 57.8471157,49.7582659 C59.9825539,45.3270216 60.8913493,40.5949984 61.2960924,35.745479 C61.6814932,31.1312393 61.5440769,26.5089559 61.4150326,21.8889706 C61.3734613,20.4040369 60.3659339,19.3034796 58.8794703,19.0885966 C56.956219,18.8102254 55.0064083,18.6731943 53.1048087,18.2925526 C47.8968452,17.2497379 43.3537342,14.8805662 39.4789401,11.2522605 C38.6792694,10.5036172 38.6515552,10.5030426 37.8377387,11.2640388 Z M38.6032747,22.8316354 C46.7172338,22.7922107 53.3727374,29.4286527 53.4488084,37.6348892 C53.5237398,45.7237473 46.9024255,52.3758587 38.6602567,52.4929523 C30.5884643,52.6074817 23.7870867,45.8260261 23.7865169,37.6625244 C23.7856621,29.5201053 30.4277749,22.8716976 38.6032747,22.8316354 Z M38.6314808,25.4943578 C31.9802509,25.4648501 26.570375,30.8417527 26.449573,37.6018409 C26.3316202,44.2163456 31.8047462,49.7376921 38.5713647,49.8305692 C45.2055,49.9214521 50.7222173,44.4362878 50.7791994,37.6930087 C50.8353267,31.033205 45.3493797,25.5241092 38.6314808,25.4943578 Z M45.5339594,33.4639835 C46.2005391,34.1312026 46.2100247,35.1778429 45.5037779,35.8860957 C44.2367302,37.1572971 42.9423754,38.4026416 41.6589435,39.6586661 C40.2789308,41.0088433 38.901505,42.361831 37.5171807,43.7077924 C36.5645954,44.6338611 35.6114352,44.6363906 34.6620117,43.7173482 C33.7186246,42.804208 32.7781118,41.8876951 31.8462224,40.9633128 C31.0439696,40.1679336 30.9887806,39.1215744 31.6947401,38.4136026 C32.4328931,37.6733098 33.4909699,37.7160298 34.338926,38.5420437 C34.9046134,39.092907 35.4452932,39.6679409 36.0477733,40.2840084 C38.2125047,38.1645899 40.2809429,36.1396052 42.3499559,34.1146205 C42.5845092,33.8850004 42.8110141,33.6466677 43.0587897,33.4313814 C43.8222377,32.7669728 44.8558819,32.7852412 45.5339594,33.4639835 Z" id="Combined-Shape" fill="#F28400"></path>
    </g>
</svg>