<?xml version="1.0" encoding="UTF-8"?>
<svg width="47px" height="47px" viewBox="0 0 47 47" version="1.1" xmlns="http://www.w3.org/2000/svg" xmlns:xlink="http://www.w3.org/1999/xlink">
    <title>Artboard</title>
    <g id="Artboard" stroke="none" stroke-width="1" fill="none" fill-rule="evenodd">
        <path d="M9.61655836,12.1392655 C9.73063445,12.2645913 9.80259878,12.3499035 9.88092666,12.4288927 C14.0726381,16.6571282 18.2645368,20.8851751 22.4574648,25.1122781 C23.3328281,25.9948436 24.3255427,25.9933335 25.2035263,25.1081257 C29.3963607,20.8809284 33.5882593,16.6527871 37.7798773,12.4243628 C37.8571757,12.3463173 37.9269877,12.2606277 38.0353553,12.1392655 L9.61655836,12.1392655 Z M8.2428726,13.6055207 C8.19720472,13.6419482 8.15144328,13.6783757 8.10568183,13.7148033 C8.1001605,13.8380529 8.08986652,13.9613969 8.08986652,14.0847409 C8.0891973,21.8552232 8.0891973,25.9037747 8.0891973,33.6743514 C8.0891973,34.9082631 8.80810605,35.6297357 10.0413257,35.6298301 C19.23161,35.6307737 28.4218945,35.6307737 37.6121789,35.6299244 C38.8446499,35.6297357 39.5649482,34.907225 39.5653019,33.6747288 C39.5653019,25.9042465 39.5653019,21.8556005 39.5646675,14.0851183 C39.5646675,13.9620575 39.5539056,13.839091 39.5482907,13.7160301 C39.5031843,13.6808294 39.4582651,13.6455343 39.4132522,13.6102393 C39.3439082,13.7309409 39.2965559,13.8737254 39.2021319,13.9691354 C35.053936,18.1599997 30.9053656,22.3504865 26.7433196,26.527195 C26.3785381,26.893169 25.9574204,27.2376262 25.5010224,27.4684597 C23.9641302,28.2459893 22.2654352,27.9017207 20.9778447,26.6042024 C16.799796,22.3938031 12.6238063,18.1814221 8.4509983,13.965738 C8.3568551,13.8705168 8.31118723,13.7265998 8.2428726,13.6055207 L8.2428726,13.6055207 Z M6,34.3790258 L6,13.379972 C6.01375651,13.3617583 6.03546746,13.3453376 6.04024013,13.3249532 C6.56878957,11.0874915 7.9227296,10.0090102 10.205468,10.0090102 C17.5354418,10.0089158 24.8655092,10.0089158 32.195483,10.0090102 C34.0744164,10.0090102 35.953724,9.9838129 37.8320022,10.0176924 C39.4379578,10.0465702 40.6060446,10.8310832 41.3020117,12.291676 C41.4644695,12.6327358 41.5394285,13.0161686 41.6546275,13.379972 L41.6546275,34.3790258 C41.5466343,34.7202744 41.4745763,35.0785098 41.3247521,35.3999403 C40.5878898,36.9818009 39.3226651,37.7358318 37.6060025,37.7363037 C28.5943656,37.7383798 19.582635,37.7373418 10.5709981,37.7372474 C10.3274985,37.7372474 10.0837182,37.7419661 9.84040578,37.7349825 C8.11868968,37.6855317 6.71037868,36.6471585 6.18987727,35.0426486 C6.11894234,34.823989 6.0628869,34.6003277 6,34.3790258 L6,34.3790258 Z" id="Fill-3" fill="#C8102E" fill-rule="nonzero"></path>
    </g>
</svg>