<?xml version="1.0" encoding="UTF-8"?>
<svg width="55px" height="55px" viewBox="0 0 55 55" version="1.1" xmlns="http://www.w3.org/2000/svg" xmlns:xlink="http://www.w3.org/1999/xlink">
    <title>icon_tiktok</title>
    <defs>
        <polygon id="path-1" points="0 0 21 0 21 23 0 23"></polygon>
    </defs>
    <g id="icon_tiktok" stroke="none" stroke-width="1" fill="none" fill-rule="evenodd">
        <g id="Artboard-Copy-10" transform="translate(17, 16)">
            <mask id="mask-2" fill="white">
                <use xlink:href="#path-1"></use>
            </mask>
            <g id="path-1"></g>
            <path d="M11.0607271,0 L15.1897557,0 C15.5691652,0.157810547 15.7145577,0.431025391 15.7299932,0.829123047 C15.7445841,1.20588281 15.8120024,1.59104297 15.9261019,1.95230469 C16.4969287,3.75973633 18.1534381,4.9583418 20.1629904,5.04593945 C20.7526773,5.07167969 20.9987985,5.31389844 20.999127,5.87214258 C20.9997838,6.99505469 21.0009566,8.11801172 20.998564,9.24092383 C20.9975318,9.74319531 20.7045415,10.0181621 20.178801,10.0096719 C18.6873889,9.98559375 17.2701978,9.66512109 15.9336555,9.0264668 C15.8693336,8.99578516 15.8030414,8.96892187 15.7145577,8.9301543 C15.7145577,9.05997852 15.7146048,9.14955273 15.7145577,9.23917188 C15.713291,11.3726914 15.7348255,13.5065703 15.7054092,15.6397305 C15.6598068,18.9518652 13.2654498,21.8744375 9.92315533,22.7273242 C9.43579211,22.8516231 8.93031934,22.9107403 8.43319761,23 L7.26020425,23 C7.20071479,22.9866583 7.14150683,22.9722833 7.08173586,22.9601542 C6.51780578,22.8461425 5.93501546,22.7857675 5.39280748,22.6102578 C1.60767307,21.3847891 -0.554543723,17.8714942 0.123579862,14.0911387 C0.750236616,10.5979238 4.11683356,7.909125 7.82061564,7.94380469 C8.24084209,7.94771289 8.54959616,8.20255469 8.55381859,8.6052793 C8.56662666,9.81021875 8.565876,11.0153828 8.55471,12.2203223 C8.55100364,12.6227324 8.25627744,12.8739805 7.83089024,12.8956328 C7.69858718,12.9023711 7.56614337,12.9147246 7.43501321,12.9329629 C5.95950561,13.1383906 4.935189,14.520457 5.20800543,15.9356758 C5.47899213,17.3410566 6.94187934,18.2880098 8.38388891,17.9915703 C9.67407839,17.7263067 10.5417425,16.6928339 10.5422117,15.4085177 C10.5439476,10.5658047 10.5465749,5.7230918 10.536441,0.880423828 C10.5355965,0.466962891 10.666023,0.173712891 11.0607271,0" id="Fill-1" fill="#FFFFFF" fill-rule="nonzero" mask="url(#mask-2)"></path>
        </g>
    </g>
</svg>