<?xml version="1.0" encoding="UTF-8"?>
<svg width="33px" height="33px" viewBox="0 0 33 33" version="1.1" xmlns="http://www.w3.org/2000/svg" xmlns:xlink="http://www.w3.org/1999/xlink">
    <title>Artboard</title>
    <g id="Artboard" stroke="none" stroke-width="1" fill="none" fill-rule="evenodd">
        <path d="M4.84012598,7.61955696 C4.92971129,7.71443637 4.98622572,7.77902296 5.04773753,7.83882271 C8.33953805,11.0398598 11.6314856,14.240754 14.9242415,17.4409337 C15.6116745,18.1090906 16.3912651,18.1079474 17.0807559,17.4377901 C20.3734383,14.237539 23.6653858,11.0365733 26.9571129,7.83539334 C27.0178162,7.77630804 27.0726404,7.71143567 27.1577428,7.61955696 L4.84012598,7.61955696 Z M3.76135433,8.72960323 C3.72549081,8.75718113 3.68955381,8.78475904 3.6536168,8.81233694 C3.64928084,8.90564455 3.64119685,8.99902362 3.64119685,9.09240268 C3.64067131,14.9751407 3.64067131,18.0401458 3.64067131,23.9229553 C3.64067131,24.8571031 4.20523884,25.4033027 5.17370079,25.4033742 C12.3909396,25.4040886 19.6081785,25.4040886 26.8254173,25.4034456 C27.7932914,25.4033027 28.3589502,24.8563172 28.3592279,23.923241 C28.3592279,18.040503 28.3592279,14.9754264 28.3587297,9.09268846 C28.3587297,8.99952373 28.3502783,8.90643045 28.3458688,8.81326573 C28.3104462,8.78661662 28.2751707,8.75989606 28.2398215,8.7331755 C28.1853648,8.82455409 28.1481785,8.93265089 28.0740262,9.00488213 C24.816399,12.1776269 21.5584777,15.3500858 18.2899738,18.5121137 C18.0035066,18.7891788 17.6727979,19.0499543 17.3143832,19.2247096 C16.1074436,19.8133478 14.7734383,19.5527151 13.7622783,18.5704131 C10.4812074,15.3828792 7.20175328,12.193845 3.9247979,9.0023101 C3.85086614,8.93022175 3.81500262,8.82126761 3.76135433,8.72960323 L3.76135433,8.72960323 Z M2,24.4564376 L2,8.55884887 C2.01080315,8.54505992 2.02785302,8.53262843 2.03160105,8.51719623 C2.44667716,6.82329863 3.50994226,6.00682126 5.30260367,6.00682126 C11.0589186,6.00674982 16.8153071,6.00674982 22.5716221,6.00682126 C24.0471707,6.00682126 25.5230131,5.98774536 26.9980472,6.01339423 C28.2592231,6.03525651 29.1765355,6.62918163 29.7230866,7.73494119 C29.8506667,7.99314465 29.9095328,8.28342707 30,8.55884887 L30,24.4564376 C29.9151916,24.714784 29.8586036,24.9859905 29.7409449,25.2293333 C29.1622783,26.4269001 28.1686824,26.9977484 26.8205669,26.9981056 C19.7436221,26.9996774 12.6666036,26.9988915 5.58965879,26.9988201 C5.39843569,26.9988201 5.20699212,27.0023924 5.01591601,26.9971054 C3.66383202,26.9596681 2.55786877,26.173555 2.14911286,24.9588413 C2.09340682,24.7933024 2.04938583,24.6239769 2,24.4564376 L2,24.4564376 Z" id="Fill-3" fill="#FFFFFF" fill-rule="nonzero"></path>
    </g>
</svg>