<?xml version="1.0" encoding="UTF-8"?>
<svg width="68px" height="68px" viewBox="0 0 68 68" version="1.1" xmlns="http://www.w3.org/2000/svg" xmlns:xlink="http://www.w3.org/1999/xlink">
    <title>Artboard Copy 5</title>
    <g id="Artboard-Copy-5" stroke="none" stroke-width="1" fill="none" fill-rule="evenodd">
        <g id="Group-6" transform="translate(4, 17)" fill="#B4B4B4">
            <path d="M26.9621728,7.2964167 C27.9758092,7.30614997 28.9894456,7.29915418 30.003082,7.29915418 C31.0167184,7.29915418 32.0303548,7.30554164 33.0439912,7.29672087 C33.7059641,7.29094174 33.96497,7.05673494 33.9683902,6.43198071 C33.9783401,4.5698846 33.978651,2.70778849 33.9680793,0.845692382 C33.9646591,0.250442123 33.7072079,0.00863121057 33.0865888,0.00619789321 C31.0387945,-0.00201455288 28.9906893,-0.00201455288 26.9428951,0.00589372854 C26.3011326,0.00863121057 26.0374628,0.259871228 26.0331098,0.894662894 C26.0212944,2.73637997 26.0206725,4.57840121 26.0340426,6.42011829 C26.0383956,7.04000589 26.317612,7.29033341 26.9621728,7.2964167" id="Fill-1"></path>
            <path d="M38.5571276,25.9500949 C37.8822539,25.9721421 37.2061481,25.9541317 36.5303503,25.9541317 C35.8751899,25.9528896 35.2194135,25.9721421 34.5651772,25.9485423 C33.48464,25.9100373 32.6927184,25.1228593 32.6526757,24.0810517 C32.6117089,23.0162654 33.3025997,22.0999095 34.3732802,22.0384257 C35.8212863,21.9552053 37.2803811,21.9598632 38.7296193,22.02911 C39.7793544,22.0794149 40.5466344,23.0327232 40.5096719,24.0400626 C40.4705532,25.1008121 39.6521418,25.9146952 38.5571276,25.9500949 M50.7051624,21.0295337 C49.1588977,20.3945124 47.494661,19.8386747 45.7447944,19.3613995 C45.7583474,14.8491771 45.7472586,10.3366443 45.7155325,5.82442197 C45.6958191,3.00983363 43.5803318,0.58277908 40.8106082,0.1315879 C39.7892111,-0.034852893 38.7299273,0.0247676897 37.6875847,0.00706782919 C36.7552056,-0.00845836421 36.5836379,0.17816648 36.5827139,1.13023266 C36.5805577,3.54735045 36.584254,5.96446823 36.5808657,8.38158602 C36.5790176,9.62678673 36.1382398,10.0841884 34.931414,10.085741 C31.653148,10.0897778 28.3748819,10.0897778 25.0969239,10.085741 C23.8768533,10.0841884 23.4545567,9.64262345 23.4539406,8.3877965 C23.4527085,5.92937904 23.4560968,3.47096158 23.4520925,1.01254411 C23.4505524,0.248034351 23.2155325,0.0114151633 22.4679658,0.00427311438 C21.8124974,-0.00193736298 21.156721,-0.000695267509 20.5012526,0.00365206664 C16.9063411,0.0281834522 14.2801552,2.63006294 14.2666023,6.24921862 C14.2505852,10.6198421 14.2496612,14.9904655 14.2570537,19.3610889 C12.5065711,19.8383641 10.8417183,20.3942019 9.29483757,21.0295337 C3.30105959,23.4910564 0,26.70591 0,30.081615 C0,34.5422903 5.75167358,38.2145456 15.7802168,40.1571829 C15.7943858,40.1599776 15.8082467,40.1624618 15.8227237,40.1646355 C20.3038112,40.9021297 24.0786069,41.1614171 26.649349,41.2427743 L23.5232453,43.4596042 C22.8973469,43.9036534 22.7467247,44.7752939 23.1871945,45.4062784 C23.4570208,45.7931911 23.8860939,46 24.3219434,46 C24.5976221,46 24.8757649,45.9174007 25.1181773,45.7453704 L31.6454475,41.1170122 C31.948232,40.9021297 32.1533739,40.5742165 32.214978,40.2062457 C32.2762742,39.8382749 32.1894123,39.4606779 31.9728736,39.1576066 L27.4258696,32.7890726 C26.9786234,32.1630564 26.1124687,32.020526 25.4911906,32.4714066 C24.8696045,32.9222873 24.7285309,33.7954804 25.1757772,34.4218071 L27.8457021,38.1611355 C25.4409832,38.1244937 21.3175079,37.9214111 16.3401988,37.1038017 C8.53186989,35.5878242 3.08020863,32.7011943 3.08020863,30.081615 C3.08020863,27.7026916 7.35153394,24.6195001 14.2635221,22.5939529 C14.2653702,23.2401531 14.2647542,23.8863533 14.2672184,24.5322429 C14.2816953,28.1495355 16.9251304,30.7604201 20.5114173,30.7666306 C23.6871124,30.77222 26.8628075,30.7678727 30.0385026,30.7678727 L30.0385026,30.765699 C33.2961313,30.765699 36.5540679,30.7874357 39.8113886,30.7594886 C43.0191178,30.7318519 45.6899667,28.1402197 45.7158405,24.9129452 C45.7220009,24.1391197 45.7247731,23.3652942 45.7293934,22.5917793 C52.6456939,24.6173265 56.9197914,27.7020706 56.9197914,30.081615 C56.9197914,31.7767648 54.2609553,34.4494437 46.7674237,36.4020178 C44.4166085,37.0143708 41.811676,37.4913355 39.0247033,37.8189382 C38.179802,37.9183058 37.5748491,38.6893366 37.6734157,39.540793 C37.7719824,40.39256 38.5386464,41.0030499 39.3816995,40.9030612 C42.3075896,40.5593113 45.0517475,40.0562626 47.5380919,39.4081993 C55.5743562,37.3143369 60,34.0019788 60,30.081615 C60,26.70591 56.6989404,23.4910564 50.7051624,21.0295337" id="Fill-3"></path>
        </g>
    </g>
</svg>