<?xml version="1.0" encoding="UTF-8"?>
<svg width="33px" height="33px" viewBox="0 0 33 33" version="1.1" xmlns="http://www.w3.org/2000/svg" xmlns:xlink="http://www.w3.org/1999/xlink">
    <title>Artboard Copy 24</title>
    <g id="Artboard-Copy-24" stroke="none" stroke-width="1" fill="none" fill-rule="evenodd">
        <path d="M20.5709324,15.2484954 C20.5831345,15.1467193 20.6020009,15.0624634 20.6020947,14.9782955 C20.6032211,13.8056685 20.6175821,10.642652 20.5970262,9.47037715 C20.571214,8.00210621 19.4010301,6.81988266 17.8477934,6.65797403 C16.3495601,6.50187614 14.9084891,7.44383398 14.5737754,8.85795929 C14.4605772,9.33611361 14.4860139,9.84666725 14.4793497,10.342694 C14.4663967,11.306046 14.4755952,14.2598755 14.4755952,15.2484954 L20.5709324,15.2484954 Z M11.6613157,9.53975399 C11.6806514,6.9108297 13.5415694,4.73206248 16.2642391,4.13866162 C19.8070793,3.36653617 23.332555,5.91833595 23.4114934,9.32554861 C23.4380565,10.469386 23.4186269,13.6042292 23.4201287,14.7485948 C23.4203165,14.9068057 23.4201287,15.0651046 23.4201287,15.2343207 C23.7648857,15.2899631 25.15345,15.3187527 25.4522143,15.3920034 C26.9172203,15.7511253 27.9510219,16.9086092 27.9667908,18.3239671 C27.9968268,21.0230606 28.0282708,21.7337895 27.9551519,24.4314743 C27.8741485,27.4209293 26.1923764,29.92413 22.9992679,29.9740497 C20.7942499,30.008474 13.200586,30.0089142 10.995568,29.9737856 C7.80536918,29.9229855 6.12706995,27.4177598 6.04587889,24.4256636 C5.97266613,21.7280668 6.00073102,21.0171618 6.03621105,18.3182444 C6.05704852,16.7273314 7.36474094,15.4751147 9.06130572,15.3036976 C9.19862657,15.289875 11.4896412,15.2668961 11.6598139,15.2436531 C11.6598139,13.9901158 11.6523049,10.7697842 11.6613157,9.53975399 Z" id="Fill-4" fill="#042868"></path>
    </g>
</svg>