<?xml version="1.0" encoding="UTF-8"?>
<svg width="33px" height="33px" viewBox="0 0 33 33" version="1.1" xmlns="http://www.w3.org/2000/svg" xmlns:xlink="http://www.w3.org/1999/xlink">
    <title>Artboard Copy 9</title>
    <g id="Artboard-Copy-9" stroke="none" stroke-width="1" fill="none" fill-rule="evenodd">
        <g id="Group-2" transform="translate(4, 3)" fill="#042868" fill-rule="nonzero">
            <path d="M11,0 C17.0751322,0 22,4.92486775 22,11 C22,17.0751322 17.0751322,22 11,22 C4.92486775,22 0,17.0751322 0,11 C0,4.92486775 4.92486775,0 11,0 Z M11,3.47368421 C6.84333057,3.47368421 3.47368421,6.84333057 3.47368421,11 C3.47368421,15.1566694 6.84333057,18.5263158 11,18.5263158 C15.1566694,18.5263158 18.5263158,15.1566694 18.5263158,11 C18.5263158,6.84333057 15.1566694,3.47368421 11,3.47368421 Z" id="Oval"></path>
            <path d="M19.0864075,17 L24.2677883,23.1996748 C24.9635382,24.03216 24.8526923,25.2710393 24.0202071,25.9667892 C24.0137344,25.9721987 24.007227,25.9775665 24.0006852,25.9828922 C23.1452004,26.6793443 21.8887953,26.5587681 21.1813808,25.7123258 L16,19.512651 L16,19.512651 L19.0864075,17 Z" id="Path-2"></path>
        </g>
    </g>
</svg>