<?xml version="1.0" encoding="UTF-8"?>
<svg width="87px" height="76px" viewBox="0 0 87 76" version="1.1" xmlns="http://www.w3.org/2000/svg" xmlns:xlink="http://www.w3.org/1999/xlink">
    <title>“</title>
    <g id="Page-1" stroke="none" stroke-width="1" fill="none" fill-rule="evenodd" opacity="0.364158994">
        <g id="1_Home" transform="translate(-346, -1659)" fill="#92E47F" fill-rule="nonzero">
            <g id="“" transform="translate(389.5, 1697) rotate(-180) translate(-389.5, -1697)translate(346, 1659)">
                <path d="M81.1292883,0 C82.0337397,0.180308422 83.0286362,0.631079478 84.1139779,1.35231317 C85.1993195,2.07354686 86.0133258,3.06524318 86.5559966,4.32740214 C87.0986674,5.58956109 87.14389,7.03202847 86.6916643,8.65480427 C86.2394386,10.2775801 84.837539,11.9905101 82.4859654,13.7935943 C72.35611,23.890866 67.2911823,31.0130486 67.2911823,35.1601423 C67.2911823,37.6844603 69.1000851,39.2170819 72.7178906,39.7580071 C76.1548058,40.2989324 79.0038276,42.1020166 81.2649561,45.1672598 C83.5260845,48.232503 84.6566487,52.109134 84.6566487,56.797153 C84.6566487,61.6654804 82.9834137,66.0830368 79.6369436,70.0498221 C76.2904735,74.0166074 71.9943295,76 66.7485115,76 C61.3218032,76 56.6638787,73.881376 52.7747377,69.6441281 C48.8855968,65.4068802 46.9410264,59.4116251 46.9410264,51.658363 C46.9410264,39.5776987 51.8250638,27.9478055 61.5931386,16.7686833 C71.1803232,5.58956109 77.6923731,0 81.1292883,0 Z M33.9169266,0 C34.8213779,0.180308422 35.861497,0.631079478 37.0372838,1.35231317 C38.2130706,2.07354686 39.0722994,3.06524318 39.6149702,4.32740214 C40.1576411,5.58956109 40.2028636,7.03202847 39.7506379,8.65480427 C39.2984122,10.2775801 37.8965126,11.9905101 35.544939,13.7935943 C25.2341934,23.890866 20.0788205,31.0130486 20.0788205,35.1601423 C20.0788205,37.6844603 21.8877233,39.2170819 25.5055288,39.7580071 C29.1233343,40.2989324 32.0175787,42.1020166 34.188262,45.1672598 C36.3589453,48.232503 37.4442869,52.109134 37.4442869,56.797153 C37.4442869,61.6654804 35.8162745,66.0830368 32.5602495,70.0498221 C29.3042246,74.0166074 24.962858,76 19.5361497,76 C14.1094415,76 9.49673944,73.881376 5.69804366,69.6441281 C1.89934789,65.4068802 7.10542736e-14,59.4116251 7.10542736e-14,51.658363 C7.10542736e-14,39.5776987 4.88403743,27.9478055 14.6521123,16.7686833 C23.8775163,5.58956109 30.2991211,0 33.9169266,0 Z" id="Shape"></path>
            </g>
        </g>
    </g>
</svg>