<?xml version="1.0" encoding="UTF-8"?>
<svg width="42px" height="42px" viewBox="0 0 42 42" version="1.1" xmlns="http://www.w3.org/2000/svg" xmlns:xlink="http://www.w3.org/1999/xlink">
    <title>Artboard Copy 3</title>
    <g id="Artboard-Copy-3" stroke="none" stroke-width="1" fill="none" fill-rule="evenodd">
        <path d="M23.7790656,8 C24.4760182,8.03336519 25.1744151,8.04649829 25.8693288,8.10453242 C26.4905885,8.12920137 27.1097244,8.16833447 27.7193455,8.26931741 C27.7256321,8.27038225 27.7316637,8.27162457 27.7379502,8.27268942 C27.955939,8.30596587 28.1716342,8.34838225 28.3835064,8.40535154 C28.3925963,8.40774744 28.4013465,8.41058703 28.4105214,8.41307167 C29.7537098,8.74832082 30.8646374,9.38323549 31.728947,10.3181706 C32.4501111,11.0803345 32.9796218,12.0242321 33.323001,13.1381502 C33.3497611,13.2203208 33.3757566,13.3032014 33.4008177,13.387413 C33.7362113,14.5177474 33.8178509,15.6902321 33.8448659,16.8674198 L33.8520869,17.1257338 C33.8714561,17.4517543 33.8779125,17.7788396 33.8911652,18.1054812 L33.8911652,23.8945188 C33.8756188,24.3156655 33.855485,24.7366348 33.8455455,25.1578703 C33.8166616,26.3862594 33.7247427,27.6082594 33.3521398,28.7818089 C33.2759371,29.0219317 33.1917489,29.2526485 33.1010193,29.4755563 C33.0857278,29.5234744 33.0685674,29.5714812 33.0471593,29.6193993 C33.0023042,29.7195836 32.9556651,29.817372 32.9080916,29.9139181 C32.35318,31.0832082 31.5805345,31.9905461 30.6046818,32.6393038 L30.5320472,32.6876655 L30.4889762,32.7153515 C29.6939031,33.2281638 28.7777723,33.5651877 27.7483144,33.7274881 C27.6965782,33.7356519 27.6446721,33.7429283 27.5928509,33.7502935 C27.0288493,33.8356143 26.4572233,33.8713311 25.8836434,33.8943916 L24.7355584,33.9345855 L24.1627124,33.9625529 C24.0346036,33.9703618 23.9069195,33.9873106 23.7790656,34 L19.1120146,34 C18.9841607,33.9873106 18.8565616,33.9703618 18.7284528,33.9625529 C18.5378329,33.9509875 18.3468048,33.9421212 18.1555773,33.9345855 L17.00749,33.8943916 C16.4339206,33.8713311 15.8623158,33.8356143 15.2983143,33.7502935 C15.2464931,33.7429283 15.194587,33.7356519 15.1427658,33.7274881 C14.113308,33.5651877 13.1972621,33.2281638 12.4021041,32.7153515 C12.387747,32.7062116 12.373475,32.6968942 12.359118,32.6876655 C12.3348215,32.6716928 12.310525,32.6556314 12.2863984,32.6393038 C11.3106307,31.9905461 10.5379002,31.0832082 9.9830736,29.9139181 C9.93550004,29.817372 9.88886096,29.7195836 9.84400589,29.6193993 C9.82251284,29.5714812 9.80535237,29.5234744 9.79006087,29.4755563 C9.6993313,29.2526485 9.61522805,29.0219317 9.5390254,28.7818089 C9.16633755,27.6082594 9.07450359,26.3862594 9.04553469,25.1578703 C9.03568017,24.7366348 9.01546141,24.3156655 9,23.8945188 L9,18.1054812 C9.01316768,17.7788396 9.01962409,17.4517543 9.03899333,17.1257338 L9.04621431,16.8674198 C9.0732293,15.6902321 9.15486892,14.5177474 9.49034746,13.387413 C9.51532358,13.3032014 9.54140408,13.2203208 9.56816421,13.1381502 C9.9114584,12.0242321 10.441054,11.0803345 11.1621333,10.3181706 C12.0265278,9.38323549 13.1374553,8.74832082 14.4806438,8.41307167 C14.4897337,8.41058703 14.4984839,8.40774744 14.5076588,8.40535154 C14.719531,8.34838225 14.9352261,8.30596587 15.15313,8.27268942 C15.1594165,8.27162457 15.1655331,8.27038225 15.1718196,8.26931741 C15.7814408,8.16833447 16.4004917,8.12920137 17.0218364,8.10453242 C17.7166652,8.04649829 18.4151469,8.03336519 19.1120146,8 Z M21.4455826,10.0468123 C19.4992294,10.0592355 17.5471844,10.0791126 15.6117901,10.2595154 C15.2041866,10.2974949 14.8207098,10.376471 14.4618692,10.4941365 C13.4302026,10.8678089 12.5720946,11.5660819 11.9850709,12.5043003 L11.9790392,12.5143276 C11.9656167,12.535802 11.9531286,12.5579863 11.9401308,12.5796382 C11.7600309,12.8903959 11.6029532,13.2305256 11.4700021,13.5997611 C11.427101,13.7192014 11.3878528,13.8393515 11.3520027,13.9603003 C11.2882032,14.1926143 11.2373165,14.4330922 11.2005319,14.6812901 C11.0787096,15.501843 11.0211116,16.3374812 10.9974948,17.171256 C10.9829678,18.8205256 10.9805042,20.469884 10.977361,22.1192423 C10.9824581,23.230942 10.9918879,24.3427304 11.0043759,25.45443 C11.0164392,26.5306348 11.1376669,27.6029352 11.5434013,28.6080614 C11.5897856,28.7228874 11.6385485,28.8345188 11.68969,28.9433993 C12.4114489,30.4262867 13.5304469,31.2960887 14.9580784,31.6421638 C15.1668924,31.6871536 15.3825875,31.72043 15.6055036,31.7406621 C17.5435314,31.9170717 19.4973604,31.9406758 21.4455826,31.9535427 C23.3938047,31.9406758 25.3475488,31.9170717 27.2856616,31.7406621 C27.5084927,31.72043 27.7241879,31.6871536 27.9330867,31.6421638 C29.3607183,31.2960887 30.4797163,30.4262867 31.2014751,28.9433993 C31.2525318,28.8345188 31.3012947,28.7228874 31.3476789,28.6080614 C31.7534134,27.6029352 31.874641,26.5306348 31.8867892,25.45443 C31.8992773,24.3427304 31.908707,23.230942 31.9137193,22.1192423 C31.910576,20.469884 31.9081124,18.8205256 31.8935855,17.171256 C31.8700535,16.3374812 31.8123706,15.501843 31.6906333,14.6812901 C31.6538487,14.4330922 31.602962,14.1926143 31.5391624,13.9603003 C31.5032274,13.8394403 31.4640642,13.7192014 31.4210781,13.5997611 C31.288127,13.2305256 31.1310493,12.8903959 30.9510343,12.5796382 C30.9379516,12.5579863 30.9254635,12.535802 30.912126,12.5143276 L30.9060943,12.5043003 C30.3189856,11.5660819 29.4608776,10.8678089 28.4292959,10.4941365 C28.0703704,10.376471 27.6869785,10.2974949 27.2793751,10.2595154 C25.3438959,10.0791126 23.3918508,10.0592355 21.4455826,10.0468123 Z M21.3933366,14.6525738 C24.7417505,14.6507113 27.4715383,17.4990867 27.4732381,20.9966635 C27.4749364,24.4934416 24.7471026,27.3454553 21.3990285,27.3474085 C18.0518039,27.3493597 15.3212516,24.4994758 15.3200619,21.0026976 C15.3189578,17.504056 18.044328,14.6544382 21.3933366,14.6525738 Z M21.3867103,16.6837653 C19.1140535,16.6870526 17.2636969,18.6261379 17.2647159,21.0031413 C17.2658208,23.3782812 19.1195754,25.3147932 21.3935065,25.3161249 C23.6772072,25.3174553 25.5348697,23.3710048 25.5285991,20.9832642 C25.5224666,18.6106089 23.6631051,16.6805747 21.3867103,16.6837653 Z M28.144101,12.6217501 C28.9534461,12.6174225 29.6128496,13.3026512 29.6117466,14.1468969 C29.6105559,14.9800505 28.9601574,15.6627058 28.1632153,15.667165 C27.354125,15.6716683 26.6954012,14.9865283 26.6964194,14.141484 C26.6973551,13.3069106 27.3458846,12.62603 28.144101,12.6217501 Z" id="Combined-Shape" fill="#FFFFFF"></path>
    </g>
</svg>