<?xml version="1.0" encoding="UTF-8"?>
<svg width="55px" height="55px" viewBox="0 0 55 55" version="1.1" xmlns="http://www.w3.org/2000/svg" xmlns:xlink="http://www.w3.org/1999/xlink">
    <title>icon_close</title>
    <g id="icon_close" stroke="none" stroke-width="1" fill="none" fill-rule="evenodd">
        <path d="M28.5,4 C29.8807119,4 31,5.11928813 31,6.5 L31,25 L49.5,25 C50.8807119,25 52,26.1192881 52,27.5 C52,28.8807119 50.8807119,30 49.5,30 L31,30 L31,48.5 C31,49.8807119 29.8807119,51 28.5,51 C27.1192881,51 26,49.8807119 26,48.5 L26,29.999 L7.5,30 C6.11928813,30 5,28.8807119 5,27.5 C5,26.1192881 6.11928813,25 7.5,25 L26,24.999 L26,6.5 C26,5.11928813 27.1192881,4 28.5,4 Z" id="Combined-Shape" fill="#FFFFFF" transform="translate(28.5, 27.5) rotate(-315) translate(-28.5, -27.5)"></path>
    </g>
</svg>