<?xml version="1.0" encoding="UTF-8"?>
<svg width="78px" height="77px" viewBox="0 0 78 77" version="1.1" xmlns="http://www.w3.org/2000/svg" xmlns:xlink="http://www.w3.org/1999/xlink">
    <title>zzzz  copy</title>
    <g id="zzzz--copy" stroke="none" stroke-width="1" fill="none" fill-rule="evenodd">
        <path d="M42.5858884,15.1442539 C46.5955083,15.1442539 49.8461864,18.3563316 49.8461864,22.3183389 L49.8461864,29.492424 L59.6805008,29.492424 C62.4092528,29.492424 64.9083574,31.0044183 66.1486993,33.4058923 L69.6462176,40.1892372 C69.793585,40.4501351 69.8832335,40.738943 69.9102508,41.0362452 L69.9102508,51.9939564 C69.9102508,53.793545 68.4328931,55.2545732 66.6104503,55.2545732 L65.3565998,55.2545732 C64.660289,58.0164503 62.4767962,60.1728016 59.6817288,60.8620574 C55.5075487,61.8886603 51.28179,59.3791867 50.2416221,55.2545732 L27.6035414,55.2545732 C26.9060026,58.0164503 24.7237378,60.1728016 21.9286705,60.8620574 C17.7544904,61.8886603 13.5275036,59.3791867 12.4873357,55.2545732 L11.2998005,55.2545732 C9.47735766,55.2545732 8,53.793545 8,51.9939564 L8,22.3183389 C8,18.3563316 11.24945,15.1442539 15.260298,15.1442539 L42.5858884,15.1442539 Z M57.7709883,49.4490492 C55.6096006,49.4490492 53.8657536,51.1721887 53.8657536,53.2957761 C53.8657536,55.4193635 55.6096006,57.1425031 57.7709883,57.1425031 L57.8950225,57.1425031 C60.0183404,57.1060987 61.7007843,55.3829592 61.6639424,53.2957761 C61.6639424,51.1721887 59.9200955,49.4490492 57.7709883,49.4490492 Z M19.9467025,49.4490492 C17.7975953,49.4854535 16.0783096,51.2328626 16.1151514,53.3685848 C16.1519933,55.4921723 17.9339101,57.1789074 20.0830173,57.1425031 L20.1431923,57.1425031 C22.2554576,57.1060987 23.9379015,55.3829592 23.9010596,53.2957761 L23.9010596,53.2351022 C23.8654458,51.1115148 22.0958096,49.4126448 19.9467025,49.4490492 Z M65.9497533,43.1234283 L49.8461864,43.1234283 L49.8461864,51.3411049 L50.2416221,51.3411049 C50.9379329,48.5792278 53.1201977,46.421663 55.9164931,45.7336206 C60.0906732,44.7070178 64.3164319,47.2177049 65.3565998,51.3411049 L65.9497533,51.3411049 L65.9497533,43.1234283 Z M42.5858884,19.0577221 L15.260298,19.0577221 C13.4378551,19.0577221 11.9604975,20.5175368 11.9604975,22.3183389 L11.9604975,51.3411049 L12.4873357,51.3411049 C13.3936449,47.9385111 16.5178327,45.5758684 20.0792103,45.6025649 C23.6221669,45.5819358 26.7242496,47.9494324 27.6035414,51.3411049 L45.885689,51.3411049 L45.885689,22.3183389 C45.885689,20.5175368 44.4071032,19.0577221 42.5858884,19.0577221 Z M59.6805008,33.4058923 L49.8461864,33.4058923 L49.8461864,39.2099601 L64.6971309,39.2099601 L62.5836375,35.1666496 C62.0457467,34.072092 60.9122462,33.3852631 59.6805008,33.4058923 Z" id="Combined-Shape" fill="#F28400"></path>
    </g>
</svg>