<?xml version="1.0" encoding="UTF-8"?>
<svg width="55px" height="55px" viewBox="0 0 55 55" version="1.1" xmlns="http://www.w3.org/2000/svg" xmlns:xlink="http://www.w3.org/1999/xlink">
    <title>icon_instagram</title>
    <g id="icon_instagram" stroke="none" stroke-width="1" fill="none" fill-rule="evenodd">
        <path d="M27.97,23.8123619 C29.073665,23.8091217 30.1330661,24.2461091 30.9134785,25.0265215 C31.6938909,25.8069339 32.1308783,26.866335 32.1276381,27.97 C32.1308783,29.073665 31.6938909,30.1330661 30.9134785,30.9134785 C30.1330661,31.6938909 29.073665,32.1308783 27.97,32.1276381 C26.866335,32.1308783 25.8069339,31.6938909 25.0265215,30.9134785 C24.2461091,30.1330661 23.8091217,29.073665 23.8123619,27.97 C23.8091217,26.866335 24.2461091,25.8069339 25.0265215,25.0265215 C25.8069339,24.2461091 26.866335,23.8091217 27.97,23.8123619 L27.97,23.8123619 Z M27.97,22.14858 C24.7646,22.14858 22.14952,24.7646 22.14952,27.97 C22.14952,31.1754 24.7646,33.79048 27.97,33.79048 C31.1754,33.79048 33.79048,31.1754 33.79048,27.97 C33.79048,24.7646 31.1754,22.14952 27.97,22.14952 L27.97,22.14858 Z M34.2069,20.48666 C33.517991,20.48666 32.95952,21.045131 32.95952,21.73404 C32.95952,22.422949 33.517991,22.98142 34.2069,22.98142 C34.895809,22.98142 35.45428,22.422949 35.45428,21.73404 C35.45428,21.045131 34.895809,20.48666 34.2069,20.48666 Z M23.43544,18.8228411 L32.50456,18.8228411 C33.7289644,18.8193517 34.9042317,19.3041918 35.77002,20.16998 C36.6358082,21.0357683 37.1206483,22.2110356 37.1171589,23.43544 L37.1171589,32.50456 C37.1206483,33.7289644 36.6358082,34.9042317 35.77002,35.77002 C34.9042317,36.6358082 33.7289644,37.1206483 32.50456,37.1171589 L23.43544,37.1171589 C22.2110356,37.1206483 21.0357683,36.6358082 20.16998,35.77002 C19.3041918,34.9042317 18.8193517,33.7289644 18.8228411,32.50456 L18.8228411,23.43544 C18.8193517,22.2110356 19.3041918,21.0357683 20.16998,20.16998 C21.0357683,19.3041918 22.2110356,18.8193517 23.43544,18.8228411 L23.43544,18.8228411 Z M23.43544,17.16 C19.98,17.16 17.16,19.98 17.16,23.43544 L17.16,32.50456 C17.16,35.96 19.98,38.78 23.43544,38.78 L32.50456,38.78 C35.96,38.78 38.78,35.96 38.78,32.50456 L38.78,23.43544 C38.78,19.98 35.96,17.16 32.50456,17.16 L23.43544,17.16 L23.43544,17.16 Z" id="Shape" fill="#FFFFFF" fill-rule="nonzero"></path>
    </g>
</svg>