<?xml version="1.0" encoding="UTF-8"?>
<svg width="42px" height="42px" viewBox="0 0 42 42" version="1.1" xmlns="http://www.w3.org/2000/svg" xmlns:xlink="http://www.w3.org/1999/xlink">
    <title>Artboard</title>
    <g id="Artboard" stroke="none" stroke-width="1" fill="none" fill-rule="evenodd">
        <path d="M25.9650908,12.0497708 L25.9650908,9.71769271 C24.970095,9.65756771 23.9874817,9.53494792 23.0085894,9.68783333 C21.3946491,9.93991146 20.3132194,10.922901 19.8825141,12.6885313 C19.748624,13.2375104 19.6837833,13.8193958 19.6678019,14.3889583 C19.6351681,15.5471771 19.6584692,16.7072917 19.6563953,17.866526 C19.6553584,18.4396094 19.36324,18.7638646 18.8487237,18.765151 C18.1397465,18.7669792 17.4307693,18.765625 16.7217921,18.765625 L16.4837787,18.765625 L16.4837787,21.4696927 C17.2568646,21.4696927 18.0107972,21.469151 18.7647908,21.4698958 C19.3872121,21.4705729 19.6573713,21.7695729 19.6574323,22.4573542 C19.6576153,25.6560313 19.6574933,28.8547083 19.6574933,32.0533177 L19.6574933,32.3562448 L22.1031993,32.3562448 L22.1031993,31.7553333 C22.1032603,28.6412917 22.1024673,25.5273177 22.1040533,22.413276 C22.1043583,21.7859583 22.385863,21.4762604 22.9466156,21.4742292 C23.3506649,21.4728073 23.7547142,21.4738906 24.1587635,21.4738906 L25.2489769,21.4738906 C25.3516971,20.5645 25.4517335,19.6781979 25.5548197,18.765625 L25.2923463,18.765625 C24.4842477,18.765625 23.6761491,18.7679948 22.8681115,18.7646094 C22.4324653,18.7627813 22.1129589,18.4484115 22.110458,17.9696458 C22.1042363,16.7937552 22.0892308,15.6161719 22.1369311,14.4421771 C22.1876202,13.1928906 22.8375516,12.3849948 23.9173343,12.136776 C24.1764529,12.0771927 24.4462461,12.0619583 24.7118914,12.0532917 C25.1217965,12.0398854 25.5323115,12.0497708 25.9650908,12.0497708 L25.9650908,12.0497708 Z M24.9627753,8 C25.3334588,8.03371875 25.7042033,8.06540625 26.0745818,8.10176562 C26.3248557,8.12634375 26.5768375,8.14259375 26.8240005,8.18924479 C27.2065176,8.26142187 27.4380652,8.54992708 27.4404441,8.975 C27.4476419,10.2861042 27.4470929,11.597276 27.4399561,12.9083802 C27.4377602,13.3140208 27.2431773,13.5772031 26.8601722,13.626224 C26.454293,13.6781563 26.040911,13.6599427 25.630762,13.6690833 C25.2047535,13.6785625 24.777769,13.6669844 24.3528585,13.6957604 C23.8296195,13.7311719 23.6025858,13.9739063 23.5877023,14.5571458 C23.5661091,15.4085104 23.5821515,16.261026 23.5821515,17.140625 L23.8403551,17.140625 C24.6633982,17.140625 25.4864412,17.1387292 26.3094843,17.1413021 C26.8571223,17.1430625 27.1705899,17.5407135 27.1032484,18.1434531 C26.9515469,19.5022917 26.7996624,20.8611979 26.645948,22.2197656 C26.5745806,22.8504688 26.3264417,23.093474 25.7572714,23.0944219 C25.0421334,23.0955729 24.3270564,23.0946927 23.5870313,23.0946927 C23.5805046,23.2191406 23.5701959,23.3246302 23.5701349,23.4301875 C23.569281,26.6107865 23.5648891,29.7914531 23.5741608,32.9720521 C23.5756247,33.4705208 23.429474,33.8242292 22.9955968,34 L18.7410016,34 C18.3160301,33.794099 18.1838479,33.4311823 18.1860438,32.9254688 C18.1997683,29.7609167 18.1929366,26.5962292 18.1929366,23.4316094 L18.1929366,23.0946927 L17.934001,23.0946927 C17.2327095,23.0946927 16.531357,23.096724 15.8300655,23.0940156 C15.2859653,23.091849 15.0020817,22.7742292 15.0012887,22.1658698 C14.9995197,20.8035781 14.9996417,19.4412865 15.0012277,18.0789271 C15.0018987,17.4546563 15.2854773,17.1413698 15.84501,17.1407604 C16.5463625,17.1400833 17.247654,17.140625 17.9489454,17.140625 L18.2027572,17.140625 C18.2027572,16.9859792 18.2048311,16.8536094 18.2024522,16.721375 C18.180676,15.537224 18.1451143,14.3529375 18.3263997,13.1769792 C18.4726724,12.227776 18.7148336,11.3158802 19.1750618,10.4913281 C20.0390954,8.9433125 21.3517066,8.23901042 22.9341111,8.04888542 C23.0162141,8.039 23.0970971,8.01658854 23.1785902,8 L24.9627753,8 Z" id="Fill-17" fill="#FFFFFF"></path>
    </g>
</svg>