<?xml version="1.0" encoding="UTF-8"?>
<svg width="55px" height="55px" viewBox="0 0 55 55" version="1.1" xmlns="http://www.w3.org/2000/svg" xmlns:xlink="http://www.w3.org/1999/xlink">
    <title>icon_youtube</title>
    <g id="icon_youtube" stroke="none" stroke-width="1" fill="none" fill-rule="evenodd">
        <path d="M24.77776,31.307 L24.77776,22.64772 L31.90954,26.97736 L24.77776,31.30794 L24.77776,31.307 Z M38.07124,20.56938 C37.45178,19.45548 36.78062,19.25056 35.41292,19.17254 C34.04616,19.07854 30.60952,19.04 27.63348,19.04 C24.65086,19.04 21.21328,19.07854 19.8484,19.1716 C18.48352,19.25056 17.81048,19.4536 17.18538,20.56938 C16.549,21.68234 16.22,23.599 16.22,26.9736 L16.22,26.98488 C16.22,30.34444 16.54806,32.27614 17.18538,33.37688 C17.81048,34.49078 18.48258,34.69288 19.84746,34.78688 C21.21328,34.86772 24.65086,34.91566 27.63348,34.91566 C30.61046,34.91566 34.04616,34.86866 35.41386,34.78876 C36.78156,34.69476 37.45366,34.49266 38.07218,33.37876 C38.71608,32.27708 39.04038,30.34632 39.04038,26.98676 L39.04038,26.9736 C39.04038,23.599 38.71608,21.6814 38.07124,20.56844 L38.07124,20.56938 Z" id="Shape" fill="#FFFFFF" fill-rule="nonzero"></path>
    </g>
</svg>