<?xml version="1.0" encoding="UTF-8"?>
<svg width="68px" height="68px" viewBox="0 0 68 68" version="1.1" xmlns="http://www.w3.org/2000/svg" xmlns:xlink="http://www.w3.org/1999/xlink">
    <title>icons copy 2</title>
    <g id="icons-copy-2" stroke="none" stroke-width="1" fill="none" fill-rule="evenodd">
        <g id="Group-7" transform="translate(5, 11)" fill="#DA1B5C">
            <path d="M33.3151954,21.5077001 L33.3151954,9.38790068 L40.8400424,9.38790068 C43.8131836,9.38790068 46.5036763,11.0984999 47.6849333,13.7405573 L51.1588421,21.5077001 L33.3151954,21.5077001 Z M51.7022737,10.3240058 C50.2079703,6.96011996 46.7900578,4.77966102 43.0079023,4.77966102 L28.1144649,4.77966102 L28.1144649,27.8213757 L1.61111111,27.8213757 L1.61111111,38.2372881 L5.331404,38.2372881 C6.02629242,34.0736081 9.72738655,30.8873395 14.223096,30.8873395 C18.7166722,30.8873395 22.4161665,34.0736081 23.1121215,38.2372881 L35.7433051,38.2372881 C36.4392601,34.0736081 40.1907564,30.8873395 44.6360637,30.8873395 C49.0813711,30.8873395 52.8275343,34.0736081 53.5256225,38.2372881 L58,38.2372881 L58,24.5137697 L51.7022737,10.3240058 Z" id="Fill-1"></path>
            <path d="M3.67667842,21.8416905 L21.2955438,21.8416905 L21.2955438,3.64983491 L3.67667842,3.64983491 L3.67667842,21.8416905 Z M0,25.4915254 L24.9722222,25.4915254 L24.9722222,0 L0,0 L0,25.4915254 Z" id="Fill-3"></path>
            <path d="M44.7099773,42.8939842 C43.2216175,42.8939842 42.0143802,41.7005514 42.0143802,40.2280006 C42.0143802,38.7576177 43.2216175,37.5636429 44.7099773,37.5636429 C46.1988851,37.5636429 47.4039305,38.7576177 47.4039305,40.2280006 C47.4039305,41.7005514 46.1988851,42.8939842 44.7099773,42.8939842 M44.7099773,33.4576271 C40.9249622,33.4576271 37.8611111,36.4883611 37.8611111,40.2280006 C37.8611111,43.969808 40.9249622,47 44.7099773,47 C48.4911565,47 51.5555556,43.969808 51.5555556,40.2280006 C51.5555556,36.4883611 48.4911565,33.4576271 44.7099773,33.4576271" id="Fill-5"></path>
            <path d="M14.0980443,42.8939842 C12.6089578,42.8939842 11.4021235,41.7005514 11.4021235,40.2280006 C11.4021235,38.7576177 12.6089578,37.5636429 14.0980443,37.5636429 C15.5871309,37.5636429 16.7917728,38.7576177 16.7917728,40.2280006 C16.7917728,41.7005514 15.5871309,42.8939842 14.0980443,42.8939842 M14.0980443,33.4576271 C10.3142189,33.4576271 7.25,36.4883611 7.25,40.2280006 C7.25,43.969808 10.3142189,47 14.0980443,47 C17.8818697,47 20.9444444,43.969808 20.9444444,40.2280006 C20.9444444,36.4883611 17.8818697,33.4576271 14.0980443,33.4576271" id="Fill-6"></path>
        </g>
    </g>
</svg>