<?xml version="1.0" encoding="UTF-8"?>
<svg width="47px" height="47px" viewBox="0 0 47 47" version="1.1" xmlns="http://www.w3.org/2000/svg" xmlns:xlink="http://www.w3.org/1999/xlink">
    <title>Artboard Copy 16</title>
    <g id="Artboard-Copy-16" stroke="none" stroke-width="1" fill="none" fill-rule="evenodd">
        <g id="Group-3" transform="translate(23.8657, 23.8321) scale(-1, 1) translate(-23.8657, -23.8321)translate(10, 6)" fill="#C8102E" fill-rule="nonzero">
            <path d="M18.4733335,13.0789462 C18.4733335,11.0541444 18.4770779,9.0702573 18.4684825,7.08637024 C18.4674613,6.84611586 18.4170796,6.60193575 18.3613367,6.36665395 C17.822884,4.09566551 15.682009,2.5528555 13.4275203,2.8045381 C10.9846114,3.07715792 9.25308649,4.99613965 9.24346975,7.45381812 C9.23649122,9.22920556 9.24168256,11.0046802 9.24278891,12.7801549 C9.24287402,12.8797811 9.2553843,12.97932 9.26210751,13.0789462 L18.4733335,13.0789462 Z M13.8726139,15.8810859 C10.6905773,15.8810859 7.50862576,15.8810859 4.32658911,15.8813905 C3.24117334,15.881565 2.71991166,16.4123231 2.71982656,17.5183308 C2.71953933,22.0918007 2.71953933,26.6652706 2.71982656,31.2386532 C2.71991166,32.3452716 3.24091804,32.8768148 4.32531255,32.8768148 C10.6893007,32.8770362 17.0532889,32.8770362 23.4172771,32.8768148 C24.4797148,32.8767276 25.0069338,32.3398628 25.007104,31.2574094 C25.0074391,26.6723369 25.0074391,22.0872642 25.007104,17.5021045 C25.0069338,16.4191277 24.479885,15.8817396 23.4185536,15.8814778 C20.2366022,15.8808672 17.0545655,15.8810859 13.8726139,15.8810859 L13.8726139,15.8810859 Z M14.5429777,0 C15.155641,0.152405377 15.786772,0.25150813 16.3779891,0.466114443 C19.3144157,1.53190522 21.1840644,4.26185456 21.1996384,7.4674273 C21.2080637,9.1970146 21.2011703,10.9266019 21.2011703,12.6561892 C21.2012554,12.7836444 21.2011703,12.9110996 21.2011703,13.0950853 C21.3301879,13.0950853 21.4486525,13.0929043 21.5671173,13.0954342 C22.471602,13.1147139 23.385278,13.058358 24.2787844,13.1707209 C26.1901339,13.4113243 27.6654959,15.1318388 27.7157074,17.1061297 C27.7443022,18.2314169 27.7249837,19.3579257 27.7251539,20.4839109 C27.7256646,24.1288159 27.7306006,27.773721 27.7231965,31.4186259 C27.7191115,33.4531112 26.4458713,35.103835 24.53716,35.5541593 C24.2098502,35.6313653 23.8645835,35.6584965 23.5276568,35.6587582 C17.0842668,35.6646903 10.6409617,35.6658244 4.19757152,35.6618115 C1.7703218,35.6603284 0.00458507372,33.8421069 0.0026276829,31.3471778 C-0.000946682947,26.7040045 -0.000776475049,22.0608311 0.00254257895,17.4176577 C0.00432976187,14.9051064 1.77091753,13.1011047 4.2251452,13.095347 C4.98061296,13.0936022 5.73608071,13.0950853 6.52371776,13.0950853 L6.52371776,12.6866354 C6.52371776,10.9918562 6.5226114,9.29707698 6.52397306,7.60229778 C6.52669639,4.19494276 8.42323788,1.46473171 11.5701266,0.378352675 C12.0905372,0.198728935 12.6451597,0.123529487 13.1839528,0 L14.5429777,0 Z" id="Fill-1"></path>
            <path d="M17.5145498,21.943787 C17.4772717,22.6310336 17.1246504,23.2757979 16.416541,23.757742 C16.2282193,23.8858655 16.1676203,24.0126351 16.1697951,24.2091364 C16.1797796,25.1087091 16.1875893,26.0087049 16.1667305,26.9081086 C16.151309,27.5725907 15.6158031,28.0881314 14.8699303,28.2114312 C14.1793186,28.3255914 13.4404648,28.0006281 13.1671264,27.4290651 C13.0706425,27.2274018 13.0278376,26.9945115 13.0237844,26.7749073 C13.0077697,25.9204403 13.0112297,25.0655498 13.0216096,24.2109135 C13.0239822,24.0160201 12.9682271,23.8870503 12.7786202,23.7578267 C11.7067187,23.027167 11.3761424,21.7689499 11.9660194,20.7498009 C12.5919791,19.6683672 13.9528382,19.1098366 15.280185,19.3896943 C16.6013039,19.6681133 17.5226468,20.6860777 17.5145498,21.943787" id="Fill-4" transform="translate(14.5954, 23.7761) scale(-1, 1) translate(-14.5954, -23.7761)"></path>
        </g>
    </g>
</svg>