<?xml version="1.0" encoding="UTF-8"?>
<svg width="33px" height="33px" viewBox="0 0 33 33" version="1.1" xmlns="http://www.w3.org/2000/svg" xmlns:xlink="http://www.w3.org/1999/xlink">
    <title>Artboard Copy 18</title>
    <g id="Artboard-Copy-18" stroke="none" stroke-width="1" fill="none" fill-rule="evenodd">
        <path d="M4.6875,28.4664843 L22.1601562,3.56908345 L28.0664062,3.56908345 L10.4882812,28.4664843 L4.6875,28.4664843 Z M24.0585938,29 C22.9101563,29 21.8866882,28.7252764 20.9881897,28.1758293 C20.0896912,27.6263822 19.3865662,26.8676043 18.8788147,25.8994956 C18.3710632,24.9313868 18.1171875,23.8304549 18.1171875,22.5966997 C18.1171875,21.3366393 18.3691406,20.2274638 18.8730469,19.2691732 C19.3769531,18.3108826 20.0800781,17.5590515 20.9824219,17.0136799 C21.8847656,16.4683083 22.9160156,16.1956224 24.0761719,16.1956224 C25.2363281,16.1956224 26.2619019,16.4707165 27.1528931,17.0209046 C28.0438843,17.5710927 28.7411499,18.3242205 29.2446899,19.2802881 C29.74823,20.2363557 30,21.343123 30,22.6005899 C30,23.8317516 29.7475891,24.9313868 29.2427673,25.8994956 C28.7379456,26.8676043 28.0389404,27.6263822 27.145752,28.1758293 C26.2525635,28.7252764 25.2235107,29 24.0585938,29 Z M24.0481567,25.0519836 C24.6176147,25.0519836 25.0722656,24.8148655 25.4121094,24.3406293 C25.7519531,23.8663931 25.921875,23.2854537 25.921875,22.5978112 C25.921875,21.9101687 25.7519531,21.3292294 25.4121094,20.8549932 C25.0722656,20.380757 24.6176147,20.1436389 24.0481567,20.1436389 C23.4926147,20.1436389 23.0449219,20.380757 22.7050781,20.8549932 C22.3652344,21.3292294 22.1953125,21.9101687 22.1953125,22.5978112 C22.1953125,23.2854537 22.3652344,23.8663931 22.7050781,24.3406293 C23.0449219,24.8148655 23.4926147,25.0519836 24.0481567,25.0519836 Z M8.94140625,15.8043776 C7.79296875,15.8043776 6.76950073,15.529654 5.8710022,14.9802069 C4.97250366,14.4307598 4.26937866,13.6719819 3.7616272,12.7038731 C3.25387573,11.7357644 3,10.6348324 3,9.40107729 C3,8.14101687 3.25195312,7.03184137 3.75585937,6.07355079 C4.25976562,5.1152602 4.96289062,4.36342909 5.86523437,3.81805746 C6.76757812,3.27268582 7.79882812,3 8.95898437,3 C10.1191406,3 11.1447144,3.27509405 12.0357056,3.82528215 C12.9266968,4.37547025 13.6239624,5.1285981 14.1275024,6.0846657 C14.6310425,7.0407333 14.8828125,8.14750057 14.8828125,9.40496751 C14.8828125,10.6361292 14.6304016,11.7357644 14.1255798,12.7038731 C13.6207581,13.6719819 12.9217529,14.4307598 12.0285645,14.9802069 C11.135376,15.529654 10.1063232,15.8043776 8.94140625,15.8043776 Z M8.93096924,11.8563611 C9.50042725,11.8563611 9.95507812,11.619243 10.2949219,11.1450068 C10.6347656,10.6707706 10.8046875,10.0898313 10.8046875,9.40218878 C10.8046875,8.71454628 10.6347656,8.13360693 10.2949219,7.65937073 C9.95507812,7.18513452 9.50042725,6.94801642 8.93096924,6.94801642 C8.37542725,6.94801642 7.92773437,7.18513452 7.58789062,7.65937073 C7.24804687,8.13360693 7.078125,8.71454628 7.078125,9.40218878 C7.078125,10.0898313 7.24804687,10.6707706 7.58789062,11.1450068 C7.92773437,11.619243 8.37542725,11.8563611 8.93096924,11.8563611 Z" id="Shape" fill="#FF9101" fill-rule="nonzero"></path>
    </g>
</svg>