<?xml version="1.0" encoding="UTF-8"?>
<svg width="231px" height="89px" viewBox="0 0 231 89" version="1.1" xmlns="http://www.w3.org/2000/svg" xmlns:xlink="http://www.w3.org/1999/xlink">
    <title>Artboard</title>
    <defs>
        <polygon id="path-1" points="0 0 83.068262 0 83.068262 83.2440223 0 83.2440223"></polygon>
        <polygon id="path-3" points="0 89 231 89 231 0 0 0"></polygon>
    </defs>
    <g id="Artboard" stroke="none" stroke-width="1" fill="none" fill-rule="evenodd">
        <g id="Group-26-Copy">
            <path d="M32.7969538,60.0341128 L32.7969538,22.5643573 C30.3181234,23.6812491 28.1086824,25.2673477 26.2761625,27.2188215 L26.2761625,55.3869449 C28.1086824,57.3356124 30.3181234,58.9245173 32.7969538,60.0341128" id="Fill-1" fill="#FFFFFF"></path>
            <g id="Group-5">
                <mask id="mask-2" fill="white">
                    <use xlink:href="#path-1"></use>
                </mask>
                <g id="Clip-4"></g>
                <path d="M19.8776885,32.4164655 C18.5632251,32.4164655 17.4985489,31.251306 17.4985489,29.8285318 C17.4985489,29.5310681 17.5478343,29.2498808 17.6413645,28.9821635 C21.4396989,21.8868137 28.3402117,16.70814 36.5327854,15.2730183 C36.6151144,15.2601095 36.7024839,15.2387819 36.7842528,15.2275569 C36.8413791,15.2163318 36.8996254,15.2095968 36.9584318,15.198933 C37.0598029,15.1792892 37.1594938,15.1719929 37.2608648,15.1719929 C38.7136633,15.1719929 39.8869913,16.3483774 39.8987526,17.7969692 C39.8987526,17.805388 39.9065934,17.809878 39.9065934,17.8250318 C39.9065934,17.8267156 39.8987526,17.8317669 39.8987526,17.8379406 L39.8987526,17.9120259 C39.8987526,17.9120259 39.8942721,65.3715086 39.8942721,65.4063062 C39.8942721,66.8678068 38.7136633,68.0526101 37.2569444,68.0526101 C37.1516529,68.0526101 37.0486017,68.0419463 36.9477907,68.0312826 C36.8968251,68.0172513 36.8413791,68.0093937 36.7876132,68.0043425 C36.7024839,67.9863824 36.6139943,67.9729123 36.5221442,67.954391 C28.3054879,66.5063604 21.3747318,61.2906441 17.5887188,54.1492716 C17.5388733,53.9427308 17.4985489,53.71823 17.4985489,53.4914841 C17.4985489,52.0647811 18.5632251,50.9024279 19.8776885,50.9024279 C20.0709096,50.9024279 20.2518093,50.9394705 20.4338291,50.9899832 L20.4338291,49.3887308 L20.4338291,48.6793081 L20.4338291,32.3339614 C20.2518093,32.3867191 20.0709096,32.4164655 19.8776885,32.4164655 M41.1801724,9.88331378 C23.6877841,9.88331378 9.51095756,24.0852384 9.51095756,41.6092146 C9.51095756,59.1365583 23.6877841,73.347463 41.1801724,73.347463 C54.6104375,73.347463 66.0844092,64.9567432 70.6830709,53.1244252 L76.9428738,53.1244252 C72.0882642,68.281601 57.9142379,79.2596933 41.1801724,79.2596933 C20.432149,79.2596933 3.61127396,62.4058522 3.61127396,41.6092146 C3.61127396,20.8254859 20.432149,3.96659351 41.1801724,3.96659351 C58.0273703,3.96659351 72.2932465,15.0967851 77.0476052,30.4139178 L70.8074044,30.4139178 C66.2877114,18.4199591 54.7258101,9.88331378 41.1801724,9.88331378 M42.112114,21.0960094 L42.112114,14.7965152 C52.3293087,15.1506653 61.086984,21.2352 65.294163,29.9413435 L58.336524,29.9413435 C56.970535,27.9618071 55.2466669,26.2303442 53.2830927,24.8361938 L53.2830927,58.3856029 L53.2830927,65.5443742 C50.975641,66.7185138 48.4671273,67.569372 45.83316,68.0312826 L45.83316,61.6722956 L45.83316,21.5500624 C44.6262283,21.2873964 43.3840128,21.1330521 42.112114,21.0960094 M41.534131,-0.000336751296 C19.1540895,-0.000336751296 0.957704477,17.7537528 0.0851292868,39.9686746 C0.0638469651,40.5209467 0,41.0648 0,41.6221234 C0,56.5233683 7.84085537,69.5545209 19.5875768,76.910853 C25.9605121,80.8996721 33.4664509,83.2440223 41.534131,83.2440223 C49.7983926,83.2440223 57.4768302,80.7986467 63.946656,76.6302269 C75.4374295,69.2245046 83.068262,56.324685 83.068262,41.6221234 C83.068262,41.0648 83.004415,40.5209467 82.9825726,39.9686746 C82.1111176,17.7537528 63.9152926,-0.000336751296 41.534131,-0.000336751296" id="Fill-3" fill="#FFFFFF" mask="url(#mask-2)"></path>
            </g>
            <mask id="mask-4" fill="white">
                <use xlink:href="#path-3"></use>
            </mask>
            <g id="Clip-7"></g>
            <polygon id="Fill-6" fill="#FFFFFF" mask="url(#mask-4)" points="118.128087 38.1202467 124.203069 38.1202467 124.203069 11.8272668 118.128087 11.8272668"></polygon>
            <polygon id="Fill-8" fill="#FFFFFF" mask="url(#mask-4)" points="147.749214 32.3311552 135.935285 32.3311552 135.935285 27.0278835 146.742784 27.0278835 146.742784 22.359388 135.935285 22.359388 135.935285 17.616246 147.749214 17.616246 147.749214 11.82693 129.822778 11.82693 129.822778 38.1204712 147.749214 38.1204712"></polygon>
            <polygon id="Fill-9" fill="#FFFFFF" mask="url(#mask-4)" points="158.508324 24.2267301 174.235399 38.8299501 174.79434 38.8299501 174.79434 11.8269861 168.794406 11.8269861 168.794406 25.9823269 153.06677 11.2298138 152.545353 11.2298138 152.545353 38.1205273 158.508324 38.1205273"></polygon>
            <path d="M186.343976,32.256677 L186.343976,17.691061 L188.953301,17.691061 C192.9779,17.691061 196.220094,20.9401497 196.220094,24.973869 C196.220094,29.0075883 192.9779,32.256677 188.953301,32.256677 L186.343976,32.256677 Z M202.593589,24.973869 C202.593589,17.7281036 196.705107,11.8276596 189.474718,11.8276596 L180.268994,11.8276596 L180.268994,38.1200783 L189.474718,38.1200783 C196.705107,38.1200783 202.593589,32.256677 202.593589,24.973869 L202.593589,24.973869 Z" id="Fill-10" fill="#FFFFFF" mask="url(#mask-4)"></path>
            <path d="M214.508105,23.1811173 L217.415382,30.0160461 L211.600828,30.0160461 L214.508105,23.1811173 Z M219.353193,34.9831278 L220.620612,38.1205273 L227.440476,38.1205273 L214.91807,11.1922099 L214.09758,11.1922099 L201.575734,38.1205273 L208.395598,38.1205273 L209.663016,34.9831278 L219.353193,34.9831278 Z" id="Fill-11" fill="#FFFFFF" mask="url(#mask-4)"></path>
            <path d="M102.706412,38.0966741 C104.211297,35.1209152 106.279602,32.732226 108.818359,31.0546433 L108.818359,17.6165828 L115.675747,17.6165828 L115.675747,11.8272668 L95.8484642,11.8272668 L95.8484642,17.6165828 L102.706412,17.6165828 L102.706412,38.0966741 Z" id="Fill-12" fill="#FFFFFF" mask="url(#mask-4)"></path>
            <polygon id="Fill-13" fill="#FFFFFF" mask="url(#mask-4)" points="143.112748 59.2783306 127.385673 44.5263789 126.863696 44.5263789 126.863696 71.4165311 132.826666 71.4165311 132.826666 57.5232951 148.554302 72.1259538 149.112683 72.1259538 149.112683 45.1235511 143.112748 45.1235511"></polygon>
            <polygon id="Fill-14" fill="#FFFFFF" mask="url(#mask-4)" points="173.654784 71.4165311 179.729207 71.4165311 179.729207 45.1235511 173.654784 45.1235511"></polygon>
            <polygon id="Fill-15" fill="#FFFFFF" mask="url(#mask-4)" points="201.598417 59.2783306 185.871341 44.5263789 185.348804 44.5263789 185.348804 71.4165311 191.312334 71.4165311 191.312334 57.5232951 207.03941 72.1259538 207.598351 72.1259538 207.598351 45.1235511 201.598417 45.1235511"></polygon>
            <polygon id="Fill-16" fill="#FFFFFF" mask="url(#mask-4)" points="230.999888 50.9124182 230.999888 45.1236634 213.073452 45.1236634 213.073452 71.4166433 230.999888 71.4166433 230.999888 65.6273273 219.185959 65.6273273 219.185959 60.3240556 229.993458 60.3240556 229.993458 55.6555602 219.185959 55.6555602 219.185959 50.9124182"></polygon>
            <path d="M107.012666,43.6741736 C106.017438,46.9299974 105.903745,50.1555135 105.920547,51.719162 C106.928657,51.1438786 108.081263,50.8155461 109.303316,50.8155461 C109.594548,50.8155461 109.881299,50.8363124 110.16357,50.8722325 C113.708197,51.318428 116.458657,54.4805227 116.458657,58.2858123 C116.458657,62.431782 113.253427,65.754956 109.303316,65.754956 C105.389609,65.754956 102.184379,62.431782 102.184379,58.2858123 C102.184379,57.167798 102.423525,56.1075927 102.848052,55.153464 C103.362188,53.9967233 104.149634,52.9971332 105.12414,52.2512291 C105.377848,52.0564746 105.643317,51.8779964 105.920547,51.719162 C105.920547,51.719162 102.799887,50.5859939 102.596024,46.8946385 C102.591544,46.7677955 102.585383,46.6437587 102.585383,46.5124257 C100.7243,47.5933974 99.1477281,49.1407696 97.9856013,50.9811154 C96.6380943,53.1161187 95.8489683,55.6468046 95.8489683,58.3256612 C95.8489683,65.7824574 101.880826,71.8271432 109.321238,71.8271432 C116.76221,71.8271432 122.794068,65.7824574 122.794068,58.3256612 C122.794068,47.3559877 112.690005,45.1059278 112.690005,35.8239396 C109.625911,37.5924452 107.937887,40.6467794 107.012666,43.6741736" id="Fill-17" fill="#FFFFFF" mask="url(#mask-4)"></path>
            <path d="M170.985869,65.6272151 L160.699787,65.6272151 L160.699787,45.1909014 L160.699787,45.1235511 L154.58784,45.1235511 L154.58784,71.4165311 L166.468976,71.4165311 L166.468976,71.46087 C166.476257,71.4457162 166.485218,71.4316849 166.493059,71.4165311 C167.664707,69.1120297 169.179112,67.1667297 170.985869,65.6277763 L170.985869,65.6272151 Z" id="Fill-18" fill="#FFFFFF" mask="url(#mask-4)"></path>
            <path d="M176.216728,87.3201723 C174.261554,87.3201723 172.673781,85.6852447 172.673781,83.6518282 C172.673781,81.6335654 174.261554,79.9834841 176.216728,79.9834841 C178.186463,79.9834841 179.774796,81.6335654 179.774796,83.6518282 C179.774796,85.6852447 178.186463,87.3201723 176.216728,87.3201723 M176.216728,78.3188101 C173.276407,78.3188101 170.895027,80.7058156 170.895027,83.6518282 C170.895027,86.598402 173.276407,89 176.216728,89 C179.157048,89 181.538428,86.598402 181.538428,83.6518282 C181.538428,80.7058156 179.157048,78.3188101 176.216728,78.3188101" id="Fill-19" fill="#FFFFFF" mask="url(#mask-4)"></path>
            <polygon id="Fill-20" fill="#FFFFFF" mask="url(#mask-4)" points="184.171051 88.8377981 185.861876 88.8377981 185.861876 84.4920227 190.242674 84.4920227 190.242674 83.1074136 185.861876 83.1074136 185.861876 80.0721619 190.536706 80.0721619 190.536706 78.4664195 184.171051 78.4664195"></polygon>
            <polygon id="Fill-21" fill="#FFFFFF" mask="url(#mask-4)" points="192.850878 88.8377981 194.541703 88.8377981 194.541703 78.4664195 192.850878 78.4664195"></polygon>
            <path d="M202.49093,79.9837647 C203.799233,79.9837647 204.960799,80.7206888 205.577987,81.8403868 L207.07727,80.9558534 C206.151489,79.350111 204.41698,78.3190908 202.49093,78.3190908 C199.550609,78.3190908 197.154668,80.6909424 197.154668,83.6521088 C197.154668,86.5986826 199.550609,89.0002806 202.49093,89.0002806 C204.387297,89.0002806 206.077561,87.9984455 207.033585,86.4364808 L205.51918,85.5525086 C204.901993,86.6132752 203.769549,87.3204529 202.49093,87.3204529 C200.535757,87.3204529 198.947983,85.6855254 198.947983,83.6521088 C198.947983,81.6332848 200.535757,79.9837647 202.49093,79.9837647" id="Fill-22" fill="#FFFFFF" mask="url(#mask-4)"></path>
            <polygon id="Fill-23" fill="#FFFFFF" mask="url(#mask-4)" points="209.385562 88.8377981 211.076387 88.8377981 211.076387 78.4664195 209.385562 78.4664195"></polygon>
            <path d="M216.213435,85.6116085 L217.992189,81.6777921 L219.756381,85.6116085 L216.213435,85.6116085 Z M217.874576,78.2154275 L212.949959,88.8376859 L214.787519,88.8376859 L215.52288,87.173012 L220.462058,87.173012 L221.196859,88.8376859 L223.048981,88.8376859 L218.109802,78.2154275 L217.874576,78.2154275 Z" id="Fill-24" fill="#FFFFFF" mask="url(#mask-4)"></path>
            <polygon id="Fill-25" fill="#FFFFFF" mask="url(#mask-4)" points="226.574677 78.4665317 224.869291 78.4665317 224.869291 88.8379104 230.99972 88.8379104 230.99972 87.2321679 226.574677 87.2321679"></polygon>
        </g>
    </g>
</svg>