<?xml version="1.0" encoding="UTF-8"?>
<svg width="671px" height="431px" viewBox="0 0 671 431" version="1.1" xmlns="http://www.w3.org/2000/svg" xmlns:xlink="http://www.w3.org/1999/xlink">
    <title>Artboard</title>
    <g id="Artboard" stroke="none" stroke-width="1" fill="none" fill-rule="evenodd">
        <g id="Group" transform="translate(12, 13)">
            <path d="M14.6475,371.907575 C9.6855,369.696575 5.3055,366.483575 1.5095,362.269575 C1.0925,361.747575 0.8835,361.260575 0.8835,360.807575 C0.8835,360.215575 1.1445,359.657575 1.6665,359.135575 L12.5845,348.792575 C13.1405,348.305575 13.6465,348.061575 14.0995,348.061575 C14.5865,348.061575 15.1085,348.340575 15.6665,348.897575 C17.7555,351.021575 20.0185,352.623575 22.4565,353.702575 C24.8945,354.782575 27.4365,355.322575 30.0835,355.322575 C34.4015,355.322575 36.5605,354.120575 36.5605,351.718575 C36.5605,350.917575 36.3865,350.211575 36.0385,349.602575 C35.6895,348.993575 34.7325,348.270575 33.1655,347.434575 C31.5985,346.598575 29.1605,345.676575 25.8525,344.666575 C20.2805,342.994575 15.4135,340.348575 11.2525,336.725575 C7.0905,333.104575 5.0095,327.915575 5.0095,321.159575 C5.0095,317.259575 5.8365,313.637575 7.4905,310.293575 C9.1445,306.951575 11.8525,304.234575 15.6135,302.145575 C19.3745,300.055575 24.2155,299.010575 30.1355,299.010575 C35.1505,299.010575 39.9125,299.925575 44.4225,301.753575 C48.9325,303.581575 52.9455,306.028575 56.4635,309.092575 C57.0195,309.545575 57.2995,310.067575 57.2995,310.659575 C57.2995,311.182575 57.0725,311.687575 56.6195,312.174575 L46.6425,323.405575 C46.1205,323.998575 45.5805,324.293575 45.0235,324.293575 C44.5705,324.293575 44.0835,324.084575 43.5605,323.666575 C41.7495,322.239575 39.7645,321.037575 37.6055,320.062575 C35.4465,319.087575 33.2515,318.599575 31.0235,318.599575 C29.4215,318.599575 28.2895,318.896575 27.6285,319.487575 C26.9665,320.080575 26.6355,320.898575 26.6355,321.942575 C26.6355,322.535575 26.9145,323.057575 27.4715,323.509575 C28.0285,323.963575 28.8565,324.416575 29.9525,324.868575 C31.0495,325.321575 32.8165,326.000575 35.2545,326.905575 L36.6135,327.427575 C41.5235,329.238575 45.5625,331.197575 48.7325,333.304575 C51.9005,335.411575 54.3125,337.927575 55.9675,340.852575 C57.6205,343.777575 58.4485,347.260575 58.4485,351.300575 C58.4485,356.036575 57.3255,360.206575 55.0785,363.810575 C52.8325,367.415575 49.6115,370.218575 45.4155,372.220575 C41.2185,374.223575 36.2995,375.224575 30.6575,375.224575 C24.9465,375.224575 19.6095,374.118575 14.6475,371.907575" id="Fill-46" fill="#0D247C"></path>
            <path d="M101.0474,330.927875 C102.2484,329.569875 102.8494,327.897875 102.8494,325.912875 C102.8494,323.788875 102.2394,322.186875 101.0214,321.106875 C99.8014,320.027875 98.3914,319.487875 96.7894,319.487875 L87.5964,319.487875 L87.5964,332.964875 L96.5814,332.964875 C98.3574,332.964875 99.8454,332.285875 101.0474,330.927875 M66.0224,371.724875 L66.0224,302.719875 C66.0224,301.256875 66.7534,300.525875 68.2164,300.525875 L98.5664,300.525875 C103.6504,300.525875 108.1774,301.605875 112.1474,303.764875 C116.1174,305.923875 119.2074,308.918875 121.4194,312.748875 C123.6304,316.580875 124.7364,320.950875 124.7364,325.860875 C124.7364,334.497875 121.3234,341.113875 114.4984,345.710875 L127.5574,371.358875 C127.7664,371.776875 127.8714,372.142875 127.8714,372.455875 C127.8714,372.908875 127.7054,373.265875 127.3744,373.526875 C127.0434,373.787875 126.5654,373.918875 125.9384,373.918875 L106.2974,373.918875 C105.0774,373.918875 104.2244,373.378875 103.7374,372.299875 L93.8124,351.247875 L92.3494,351.247875 L87.5964,351.247875 L87.5964,371.724875 C87.5964,373.187875 86.8654,373.918875 85.4024,373.918875 L68.2164,373.918875 C66.7534,373.918875 66.0224,373.187875 66.0224,371.724875" id="Fill-47" fill="#0D247C"></path>
            <path d="M152.3695,373.918775 L134.7655,373.918775 C133.3035,373.918775 132.5715,373.187775 132.5715,371.724775 L132.5715,356.210775 C132.5715,354.747775 133.3035,354.016775 134.7655,354.016775 L152.3695,354.016775 C153.8325,354.016775 154.5635,354.747775 154.5635,356.210775 L154.5635,371.724775 C154.5635,373.187775 153.8325,373.918775 152.3695,373.918775" id="Fill-48" fill="#0D247C"></path>
            <path d="M220.8512,331.319475 C221.8962,330.744475 222.7232,329.961475 223.3322,328.968475 C223.9412,327.976475 224.2462,326.888475 224.2462,325.704475 C224.2462,324.067475 223.5942,322.709475 222.2882,321.629475 C220.9822,320.550475 219.3892,320.010475 217.5082,320.010475 L209.0462,320.010475 L209.0462,332.181475 L217.4562,332.181475 C218.6742,332.181475 219.8062,331.894475 220.8512,331.319475 M206.8522,373.918475 L189.6662,373.918475 C188.2032,373.918475 187.4722,373.187475 187.4722,371.725475 L187.4722,302.719475 C187.4722,301.257475 188.2032,300.525475 189.6662,300.525475 L218.9712,300.525475 C224.3332,300.525475 229.0522,301.605475 233.1272,303.764475 C237.2012,305.924475 240.3442,308.901475 242.5562,312.697475 C244.7672,316.493475 245.8732,320.759475 245.8732,325.495475 C245.8732,330.649475 244.8192,335.194475 242.7122,339.128475 C240.6052,343.064475 237.5412,346.128475 233.5192,348.322475 C229.4962,350.516475 224.7342,351.613475 219.2322,351.613475 L209.0462,351.613475 L209.0462,371.725475 C209.0462,373.187475 208.3142,373.918475 206.8522,373.918475" id="Fill-49" fill="#0D247C"></path>
            <path d="M281.6551,346.128675 L276.6931,330.039675 L275.5961,326.173675 L274.7071,330.039675 L269.7451,346.128675 L281.6551,346.128675 Z M312.1611,372.351675 C312.1611,372.839675 311.9961,373.222675 311.6651,373.500675 C311.3341,373.780675 310.8731,373.918675 310.2811,373.918675 L292.5731,373.918675 C291.3191,373.918675 290.5001,373.309675 290.1171,372.090675 L287.5581,363.993675 L263.7381,363.993675 L261.1781,372.090675 C260.7951,373.309675 259.9771,373.918675 258.7231,373.918675 L241.1191,373.918675 C240.4921,373.918675 240.0131,373.770675 239.6831,373.474675 C239.3511,373.179675 239.1861,372.787675 239.1861,372.299675 C239.1861,372.020675 239.2391,371.724675 239.3431,371.411675 L265.7231,302.144675 C266.1411,300.995675 266.9761,300.421675 268.2301,300.421675 L283.2741,300.421675 C284.5281,300.421675 285.3641,300.995675 285.7821,302.144675 L311.9521,371.411675 C312.0911,371.724675 312.1611,372.038675 312.1611,372.351675 L312.1611,372.351675 Z" id="Fill-50" fill="#0D247C"></path>
            <path d="M358.0515,352.292775 C360.5755,350.760775 362.5875,348.653775 364.0845,345.971775 C365.5815,343.290775 366.3315,340.330775 366.3315,337.091775 C366.3315,333.888775 365.5735,330.962775 364.0585,328.315775 C362.5445,325.669775 360.5325,323.580775 358.0255,322.047775 C355.5175,320.515775 352.8365,319.748775 349.9805,319.748775 C347.1255,319.748775 344.4345,320.515775 341.9105,322.047775 C339.3845,323.580775 337.3655,325.669775 335.8505,328.315775 C334.3355,330.962775 333.5785,333.888775 333.5785,337.091775 C333.5785,340.330775 334.3445,343.290775 335.8765,345.971775 C337.4085,348.653775 339.4295,350.760775 341.9365,352.292775 C344.4435,353.825775 347.1255,354.590775 349.9805,354.590775 C352.8365,354.590775 355.5265,353.825775 358.0515,352.292775 M384.7185,353.311775 C382.3845,358.377775 379.1115,362.713775 374.8975,366.318775 C370.6835,369.922775 365.8785,372.491775 360.4805,374.022775 L360.4805,386.664775 C360.4805,387.360775 360.2885,387.900775 359.9055,388.283775 C359.5225,388.666775 358.9825,388.858775 358.2865,388.858775 L341.0485,388.858775 C339.6195,388.858775 338.9065,388.127775 338.9065,386.664775 L338.9065,373.814775 C333.5785,372.247775 328.8515,369.661775 324.7245,366.056775 C320.5975,362.452775 317.3935,358.142775 315.1125,353.128775 C312.8315,348.113775 311.6915,342.750775 311.6915,337.039775 C311.6915,330.074775 313.3705,323.692775 316.7315,317.894775 C320.0925,312.095775 324.6985,307.508775 330.5485,304.130775 C336.3995,300.752775 342.8765,299.062775 349.9805,299.062775 C357.0505,299.062775 363.5105,300.752775 369.3605,304.130775 C375.2115,307.508775 379.8165,312.095775 383.1775,317.894775 C386.5375,323.692775 388.2185,330.074775 388.2185,337.039775 C388.2185,342.820775 387.0515,348.244775 384.7185,353.311775" id="Fill-51" fill="#0D247C"></path>
            <path d="M409.8432,371.672475 C405.0372,369.095475 401.3632,365.543475 398.8212,361.016475 C396.2782,356.489475 395.0082,351.352475 395.0082,345.606475 L395.0082,302.719475 C395.0082,301.257475 395.7212,300.525475 397.1492,300.525475 L414.3882,300.525475 C415.8502,300.525475 416.5822,301.257475 416.5822,302.719475 L416.5822,342.419475 C416.5822,345.066475 417.0172,347.374475 417.8882,349.341475 C418.7582,351.309475 419.9682,352.823475 421.5182,353.885475 C423.0672,354.948475 424.8692,355.479475 426.9252,355.479475 C429.0142,355.479475 430.8592,354.948475 432.4622,353.885475 C434.0632,352.823475 435.2992,351.309475 436.1702,349.341475 C437.0402,347.374475 437.4762,345.066475 437.4762,342.419475 L437.4762,302.719475 C437.4762,302.023475 437.6672,301.484475 438.0512,301.100475 C438.4342,300.717475 438.9732,300.525475 439.6702,300.525475 L456.9092,300.525475 C457.6052,300.525475 458.1442,300.717475 458.5282,301.100475 C458.9112,301.484475 459.1022,302.023475 459.1022,302.719475 L459.1022,345.606475 C459.1022,351.352475 457.8232,356.489475 455.2632,361.016475 C452.7042,365.543475 449.0032,369.095475 444.1632,371.672475 C439.3222,374.249475 433.5762,375.538475 426.9252,375.538475 C420.3432,375.538475 414.6492,374.249475 409.8432,371.672475" id="Fill-52" fill="#0D247C"></path>
            <path d="M522.6227,373.344275 C522.2387,373.727275 521.6997,373.919275 521.0037,373.919275 L470.6997,373.919275 C469.2367,373.919275 468.5057,373.187275 468.5057,371.725275 L468.5057,302.719275 C468.5057,301.257275 469.2367,300.526275 470.6997,300.526275 L520.2197,300.526275 C520.9157,300.526275 521.4557,300.717275 521.8387,301.100275 C522.2217,301.484275 522.4137,302.023275 522.4137,302.719275 L522.4137,317.764275 C522.4137,319.192275 521.6827,319.905275 520.2197,319.905275 L490.0787,319.905275 L490.0787,328.002275 L512.8017,328.002275 C513.4987,328.002275 514.0377,328.194275 514.4217,328.577275 C514.8037,328.960275 514.9957,329.500275 514.9957,330.196275 L514.9957,343.935275 C514.9957,345.397275 514.2647,346.128275 512.8017,346.128275 L490.0787,346.128275 L490.0787,354.539275 L521.0037,354.539275 C522.4657,354.539275 523.1977,355.253275 523.1977,356.680275 L523.1977,371.725275 C523.1977,372.422275 523.0057,372.961275 522.6227,373.344275" id="Fill-53" fill="#0D247C"></path>
            <path d="M565.0903,373.918775 L547.9043,373.918775 C546.4413,373.918775 545.7103,373.187775 545.7103,371.724775 L545.7103,320.584775 L529.3083,320.584775 C528.6113,320.584775 528.0713,320.393775 527.6883,320.010775 C527.3053,319.627775 527.1143,319.087775 527.1143,318.390775 L527.1143,302.719775 C527.1143,302.023775 527.3053,301.483775 527.6883,301.100775 C528.0713,300.717775 528.6113,300.525775 529.3083,300.525775 L583.7393,300.525775 C584.4353,300.525775 584.9743,300.717775 585.3583,301.100775 C585.7413,301.483775 585.9333,302.023775 585.9333,302.719775 L585.9333,318.390775 C585.9333,319.087775 585.7413,319.627775 585.3583,320.010775 C584.9743,320.393775 584.4353,320.584775 583.7393,320.584775 L567.2843,320.584775 L567.2843,371.724775 C567.2843,373.187775 566.5533,373.918775 565.0903,373.918775" id="Fill-54" fill="#0D247C"></path>
            <path d="M646.579,373.344275 C646.195,373.727275 645.656,373.919275 644.96,373.919275 L594.656,373.919275 C593.193,373.919275 592.462,373.187275 592.462,371.725275 L592.462,302.719275 C592.462,301.257275 593.193,300.526275 594.656,300.526275 L644.176,300.526275 C644.872,300.526275 645.412,300.717275 645.795,301.100275 C646.178,301.484275 646.37,302.023275 646.37,302.719275 L646.37,317.764275 C646.37,319.192275 645.639,319.905275 644.176,319.905275 L614.035,319.905275 L614.035,328.002275 L636.758,328.002275 C637.455,328.002275 637.994,328.194275 638.378,328.577275 C638.76,328.960275 638.952,329.500275 638.952,330.196275 L638.952,343.935275 C638.952,345.397275 638.221,346.128275 636.758,346.128275 L614.035,346.128275 L614.035,354.539275 L644.96,354.539275 C646.422,354.539275 647.154,355.253275 647.154,356.680275 L647.154,371.725275 C647.154,372.422275 646.962,372.961275 646.579,373.344275" id="Fill-55" fill="#0D247C"></path>
            <path d="M246.1803,274.685075 L0.0003,274.685075 L0.0003,282.368075 L255.8443,282.368075 C252.0913,280.502075 248.4733,278.034075 246.1803,274.685075" id="Fill-56" fill="#0D247C"></path>
            <path d="M437.6859,274.685075 C437.6859,274.685075 422.6219,282.335075 422.5519,282.368075 L647.1889,282.368075 L647.1889,274.685075 L437.6859,274.685075 Z" id="Fill-57" fill="#0D247C"></path>
            <polygon id="Fill-58" fill="#0D247C" points="0 405.085575 647.189 405.085575 647.189 397.402575 0 397.402575"></polygon>
            <path d="M352.5488,172.271575 C351.0698,172.938575 349.5688,173.559575 348.0538,174.133575 C342.0068,176.425575 335.6918,177.991575 329.3218,179.070575 C322.0728,180.298575 314.7208,180.934575 307.3688,180.980575 C304.7148,180.997575 302.0608,180.932575 299.4108,180.793575 C306.5778,185.154575 314.9018,193.128575 318.9278,200.313575 C327.4188,196.276575 354.3678,186.692575 361.8088,184.963575 C360.7708,181.276575 356.6628,175.779575 352.5488,172.271575" id="Fill-59" fill="#F28400"></path>
            <path d="M296.6423,245.179075 L296.6423,245.178075 C296.6343,245.137075 296.6313,245.094075 296.6253,245.060075 C296.5983,244.895075 296.5733,244.729075 296.5443,244.564075 C296.4323,243.922075 296.2913,243.283075 296.1023,242.659075 C296.0233,242.398075 295.9203,242.145075 295.8353,241.887075 C295.7813,241.781075 295.7313,241.674075 295.6753,241.570075 C295.1573,240.562075 294.9473,239.561075 295.1383,238.436075 C295.1413,238.423075 295.1453,238.412075 295.1483,238.400075 C289.1483,237.060075 284.8993,236.191075 284.8993,236.191075 C290.3763,228.540075 291.1963,212.577075 291.2603,208.366075 C287.1343,181.620075 272.3233,177.804075 261.2333,179.282075 C252.8343,182.191075 238.5553,203.820075 238.5553,229.165075 C238.5553,254.509075 240.4043,266.863075 261.2263,274.858075 C267.8143,277.387075 278.5653,278.352075 289.0393,278.466075 C289.1893,277.860075 289.5573,277.351075 289.8663,276.816075 C290.4263,275.846075 290.9463,274.852075 291.4313,273.842075 C291.6933,273.296075 291.9403,272.744075 292.1853,272.190075 C292.1973,272.162075 292.2463,272.049075 292.2673,272.000075 C292.2953,271.934075 292.3223,271.868075 292.3503,271.802075 C292.4513,271.555075 292.5513,271.307075 292.6483,271.059075 C293.0833,269.957075 293.4813,268.840075 293.8463,267.713075 C294.3883,266.043075 294.8363,264.344075 295.2373,262.634075 C295.3643,262.094075 295.5073,261.557075 295.6203,261.013075 C295.8463,259.934075 296.0453,258.849075 296.2163,257.760075 C296.2673,257.440075 296.3153,257.120075 296.3613,256.800075 C296.3693,256.742075 296.3773,256.685075 296.3853,256.627075 C296.3923,256.573075 296.4023,256.501075 296.4063,256.469075 C296.4703,255.949075 296.5323,255.429075 296.5853,254.909075 C296.7853,252.946075 296.8953,250.972075 296.8753,248.999075 C296.8663,248.143075 296.8333,247.286075 296.7663,246.433075 C296.7333,246.014075 296.6843,245.597075 296.6423,245.179075" id="Fill-60" fill="#F28400"></path>
            <path d="M368.0534,162.309175 C368.5114,162.881175 369.0084,163.506175 369.5454,164.181175 C373.4094,169.048175 379.1364,176.392175 384.1574,183.345175 C384.1594,183.344175 384.1614,183.343175 384.1634,183.342175 C385.4334,182.735175 386.6934,182.126175 387.9744,181.521175 C392.9284,183.742175 399.2004,186.581175 406.2284,189.912175 C402.8994,184.467175 390.4424,166.000175 370.8344,159.963175 C369.9224,160.762175 368.9964,161.546175 368.0534,162.309175" id="Fill-61" fill="#F28400"></path>
            <path d="M442.5751,213.908075 L442.5751,212.635075 C442.0691,212.876075 441.7481,213.021075 441.4351,213.178075 C424.6911,221.604075 407.9521,230.037075 391.1961,238.435075 C390.3741,238.847075 390.1891,239.335075 390.190096,240.187075 C390.2151,256.838075 390.2091,273.489075 390.2091,290.140075 L390.2091,291.465075 C390.8141,291.186075 391.2821,290.988075 391.7351,290.760075 C408.3321,282.404075 424.9251,274.040075 441.5331,265.707075 C442.3281,265.309075 442.5971,264.867075 442.596103,263.981075 C442.5671,247.290075 442.5751,230.599075 442.5751,213.908075" id="Fill-62" fill="#F28400"></path>
            <path d="M386.3974,238.472775 C384.8744,237.707775 383.3524,236.941775 381.8304,236.175775 C378.1044,234.302775 374.3784,232.427775 370.6514,230.554775 C370.3404,230.398775 370.0134,230.274775 369.4964,230.050775 L369.4964,243.023775 L369.4964,249.491775 C367.9964,248.006775 366.5494,246.589775 365.1314,245.180775 C364.3154,244.370775 363.5074,243.562775 362.7104,242.747775 C362.1274,242.151775 361.5424,241.908775 360.7174,241.926775 C358.5684,241.976775 356.4174,241.943775 354.1774,241.943775 L354.1774,240.486775 C354.1774,234.761775 354.1604,229.035775 354.1974,223.311775 C354.2024,222.510775 353.9464,222.122775 353.2314,221.767775 C348.0614,219.205775 342.9154,216.595775 337.7614,213.999775 C337.5614,213.898775 337.3614,213.796775 337.1604,213.696775 C336.4924,213.359775 335.8194,213.031775 335.0074,212.628775 C334.9824,213.000775 334.9634,213.159775 334.9634,213.318775 C334.9624,216.106775 334.9594,218.894775 334.9594,221.682775 C336.0624,221.744775 337.1404,222.012775 338.1574,222.443775 C341.3194,223.783775 343.8764,226.709775 344.6124,230.078775 C345.1804,232.680775 344.6484,235.436775 343.9854,237.972775 C343.2734,240.691775 342.2304,243.328775 341.0014,245.867775 C341.1334,245.874775 341.2654,245.888775 341.3974,245.895775 C342.7064,245.961775 344.0174,245.977775 345.3284,245.966775 C347.7334,245.944775 350.1384,245.823775 352.5364,245.640775 C353.6714,245.554775 354.8034,245.417775 355.9394,245.331775 C357.5974,245.206775 359.4404,245.692775 360.8584,246.553775 C361.0494,246.669775 361.2334,246.794775 361.4124,246.924775 C364.2914,249.024775 365.5794,252.906775 364.5704,256.344775 C364.3264,257.177775 363.9514,257.949775 363.4744,258.650775 C363.7124,258.803775 363.9464,258.967775 364.1754,259.152775 C365.2284,260.007775 365.9164,261.265775 366.3314,262.537775 C367.2564,265.368775 366.6614,268.778775 364.8894,271.158775 C364.0044,272.346775 362.9144,273.338775 361.6474,274.082775 C362.1214,275.462775 361.9384,277.071775 361.4634,278.489775 C369.6624,282.615775 377.8624,286.739775 386.0614,290.866775 C386.4394,291.056775 386.8254,291.230775 387.2734,291.443775 C387.2994,291.133775 387.3244,290.974775 387.3244,290.816775 C387.3264,273.801775 387.3184,256.786775 387.351402,239.771775 C387.3524,238.977775 386.9444,238.746775 386.3974,238.472775" id="Fill-63" fill="#F28400"></path>
            <path d="M440.8945,210.191475 C440.5005,209.959475 440.2375,209.784475 439.9575,209.643475 C434.2105,206.748475 428.4565,203.869475 422.7235,200.948475 C422.0005,200.580475 421.4575,200.612475 420.7515,200.990475 C413.9335,204.651475 407.1065,208.298475 400.2825,211.949475 C393.8885,215.370475 387.4985,218.797475 381.1045,222.217475 C377.8415,223.962475 374.5785,225.708475 371.1745,227.530475 C371.6615,227.791475 372.0025,227.983475 372.3515,228.159475 C376.4665,230.234475 380.5855,232.300475 384.6925,234.391475 C385.6425,234.874475 386.5965,235.352475 387.5445,235.840475 C388.4145,236.287475 389.0715,236.318475 389.9675,235.864475 C403.4115,229.059475 416.8785,222.299475 430.3375,215.526475 C433.8235,213.772475 437.3025,212.006475 440.8945,210.191475" id="Fill-64" fill="#F28400"></path>
            <path d="M387.3329,184.448575 C373.5389,191.432575 359.7219,198.370575 345.9119,205.322575 C342.7759,206.900575 339.6449,208.490575 336.3299,210.167575 C337.8569,210.935575 339.3709,211.698575 340.8769,212.457575 C345.5899,214.831575 350.2139,217.157575 354.8559,219.445575 C355.2699,219.649575 356.0159,219.498575 356.4709,219.255575 C369.0649,212.549575 381.6459,205.819575 394.2279,199.090575 C397.4309,197.377575 400.6369,195.669575 403.8409,193.956575 C404.5309,193.587575 405.2099,193.198575 406.0199,192.749575 C405.5119,192.467575 405.1769,192.266575 404.8279,192.090575 C399.7979,189.558575 394.7559,187.048575 389.7449,184.478575 C388.8839,184.036575 388.2289,183.994575 387.3329,184.448575" id="Fill-65" fill="#F28400"></path>
            <path d="M269.2499,175.723975 C269.3589,175.730975 269.5349,175.715975 269.7539,175.686975 C269.9699,175.657975 270.2299,175.612975 270.5239,175.553975 C271.5289,175.348975 272.8979,174.976975 274.0489,174.510975 C275.3529,173.983975 276.3669,173.337975 276.2379,172.686975 C276.1369,172.180975 275.3479,171.670975 273.4569,171.210975 C265.7229,169.330975 247.2079,156.012975 246.0999,152.771975 C246.0629,152.766975 234.2579,152.838975 233.9329,139.483975 C233.7869,133.524975 236.9439,127.628975 243.1939,129.517975 C245.0159,121.829975 251.8549,104.494975 272.0909,103.283975 C301.2919,101.535975 329.3719,96.6549749 335.3859,94.0389749 C361.3049,81.9699749 349.0989,74.2699749 349.0989,74.2699749 C360.6289,72.6569749 368.7489,70.6729749 374.2589,68.5389749 C375.0399,68.2359749 375.7689,67.9309749 376.4469,67.6229749 C377.2159,67.2739749 377.9249,66.9219749 378.5669,66.5669749 C389.7059,60.4209749 382.3759,53.6059749 373.5129,50.8129749 C371.9699,52.3729749 370.3859,53.8879749 368.7559,55.3509749 C368.1719,55.8739749 367.5849,56.3919749 366.9909,56.9029749 C366.4079,57.4049749 365.8159,57.8969749 365.2219,58.3869749 C352.3949,68.9859749 337.3079,76.8589749 321.5859,82.4569749 C301.6199,89.5669749 277.3169,95.4329749 256.2869,98.0639749 L245.8819,98.8139749 C245.1069,99.0249749 244.3429,99.2369749 243.5599,99.4469749 C237.9119,100.997975 231.8269,102.507975 226.0459,101.912975 C225.2669,101.832975 224.4949,101.709975 223.7299,101.547975 C223.0879,101.411975 222.4489,101.256975 221.8179,101.056975 C221.7009,101.019975 221.5959,100.974975 221.4849,100.933975 C220.4919,100.559975 219.7849,100.017975 219.3009,99.3649749 C216.9829,106.730975 213.7949,125.112975 226.3339,145.650975 C232.9169,156.812975 253.2989,174.264975 268.5389,175.658975 C268.7759,175.679975 269.0159,175.709975 269.2499,175.723975" id="Fill-66" fill="#F28400"></path>
            <path d="M224.7558,90.5779749 C225.6298,90.5469749 226.4798,90.4839749 227.2958,90.4009749 C228.2158,90.3079749 229.0928,90.1899749 229.9018,90.0609749 C231.0448,89.8789749 232.0598,89.6769749 232.8858,89.4999749 C239.6408,88.0569749 258.3308,84.1099749 264.7548,81.5709749 C277.1658,76.6649749 288.6758,72.6629749 299.6588,68.4099749 C307.7518,65.2759749 315.5578,61.9999749 323.2238,58.1289749 C326.9238,56.2609749 330.5928,54.2499749 334.2448,52.0499749 C339.9278,48.6259749 345.5728,44.7399749 351.2418,40.1909749 C351.9978,39.5849749 352.7538,38.9719749 353.5108,38.3409749 C357.2358,35.2369749 361.2768,27.1489749 361.200883,22.6709749 C361.0528,14.2229749 355.8388,7.15097489 348.3188,3.29797489 C340.7988,-0.554025111 331.8838,-0.416025111 323.5018,0.640974889 C309.5358,2.40297489 295.4118,6.72897489 284.8728,16.0609749 C283.4568,17.3159749 282.1168,18.6539749 280.8138,20.0309749 C281.7588,19.1419749 282.7538,18.2119749 283.8168,17.2259749 C283.8168,17.2259749 277.3868,32.4509749 269.1718,43.4069749 C260.9558,54.3629749 250.8348,52.2129749 238.3018,57.7309749 C258.6788,42.9939749 260.2988,41.1379749 265.4528,35.4949749 C258.7188,40.3499749 250.5678,42.7749749 242.5628,44.9889749 C234.4878,47.2219749 226.2318,49.3959749 219.1768,53.9139749 C212.1228,58.4329749 206.3368,65.8029749 205.9958,74.1739749 C206.5018,85.6759749 213.1278,89.4819749 219.9398,90.3709749 C221.5618,90.5829749 223.1928,90.6329749 224.7558,90.5779749" id="Fill-67" fill="#F28400"></path>
            <path d="M365.2224,58.3873749 C365.8154,57.8973749 366.4074,57.4053749 366.9914,56.9033749 C367.5854,56.3923749 368.1724,55.8743749 368.7554,55.3513749 C370.3864,53.8883749 371.9704,52.3733749 373.5134,50.8123749 C374.0404,50.2793749 374.5754,49.7533749 375.0914,49.2083749 C377.1114,47.0773749 379.0864,44.7903749 380.0704,42.0243749 C381.0534,39.2593749 380.8524,35.8933749 378.8644,33.7343749 C376.9824,31.6913749 373.8894,31.1383749 371.1624,31.6663749 C368.4354,32.1933749 365.9854,33.6383749 363.6264,35.1043749 C360.1404,37.2703749 356.7324,39.5513749 353.3554,41.8783749 C352.8334,41.4723749 352.1304,40.9293749 351.2414,40.1913749 C345.5734,44.7403749 339.9284,48.6263749 334.2454,52.0503749 C330.5934,54.2503749 326.9244,56.2603749 323.2234,58.1293749 C315.5584,62.0003749 307.7524,65.2763749 299.6594,68.4103749 C288.6764,72.6633749 277.1664,76.6653749 264.7544,81.5713749 C258.3314,84.1093749 239.6404,88.0573749 232.8854,89.5003749 C232.0604,89.6763749 231.0454,89.8783749 229.9024,90.0613749 C229.0924,90.1903749 228.2164,90.3073749 227.2954,90.4013749 C226.4794,90.4843749 225.6294,90.5473749 224.7554,90.5783749 C223.1924,90.6333749 221.5624,90.5823749 219.9404,90.3713749 C218.9224,92.5703749 217.4064,96.8023749 219.3014,99.3653749 C219.7844,100.018375 220.4924,100.560375 221.4854,100.933375 C221.5954,100.975375 221.7004,101.020375 221.8184,101.057375 C222.4494,101.257375 223.0874,101.412375 223.7294,101.547375 C224.4954,101.709375 225.2674,101.833375 226.0454,101.913375 C231.8264,102.508375 237.9124,100.997375 243.5594,99.4473749 C244.3434,99.2373749 245.1074,99.0243749 245.8824,98.8133749 L256.2874,98.0633749 C277.3174,95.4333749 301.6204,89.5673749 321.5864,82.4573749 C337.3074,76.8583749 352.3954,68.9863749 365.2224,58.3873749" id="Fill-68" fill="#0D247C"></path>
            <path d="M269.1713,43.4068749 C277.3863,32.4508749 283.8173,17.2258749 283.8173,17.2258749 C282.7533,18.2118749 281.7583,19.1418749 280.8143,20.0308749 C272.1773,28.1588749 268.2793,32.3998749 265.4523,35.4948749 C260.2983,41.1378749 258.6793,42.9938749 238.3013,57.7308749 C250.8353,52.2128749 260.9563,54.3628749 269.1713,43.4068749" id="Fill-69" fill="#0D247C"></path>
            <path d="M296.1337,111.525475 C292.0687,113.112475 291.8547,118.091475 293.7987,123.681475 C296.4557,128.890475 300.3057,130.698475 303.4897,129.042475 C306.6737,127.385475 306.7137,123.277475 305.5067,119.610475 C303.6577,113.989475 299.3227,110.280475 296.1337,111.525475" id="Fill-70" fill="#0D247C"></path>
            <path d="M358.1293,257.268675 C358.2633,257.201675 358.3573,257.134675 358.1293,257.268675" id="Fill-71" fill="#0D247C"></path>
            <path d="M318.9279,200.314075 C314.9009,193.128075 306.5779,185.154075 299.4099,180.794075 C302.0609,180.932075 304.7149,180.998075 307.3689,180.981075 C314.7209,180.934075 322.0729,180.298075 329.3219,179.070075 C335.6909,177.991075 342.0069,176.426075 348.0529,174.134075 C349.5689,173.559075 351.0699,172.939075 352.5489,172.272075 C356.6629,175.779075 360.7709,181.277075 361.8089,184.963075 C354.3669,186.693075 327.4189,196.276075 318.9279,200.314075 M333.2029,226.540075 C333.3269,226.508075 333.4489,226.457075 333.5719,226.422075 C333.6239,226.408075 333.8089,226.343075 333.9719,226.303075 C334.0069,226.305075 334.0539,226.307075 334.1289,226.306075 C334.2169,226.305075 334.3049,226.297075 334.3929,226.2945 C334.5819,226.291075 334.7699,226.309075 334.9569,226.314075 C334.9829,226.315075 335.0099,226.317075 335.0359,226.317075 C335.1419,226.339075 335.2499,226.357075 335.3559,226.381075 C335.5749,226.431075 335.7919,226.493075 336.0049,226.564075 C336.0449,226.577075 336.1139,226.593075 336.1829,226.612075 C336.1939,226.618075 336.1979,226.621075 336.2119,226.628075 C336.4069,226.729075 336.5979,226.831075 336.7879,226.936075 C337.0429,227.075075 337.2949,227.221075 337.5409,227.384075 C337.5969,227.421075 337.6299,227.441075 337.6589,227.459075 C337.6829,227.481075 337.7029,227.500075 337.7429,227.535075 C337.9229,227.691075 338.1009,227.847075 338.2709,228.014075 C338.4409,228.181075 338.6049,228.355075 338.7619,228.535075 C338.8189,228.600075 338.8739,228.669075 338.9299,228.735075 C338.9589,228.776075 338.9889,228.816075 339.0169,228.856075 C339.2839,229.260075 339.5259,229.668075 339.7419,230.101075 C339.7679,230.152075 339.7819,230.178075 339.7979,230.207075 C339.8069,230.241075 339.8189,230.280075 339.8399,230.344075 C339.9309,230.620075 340.0199,230.894075 340.0869,231.176075 C340.1089,231.267075 340.1719,231.449075 340.2159,231.574075 C340.1999,231.532075 340.1839,231.485075 340.1579,231.416075 C340.2329,231.619075 340.2049,231.937075 340.2089,232.148075 C340.2189,232.631075 340.1769,233.114075 340.1249,233.594075 C340.1169,233.666075 340.1069,233.738075 340.0999,233.810075 C340.0569,234.053075 340.0229,234.297075 339.9799,234.541075 C339.8689,235.156075 339.7359,235.766075 339.5839,236.373075 C339.0259,238.616075 338.3079,240.601075 337.4269,242.555075 C336.8159,243.909075 336.1299,245.248075 335.3529,246.644075 C334.7709,247.691075 335.1009,249.345075 336.2319,249.901075 C336.3889,249.978075 336.5589,250.036075 336.7459,250.066075 C341.0669,250.772075 345.4799,250.713075 349.8379,250.477075 C351.2139,250.402075 352.5869,250.293075 353.9599,250.172075 C354.1949,250.151075 354.4299,250.142075 354.6649,250.120075 C355.4499,250.046075 356.1759,249.960075 356.9569,250.022075 C357.0269,250.035075 357.1389,250.054075 357.2369,250.077075 C357.4169,250.119075 357.5949,250.167075 357.7719,250.224075 C358.0069,250.300075 358.3909,250.588075 357.9239,250.266075 C358.0809,250.374075 358.2789,250.441075 358.4449,250.539075 C358.5689,250.613075 358.6869,250.707075 358.8129,250.780075 C358.8559,250.817075 358.8999,250.855075 358.9419,250.893075 C359.0619,251.003075 359.1769,251.117075 359.2869,251.236075 C359.3489,251.303075 359.4059,251.377075 359.4689,251.443075 C359.5249,251.502075 359.5469,251.523075 359.5529,251.527075 C359.6919,251.763075 359.8509,252.104075 359.8879,252.169075 C359.8989,252.189075 359.9029,252.194075 359.9119,252.209075 C359.9649,252.368075 360.0249,252.523075 360.0719,252.684075 C360.1229,252.858075 360.1599,253.034075 360.2019,253.210075 C360.2049,253.222075 360.2099,253.260075 360.2169,253.301075 C360.2299,253.625075 360.2599,253.943075 360.2419,254.270075 C360.2409,254.283075 360.2399,254.296075 360.2389,254.309075 C360.2039,254.415075 360.1959,254.641075 360.1789,254.716075 C360.1449,254.869075 360.1049,255.021075 360.0589,255.171075 C360.0329,255.257075 359.8839,255.599075 359.8819,255.627075 C359.8579,255.671075 359.8369,255.710075 359.8269,255.729075 C359.7409,255.887075 359.6429,256.038075 359.5459,256.190075 C359.5379,256.203075 359.5289,256.215075 359.5199,256.228075 C359.3929,256.342075 359.2859,256.490075 359.1619,256.610075 C359.1069,256.662075 359.0349,256.740075 358.9589,256.810075 C358.9459,256.817075 358.9369,256.818075 358.9219,256.827075 C358.8379,256.874075 358.7589,256.935075 358.6779,256.985075 C358.5299,257.076075 358.3749,257.152075 358.2229,257.237075 C358.1569,257.274075 358.0819,257.296075 358.0179,257.335075 C358.0639,257.307075 358.0969,257.288075 358.1289,257.269075 C358.0839,257.291075 358.0349,257.314075 357.9929,257.328075 C357.5289,257.485075 357.0429,257.606075 356.5669,257.718075 C356.3099,257.778075 356.0469,257.814075 355.7909,257.875075 C355.7809,257.877075 355.7799,257.877075 355.7719,257.879075 C355.6579,257.890075 355.5429,257.905075 355.4279,257.915075 C354.4659,258.004075 353.5219,258.131075 352.5799,258.348075 C352.7179,258.313075 352.3689,258.386075 352.2919,258.394075 C352.0519,258.418075 351.8119,258.435075 351.5709,258.449075 C350.9939,258.482075 350.4149,258.491075 349.8369,258.487075 C348.5369,258.477075 347.2369,258.401075 345.9419,258.282075 C345.5959,258.250075 345.2509,258.214075 344.9059,258.176075 C344.8209,258.166075 344.4519,258.121075 344.3249,258.106075 C343.7389,258.026075 343.1539,257.931075 342.5729,257.822075 C341.3789,257.598075 340.0019,258.153075 339.7069,259.449075 C339.4249,260.685075 340.0779,261.964075 341.3339,262.315075 C345.9559,263.609075 350.8829,263.332075 355.6089,262.923075 C356.7269,262.826075 357.8439,262.718075 358.9609,262.617075 C359.5019,262.568075 360.0449,262.504075 360.5879,262.478075 C360.6139,262.476075 360.6269,262.477075 360.6489,262.476075 C360.6949,262.483075 360.7369,262.485075 360.7739,262.485075 C360.7969,262.489075 360.8139,262.492075 360.8319,262.495075 C360.8409,262.498075 360.8499,262.502075 360.8599,262.504075 C360.8939,262.519075 360.9339,262.534075 360.9549,262.546075 C360.9639,262.551075 360.9829,262.564075 361.0009,262.578075 C361.0429,262.625075 361.1069,262.685075 361.1689,262.711075 C361.2269,262.782075 361.3009,262.873075 361.3769,262.958075 C361.4069,263.006075 361.4489,263.056075 361.4949,263.084075 C361.5439,263.165075 361.5949,263.244075 361.6409,263.327075 C361.6869,263.410075 361.7269,263.511075 361.7759,263.598075 C361.8549,263.840075 361.9339,264.079075 361.9919,264.327075 C362.0169,264.432075 362.0349,264.537075 362.0569,264.642075 C362.0579,264.904075 362.0969,265.169075 362.094065,265.432075 C362.0919,265.607075 362.0299,265.858075 362.0259,266.064075 C362.0229,266.106075 362.0269,266.154075 362.0359,266.203075 C362.0089,266.347075 361.9769,266.490075 361.9409,266.632075 C361.8709,266.909075 361.7789,267.177075 361.6859,267.447075 C361.6849,267.449075 361.6849,267.449075 361.6839,267.451075 C361.5989,267.609075 361.5259,267.773075 361.4389,267.930075 C361.2989,268.181075 361.1219,268.408075 360.9759,268.653075 C360.9709,268.659075 360.9659,268.665075 360.9609,268.671075 C360.8309,268.816075 360.7029,268.963075 360.5659,269.103075 C360.3649,269.306075 360.1469,269.486075 359.9309,269.671075 C359.8959,269.698075 359.8489,269.732075 359.7939,269.769075 C359.6129,269.892075 359.4279,270.007075 359.2389,270.116075 C359.0669,270.214075 358.8929,270.307075 358.7149,270.394075 C358.6759,270.414075 358.5269,270.481075 358.4309,270.525075 C358.3169,270.567075 358.0949,270.651075 358.0279,270.674075 C357.8169,270.746075 357.6039,270.811075 357.3879,270.871075 C356.2719,271.182075 355.1079,271.332075 353.9639,271.510075 C353.8309,271.531075 353.6979,271.551075 353.5649,271.571075 C351.8459,271.715075 350.1259,271.852075 348.4029,271.918075 C347.5249,271.951075 346.6469,271.957075 345.7669,271.934075 C345.3169,271.897075 344.8669,271.856075 344.4189,271.802075 C344.2999,271.788075 344.1809,271.773075 344.0619,271.757075 C344.0219,271.752075 343.9579,271.743075 343.8939,271.733075 C343.5699,271.685075 343.2459,271.636075 342.9229,271.583075 C342.2109,271.468075 341.5009,271.340075 340.7919,271.209075 C340.1419,271.088075 339.4439,271.204075 338.8899,271.537075 C338.4259,271.816075 338.0609,272.244075 337.9259,272.836075 C337.6369,274.106075 338.3089,275.308075 339.5529,275.702075 C341.7109,276.385075 343.9989,276.606075 346.2779,276.624075 C346.5039,276.638075 346.7289,276.662075 346.9549,276.671075 C347.7259,276.703075 348.4939,276.687075 349.2609,276.653075 C350.7359,276.588075 352.2049,276.430075 353.6719,276.228075 C353.9539,276.189075 354.2369,276.151075 354.5189,276.112075 C355.2019,276.059075 355.8839,276.032075 356.5659,276.025075 C356.8009,276.022075 357.0359,276.012075 357.2699,276.017075 C357.2689,276.054075 357.2649,276.091075 357.2609,276.128075 C357.2689,276.179075 357.2689,276.264075 357.2489,276.369075 C357.2479,276.368075 357.2469,276.367075 357.2459,276.367075 C357.2449,276.376075 357.2449,276.385075 357.2449,276.395075 C357.2399,276.414075 357.2339,276.434075 357.2299,276.454075 C357.2049,276.564075 357.1789,276.675075 357.1469,276.785075 C357.1179,276.889075 357.0629,277.006075 357.0139,277.124075 C356.9799,277.205075 356.9619,277.281075 356.9419,277.359075 C356.9329,277.377075 356.9229,277.394075 356.9139,277.411075 C356.8499,277.538075 356.7849,277.663075 356.7139,277.786075 C356.5969,277.991075 356.4609,278.181075 356.3289,278.375075 C356.2919,278.429075 356.2569,278.486075 356.2199,278.541075 C356.2089,278.557075 356.1989,278.572075 356.1919,278.579075 C356.1679,278.607075 356.1429,278.635075 356.1189,278.663075 C356.0109,278.786075 355.9059,278.910075 355.7939,279.030075 C355.6109,279.226075 355.4139,279.408075 355.2169,279.590075 C355.1509,279.651075 355.0899,279.719075 355.0229,279.778075 C354.8649,279.918075 354.6999,280.049075 354.5399,280.186075 C354.4989,280.220075 354.4719,280.245075 354.4549,280.262075 C354.3789,280.309075 354.3069,280.352075 354.2809,280.370075 C353.4879,280.927075 352.6429,281.408075 351.7709,281.830075 C351.5169,281.953075 351.2529,282.058075 351.0009,282.184075 C350.8549,282.242075 350.7099,282.301075 350.5629,282.357075 C349.9569,282.592075 349.3409,282.803075 348.7199,282.995075 C347.2829,283.438075 345.8159,283.779075 344.3369,284.047075 C343.9599,284.115075 343.5829,284.179075 343.2049,284.238075 C343.0489,284.262075 342.8929,284.286075 342.7369,284.309075 C342.7349,284.309075 342.4549,284.346075 342.3259,284.364075 C341.4099,284.479075 340.4919,284.573075 339.5719,284.646075 C337.4679,284.813075 335.3559,284.877075 333.2459,284.856075 C325.7909,284.780075 318.8439,283.741075 311.6139,281.832075 C309.2069,281.196075 306.8129,280.476075 304.4859,279.585075 C304.2939,279.511075 304.1019,279.436075 303.9109,279.359075 C303.8049,279.316075 303.6989,279.272075 303.5929,279.229075 C303.2929,279.110075 303.8269,279.354075 303.8519,279.339075 C303.7959,279.374075 303.4809,279.216075 303.2279,279.080075 C303.3039,278.758075 303.3949,278.439075 303.4839,278.120075 C303.6439,277.551075 303.8139,276.984075 303.9879,276.420075 C304.2569,275.552075 304.5229,274.684075 304.7909,273.815075 C305.5389,271.845075 306.1589,269.821075 306.6859,267.802075 C307.0859,266.266075 307.4229,264.713075 307.7299,263.154075 C307.7769,262.919075 307.8089,262.681075 307.8539,262.446075 C307.8919,262.280075 307.9319,262.114075 307.9669,261.947075 C308.0849,261.396075 308.1689,260.836075 308.2319,260.272075 C308.5099,258.578075 308.7569,256.880075 308.9329,255.174075 C309.3169,251.451075 309.4829,247.650075 309.0189,243.926075 C308.9929,243.719075 308.9619,243.512075 308.9339,243.305075 C310.7319,243.314075 312.5309,243.368075 314.3259,243.246075 C314.5469,243.231075 314.7659,243.210075 314.9859,243.190075 C317.2659,242.979075 319.4759,242.476075 321.5369,241.428075 C324.1859,240.079075 326.2799,237.821075 327.8459,235.331075 C328.8459,233.741075 329.6129,232.026075 330.3109,230.286075 C330.3489,230.175075 330.6109,229.529075 330.5909,229.547075 C330.7129,229.285075 330.8369,229.024075 330.9779,228.772075 C331.1059,228.543075 331.2469,228.321075 331.3929,228.103075 C331.4159,228.069075 331.4339,228.032075 331.4569,227.999075 C331.5279,227.896075 331.8999,227.477075 331.5029,227.925075 C331.6119,227.802075 331.7139,227.676075 331.8249,227.556075 C332.0029,227.366075 332.2069,227.205075 332.3869,227.019075 C332.3879,227.018075 332.3879,227.017075 332.3889,227.016075 C332.4319,226.991075 332.4739,226.961075 332.5159,226.932075 C332.5519,226.907075 332.5879,226.882075 332.6239,226.859075 C332.8109,226.741075 333.0119,226.650075 333.2029,226.540075 M302.3869,265.800075 C301.9529,267.543075 301.4569,269.272075 300.8749,270.972075 C300.7339,271.386075 300.5719,271.792075 300.4189,272.201075 C300.2909,272.544075 300.1739,272.890075 300.0379,273.229075 C299.9829,273.365075 299.7369,273.925075 299.9919,273.348075 C299.9279,273.493075 299.8659,273.639075 299.8019,273.784075 C299.6469,274.132075 299.4869,274.477075 299.3179,274.819075 C299.0319,275.400075 298.7249,275.972075 298.3849,276.524075 C297.9239,277.273075 297.6189,277.688075 297.0059,278.287075 C296.9659,278.326075 296.9199,278.362075 296.8779,278.401075 C296.7599,278.513075 296.6399,278.622075 296.5149,278.727075 C296.4709,278.751075 296.2099,278.940075 296.1359,278.985075 C295.9479,279.101075 295.7539,279.199075 295.5599,279.303075 C295.4769,279.329075 295.2969,279.392075 295.2869,279.395075 C295.1279,279.442075 294.9659,279.472075 294.8059,279.515075 C294.7969,279.517075 294.7969,279.519075 294.7889,279.521075 C294.7679,279.520075 294.7579,279.518075 294.7309,279.518075 C294.5599,279.515075 294.3849,279.511075 294.2149,279.514075 L294.2149,279.514075 C294.1909,279.507075 294.1779,279.502075 294.1469,279.493075 C294.0389,279.462075 293.9309,279.426075 293.8229,279.397075 C293.8139,279.391075 293.8129,279.388075 293.8029,279.382075 C293.7989,279.379075 293.7829,279.369075 293.7739,279.364075 C293.8869,279.171075 293.9999,278.977075 294.1099,278.782075 C294.1699,278.674075 294.2259,278.563075 294.2859,278.454075 C294.4779,278.106075 294.6699,277.758075 294.8519,277.404075 C295.3369,276.466075 295.7869,275.511075 296.2079,274.542075 C297.8219,270.832075 299.0479,266.980075 299.9249,263.034075 C300.0069,262.663075 300.1049,262.296075 300.1809,261.924075 C300.9789,258.010075 301.4859,254.000075 301.5339,250.003075 C301.5689,247.039075 301.4359,243.859075 300.4709,241.030075 C300.2879,240.494075 300.0659,239.966075 299.8129,239.458075 C299.8029,239.438075 299.7939,239.418075 299.7839,239.397075 C299.8619,239.348075 299.9349,239.301075 299.9509,239.291075 C299.9619,239.284075 299.9659,239.282075 299.9759,239.276075 C300.0889,239.241075 300.2019,239.197075 300.3159,239.166075 C300.4089,239.140075 300.5059,239.121075 300.6019,239.101075 C300.6849,239.091075 300.7779,239.072075 300.8069,239.070075 C300.9159,239.064075 301.1619,239.033075 301.3739,239.032075 C301.3919,239.038075 301.4249,239.046075 301.4969,239.063075 C301.5649,239.080075 301.6349,239.090075 301.7029,239.105075 C301.8879,239.146075 302.0659,239.204075 302.2479,239.255075 C302.2669,239.261075 302.2729,239.262075 302.2889,239.266075 C302.4089,239.338075 302.5389,239.402075 302.6619,239.470075 C302.7089,239.496075 302.7549,239.528075 302.8009,239.561075 C302.9149,239.676075 303.0409,239.785075 303.1549,239.899075 C303.1769,239.921075 303.1879,239.930075 303.2039,239.945075 C303.2099,239.956075 303.2099,239.960075 303.2189,239.976075 C303.2789,240.083075 303.3439,240.192075 303.4089,240.299075 C303.4279,240.330075 303.4459,240.363075 303.4649,240.394075 C303.4799,240.419075 303.4869,240.427075 303.4979,240.443075 C303.5019,240.455075 303.5029,240.458075 303.5079,240.472075 C303.5649,240.631075 303.6239,240.789075 303.6759,240.950075 C303.7229,241.091075 303.7599,241.236075 303.8019,241.379075 C303.9409,241.852075 304.0639,242.331075 304.1619,242.814075 C304.2309,243.157075 304.2919,243.502075 304.3449,243.848075 C304.3619,243.960075 304.3669,244.426075 304.3799,244.080075 C304.3939,243.724075 304.4109,244.360075 304.4249,244.486075 C304.7969,247.964075 304.6429,251.500075 304.2939,254.973075 C304.2499,255.411075 304.2019,255.849075 304.1499,256.287075 C304.1219,256.523075 304.0929,256.761075 304.0629,256.997075 C304.0499,257.102075 304.0359,257.206075 304.0229,257.310075 C304.0189,257.335075 304.0159,257.356075 304.0109,257.396075 C303.8739,258.347075 303.7279,259.297075 303.5609,260.244075 C303.5529,260.294075 303.5419,260.343075 303.5329,260.392075 C303.5129,260.502075 303.4889,260.611075 303.4689,260.721075 C303.3219,261.536075 303.1669,262.349075 302.9939,263.159075 C302.8059,264.043075 302.6059,264.923075 302.3869,265.800075 M354.7139,149.379075 C348.6449,147.569075 340.3929,150.293075 338.1459,157.316075 C336.5039,156.780075 335.0409,155.885075 333.8129,154.687075 C338.3479,151.629075 342.4419,147.927075 345.8709,143.656075 C349.1339,144.691075 352.6109,145.394075 356.1639,145.761075 C355.7979,147.011075 355.3069,148.223075 354.7139,149.379075 M390.2759,126.998075 C390.8969,123.736075 391.3099,120.431075 391.5899,117.124075 C391.9309,113.094075 392.1409,109.050075 391.9279,105.007075 C391.4389,95.7670749 389.1369,86.7260749 385.3069,78.3140749 C383.4369,74.2080749 381.1749,70.2650749 378.5669,66.5670749 C377.9249,66.9210749 377.2159,67.2730749 376.4469,67.6230749 C375.7689,67.9310749 375.0399,68.2360749 374.2589,68.5390749 C375.2659,69.9340749 376.2299,71.3850749 377.1909,72.9560749 C378.2979,74.7660749 379.3239,76.6240749 380.2659,78.5240749 C380.7279,79.4560749 381.1689,80.3980749 381.5899,81.3480749 C382.0109,82.2990749 382.2309,82.8310749 382.6469,83.9030749 C384.1669,87.8180749 385.3439,91.8660749 386.1529,95.9870749 C386.3529,97.0060749 386.5299,98.0300749 386.6849,99.0570749 C386.7169,99.2750749 386.7489,99.4930749 386.7789,99.7110749 C386.7779,99.6990749 386.7809,99.7200749 386.7919,99.7970749 C386.7879,99.7690749 386.7829,99.7400749 386.7789,99.7110749 C386.7839,99.7500749 386.8309,100.101075 386.8389,100.167075 C386.9109,100.744075 386.9749,101.322075 387.0319,101.901075 C387.2369,103.968075 387.3469,106.045075 387.3599,108.123075 C387.3839,111.746075 387.1209,115.387075 386.7569,118.991075 C386.6759,119.797075 386.5859,120.603075 386.4849,121.407075 C386.4609,121.598075 386.4359,121.789075 386.4109,121.980075 C386.4649,121.559075 386.4189,121.919075 386.3909,122.120075 C386.3339,122.529075 386.2729,122.938075 386.2089,123.346075 C385.9629,124.923075 385.6699,126.492075 385.3179,128.049075 C385.2869,128.186075 385.2479,128.319075 385.2159,128.455075 C381.5949,129.143075 378.3829,128.792075 374.5699,126.916075 C376.0289,125.003075 377.2129,122.874075 378.0419,120.569075 C383.4869,105.424075 368.8779,93.5180749 354.6359,94.3850749 C344.4249,95.0060749 335.2389,100.638075 327.0829,106.361075 C324.9069,107.888075 326.8299,111.367075 329.1989,109.982075 C337.1359,105.346075 345.5259,99.6540749 355.0479,99.4070749 C361.9299,99.2280749 369.9959,102.372075 372.7399,109.165075 C375.7519,116.620075 370.6519,124.857075 364.2089,128.565075 C364.0709,128.645075 363.9269,128.708075 363.7879,128.784075 C359.9199,130.188075 355.3789,131.188075 350.8329,131.632075 C345.9829,131.540075 341.0669,130.495075 336.5779,129.237075 C334.6069,128.685075 333.2469,130.066075 332.9549,131.629075 C321.6459,148.256075 302.8149,156.927075 282.6529,154.885075 C284.2879,161.202075 291.8129,163.857075 298.3199,164.339075 C309.5229,165.167075 320.8959,162.359075 330.5989,156.715075 C333.7999,160.351075 338.9019,162.118075 343.6779,161.523075 C349.0879,160.849075 353.7729,157.676075 356.8039,153.198075 C358.2699,151.031075 359.2949,148.561075 359.9379,146.022075 C366.6289,146.252075 373.4189,145.264075 379.4489,142.935075 C379.0389,143.614075 378.6139,144.284075 378.1729,144.943075 C377.6879,145.668075 377.1839,146.380075 376.6629,147.079075 C376.5399,147.243075 376.4159,147.407075 376.2929,147.570075 C376.2829,147.584075 376.2839,147.581075 376.2769,147.591075 C376.2989,147.563075 376.3209,147.535075 376.3429,147.507075 C376.3209,147.535075 376.1659,147.738075 376.2769,147.591075 C376.2349,147.645075 376.1929,147.699075 376.1509,147.752075 C375.8689,148.109075 375.5849,148.463075 375.2959,148.813075 C374.1339,150.220075 372.9059,151.572075 371.6249,152.872075 C369.6329,154.893075 367.4469,156.840075 365.2539,158.625075 C365.2199,158.652075 365.1869,158.682075 365.1529,158.709075 L365.1519,158.710075 C364.2349,159.454075 363.3179,160.177075 362.4139,160.852075 C361.5879,161.468075 360.7519,162.071075 359.9099,162.666075 C359.5799,162.899075 359.2479,163.129075 358.9149,163.357075 C358.6829,163.515075 358.4429,163.663075 358.2099,163.819075 C356.9169,164.682075 355.6019,165.513075 354.2339,166.257075 C353.5779,166.614075 352.9109,166.953075 352.2409,167.284075 C351.7669,167.518075 351.2919,167.749075 350.8119,167.971075 C350.2529,168.229075 349.6879,168.474075 349.1239,168.718075 C349.1099,168.725075 349.0949,168.732075 349.0819,168.739075 C349.0839,168.738075 349.0859,168.736075 349.0889,168.735075 C349.0869,168.736075 349.0829,168.738075 349.0809,168.739075 C349.0479,168.753075 348.9999,168.773075 348.9189,168.808075 C348.9409,168.799075 348.9629,168.789075 348.9839,168.779075 C348.9509,168.793075 348.9189,168.807075 348.8789,168.823075 C348.7289,168.886075 348.5779,168.947075 348.4269,169.009075 C348.0969,169.142075 347.7659,169.274075 347.4339,169.403075 C341.8259,171.584075 335.9739,173.122075 330.0629,174.225075 C328.4829,174.520075 326.8969,174.783075 325.3069,175.015075 C324.9239,175.071075 324.5409,175.123075 324.1579,175.178075 C324.1979,175.172075 324.2379,175.167075 324.2779,175.162075 C324.2519,175.165075 323.8719,175.219075 324.1449,175.179075 C324.1489,175.179075 324.1529,175.178075 324.1579,175.178075 C324.0999,175.185075 324.0429,175.193075 323.9849,175.200075 C323.7579,175.230075 323.5299,175.259075 323.3019,175.288075 C322.4819,175.390075 321.6609,175.485075 320.8399,175.572075 C317.4549,175.930075 314.0569,176.158075 310.6549,176.261075 C304.5349,176.446075 298.4019,176.204075 292.3129,175.554075 C291.4679,175.464075 290.6209,175.392075 289.7779,175.285075 C289.6259,175.266075 289.4749,175.246075 289.3229,175.226075 C289.3339,175.228075 289.2979,175.223075 289.1599,175.205075 C289.2139,175.212075 289.2689,175.219075 289.3229,175.226075 C289.2999,175.223075 289.0639,175.192075 288.9569,175.177075 C288.5119,175.115075 288.0669,175.051075 287.6219,174.984075 C286.7689,174.857075 285.9169,174.720075 285.0659,174.574075 C283.3389,174.277075 281.6189,173.942075 279.9069,173.566075 C278.6779,173.297075 277.4559,172.999075 276.2379,172.687075 C276.3669,173.338075 275.3529,173.984075 274.0489,174.511075 C272.8979,174.977075 271.5289,175.349075 270.5239,175.554075 C270.2299,175.613075 269.9699,175.658075 269.7539,175.687075 C269.5349,175.716075 269.3589,175.731075 269.2499,175.724075 C269.0159,175.710075 268.7759,175.680075 268.5389,175.658075 C266.4389,176.649075 261.0009,179.229075 261.2329,179.282075 C272.3229,177.804075 287.1339,181.620075 291.2599,208.366075 C291.1959,212.577075 290.3769,228.540075 284.8989,236.191075 C284.8989,236.191075 289.1479,237.060075 295.1479,238.400075 C295.1459,238.412075 295.1409,238.423075 295.1389,238.436075 C294.9479,239.561075 295.1579,240.562075 295.6759,241.570075 C295.7309,241.674075 295.7809,241.781075 295.8349,241.887075 C295.8249,241.857075 295.8139,241.828075 295.8049,241.799075 C295.7679,241.680075 296.0709,242.337075 295.8529,241.922075 C295.8469,241.910075 295.8409,241.898075 295.8349,241.887075 C295.9199,242.145075 296.0239,242.398075 296.1029,242.659075 C296.2919,243.283075 296.4319,243.922075 296.5439,244.564075 C296.5729,244.729075 296.5979,244.895075 296.6249,245.060075 C296.6309,245.094075 296.6349,245.137075 296.6419,245.178075 C296.6259,245.014075 296.6649,244.783075 296.6679,245.351075 C296.6669,245.297075 296.6529,245.238075 296.6419,245.178075 L296.6419,245.179075 C296.6849,245.597075 296.7339,246.014075 296.7659,246.433075 C296.8329,247.286075 296.8669,248.143075 296.8749,248.999075 C296.8959,250.972075 296.7859,252.946075 296.5849,254.909075 C296.5319,255.429075 296.4699,255.949075 296.4059,256.469075 C296.4019,256.501075 296.3929,256.573075 296.3849,256.627075 C296.3919,256.579075 296.3989,256.530075 296.4059,256.482075 C296.3669,256.760075 296.3729,256.719075 296.3849,256.627075 C296.3769,256.685075 296.3689,256.742075 296.3609,256.800075 C296.3149,257.120075 296.2669,257.440075 296.2169,257.760075 C296.0449,258.849075 295.8459,259.934075 295.6209,261.013075 C295.5069,261.557075 295.3649,262.094075 295.2379,262.634075 C294.8359,264.344075 294.3879,266.043075 293.8469,267.713075 C293.4809,268.840075 293.0829,269.957075 292.6489,271.059075 C292.5509,271.307075 292.4509,271.555075 292.3499,271.802075 C292.3229,271.868075 292.2949,271.934075 292.2679,272.000075 C292.2859,271.957075 292.2849,271.961075 292.2189,272.118075 C292.2349,272.079075 292.2509,272.039075 292.2679,272.000075 C292.2459,272.049075 292.1979,272.162075 292.1849,272.190075 C291.9399,272.744075 291.6929,273.296075 291.4309,273.842075 C290.9469,274.852075 290.4269,275.846075 289.8659,276.816075 C289.5569,277.351075 289.1899,277.860075 289.0399,278.466075 C289.0389,278.470075 289.0359,278.474075 289.0349,278.478075 C288.8859,279.093075 288.9169,279.720075 289.0459,280.335075 C289.4279,282.142075 291.0629,283.473075 292.7779,283.952075 C295.3219,284.662075 297.6409,283.773075 299.5249,282.213075 C299.9519,282.594075 300.4769,282.903075 301.0519,283.165075 C303.1129,284.104075 305.2669,284.837075 307.4319,285.492075 C314.5029,287.632075 321.8829,288.930075 329.2549,289.374075 C333.4659,289.627075 337.7089,289.573075 341.9019,289.077075 C345.1519,288.692075 348.4049,288.113075 351.4829,286.971075 C354.4179,285.882075 357.5399,284.239075 359.6049,281.755075 C360.1469,281.103075 360.6339,280.405075 361.0049,279.629075 C361.1759,279.271075 361.3299,278.887075 361.4629,278.489075 C361.9379,277.072075 362.1219,275.463075 361.6469,274.082075 C362.9139,273.338075 364.0039,272.347075 364.8889,271.158075 C366.6619,268.778075 367.2569,265.369075 366.3319,262.537075 C365.9159,261.265075 365.2289,260.007075 364.1749,259.153075 C363.9469,258.967075 363.7129,258.803075 363.4749,258.650075 C363.9509,257.950075 364.3269,257.178075 364.5709,256.345075 C365.5799,252.907075 364.2919,249.024075 361.4119,246.925075 C361.2329,246.795075 361.0489,246.670075 360.8579,246.554075 C359.4409,245.692075 357.5969,245.207075 355.9389,245.332075 C354.8039,245.417075 353.6719,245.554075 352.5359,245.641075 C350.1379,245.824075 347.7329,245.944075 345.3279,245.966075 C344.0179,245.978075 342.7059,245.961075 341.3969,245.896075 C341.2649,245.889075 341.1339,245.875075 341.0009,245.867075 C342.2299,243.329075 343.2739,240.692075 343.9849,237.972075 C344.6489,235.437075 345.1799,232.681075 344.6129,230.079075 C343.8769,226.710075 341.3199,223.784075 338.1579,222.443075 C337.1399,222.012075 336.0629,221.745075 334.9589,221.683075 C334.2199,221.641075 333.4709,221.681075 332.7229,221.835075 C332.7839,220.877075 332.7489,219.346075 332.7129,217.623075 L332.8719,210.116075 L332.8719,210.114075 C332.8719,210.114075 332.8719,210.114075 332.8719,210.114075 C340.7039,205.642075 348.7989,201.223075 357.1439,196.854075 C369.3579,190.585075 382.0369,184.281075 384.2039,183.409075 C384.1879,183.388075 384.1729,183.366075 384.1569,183.345075 C379.1369,176.392075 373.4099,169.048075 369.5449,164.181075 C369.0499,163.559075 368.5589,162.941075 368.0529,162.310075 C368.0529,162.310075 368.0529,162.309075 368.0529,162.309075 C368.9969,161.546075 369.9229,160.762075 370.8339,159.963075 C375.2609,156.079075 379.2849,151.758075 382.5229,146.800075 C384.0779,144.419075 385.4029,141.905075 386.5319,139.306075 C391.9859,135.690075 396.2259,130.572075 398.2519,123.785075 C395.2079,125.060075 392.6099,126.157075 390.2759,126.998075" id="Fill-72" fill="#0D247C"></path>
            <path d="M366.4909,77.3580749 C363.2579,78.4830749 362.5909,83.4950749 364.5349,89.0840749 C367.1909,94.2940749 370.8209,96.1470749 374.0049,94.4900749 C377.1889,92.8340749 377.4499,88.6810749 376.2429,85.0130749 C374.3929,79.3920749 369.7239,76.2340749 366.4909,77.3580749" id="Fill-73" fill="#0D247C"></path>
        </g>
    </g>
</svg>