<?xml version="1.0" encoding="UTF-8"?>
<svg width="194px" height="122px" viewBox="0 0 194 122" version="1.1" xmlns="http://www.w3.org/2000/svg" xmlns:xlink="http://www.w3.org/1999/xlink">
    <title>Artboard</title>
    <g id="Artboard" stroke="none" stroke-width="1" fill="none" fill-rule="evenodd">
        <g id="Group-46" transform="translate(0, 0)">
            <path d="M4.39070349,112.007633 C2.90330491,111.341745 1.59036541,110.374084 0.452484514,109.104951 C0.32748548,108.94774 0.264836083,108.80107 0.264836083,108.664639 C0.264836083,108.486346 0.343072889,108.318293 0.4995465,108.161082 L3.77230299,105.046075 C3.93896837,104.899404 4.09064585,104.825919 4.22643617,104.825919 C4.37241826,104.825919 4.52889187,104.909945 4.69615676,105.077697 C5.32235097,105.717384 6.00070304,106.199859 6.73151274,106.524822 C7.46232244,106.850086 8.22430696,107.012719 9.01776606,107.012719 C10.3121206,107.012719 10.9592978,106.650712 10.9592978,105.9273 C10.9592978,105.686062 10.90714,105.473436 10.8028242,105.290023 C10.6982087,105.10661 10.4113404,104.888863 9.94161984,104.637085 C9.47189924,104.385306 8.74108954,104.107627 7.74949049,103.803445 C6.0792396,103.299887 4.62031802,102.50299 3.3730255,101.411849 C2.12543322,100.32131 1.50163708,98.7585356 1.50163708,96.7238269 C1.50163708,95.5492615 1.74953684,94.4584215 2.24533637,93.451307 C2.7411359,92.4447948 3.55288023,91.6265142 4.6802696,90.9973688 C5.80765897,90.3679222 7.25878685,90.0531989 9.03335347,90.0531989 C10.5366392,90.0531989 11.9640862,90.32877 13.3159942,90.8793099 C14.6679023,91.4298498 15.8708306,92.1668143 16.9253788,93.0896011 C17.0920442,93.2260314 17.1759764,93.3832424 17.1759764,93.5615354 C17.1759764,93.7190477 17.1079314,93.8711388 16.9721411,94.0178089 L13.9814567,97.4002561 C13.8249831,97.5788503 13.6631139,97.6676956 13.4961487,97.6676956 C13.3603584,97.6676956 13.2143763,97.6047509 13.057603,97.4788616 C12.5147414,97.0490911 11.9197221,96.6870841 11.2725448,96.3934427 C10.6253676,96.0998014 9.96739901,95.9528301 9.29953847,95.9528301 C8.81932635,95.9528301 8.48000043,96.0422778 8.28186048,96.2202696 C8.08342076,96.3988638 7.98420091,96.6452214 7.98420091,96.9596435 C7.98420091,97.1382376 8.06783335,97.2954487 8.23479849,97.4315778 C8.40176363,97.5683093 8.64996315,97.7047396 8.97849778,97.8408687 C9.30733217,97.977299 9.83700434,98.1817938 10.567814,98.4543532 L10.975185,98.6115643 C12.4469962,99.1569843 13.6577182,99.7469775 14.6079507,100.381544 C15.5575836,101.01611 16.2805996,101.773856 16.7766989,102.65478 C17.2721987,103.535704 17.5203982,104.584681 17.5203982,105.80141 C17.5203982,107.227754 17.1837701,108.483636 16.5102142,109.569055 C15.836958,110.654775 14.8714379,111.498956 13.6136538,112.1019 C12.35557,112.705144 10.881061,113.006616 9.18982708,113.006616 C7.47790985,113.006616 5.87810207,112.673522 4.39070349,112.007633" id="Fill-1" fill="#FFFFFF"></path>
            <path d="M30.289754,99.6657518 C30.6497632,99.2567621 30.8299177,98.7532048 30.8299177,98.1553812 C30.8299177,97.5156948 30.6470654,97.0332195 30.2819603,96.7079552 C29.9162557,96.3829921 29.4935971,96.22036 29.013385,96.22036 L26.2577108,96.22036 L26.2577108,100.279236 L28.9510353,100.279236 C29.4834053,100.279236 29.929445,100.074742 30.289754,99.6657518 M19.7907344,111.952609 L19.7907344,91.1703311 C19.7907344,90.7297185 20.0098574,90.5095628 20.4484032,90.5095628 L29.5460547,90.5095628 C31.0700237,90.5095628 32.4270277,90.834827 33.6170664,91.4850544 C34.8071052,92.1352817 35.733357,93.0372877 36.3964214,94.1907712 C37.0591861,95.344857 37.3907183,96.6609726 37.3907183,98.1397203 C37.3907183,100.740931 36.3676447,102.733476 34.3217972,104.117957 L38.2363353,111.842381 C38.2989847,111.96827 38.3304593,112.078499 38.3304593,112.172765 C38.3304593,112.309195 38.2806995,112.416713 38.1814796,112.495319 C38.0822597,112.573924 37.9389755,112.613378 37.7510273,112.613378 L31.8634828,112.613378 C31.4977782,112.613378 31.2420848,112.450746 31.0961027,112.125783 L28.1210058,105.785539 L27.68246,105.785539 L26.2577108,105.785539 L26.2577108,111.952609 C26.2577108,112.393222 26.0385878,112.613378 25.600042,112.613378 L20.4484032,112.613378 C20.0098574,112.613378 19.7907344,112.393222 19.7907344,111.952609" id="Fill-3" fill="#FFFFFF"></path>
            <path d="M45.6739577,112.613348 L40.39702,112.613348 C39.958774,112.613348 39.7393513,112.393192 39.7393513,111.952579 L39.7393513,107.280218 C39.7393513,106.839606 39.958774,106.61945 40.39702,106.61945 L45.6739577,106.61945 C46.1125035,106.61945 46.3316265,106.839606 46.3316265,107.280218 L46.3316265,111.952579 C46.3316265,112.393192 46.1125035,112.613348 45.6739577,112.613348" id="Fill-5" fill="#FFFFFF"></path>
            <path d="M66.2018866,99.7836902 C66.5151336,99.6105171 66.7630334,99.3747005 66.9455859,99.0756381 C67.1281385,98.7768769 67.2195646,98.4492032 67.2195646,98.0926172 C67.2195646,97.5996009 67.0241225,97.1906112 66.6326387,96.865347 C66.2411549,96.5403839 65.7636406,96.3777517 65.199796,96.3777517 L62.6632449,96.3777517 L62.6632449,100.043299 L65.1842086,100.043299 C65.5493137,100.043299 65.8886396,99.9568633 66.2018866,99.7836902 M62.0055761,112.613257 L56.8539373,112.613257 C56.4153915,112.613257 56.1962685,112.393102 56.1962685,111.95279 L56.1962685,91.1702106 C56.1962685,90.7298992 56.4153915,90.5094423 56.8539373,90.5094423 L65.6383418,90.5094423 C67.2456435,90.5094423 68.660201,90.8347065 69.8817143,91.4849339 C71.1029279,92.1354624 72.0450669,93.0320474 72.7081313,94.175291 C73.370896,95.3185347 73.7024282,96.6033285 73.7024282,98.0296726 C73.7024282,99.5819059 73.3864834,100.950726 72.7548935,102.135532 C72.1233037,103.320939 71.2048456,104.243726 69.9992194,104.904494 C68.7932935,105.565263 67.3658465,105.895647 65.7165786,105.895647 L62.6632449,105.895647 L62.6632449,111.95279 C62.6632449,112.393102 62.4438221,112.613257 62.0055761,112.613257" id="Fill-7" fill="#FFFFFF"></path>
            <path d="M84.4283345,104.243786 L82.940936,99.3982521 L82.6121016,98.2339265 L82.3456168,99.3982521 L80.8582182,104.243786 L84.4283345,104.243786 Z M93.5727483,112.141383 C93.5727483,112.288354 93.5232883,112.403703 93.4240684,112.487428 C93.3248485,112.571756 93.1866602,112.613318 93.0092035,112.613318 L87.701091,112.613318 C87.3251946,112.613318 87.0796929,112.429905 86.9648857,112.062778 L86.1978053,109.624199 L79.0575727,109.624199 L78.2901925,112.062778 C78.1753852,112.429905 77.9301833,112.613318 77.5542869,112.613318 L72.2773493,112.613318 C72.0894011,112.613318 71.9458171,112.568744 71.846897,112.479598 C71.7473774,112.390752 71.6979173,112.272694 71.6979173,112.125722 C71.6979173,112.041696 71.7138045,111.952549 71.7449793,111.858283 L79.6525921,90.9970977 C79.7778908,90.6510527 80.0281887,90.4781808 80.4040851,90.4781808 L84.9136425,90.4781808 C85.2895389,90.4781808 85.5401365,90.6510527 85.6654353,90.9970977 L93.5100989,111.858283 C93.5517652,111.952549 93.5727483,112.047117 93.5727483,112.141383 L93.5727483,112.141383 Z" id="Fill-9" fill="#FFFFFF"></path>
            <path d="M107.328757,106.100232 C108.085346,105.638839 108.688459,105.004272 109.137196,104.196532 C109.585934,103.389094 109.810752,102.497629 109.810752,101.522137 C109.810752,100.557488 109.583536,99.6762627 109.129403,98.879064 C108.675569,98.0821666 108.072456,97.4530212 107.320963,96.9913266 C106.569171,96.5299332 105.76552,96.2989354 104.909411,96.2989354 C104.053603,96.2989354 103.246954,96.5299332 102.490365,96.9913266 C101.733177,97.4530212 101.127966,98.0821666 100.673833,98.879064 C100.219699,99.6762627 99.9927826,100.557488 99.9927826,101.522137 C99.9927826,102.497629 100.222397,103.389094 100.681626,104.196532 C101.140855,105.004272 101.746666,105.638839 102.498159,106.100232 C103.249652,106.561926 104.053603,106.792322 104.909411,106.792322 C105.76552,106.792322 106.571868,106.561926 107.328757,106.100232 M115.3224,106.407125 C114.622766,107.932855 113.641658,109.238731 112.378478,110.324451 C111.115299,111.40987 109.674962,112.183577 108.056869,112.644669 L108.056869,116.452068 C108.056869,116.661683 107.999316,116.824315 107.884508,116.939664 C107.769701,117.055012 107.607832,117.112837 107.3992,117.112837 L102.231974,117.112837 C101.80362,117.112837 101.589893,116.892681 101.589893,116.452068 L101.589893,112.582026 C99.9927826,112.110092 98.5758272,111.331264 97.3387264,110.245544 C96.1016256,109.160125 95.1412014,107.86208 94.4574537,106.352011 C93.773706,104.84164 93.431982,103.226462 93.431982,101.506476 C93.431982,99.4088232 93.9352755,97.4867523 94.9427617,95.7405651 C95.9502479,93.9940767 97.3309327,92.612607 99.0845163,91.5952527 C100.8384,90.5778984 102.779931,90.06892 104.909411,90.06892 C107.028699,90.06892 108.965135,90.5778984 110.718719,91.5952527 C112.472602,92.612607 113.852987,93.9940767 114.860474,95.7405651 C115.86766,97.4867523 116.371553,99.4088232 116.371553,101.506476 C116.371553,103.247544 116.021736,104.881093 115.3224,106.407125" id="Fill-11" fill="#FFFFFF"></path>
            <path d="M122.853727,111.936828 C121.413091,111.160711 120.31178,110.090953 119.549796,108.727554 C118.787512,107.364155 118.406819,105.817041 118.406819,104.086515 L118.406819,91.1702106 C118.406819,90.7298992 118.620546,90.5094423 119.048601,90.5094423 L124.216127,90.5094423 C124.654373,90.5094423 124.873795,90.7298992 124.873795,91.1702106 L124.873795,103.126684 C124.873795,103.923883 125.00419,104.618984 125.265279,105.211387 C125.526069,105.804091 125.888776,106.260063 126.3534,106.579906 C126.817725,106.900051 127.357889,107.059972 127.974191,107.059972 C128.600385,107.059972 129.153439,106.900051 129.633951,106.579906 C130.113863,106.260063 130.484364,105.804091 130.745453,105.211387 C131.006242,104.618984 131.136937,103.923883 131.136937,103.126684 L131.136937,91.1702106 C131.136937,90.9605959 131.19419,90.7982649 131.309297,90.6826154 C131.424105,90.567267 131.585674,90.5094423 131.794605,90.5094423 L136.962131,90.5094423 C137.170763,90.5094423 137.332332,90.567267 137.447439,90.6826154 C137.562247,90.7982649 137.6195,90.9605959 137.6195,91.1702106 L137.6195,104.086515 C137.6195,105.817041 137.23611,107.364155 136.46873,108.727554 C135.701649,110.090953 134.592246,111.160711 133.141417,111.936828 C131.69029,112.712945 129.967881,113.101154 127.974191,113.101154 C126.001185,113.101154 124.294363,112.712945 122.853727,111.936828" id="Fill-13" fill="#FFFFFF"></path>
            <path d="M156.66027,112.440325 C156.545163,112.555673 156.383594,112.613498 156.174962,112.613498 L141.095942,112.613498 C140.657397,112.613498 140.438274,112.393041 140.438274,111.95273 L140.438274,91.1701504 C140.438274,90.7298389 140.657397,90.5096832 141.095942,90.5096832 L155.939952,90.5096832 C156.148584,90.5096832 156.310453,90.5672068 156.42526,90.6825552 C156.540068,90.7982047 156.597621,90.9605356 156.597621,91.1701504 L156.597621,95.7012623 C156.597621,96.1313339 156.378498,96.3460686 155.939952,96.3460686 L146.90495,96.3460686 L146.90495,98.7846471 L153.716348,98.7846471 C153.92528,98.7846471 154.086849,98.8424718 154.201956,98.9578202 C154.316464,99.0731685 154.374017,99.2358006 154.374017,99.4454154 L154.374017,103.583198 C154.374017,104.02351 154.154894,104.243666 153.716348,104.243666 L146.90495,104.243666 L146.90495,106.776812 L156.174962,106.776812 C156.613209,106.776812 156.832631,106.991848 156.832631,107.421618 L156.832631,111.95273 C156.832631,112.162646 156.775078,112.324977 156.66027,112.440325" id="Fill-15" fill="#FFFFFF"></path>
            <path d="M169.390268,112.613348 L164.238629,112.613348 C163.800083,112.613348 163.58096,112.393192 163.58096,111.952579 L163.58096,96.550714 L158.664332,96.550714 C158.455401,96.550714 158.293531,96.4931904 158.178724,96.3778421 C158.063917,96.2624937 158.006663,96.0998616 158.006663,95.8899457 L158.006663,91.170301 C158.006663,90.9606862 158.063917,90.7980541 158.178724,90.6827057 C158.293531,90.5673574 158.455401,90.5095326 158.664332,90.5095326 L174.980453,90.5095326 C175.189084,90.5095326 175.350654,90.5673574 175.465761,90.6827057 C175.580568,90.7980541 175.638121,90.9606862 175.638121,91.170301 L175.638121,95.8899457 C175.638121,96.0998616 175.580568,96.2624937 175.465761,96.3778421 C175.350654,96.4931904 175.189084,96.550714 174.980453,96.550714 L170.047937,96.550714 L170.047937,111.952579 C170.047937,112.393192 169.828814,112.613348 169.390268,112.613348" id="Fill-17" fill="#FFFFFF"></path>
            <path d="M193.817148,112.440325 C193.702041,112.555673 193.540471,112.613498 193.33184,112.613498 L178.25282,112.613498 C177.814274,112.613498 177.595151,112.393041 177.595151,111.95273 L177.595151,91.1701504 C177.595151,90.7298389 177.814274,90.5096832 178.25282,90.5096832 L193.09683,90.5096832 C193.305461,90.5096832 193.46733,90.5672068 193.582138,90.6825552 C193.696945,90.7982047 193.754498,90.9605356 193.754498,91.1701504 L193.754498,95.7012623 C193.754498,96.1313339 193.535375,96.3460686 193.09683,96.3460686 L184.061827,96.3460686 L184.061827,98.7846471 L190.873226,98.7846471 C191.082157,98.7846471 191.243726,98.8424718 191.358833,98.9578202 C191.473341,99.0731685 191.530894,99.2358006 191.530894,99.4454154 L191.530894,103.583198 C191.530894,104.02351 191.311771,104.243666 190.873226,104.243666 L184.061827,104.243666 L184.061827,106.776812 L193.33184,106.776812 C193.770086,106.776812 193.989508,106.991848 193.989508,107.421618 L193.989508,111.95273 C193.989508,112.162646 193.931955,112.324977 193.817148,112.440325" id="Fill-19" fill="#FFFFFF"></path>
            <path d="M73.7944838,82.7270731 L8.99273628e-05,82.7270731 L8.99273628e-05,85.0409669 L76.691344,85.0409669 C75.5663526,84.4789826 74.4818286,83.7356935 73.7944838,82.7270731" id="Fill-21" fill="#FFFFFF"></path>
            <path d="M131.199796,82.7270731 C131.199796,82.7270731 126.684243,85.0310283 126.66326,85.0409669 L193.99997,85.0409669 L193.99997,82.7270731 L131.199796,82.7270731 Z" id="Fill-23" fill="#FFFFFF"></path>
            <polygon id="Fill-25" fill="#FFFFFF" points="0 121.999872 194 121.999872 194 119.685978 0 119.685978"></polygon>
            <path d="M105.679279,51.8831363 C105.235938,52.0840171 104.786001,52.271044 104.331868,52.4439159 C102.519232,53.134199 100.626261,53.6058322 98.7168033,53.9307953 C96.5438584,54.3006328 94.3400385,54.4921773 92.1362186,54.5060312 C91.3406612,54.5111511 90.5451038,54.491575 89.7507455,54.4497122 C91.8991102,55.7631173 94.3942947,58.1646518 95.6011199,60.3285627 C98.146364,59.1127369 106.224539,56.2263177 108.455037,55.7055937 C108.143889,54.5951777 106.912483,52.9396428 105.679279,51.8831363" id="Fill-27" fill="#F28400"></path>
            <path d="M88.9208658,73.8407329 L88.9208658,73.8404318 C88.9184677,73.8280838 88.9175684,73.8151334 88.9157699,73.8048936 C88.9076764,73.7552005 88.9001825,73.7052061 88.8914895,73.655513 C88.8579166,73.4621615 88.8156508,73.2697134 88.7589965,73.081783 C88.7353156,73.0031774 88.7044406,72.9269813 88.6789612,72.8492793 C88.6627742,72.8173552 88.6477863,72.7851299 88.6309999,72.7538082 C88.4757253,72.4502282 88.4127762,72.1487564 88.4700299,71.8099395 C88.4709292,71.8060242 88.4721282,71.8027114 88.4730275,71.7990973 C86.6744803,71.3955287 85.400809,71.1338114 85.400809,71.1338114 C87.0425829,68.829555 87.2883844,64.0219685 87.3075689,62.753739 C86.0707679,54.6986298 81.631054,53.5493627 78.3067391,53.9944929 C75.7890727,54.8705982 71.50883,61.3846174 71.50883,69.0177867 C71.50883,76.6506548 72.0630823,80.3713166 78.3046408,82.7791756 C80.2794457,83.5408361 83.5021427,83.8314658 86.6418066,83.8657992 C86.6867703,83.6832898 86.7970812,83.529994 86.8897064,83.3688677 C87.0575708,83.0767322 87.2134449,82.7773686 87.3588275,82.4731863 C87.437364,82.3087471 87.5114042,82.1425009 87.5848449,81.9756524 C87.588442,81.9672196 87.6031302,81.9331874 87.6094251,81.91843 C87.6178183,81.8985527 87.6259118,81.8786755 87.634305,81.8587982 C87.6645805,81.7844091 87.6945563,81.7097188 87.7236328,81.6350285 C87.8540275,81.3031384 87.9733311,80.9667309 88.0827428,80.6273116 C88.2452115,80.1243566 88.3795031,79.6126678 88.499706,79.097666 C88.5377752,78.9350339 88.5806406,78.7733053 88.6145132,78.6094684 C88.6822585,78.2845054 88.7419103,77.9577352 88.7931689,77.6297604 C88.8084566,77.5333858 88.8228449,77.4370112 88.8366338,77.3406366 C88.8390319,77.3231688 88.8414299,77.306002 88.843828,77.2885341 C88.8459263,77.2722709 88.8489239,77.2505866 88.8501229,77.2409492 C88.8693074,77.0843405 88.8878924,76.9277317 88.9037796,76.771123 C88.9637312,76.1799251 88.9967045,75.5854143 88.9907094,74.9912047 C88.9880115,74.7334026 88.9781195,74.4752994 88.9580358,74.2184009 C88.9481437,74.0922104 88.9334556,73.9666222 88.9208658,73.8407329" id="Fill-28" fill="#F28400"></path>
            <path d="M110.326905,48.8827541 C110.464195,49.0550237 110.613174,49.2432553 110.774144,49.4465455 C111.932409,50.9123429 113.649122,53.1241399 115.154206,55.2181792 C115.154806,55.217878 115.155405,55.2175769 115.156005,55.2172757 C115.536697,55.0344651 115.914392,54.8510522 116.298382,54.668844 C117.783383,55.3377439 119.663464,56.1927673 121.770162,57.1959666 C120.772268,55.5560926 117.038185,49.9943749 111.160532,48.1762079 C110.887153,48.4168432 110.609577,48.6529609 110.326905,48.8827541" id="Fill-29" fill="#F28400"></path>
            <path d="M132.665372,64.4228266 L132.665372,64.0394364 C132.513694,64.1120185 132.417472,64.1556883 132.323648,64.2029721 C127.304502,66.7406357 122.286855,69.2804075 117.264112,71.8096383 C117.017711,71.9337206 116.962256,72.0806918 116.962554,72.3372892 C116.97005,77.3520811 116.968251,82.3668731 116.968251,87.381665 L116.968251,87.780716 C117.149605,87.6966894 117.289891,87.6370577 117.425682,87.5683908 C122.400763,85.0518091 127.374645,82.5328181 132.353024,80.0231633 C132.591332,79.9032974 132.671967,79.77018 132.671668,79.5033428 C132.662974,74.4765041 132.665372,69.4496653 132.665372,64.4228266" id="Fill-30" fill="#F28400"></path>
            <path d="M115.825664,71.8209924 C115.369133,71.5905969 114.912901,71.3599002 114.45667,71.1292035 C113.339772,70.565111 112.222874,70.0004161 111.105676,69.4363235 C111.012452,69.3893409 110.914431,69.3519957 110.759456,69.2845335 L110.759456,73.1916199 L110.759456,75.1395914 C110.309819,74.6923531 109.87607,74.2655943 109.451013,73.8412449 C109.20641,73.5972967 108.964206,73.3539509 108.725299,73.1084968 C108.55054,72.9289991 108.375182,72.8558147 108.127882,72.8612357 C107.483702,72.8762943 106.838923,72.8663556 106.167465,72.8663556 L106.167465,72.42755 C106.167465,70.7033483 106.162369,68.9788453 106.17346,67.2549447 C106.174959,67.0137071 106.098221,66.8968529 105.883894,66.7899373 C104.334146,66.0183382 102.791592,65.2322829 101.24664,64.4504439 C101.186688,64.4200257 101.126737,64.3893063 101.066485,64.3591892 C100.866247,64.2576948 100.66451,64.1589108 100.421107,64.037539 C100.413613,64.1495745 100.407917,64.1974606 100.407917,64.2453468 C100.407618,65.0850104 100.406718,65.9246741 100.406718,66.7643378 C100.737351,66.7830104 101.06049,66.8637241 101.365344,66.9935286 C102.313178,67.3970972 103.079659,68.2783225 103.300281,69.2929663 C103.470544,70.0766122 103.311072,70.9066384 103.112333,71.6704071 C102.898905,72.48929 102.586258,73.2834769 102.217855,74.0481491 C102.257423,74.0502573 102.296991,74.0544737 102.336559,74.0565819 C102.728943,74.0764592 103.121925,74.0812779 103.514908,74.077965 C104.235825,74.0713393 104.956743,74.0348976 105.675562,73.9797834 C106.015788,73.9538827 106.355114,73.9126223 106.695639,73.8867217 C107.192637,73.8490753 107.745091,73.9954443 108.170148,74.2547522 C108.227401,74.289688 108.282557,74.3273343 108.336213,74.3664865 C109.199216,74.9989448 109.585304,76.1680891 109.282849,77.2035137 C109.209708,77.4543888 109.097299,77.6868925 108.954314,77.8980131 C109.025656,77.9440922 109.0958,77.9934842 109.164444,78.0492008 C109.480089,78.3067016 109.686323,78.6855743 109.810722,79.0686633 C110.087998,79.9212773 109.909642,80.9482691 109.378472,81.6650552 C109.113186,82.0228459 108.78645,82.3216071 108.406656,82.545678 C108.548742,82.9612935 108.493886,83.445877 108.351501,83.8729369 C110.809216,85.1155669 113.26723,86.3575945 115.724945,87.6005257 C115.838254,87.6577481 115.95396,87.7101518 116.088252,87.7743011 C116.096046,87.6809382 116.103539,87.6330521 116.103539,87.5854671 C116.104139,82.4610491 116.101741,77.3366311 116.111633,72.2122131 C116.111933,71.9730836 115.989631,71.9035132 115.825664,71.8209924" id="Fill-31" fill="#F28400"></path>
            <path d="M132.161599,63.3034959 C132.043494,63.2336243 131.964658,63.1809195 131.880726,63.1384544 C130.158017,62.2665655 128.43321,61.3994953 126.714698,60.5197759 C126.497974,60.4089451 126.335205,60.4185826 126.123576,60.5324251 C124.079827,61.6350107 122.03338,62.7333799 119.987832,63.8329538 C118.07118,64.8632585 116.155727,65.8953702 114.239075,66.9253737 C113.260965,67.4509164 112.282856,67.9767603 111.26248,68.5254932 C111.408462,68.6040987 111.510679,68.6619235 111.615295,68.7149295 C112.848798,69.3398585 114.083501,69.962077 115.314607,70.5918248 C115.599377,70.7372902 115.885346,70.8812498 116.169516,71.028221 C116.430306,71.1628443 116.627246,71.1721806 116.89583,71.0354491 C120.925774,68.9859831 124.962614,66.9500697 128.997055,64.9102411 C130.042011,64.3819879 131.084869,63.8501206 132.161599,63.3034959" id="Fill-32" fill="#F28400"></path>
            <path d="M116.106087,55.5504908 C111.971227,57.6538664 107.829473,59.7433882 103.689816,61.8371263 C102.749776,62.3123735 101.811234,62.7912348 100.817536,63.2962979 C101.275267,63.5275969 101.7291,63.7573901 102.180536,63.9859786 C103.593294,64.7009577 104.979375,65.4014805 106.370851,66.0905589 C106.494951,66.1519977 106.71857,66.1065209 106.85496,66.0333365 C110.630111,64.0136863 114.401364,61.9868081 118.172918,59.960231 C119.133042,59.4443257 120.094066,58.9299263 121.05449,58.4140211 C121.261323,58.3028891 121.464859,58.1857337 121.707663,58.0505081 C121.555386,57.965578 121.454967,57.9050427 121.350351,57.8520367 C119.842569,57.0894727 118.33119,56.3335345 116.829103,55.559526 C116.571012,55.4264086 116.37467,55.4137594 116.106087,55.5504908" id="Fill-33" fill="#F28400"></path>
            <path d="M80.7097781,52.9228977 C80.7424517,52.9250059 80.7952091,52.9204883 80.8608561,52.9117544 C80.9256038,52.9030204 81.0035409,52.8894678 81.0916697,52.8716987 C81.3929263,52.8099587 81.8032949,52.6979232 82.1483162,52.5575777 C82.5392004,52.3988608 82.8431549,52.2043046 82.8044862,52.0082425 C82.7742106,51.8558502 82.5377017,51.7022532 81.9708595,51.5637147 C79.6525321,50.997514 74.102515,46.9865237 73.7703833,46.0104297 C73.7592923,46.0089239 70.2206505,46.0306082 70.1232292,42.0084746 C70.0794646,40.2137989 71.0258002,38.4380969 72.8992869,39.0070082 C73.4454458,36.6916085 75.4954899,31.4708159 81.5613903,31.1060983 C90.31462,30.5796521 98.7318212,29.1096383 100.534565,28.321776 C108.303989,24.6869478 104.645145,22.3679341 104.645145,22.3679341 C108.101353,21.8821459 110.535387,21.2846234 112.187053,20.6419253 C112.421164,20.5506706 112.639687,20.4588135 112.842923,20.366053 C113.073437,20.2609444 113.285965,20.1549324 113.47841,20.0480168 C116.817413,18.1970222 114.620188,16.1445445 111.963434,15.3033749 C111.500907,15.7732011 111.026091,16.2294746 110.537485,16.6700872 C110.362427,16.8275994 110.186469,16.9836058 110.008413,17.137504 C109.833654,17.2886916 109.656197,17.4368676 109.478141,17.5844412 C105.633147,20.7765485 101.1107,23.1476648 96.3979063,24.8336179 C90.4129406,26.974941 83.1279249,28.7416078 76.8240168,29.5339877 L73.7050361,29.7598656 C73.4727237,29.8234126 73.2437087,29.8872608 73.0089983,29.9505066 C71.3159658,30.4176223 69.4919391,30.8723899 67.7590389,30.6931934 C67.5255275,30.6690997 67.2941144,30.6320558 67.0647996,30.5832661 C66.8723551,30.5423069 66.6808098,30.4956255 66.4916626,30.4353913 C66.4565909,30.424248 66.4251163,30.4106953 66.3918432,30.3983474 C66.0941836,30.2857095 65.8822548,30.1224751 65.737172,29.9258107 C65.0423332,32.1442334 64.0867051,37.6803517 67.8453691,43.8657938 C69.8186752,47.2274602 75.9283403,52.4834898 80.4966503,52.9033216 C80.5676929,52.9096462 80.6396348,52.9186813 80.7097781,52.9228977" id="Fill-34" fill="#F28400"></path>
            <path d="M67.3723212,27.2794245 C67.6343096,27.2700882 67.8891038,27.2511144 68.1337062,27.2261173 C68.4094835,27.1981084 68.6723711,27.1625703 68.9148753,27.1237193 C69.2574985,27.0689062 69.5617527,27.0080697 69.8093528,26.9547625 C71.8342172,26.5201733 77.4366919,25.3314529 79.3623365,24.5667807 C83.0826315,23.0892377 86.5328447,21.8839529 89.8250854,20.6030743 C92.2510259,19.6592055 94.5909359,18.6725706 96.8888798,17.5067392 C97.9979839,16.9441524 99.0977955,16.3384983 100.192511,15.675923 C101.896035,14.6447148 103.588169,13.4743658 105.287496,12.1043406 C105.514113,11.9218313 105.74073,11.7372137 105.967647,11.547175 C107.084245,10.6123414 108.295566,8.17647348 108.27281,6.82783146 C108.22842,4.2835421 106.665483,2.15366351 104.411304,0.993253128 C102.157124,-0.166856084 99.484783,-0.125294539 96.9722124,0.193042802 C92.7857939,0.723705427 88.5520137,2.02656951 85.3928655,4.83709369 C84.9684083,5.21506282 84.5667327,5.6180291 84.1761482,6.03274104 C84.4594194,5.76500036 84.7576785,5.48491169 85.0763211,5.18795746 C85.0763211,5.18795746 83.148878,9.77328008 80.686367,13.0729053 C78.2235563,16.3725306 75.1897069,15.7250138 71.4328414,17.3868732 C77.5410077,12.9485219 78.0266154,12.3895492 79.5715675,10.6900434 C77.552998,12.1522268 75.1096715,12.8825655 72.7101097,13.5493573 C70.2895649,14.2218712 67.8147638,14.8766162 65.699972,16.237305 C63.58548,17.598295 61.8510809,19.8179225 61.7488635,22.3390217 C61.900541,25.8030861 63.8867366,26.9493415 65.9286873,27.2170821 C66.4148946,27.2809303 66.9037997,27.2959888 67.3723212,27.2794245" id="Fill-35" fill="#F28400"></path>
            <path d="M109.478291,17.5845616 C109.656047,17.436988 109.833504,17.2888121 110.008563,17.1376244 C110.186619,16.9837263 110.362577,16.8277199 110.537335,16.6702077 C111.026241,16.229595 111.501057,15.7733216 111.963583,15.3031942 C112.121556,15.1426703 112.281926,14.9842545 112.436601,14.8201166 C113.042112,14.178322 113.634134,13.4895448 113.929096,12.6565069 C114.223758,11.8237701 114.163506,10.8100298 113.567588,10.1598025 C113.003444,9.54451089 112.076292,9.37796353 111.258853,9.53698162 C110.441413,9.69569853 109.707006,10.1308901 108.999877,10.5724062 C107.954921,11.2247417 106.933347,11.9117119 105.921064,12.6125359 C105.764591,12.4902607 105.553861,12.326725 105.287376,12.1044611 C103.588348,13.4744862 101.896215,14.6448353 100.192691,15.6760434 C99.0979754,16.3386188 97.9981638,16.9439717 96.8887599,17.5068596 C94.5911157,18.6726911 92.2512058,19.659326 89.8252653,20.6031947 C86.5330245,21.8840733 83.0828114,23.0893582 79.3622166,24.5669012 C77.4368718,25.3312722 71.8340973,26.5202938 69.8092329,26.954883 C69.5619326,27.007889 69.2576784,27.0687255 68.9150551,27.1238397 C68.6722512,27.1626907 68.4096633,27.1979277 68.1335863,27.2262377 C67.8889839,27.2512349 67.6341897,27.2702086 67.3722013,27.2795449 C66.9036798,27.2961093 66.4150744,27.2807496 65.9288671,27.2172026 C65.6237136,27.8794768 65.1692807,29.1540308 65.7373219,29.9259311 C65.8821049,30.1225955 66.0943335,30.28583 66.3919931,30.3981667 C66.4249664,30.4108158 66.456441,30.4243685 66.4918124,30.4355118 C66.6809597,30.4957459 66.8722052,30.5424274 67.0646497,30.5830854 C67.2942643,30.631875 67.5256774,30.6692202 67.758889,30.6933139 C69.4917893,30.8725104 71.3161157,30.4174416 73.0088484,29.9506271 C73.2438586,29.8873813 73.4728736,29.8232319 73.705186,29.7596849 L76.8241667,29.533807 C83.1280748,28.7417283 90.4130905,26.9750614 96.3980562,24.8337384 C101.11055,23.1474841 105.633297,20.776669 109.478291,17.5845616" id="Fill-36" fill="#0D247C"></path>
            <path d="M80.6862172,13.0728752 C83.1487281,9.77324997 85.076471,5.18792734 85.076471,5.18792734 C84.7575286,5.48488157 84.4592695,5.76497024 84.1762981,6.03271092 C81.5872893,8.48062569 80.4188331,9.75789027 79.5714176,10.6900133 C78.0264655,12.3895191 77.5411575,12.9484918 71.4326915,17.3868431 C75.1898567,15.7249837 78.2237062,16.3725005 80.6862172,13.0728752" id="Fill-37" fill="#0D247C"></path>
            <path d="M88.7684089,33.5881959 C87.5498932,34.0661537 87.485745,35.5656822 88.0684743,37.2492259 C88.864931,38.8180237 90.0189988,39.3625401 90.9734279,38.8638016 C91.9278569,38.3647619 91.9398472,37.127553 91.5780395,36.0231604 C91.0237872,34.3302803 89.7243368,33.2132385 88.7684089,33.5881959" id="Fill-38" fill="#0D247C"></path>
            <path d="M107.352078,77.4817652 C107.392246,77.4615868 107.420423,77.4414083 107.352078,77.4817652" id="Fill-39" fill="#0D247C"></path>
            <path d="M95.6011499,60.3287133 C94.3940249,58.1645012 91.8991401,55.7629667 89.7504757,54.4498628 C90.5451338,54.4914244 91.3406912,54.5113016 92.1362486,54.5061817 C94.3400685,54.4920267 96.5438884,54.3004822 98.7168333,53.9306447 C100.625991,53.6056816 102.519262,53.1343496 104.331598,52.4440665 C104.786031,52.2708934 105.235968,52.0841676 105.679309,51.8832868 C106.912513,52.9394922 108.143919,54.5953282 108.455067,55.7054431 C106.224269,56.2264683 98.146394,59.1125863 95.6011499,60.3287133 M99.8801936,68.2272138 C99.9173636,68.2175764 99.953934,68.2022167 99.9908042,68.1916757 C100.006392,68.1874593 100.061847,68.1678832 100.110707,68.1558364 C100.121199,68.1564387 100.135288,68.1570411 100.157769,68.1567399 C100.184148,68.1564387 100.210527,68.1540294 100.236905,68.1532538 C100.29356,68.1522223 100.349914,68.1576434 100.405969,68.1591493 C100.413763,68.1594504 100.421856,68.1600528 100.42965,68.1600528 C100.461424,68.1666785 100.493798,68.1720996 100.525572,68.1793277 C100.591219,68.1943862 100.656267,68.2130588 100.720115,68.2344419 C100.732105,68.2383571 100.752789,68.2431759 100.773472,68.2488981 C100.776769,68.2507051 100.777968,68.2516086 100.782165,68.2537168 C100.840618,68.2841351 100.897872,68.3148545 100.954826,68.3464774 C101.031264,68.3883401 101.106803,68.432311 101.180543,68.4814018 C101.19733,68.4925451 101.207222,68.4985685 101.215915,68.5039896 C101.223109,68.5106154 101.229104,68.5163376 101.241094,68.5268786 C101.295051,68.5738612 101.348408,68.6208438 101.399366,68.6711393 C101.450325,68.7214348 101.499486,68.7738385 101.546548,68.8280492 C101.563634,68.8476253 101.58012,68.8684061 101.596907,68.8882833 C101.6056,68.9006313 101.614593,68.9126781 101.622986,68.924725 C101.703021,69.0463979 101.775563,69.1692755 101.84031,69.2996824 C101.848104,69.3150421 101.852301,69.3228725 101.857097,69.3316065 C101.859795,69.3418463 101.863392,69.3535919 101.869687,69.3728668 C101.896965,69.4559899 101.923643,69.5385107 101.943727,69.6234408 C101.950321,69.6508473 101.969206,69.7056604 101.982396,69.7433067 C101.977599,69.7306575 101.972803,69.7165025 101.96501,69.6957217 C101.987491,69.7568594 101.979098,69.8526316 101.980297,69.9161786 C101.983295,70.061644 101.970705,70.2071094 101.955118,70.3516713 C101.95272,70.3733556 101.949722,70.3950399 101.947624,70.4167242 C101.934734,70.4899087 101.924542,70.5633943 101.911653,70.6368799 C101.87838,70.8220998 101.838512,71.0058139 101.792949,71.1886245 C101.625684,71.8641502 101.410458,72.4619738 101.146371,73.0504612 C100.963219,73.4582462 100.757585,73.8615137 100.524673,74.2819479 C100.350214,74.5972735 100.449134,75.0954097 100.78816,75.2628606 C100.835222,75.2860507 100.886181,75.3035186 100.942236,75.3125537 C102.23749,75.5251802 103.560321,75.5074111 104.866666,75.4363348 C105.279133,75.413747 105.6907,75.3809195 106.102268,75.3444778 C106.172711,75.3381532 106.243154,75.3354427 106.313597,75.3288169 C106.548907,75.3065303 106.766531,75.2806296 107.000642,75.2993022 C107.021625,75.3032174 107.055198,75.3089397 107.084574,75.3158666 C107.138531,75.3285158 107.191888,75.342972 107.244945,75.3601387 C107.315388,75.3830276 107.430495,75.4697648 107.290508,75.3727878 C107.33757,75.4053143 107.396922,75.4254927 107.446682,75.4550074 C107.483852,75.477294 107.519223,75.5056041 107.556993,75.5275895 C107.569882,75.5387329 107.583072,75.5501773 107.595662,75.5616218 C107.631632,75.5947506 107.666105,75.629084 107.699078,75.6649233 C107.717663,75.6851018 107.734749,75.7073884 107.753634,75.7272657 C107.77042,75.7450347 107.777015,75.7513593 107.778814,75.752564 C107.82048,75.8236403 107.868141,75.9263394 107.879232,75.9459155 C107.88253,75.9519389 107.883729,75.9534448 107.886427,75.9579623 C107.902314,76.0058485 107.920299,76.0525299 107.934388,76.1010184 C107.949676,76.1534221 107.960767,76.2064281 107.973356,76.2594341 C107.974256,76.2630482 107.975755,76.2744927 107.977853,76.2868407 C107.98175,76.3844199 107.990742,76.4801922 107.985347,76.578675 C107.985047,76.5825902 107.984747,76.5865054 107.984448,76.5904206 C107.973956,76.6223447 107.971558,76.6904093 107.966462,76.7129971 C107.95627,76.7590762 107.94428,76.8048541 107.930491,76.8500297 C107.922697,76.8759304 107.878033,76.9789307 107.877434,76.9873635 C107.87024,77.000615 107.863945,77.0123607 107.860947,77.0180829 C107.835168,77.0656679 107.805792,77.1111446 107.776715,77.1569226 C107.774317,77.1608378 107.771619,77.1644518 107.768922,77.1683671 C107.730852,77.2027005 107.698778,77.2472738 107.661608,77.2834142 C107.645122,77.2990751 107.623539,77.3225664 107.600757,77.3436484 C107.596861,77.3457565 107.594163,77.3460577 107.589666,77.3487683 C107.564487,77.3629233 107.540806,77.3812947 107.516525,77.3963532 C107.472161,77.4237597 107.425699,77.4466487 107.380136,77.4722482 C107.360352,77.4833915 107.33787,77.4900173 107.318685,77.5017629 C107.332474,77.4933301 107.342366,77.4876079 107.351958,77.4818857 C107.338469,77.4885114 107.323781,77.4954383 107.311191,77.4996547 C107.172104,77.5469385 107.026421,77.5833802 106.883737,77.6171113 C106.806699,77.6351815 106.727862,77.6460237 106.651124,77.6643951 C106.648127,77.6649974 106.647827,77.6649974 106.645429,77.6655997 C106.611257,77.6689126 106.576785,77.6734302 106.542312,77.6764419 C106.253945,77.7032461 105.970974,77.7414947 105.688602,77.8068488 C105.729969,77.7963078 105.625353,77.8182932 105.602272,77.8207026 C105.53033,77.8279307 105.458388,77.8330506 105.386146,77.837267 C105.213186,77.8472056 105.039626,77.8499162 104.866366,77.8487115 C104.476681,77.8456998 104.086996,77.8228108 103.698809,77.7869715 C103.595093,77.777334 103.491676,77.7664919 103.38826,77.7550474 C103.362781,77.7520357 103.25217,77.738483 103.214101,77.7339655 C103.038443,77.7098718 102.863084,77.6812606 102.688925,77.648433 C102.331014,77.5809708 101.918247,77.7481205 101.829819,78.1384376 C101.745287,78.5106845 101.941029,78.8958817 102.317525,79.0015926 C103.703006,79.3913074 105.179913,79.3078831 106.596569,79.1847043 C106.931698,79.1554908 107.266527,79.1229643 107.601357,79.0925461 C107.763526,79.0777888 107.926294,79.0585138 108.089063,79.0506834 C108.096857,79.0500811 108.100754,79.0503822 108.107348,79.0500811 C108.121137,79.0521893 108.133727,79.0527916 108.144818,79.0527916 C108.151712,79.0539963 108.156808,79.0548998 108.162204,79.0558033 C108.164902,79.0567068 108.1676,79.0579115 108.170597,79.0585138 C108.180789,79.0630314 108.192779,79.067549 108.199074,79.071163 C108.201772,79.0726689 108.207467,79.0765841 108.212863,79.0808005 C108.225453,79.0949555 108.244637,79.1130257 108.263222,79.1208562 C108.280608,79.1422393 108.30279,79.1696458 108.325572,79.1952453 C108.334565,79.2097015 108.347155,79.22476 108.360943,79.2331928 C108.375632,79.2575876 108.390919,79.2813801 108.404708,79.3063773 C108.418497,79.3313744 108.430487,79.3617926 108.445175,79.3879945 C108.468856,79.4608778 108.492537,79.5328576 108.509923,79.6075479 C108.517417,79.6391708 108.522813,79.6707937 108.529407,79.7024166 C108.529707,79.7813233 108.541398,79.8611335 108.540548,79.9403414 C108.539899,79.9930463 108.521314,80.0686401 108.520115,80.1306812 C108.519216,80.1433304 108.520415,80.1577866 108.523112,80.1725439 C108.515019,80.2159125 108.505427,80.2589799 108.494635,80.3017461 C108.473652,80.3851704 108.446075,80.4658841 108.418197,80.5472002 C108.417897,80.5478025 108.417897,80.5478025 108.417598,80.5484049 C108.392118,80.5959898 108.370236,80.6453818 108.344157,80.6926656 C108.302191,80.7682594 108.249134,80.8366252 108.205369,80.910412 C108.20387,80.912219 108.202371,80.914026 108.200873,80.915833 C108.161904,80.9595028 108.123535,81.0037748 108.082468,81.0459387 C108.022217,81.1070764 107.95687,81.1612871 107.892122,81.2170036 C107.881631,81.2251352 107.867542,81.235375 107.851055,81.2465184 C107.796799,81.2835623 107.741344,81.318197 107.68469,81.3510246 C107.633131,81.3805393 107.580973,81.4085482 107.527617,81.43475 C107.515926,81.4407734 107.471262,81.4609518 107.442485,81.4742033 C107.408313,81.4868525 107.341767,81.5121508 107.321683,81.5190778 C107.258434,81.5407621 107.194586,81.5603381 107.129838,81.5784084 C106.795308,81.6720724 106.44639,81.717248 106.103467,81.7708564 C106.063599,81.777181 106.023731,81.7832044 105.983863,81.7892278 C105.46858,81.8325964 104.952996,81.8738568 104.436513,81.893734 C104.173326,81.9036726 103.910138,81.9054797 103.646352,81.8985527 C103.51146,81.8874094 103.376569,81.8750614 103.242278,81.8587982 C103.206607,81.8545818 103.170936,81.8500643 103.135264,81.8452455 C103.123274,81.8437397 103.10409,81.8410292 103.084905,81.8380174 C102.987783,81.8235613 102.890662,81.8088039 102.79384,81.7928419 C102.580413,81.7582072 102.367584,81.7196574 102.155056,81.680204 C101.960213,81.6437624 101.750982,81.6786982 101.584917,81.778988 C101.445829,81.8630146 101.336417,81.9919156 101.29595,82.1702086 C101.20932,82.5526953 101.410757,82.9147024 101.783656,83.0333636 C102.430534,83.2390632 103.11638,83.3056219 103.799528,83.3110429 C103.867273,83.3152593 103.934719,83.3224874 104.002464,83.3251979 C104.233577,83.3348354 104.463791,83.3300167 104.693706,83.3197769 C105.135848,83.3002008 105.576193,83.2526158 106.015938,83.1917794 C106.100469,83.1800337 106.185301,83.1685892 106.269832,83.1568436 C106.474567,83.1408815 106.679002,83.1327499 106.883437,83.1306417 C106.95388,83.1297382 107.024323,83.1267265 107.094466,83.1282324 C107.094167,83.1393757 107.092968,83.150519 107.091769,83.1616623 C107.094167,83.177022 107.094167,83.2026215 107.088171,83.2342444 C107.087872,83.2339433 107.087572,83.2336421 107.087272,83.2336421 C107.086972,83.2363526 107.086972,83.2390632 107.086972,83.2420749 C107.085474,83.2477971 107.083675,83.2538205 107.082476,83.2598439 C107.074982,83.2929727 107.067188,83.3264026 107.057596,83.3595314 C107.048903,83.3908531 107.032416,83.4260901 107.017728,83.4616282 C107.007537,83.4860231 107.002141,83.508912 106.996146,83.5324033 C106.993448,83.5378244 106.99045,83.5429443 106.987753,83.5480642 C106.968568,83.5863129 106.949084,83.6239592 106.927801,83.6610032 C106.892729,83.7227432 106.851962,83.7799656 106.812394,83.8383927 C106.801303,83.8546559 106.790812,83.8718226 106.779721,83.888387 C106.776423,83.8932057 106.773426,83.8977233 106.771327,83.8998315 C106.764133,83.9082643 106.756639,83.916697 106.749445,83.9251298 C106.717071,83.9621738 106.685597,83.999519 106.652024,84.0356594 C106.597168,84.0946889 106.538116,84.1495019 106.479063,84.204315 C106.459279,84.2226864 106.440994,84.243166 106.42091,84.2609351 C106.373549,84.3030989 106.324089,84.3425523 106.276127,84.3838127 C106.263837,84.3940525 106.255744,84.4015817 106.250648,84.4067016 C106.227866,84.4208566 106.206284,84.433807 106.19849,84.4392281 C105.960782,84.6069801 105.707487,84.7518432 105.446098,84.8789372 C105.369959,84.9159811 105.290823,84.9476041 105.215284,84.9855516 C105.17152,85.0030194 105.128055,85.0207885 105.08399,85.0376541 C104.902337,85.1084292 104.717686,85.1719762 104.531537,85.2298009 C104.100784,85.3632195 103.66104,85.4659187 103.217698,85.5466324 C103.104689,85.567112 102.99168,85.5863869 102.878372,85.604156 C102.83161,85.6113841 102.784847,85.6186122 102.738085,85.6255391 C102.737486,85.6255391 102.653553,85.6366824 102.614885,85.6421035 C102.340306,85.6767381 102.065129,85.7050482 101.789351,85.7270336 C101.158661,85.7773291 100.525572,85.796604 99.8930832,85.7902794 C97.6583882,85.7673905 95.5759702,85.4544742 93.4087208,84.8795395 C92.6872036,84.687995 91.9695832,84.4711521 91.2720467,84.2028091 C91.2144931,84.1805225 91.1569396,84.1579347 91.0996859,84.1347446 C91.0679115,84.1217942 91.0361372,84.1085427 91.0043629,84.0955924 C90.9144355,84.0597531 91.0745062,84.1332387 91.0820002,84.1287212 C91.0652137,84.1392621 90.97079,84.0916772 90.8949512,84.050718 C90.9177328,83.953741 90.9450108,83.8576676 90.9716893,83.7615942 C91.0196505,83.5902281 91.0706094,83.4194644 91.1227672,83.2496041 C91.2034021,82.988188 91.2831377,82.7267719 91.3634728,82.4650547 C91.5876917,81.8717486 91.7735416,81.2621792 91.931514,80.6541158 C92.0514171,80.1915177 92.1524355,79.7237997 92.2444612,79.2542747 C92.2585498,79.1834996 92.2681421,79.111821 92.2816312,79.0410459 C92.293022,78.9910516 92.3050123,78.9410573 92.3155038,78.8907618 C92.3508752,78.7248168 92.3760549,78.5561613 92.3949397,78.386301 C92.4782723,77.876118 92.5523125,77.3647303 92.6050699,76.8509332 C92.7201769,75.729675 92.7699368,74.5849255 92.6308491,73.4633661 C92.6230554,73.4010238 92.6137629,73.3386815 92.6053697,73.2763392 C93.1443343,73.2790497 93.6835988,73.2953129 94.2216642,73.2585701 C94.2879106,73.2540526 94.3535576,73.247728 94.4195043,73.2417046 C95.1029523,73.1781576 95.7654172,73.0266687 96.3832182,72.7110419 C97.1772768,72.3047628 97.8049698,71.6247195 98.2743906,70.8748047 C98.5741485,70.3959434 98.8040628,69.8794358 99.0132938,69.3553989 C99.0246846,69.321969 99.1032212,69.1274128 99.097226,69.1328339 C99.1337965,69.0539272 99.1709664,68.9753216 99.2132323,68.8994266 C99.2516013,68.8304586 99.2938672,68.7635987 99.3376318,68.6979435 C99.3445263,68.6877037 99.3499219,68.6765604 99.3568163,68.6666217 C99.3780991,68.6356012 99.4896091,68.5094107 99.3706052,68.6443351 C99.4032788,68.6072911 99.4338541,68.5693436 99.4671272,68.5332032 C99.5204841,68.4759807 99.5816347,68.4274923 99.6355911,68.3714745 C99.6358909,68.3711734 99.6358909,68.3708722 99.6361907,68.370571 C99.6490803,68.3630418 99.6616701,68.3540066 99.6742599,68.3452727 C99.6850512,68.3377434 99.6958425,68.3302142 99.7066338,68.3232872 C99.7626885,68.2877491 99.8229398,68.2603426 99.8801936,68.2272138 M90.6428549,80.0511722 C90.51276,80.5761126 90.36408,81.0968366 90.189621,81.6088266 C90.1473551,81.7335112 90.0987943,81.8557865 90.0529314,81.9789653 C90.0145624,82.0822668 89.9794907,82.1864719 89.9387236,82.2885687 C89.9222369,82.3295279 89.8484965,82.4981834 89.9249348,82.324408 C89.9057503,82.3680777 89.8871653,82.4120486 89.8679808,82.4557184 C89.8215183,82.5605258 89.773557,82.6644296 89.7228979,82.76743 C89.6371672,82.9424101 89.5451415,83.1146797 89.4432238,83.2809259 C89.3050355,83.5065027 89.2136093,83.6314885 89.0298577,83.8118897 C89.0178674,83.8236353 89.0040786,83.8344775 88.9914887,83.8462231 C88.9561173,83.8799542 88.9201464,83.9127818 88.8826766,83.9444047 C88.8694873,83.9516328 88.7912505,84.0085541 88.7690684,84.0221068 C88.7127139,84.0570425 88.6545609,84.0865573 88.5964078,84.117879 C88.5715279,84.1257094 88.5175715,84.1446832 88.5145739,84.1455867 C88.4669124,84.1597417 88.4183517,84.1687768 88.3703904,84.1817272 C88.3676926,84.1823295 88.3676926,84.1829319 88.3652945,84.1835342 C88.3589996,84.183233 88.356002,84.1826307 88.3479086,84.1826307 C88.29665,84.1817272 88.2441923,84.1805225 88.1932335,84.181426 L88.1932335,84.181426 C88.1860393,84.1793178 88.1821425,84.177812 88.17285,84.1751014 C88.1404761,84.1657651 88.1081023,84.154923 88.0757284,84.146189 C88.0730306,84.144382 88.0727308,84.1434785 88.0697333,84.1416715 C88.0685342,84.140768 88.0637381,84.1377563 88.0610403,84.1362504 C88.0949129,84.0781245 88.1287856,84.0196974 88.1617589,83.9609691 C88.1797444,83.9284427 88.1965308,83.8950128 88.2145163,83.8621852 C88.2720698,83.7573778 88.3296233,83.6525704 88.3841793,83.545956 C88.5295618,83.263458 88.6644529,82.97584 88.790651,82.6840057 C89.2744602,81.5666627 89.6419633,80.4065535 89.904851,79.2181343 C89.9294311,79.1064 89.9588074,78.9958703 89.981589,78.8838349 C90.2207958,77.7050531 90.372773,76.4973589 90.3871614,75.29358 C90.3976529,74.4009103 90.3577851,73.4431877 90.0685188,72.591176 C90.0136631,72.4297486 89.9471168,72.2707305 89.8712781,72.1177358 C89.8682805,72.1117124 89.8655827,72.105689 89.8625851,72.0993644 C89.8859662,72.0846071 89.9078486,72.070452 89.9126447,72.0674403 C89.915942,72.0653321 89.9171411,72.0647298 89.9201386,72.0629228 C89.9540113,72.0523818 89.9878839,72.0391303 90.0220563,72.029794 C90.0499338,72.0219636 90.0790103,72.0162413 90.1077871,72.0102179 C90.132667,72.0072062 90.1605444,72.001484 90.1692374,72.0008816 C90.201911,71.9990746 90.2756515,71.9897383 90.3392001,71.9894371 C90.3445958,71.9912442 90.3544878,71.9936535 90.3760704,71.9987734 C90.3964539,72.0038933 90.4174369,72.006905 90.4378205,72.0114226 C90.4932757,72.0237706 90.5466326,72.0412385 90.6011885,72.0565982 C90.6068839,72.0584052 90.6086825,72.0587064 90.6134786,72.0599111 C90.6494495,72.0815954 90.6884181,72.1008703 90.7252883,72.1213499 C90.7393769,72.1291803 90.7531658,72.1388178 90.7669546,72.1487564 C90.801127,72.183391 90.8388965,72.2162186 90.8730689,72.2505521 C90.8796636,72.2571778 90.8829609,72.2598884 90.8877571,72.2644059 C90.8895556,72.2677188 90.8895556,72.2689235 90.8922534,72.2737422 C90.9102389,72.3059675 90.9297232,72.3387951 90.9492074,72.3710203 C90.9549028,72.3803566 90.9602985,72.3902952 90.9659939,72.3996315 C90.9704902,72.4071608 90.9725885,72.4095702 90.9758859,72.4143889 C90.9770849,72.4180029 90.9773847,72.4189064 90.9788834,72.4231228 C90.9959696,72.471009 91.0136554,72.5185939 91.0292428,72.5670824 C91.0433314,72.6095474 91.0544224,72.6532172 91.0670123,72.6962846 C91.1086786,72.8387383 91.1455488,72.982999 91.1749251,73.1284644 C91.1956084,73.2317659 91.2138936,73.3356698 91.2297808,73.4398748 C91.2348767,73.4736059 91.2363755,73.6139514 91.2402723,73.5097464 C91.2444689,73.4025297 91.2495648,73.5940742 91.2537614,73.6320217 C91.3652714,74.6794931 91.3191086,75.7444324 91.2144931,76.7903979 C91.2013038,76.9223107 91.1869154,77.0542234 91.171328,77.1861361 C91.1629348,77.2572124 91.1542418,77.328891 91.1452491,77.3999673 C91.1413522,77.4315902 91.1371556,77.4629119 91.1332588,77.4942337 C91.1320597,77.5017629 91.1311604,77.5080875 91.1296617,77.5201343 C91.0885948,77.8065476 91.0448302,78.0926597 90.9947706,78.3778682 C90.9923726,78.3929268 90.9890752,78.4076841 90.9863774,78.4224415 C90.9803822,78.4555703 90.973188,78.4883979 90.9671929,78.5215266 C90.9231285,78.7669807 90.876666,79.0118324 90.8248079,79.2557806 C90.7684534,79.5220154 90.7085018,79.7870456 90.6428549,80.0511722 M106.328285,44.9885879 C104.509055,44.4434691 102.035453,45.2638579 101.361897,47.3789791 C100.869694,47.2175517 100.431149,46.948004 100.063046,46.5872016 C101.422448,45.6662218 102.649657,44.5512882 103.677526,43.2649885 C104.655636,43.5767001 105.697894,43.788423 106.762934,43.8989527 C106.653223,44.2754159 106.506042,44.6404347 106.328285,44.9885879 M116.988275,38.2480884 C117.174424,37.2656698 117.298224,36.270301 117.382157,35.2743297 C117.484374,34.0606122 117.547323,32.8426782 117.483475,31.6250454 C117.336893,28.8422289 116.646851,26.1193454 115.498778,23.5858981 C114.938231,22.3492916 114.260178,21.1617759 113.47841,20.0480469 C113.285965,20.1546613 113.073437,20.2606734 112.842923,20.3660831 C112.639687,20.4588436 112.421164,20.5507007 112.187053,20.6419554 C112.488909,21.0620884 112.777876,21.499087 113.065943,21.972226 C113.397775,22.5173448 113.705327,23.0769198 113.987698,23.649144 C114.126187,23.929835 114.25838,24.2135377 114.384578,24.4996498 C114.510776,24.786063 114.576723,24.9462858 114.701422,25.2691407 C115.157054,26.4482237 115.509869,27.6673623 115.752373,28.9084864 C115.812325,29.2153793 115.865382,29.523778 115.911844,29.8330802 C115.921437,29.8987354 115.931029,29.9643906 115.940022,30.0300458 C115.939722,30.0264318 115.940621,30.0327563 115.943918,30.0559465 C115.942719,30.0475137 115.941221,30.0387798 115.940022,30.0300458 C115.94152,30.0417915 115.955609,30.1475023 115.958007,30.1673796 C115.97959,30.3411551 115.998774,30.5152317 116.01586,30.6896095 C116.077311,31.3121291 116.110284,31.9376605 116.114181,32.563493 C116.121375,33.6546342 116.042539,34.7511964 115.933427,35.8366153 C115.909146,36.0793588 115.882168,36.3221023 115.851893,36.5642435 C115.844699,36.6217671 115.837205,36.6792907 115.829711,36.7368142 C115.845898,36.6100214 115.832109,36.7184428 115.823715,36.7789781 C115.806629,36.9021569 115.788344,37.0253357 115.76916,37.1482133 C115.695419,37.6231594 115.60759,38.0956961 115.502075,38.5646187 C115.492783,38.6058791 115.481092,38.6459348 115.4715,38.686894 C114.386077,38.8940994 113.423254,38.7883885 112.280278,38.2233924 C112.717624,37.647253 113.072538,37.0060608 113.321037,36.3118625 C114.953219,31.7506335 110.574056,28.1648962 106.304904,28.4260111 C103.244076,28.6130381 100.490501,30.309231 98.0456754,32.0328304 C97.3934022,32.4927179 97.9698366,33.5404905 98.679963,33.1233692 C101.059141,31.7271422 103.57411,30.0128791 106.428404,29.9384899 C108.491338,29.8845804 110.909185,30.8314608 111.731721,32.8773128 C112.634591,35.1225397 111.105826,37.6032821 109.174486,38.7200228 C109.13312,38.7441164 109.089955,38.7630901 109.048288,38.7859791 C107.888825,39.2088227 106.527624,39.5099933 105.164925,39.643713 C103.711099,39.6160053 102.23749,39.301282 100.891876,38.9224094 C100.301054,38.7561632 99.8933829,39.1720798 99.8058536,39.6428095 C96.4158918,44.6503733 90.7711512,47.2618238 84.7274329,46.6468334 C85.2175371,48.5493281 87.4732151,49.3489361 89.4237396,49.4941004 C92.7819271,49.7434696 96.1910734,48.8977825 99.0996241,47.1979756 C100.059149,48.2930319 101.588514,48.8252004 103.020157,48.6460039 C104.641847,48.4430149 106.046213,47.4874005 106.954779,46.1387585 C107.394224,45.4861218 107.701476,44.7422304 107.89422,43.9775582 C109.8999,44.0468274 111.935256,43.7492709 113.742796,43.0478445 C113.619896,43.2523393 113.492498,43.4541237 113.360305,43.6525951 C113.214923,43.8709438 113.063845,44.0853773 112.907671,44.2958955 C112.870801,44.3452875 112.833631,44.3946795 112.79676,44.4437703 C112.793763,44.4479867 112.794063,44.4470832 112.791964,44.4500949 C112.798559,44.4416621 112.805154,44.4332293 112.811748,44.4247966 C112.805154,44.4332293 112.758691,44.494367 112.791964,44.4500949 C112.779374,44.4663581 112.766785,44.4826213 112.754195,44.4985834 C112.669663,44.6061013 112.584532,44.7127157 112.497902,44.8181254 C112.149583,45.2418724 111.781481,45.6490551 111.397491,46.0405769 C110.800373,46.6492427 110.145102,47.2356219 109.487733,47.7732115 C109.477541,47.7813431 109.467649,47.7903782 109.457458,47.7985098 L109.457158,47.798811 C109.18228,48.0228819 108.907402,48.2406283 108.636421,48.4439184 C108.388821,48.6294395 108.138223,48.8110454 107.885827,48.9902419 C107.786907,49.0604147 107.687387,49.1296839 107.587568,49.1983508 C107.518024,49.2459358 107.446082,49.290509 107.376239,49.3374916 C106.988652,49.5974019 106.59447,49.8476747 106.184401,50.0717456 C105.98776,50.1792635 105.787822,50.2813603 105.586984,50.3810478 C105.444899,50.4515217 105.302514,50.5210922 105.15863,50.587952 C104.991065,50.665654 104.821702,50.7394409 104.652639,50.8129265 C104.648442,50.8150347 104.643946,50.8171429 104.640049,50.8192511 C104.640648,50.8189499 104.641248,50.8183476 104.642147,50.8180464 C104.641548,50.8183476 104.640349,50.8189499 104.639749,50.8192511 C104.629857,50.8234675 104.615469,50.8294909 104.591188,50.8400318 C104.597783,50.8373213 104.604378,50.8343096 104.610673,50.8312979 C104.600781,50.8355143 104.591188,50.8397307 104.579198,50.8445494 C104.534234,50.8635231 104.488971,50.8818946 104.443707,50.9005671 C104.344787,50.9406228 104.245568,50.9803773 104.146048,51.0192284 C102.465006,51.6760815 100.710823,52.1392819 98.9389538,52.4714731 C98.4653364,52.5603184 97.9899204,52.6395263 97.5133054,52.7093978 C97.3984981,52.7262634 97.2836909,52.7419243 97.1688836,52.7584887 C97.1808739,52.7566816 97.1928642,52.7551758 97.2048545,52.7536699 C97.1970608,52.7545734 97.0831528,52.7708367 97.1649867,52.7587898 C97.1661858,52.7587898 97.1673848,52.7584887 97.1688836,52.7584887 C97.1514976,52.7605969 97.1344114,52.7630062 97.1170255,52.7651144 C97.0489804,52.7741495 96.9806356,52.7828835 96.9122908,52.7916174 C96.6664894,52.8223368 96.4203882,52.850948 96.174287,52.8771499 C95.1596065,52.984969 94.1410293,53.0536359 93.121253,53.0846564 C91.2867348,53.140373 89.4483197,53.0674897 87.623094,52.8717288 C87.3697986,52.8446235 87.1159037,52.8229392 86.8632078,52.7907139 C86.8176446,52.7849917 86.7723812,52.7789683 86.726818,52.7729448 C86.7301153,52.7735472 86.719324,52.7720413 86.6779574,52.7666203 C86.6941444,52.7687285 86.7106311,52.7708367 86.726818,52.7729448 C86.7199235,52.7720413 86.6491807,52.762705 86.6171066,52.7581875 C86.4837143,52.7395149 86.3503221,52.72024 86.2169298,52.7000616 C85.9612364,52.6618129 85.7058427,52.6205525 85.4507487,52.5765816 C84.9330668,52.4871339 84.4174833,52.3862418 83.9042978,52.2730016 C83.5358954,52.1919867 83.1695913,52.1022379 82.8044862,52.0082727 C82.8431549,52.2043347 82.5392004,52.3988909 82.1483162,52.5576079 C81.8032949,52.6979534 81.3929263,52.8099888 81.0916697,52.8717288 C81.0035409,52.8894979 80.9256038,52.9030506 80.8608561,52.9117845 C80.7952091,52.9205184 80.7424517,52.925036 80.7097781,52.9229278 C80.6396348,52.9187114 80.5676929,52.9096763 80.4966503,52.9030506 C79.8671587,53.2015106 78.2370754,53.9785308 78.3066192,53.9944929 C81.6309341,53.5493627 86.070648,54.6986298 87.307449,62.753739 C87.2882645,64.0219685 87.0427628,68.829555 85.4006891,71.1338114 C85.4006891,71.1338114 86.6743603,71.3955287 88.4729076,71.7990973 C88.4723081,71.8027114 88.4708093,71.8060242 88.4702098,71.8099395 C88.412956,72.1487564 88.4759052,72.4502282 88.6311798,72.7538082 C88.6476664,72.7851299 88.6626543,72.8173552 88.6788413,72.8492793 C88.6758437,72.8402441 88.6725464,72.8315102 88.6698485,72.8227762 C88.6587575,72.7869369 88.7495841,72.984806 88.6842369,72.8598202 C88.6824384,72.8562062 88.6806398,72.8525921 88.6788413,72.8492793 C88.7043207,72.9269813 88.7354955,73.0031774 88.7591764,73.081783 C88.8158306,73.2697134 88.8577967,73.4621615 88.8913696,73.655513 C88.9000626,73.7052061 88.9075565,73.7552005 88.91565,73.8048936 C88.9174485,73.8151334 88.9186476,73.8280838 88.9207459,73.8404318 C88.9159497,73.7910398 88.9276403,73.7214694 88.9285396,73.8925343 C88.9282398,73.8762711 88.9240432,73.858502 88.9207459,73.8404318 L88.9207459,73.8407329 C88.9336355,73.9666222 88.9483236,74.0922104 88.9579158,74.2184009 C88.9779996,74.4752994 88.9881914,74.7334026 88.9905895,74.9912047 C88.9968844,75.5854143 88.963911,76.1799251 88.9036597,76.771123 C88.8877725,76.9277317 88.8691875,77.0843405 88.850003,77.2409492 C88.848804,77.2505866 88.8461062,77.2722709 88.8437081,77.2885341 C88.8458064,77.2740779 88.8479047,77.2593206 88.850003,77.2448644 C88.8383125,77.3285898 88.840111,77.3162418 88.8437081,77.2885341 C88.84131,77.306002 88.838912,77.3231688 88.8365139,77.3406366 C88.822725,77.4370112 88.8083367,77.5333858 88.7933488,77.6297604 C88.7417904,77.9577352 88.6821386,78.2845054 88.6146931,78.6094684 C88.5805207,78.7733053 88.5379551,78.9350339 88.4998858,79.097666 C88.3793831,79.6126678 88.2450916,80.1243566 88.0829226,80.6273116 C87.9732112,80.9667309 87.8539076,81.3031384 87.7238127,81.6350285 C87.6944364,81.7097188 87.6644606,81.7844091 87.6341851,81.8587982 C87.6260916,81.8786755 87.6176984,81.8985527 87.6096049,81.91843 C87.6150006,81.9054797 87.6147008,81.9066843 87.5949168,81.9539681 C87.5997129,81.9422225 87.604509,81.9301757 87.6096049,81.91843 C87.6030102,81.9331874 87.5886219,81.9672196 87.584725,81.9756524 C87.5112843,82.1425009 87.4372441,82.3087471 87.3587076,82.4731863 C87.2136248,82.7773686 87.0577507,83.0767322 86.8895865,83.3688677 C86.7969613,83.529994 86.6869502,83.6832898 86.6419865,83.8657992 C86.6416867,83.8670039 86.6407875,83.8682086 86.6404877,83.8694133 C86.5958238,84.0546332 86.6051163,84.2434672 86.643785,84.4286871 C86.7582926,84.9729024 87.2483967,85.3737605 87.7624814,85.5180212 C88.5250655,85.7318523 89.220204,85.4641117 89.7849478,84.9942855 C89.9129444,85.1090315 90.0703173,85.2020932 90.2426781,85.2809999 C90.8604791,85.5637991 91.5061576,85.7845572 92.1551334,85.9818239 C94.2747213,86.6263291 96.4869344,87.0172485 98.6967495,87.1509683 C99.9590299,87.2271644 101.230903,87.2109012 102.487787,87.0615206 C103.462,86.9455699 104.437113,86.7711921 105.359768,86.4272553 C106.239557,86.0992805 107.175401,85.6044572 107.794401,84.8563494 C107.95687,84.6599861 108.102852,84.449769 108.214062,84.2160606 C108.265321,84.1082415 108.311483,83.992592 108.351351,83.8727261 C108.493736,83.4459674 108.548892,82.9613838 108.406507,82.5454672 C108.7863,82.3213963 109.113036,82.0229362 109.378322,81.6648443 C109.909792,80.9480583 110.088148,79.9213677 109.810872,79.0684525 C109.686173,78.6853634 109.480239,78.3064908 109.164295,78.0492911 C109.09595,77.9932734 109.025806,77.9438814 108.954464,77.8978023 C109.097149,77.6869829 109.209858,77.4544791 109.282999,77.203604 C109.585454,76.1681794 109.199366,74.9987339 108.336063,74.3665768 C108.282407,74.3274246 108.227251,74.2897783 108.169998,74.2548425 C107.745241,73.9952334 107.192487,73.8491657 106.695489,73.886812 C106.355263,73.9124115 106.015938,73.9536719 105.675413,73.9798737 C104.956593,74.034988 104.235676,74.0711284 103.514758,74.0777542 C103.122075,74.0813682 102.728793,74.0762483 102.33641,74.0566723 C102.296842,74.0545641 102.257573,74.0503477 102.217705,74.0479383 C102.586108,73.2835673 102.899055,72.4893804 103.112183,71.6701963 C103.311222,70.9067288 103.470394,70.0767026 103.300431,69.2930566 C103.079809,68.2784128 102.313328,67.3971876 101.365494,66.9933178 C101.06034,66.8635133 100.737501,66.7831007 100.406568,66.7644281 C100.185047,66.751779 99.9605287,66.7638258 99.7363098,66.8102061 C99.754595,66.5216846 99.7441035,66.0605924 99.7333122,65.5416754 L99.7809737,63.2807876 L99.7809737,63.2801853 C99.7809737,63.2801853 99.7809737,63.2801853 99.7809737,63.2801853 C102.128677,61.9333503 104.555217,60.6024773 107.056697,59.2866629 C110.71794,57.3986243 114.51857,55.5000448 115.168145,55.237424 C115.163349,55.2310994 115.158853,55.2244737 115.154056,55.2181491 C113.649272,53.1241098 111.932558,50.9123128 110.773994,49.4465154 C110.625614,49.2591873 110.478433,49.0730638 110.326756,48.8830252 C110.326756,48.8830252 110.326756,48.882724 110.326756,48.882724 C110.609727,48.6529308 110.887303,48.4168131 111.160382,48.1761777 C112.48741,47.0064311 113.693636,45.7050728 114.664252,44.2118689 C115.130376,43.4947817 115.527555,42.7376388 115.865981,41.9548963 C117.500861,40.8658634 118.771834,39.3244722 119.379144,37.2804272 C118.466681,37.6644197 117.68791,37.9948039 116.988275,38.2480884" id="Fill-40" fill="#0D247C"></path>
            <path d="M109.858534,23.297979 C108.889417,23.636796 108.689478,25.1462631 109.272207,26.8295057 C110.068364,28.3986046 111.156485,28.9566737 112.110914,28.457634 C113.065344,27.9588955 113.14358,26.7081339 112.781773,25.6034401 C112.22722,23.9105601 110.827651,22.9594633 109.858534,23.297979" id="Fill-41" fill="#0D247C"></path>
            <path d="M100.063196,46.5872016 C100.430999,46.948004 100.869544,47.2175517 101.362047,47.3789791 C102.035603,45.2638579 104.508905,44.4434691 106.328435,44.9885879 C106.506192,44.6404347 106.653073,44.2754159 106.762784,43.8989527 C105.697745,43.788423 104.655486,43.5767001 103.677376,43.2649885 C102.649806,44.5512882 101.422598,45.6662218 100.063196,46.5872016" id="Fill-42" fill="#FFFFFF"></path>
            <path d="M112.110974,28.4577244 C111.156545,28.9567641 110.068424,28.3983938 109.272267,26.829596 C108.689538,25.1463535 108.889476,23.6365852 109.858594,23.2980694 C110.827711,22.9595536 112.22728,23.9106504 112.781833,25.6035305 C113.14364,26.7079231 113.065403,27.9586847 112.110974,28.4577244 M90.9735478,38.8637715 C90.0191187,39.36251 88.8647511,38.8179936 88.0685942,37.2491958 C87.4858649,35.5659532 87.5497133,34.0661236 88.7685288,33.5881658 C89.7244567,33.2135096 91.0239071,34.3302502 91.5781594,36.0231302 C91.9399672,37.1275229 91.9279768,38.3647318 90.9735478,38.8637715 M116.01592,30.6893986 C115.998834,30.515322 115.97965,30.3409442 115.958067,30.1671688 C115.955369,30.1475927 115.94158,30.0415806 115.940081,30.0301362 C115.930789,29.964481 115.921497,29.8988258 115.911604,29.8331706 C115.865442,29.5238684 115.812085,29.2154696 115.752133,28.9082756 C115.509929,27.6671515 115.157114,26.448314 114.701482,25.2692311 C114.576783,24.946075 114.510836,24.7861534 114.384638,24.4997401 C114.25844,24.2133269 114.125947,23.9299253 113.987459,23.6492343 C113.705387,23.0770102 113.397835,22.517134 113.066003,21.9723163 C112.777936,21.4991773 112.488969,21.0621787 112.187113,20.6420457 C110.535147,21.2847438 108.101413,21.8819652 104.645205,22.3680545 C104.645205,22.3680545 108.304049,24.6867671 100.534625,28.3218964 C98.7318811,29.1097588 90.3146799,30.5797725 81.5611505,31.1059176 C75.4955498,31.4709364 73.445206,36.691729 72.8990471,39.0071287 C71.0258601,38.4379162 70.0795245,40.2139194 70.1229894,42.0085951 C70.2207105,46.0307286 73.7590525,46.0087432 73.7704433,46.0105502 C74.102575,46.986343 79.6525921,50.9973332 81.9709195,51.5638352 C82.5377616,51.7023737 82.7742706,51.8556695 82.8045461,52.0080618 C83.1696512,52.1023282 83.5359553,52.1917759 83.9043578,52.273092 C84.4175433,52.386031 84.9331268,52.4872243 85.4508087,52.5763708 C85.7059026,52.6203417 85.9612963,52.6616021 86.2169898,52.7001519 C86.350382,52.7203303 86.4837743,52.7396053 86.6171665,52.7582778 C86.6492406,52.7627954 86.7196837,52.7721317 86.7268779,52.7730352 C86.7721414,52.7790586 86.8177046,52.785082 86.8632678,52.7908043 C87.1159637,52.8230295 87.3698586,52.8447138 87.6228542,52.8718192 C89.4480799,53.0672789 91.2867947,53.1404633 93.1210132,53.0847468 C94.1410892,53.0537262 95.1596665,52.9850593 96.1743469,52.8772402 C96.4204481,52.8510384 96.6665493,52.8224272 96.912051,52.7917078 C96.9803958,52.7829738 97.0487406,52.7739387 97.1170854,52.7652048 C97.1344714,52.7630966 97.1515576,52.7606872 97.1689435,52.7582778 C97.2837508,52.7420146 97.3985581,52.7263538 97.5133653,52.7094882 C97.9899804,52.6393154 98.4653964,52.5604087 98.9390138,52.4715634 C100.710883,52.1393722 102.465066,51.6761718 104.146108,51.0193187 C104.245627,50.9801665 104.344847,50.9407132 104.443767,50.9003563 C104.489031,50.8819849 104.533995,50.8633123 104.579258,50.8446397 C104.591248,50.8395198 104.600841,50.8356046 104.610733,50.8313882 C104.624821,50.8253648 104.63861,50.8190402 104.652399,50.8130168 C104.821762,50.73923 104.991125,50.6654432 105.15869,50.5877412 C105.302274,50.5211825 105.444659,50.4516121 105.587044,50.3811382 C105.787882,50.2814507 105.98782,50.1793539 106.184461,50.0715348 C106.59453,49.8474638 106.988412,49.5974922 107.376299,49.3372808 C107.446142,49.2902982 107.517784,49.2460261 107.587328,49.1984412 C107.687447,49.1297743 107.786967,49.0602038 107.885887,48.9903323 C108.138283,48.8111358 108.388881,48.6295299 108.636181,48.4440088 C108.907462,48.2404174 109.18234,48.0229722 109.457218,47.7986001 L109.457518,47.7986001 C109.467709,47.7901674 109.477601,47.7814334 109.487793,47.7733018 C110.145162,47.2357123 110.800433,46.6493331 111.397251,46.0406673 C111.781241,45.6491455 112.149643,45.2419628 112.497962,44.8182157 C112.584592,44.7125048 112.669723,44.6058904 112.754255,44.4986737 C112.766845,44.4827117 112.779434,44.4664484 112.792024,44.4501852 C112.794123,44.4471735 112.793823,44.4477759 112.79682,44.4438607 C112.833691,44.3947698 112.870861,44.3453779 112.907431,44.2959859 C113.063605,44.0851664 113.214683,43.870733 113.360065,43.6526854 C113.492558,43.4539128 113.619956,43.2524297 113.742856,43.0476337 C111.935316,43.7493612 109.89996,44.0469178 107.89428,43.9776485 C107.701536,44.7420196 107.394284,45.4862122 106.954839,46.1388489 C106.046273,47.4874909 104.641907,48.4428041 103.020217,48.6457931 C101.588574,48.8249896 100.059209,48.2928211 99.099684,47.1980659 C96.1911333,48.8978729 92.781987,49.74356 89.4234998,49.4941907 C87.4729753,49.3490265 85.2172973,48.5491173 84.7274929,46.6469237 C90.7712112,47.2619141 96.4159518,44.6504637 99.8056138,39.6428999 C99.8934429,39.171869 100.301114,38.7562536 100.891936,38.9224998 C102.237549,39.3013724 103.711159,39.6160957 105.164985,39.6438034 C106.527684,39.5100836 107.888885,39.208913 109.048348,38.7857683 C109.090015,38.7631805 109.13288,38.7439056 109.174546,38.7201131 C111.105886,37.6033725 112.634651,35.1226301 111.731781,32.8774032 C110.908945,30.83125 108.491398,29.8843696 106.428464,29.9382791 C103.57417,30.0129694 101.059201,31.7269314 98.680023,33.1234596 C97.9698966,33.5402797 97.3934622,32.4928083 98.0457353,32.0329208 C100.490261,30.3090201 103.244136,28.6131284 106.304964,28.4261015 C110.574116,28.1646854 114.953279,31.7507239 113.321097,36.3119529 C113.072598,37.0061511 112.717684,37.6473434 112.280338,38.2234828 C113.423015,38.7881777 114.386137,38.8938885 115.47156,38.6866832 C115.481152,38.645724 115.492843,38.6056683 115.502135,38.5647091 C115.60765,38.0957864 115.695479,37.6229486 115.76922,37.1483037 C115.788404,37.025426 115.806389,36.9022473 115.823775,36.7790685 C115.832169,36.7185332 115.845958,36.6098106 115.829771,36.7366034 C115.836965,36.6790798 115.844758,36.6215563 115.851953,36.5640327 C115.882228,36.3218915 115.909206,36.0794491 115.933487,35.8367056 C116.042599,34.7512867 116.121135,33.6547245 116.114662,32.5632822 C116.110344,31.9377508 116.077371,31.3122195 116.01592,30.6893986" id="Fill-43" fill="#FFFFFF"></path>
            <path d="M108.529467,79.7024467 C108.522873,79.6708238 108.517177,79.6392009 108.509983,79.607578 C108.492597,79.5328877 108.468916,79.4609079 108.445235,79.3880246 C108.430247,79.3618228 108.418557,79.3314045 108.404468,79.3064074 C108.390979,79.2814102 108.375691,79.2573166 108.361003,79.2332229 C108.347214,79.2247901 108.334325,79.2097316 108.325632,79.1952754 C108.30285,79.1696759 108.280368,79.1422694 108.263282,79.1208863 C108.244697,79.1127547 108.225513,79.0949856 108.212923,79.0808306 C108.207527,79.0766142 108.201832,79.072699 108.198834,79.0711931 C108.192839,79.0675791 108.180849,79.0627603 108.170357,79.058544 C108.16766,79.0576404 108.164962,79.0567369 108.161964,79.0558334 C108.156868,79.0549299 108.151772,79.0537252 108.144878,79.0528217 C108.133787,79.0528217 108.121197,79.0522194 108.107408,79.04981 C108.100814,79.0501112 108.096917,79.0501112 108.089123,79.0504123 C107.926354,79.058544 107.763586,79.0778189 107.601417,79.0925762 C107.266288,79.1229945 106.931758,79.1555209 106.596628,79.1847344 C105.179973,79.3076121 103.703066,79.3913375 102.317585,79.0016227 C101.941089,78.8959118 101.745347,78.5107146 101.829879,78.1384677 C101.918307,77.7481506 102.331074,77.5810009 102.688985,77.6484631 C102.863144,77.6812907 103.038503,77.7099019 103.214161,77.7339956 C103.25223,77.7385131 103.362541,77.7520658 103.38802,77.7547764 C103.491437,77.766522 103.595153,77.7773642 103.698869,77.7870016 C104.086756,77.8228409 104.476441,77.8457299 104.866426,77.8484404 C105.039686,77.8499463 105.213246,77.8472357 105.386206,77.8372971 C105.458148,77.8330807 105.53039,77.8279608 105.602032,77.8204316 C105.625413,77.8183234 105.730028,77.7960367 105.688662,77.8068789 C105.970734,77.7415249 106.253705,77.7032762 106.542372,77.676472 C106.576844,77.6731591 106.611317,77.6689427 106.645489,77.6656299 C106.647887,77.6650275 106.648187,77.6650275 106.650885,77.664124 C106.727922,77.6460538 106.806759,77.6352116 106.883797,77.6171414 C107.026481,77.5834103 107.172164,77.5469686 107.311251,77.4996848 C107.323841,77.4954685 107.338529,77.4885415 107.352018,77.4816146 C107.420363,77.4415589 107.392486,77.4614362 107.352018,77.4816146 C107.342426,77.487638 107.332534,77.4933603 107.318445,77.501793 C107.33793,77.4900474 107.360412,77.4834216 107.380196,77.4722783 C107.425459,77.4466788 107.472221,77.4237899 107.516585,77.3963833 C107.540866,77.3813248 107.564547,77.3629534 107.589726,77.3487984 C107.593923,77.3460878 107.596621,77.3457867 107.600817,77.3436785 C107.623599,77.3222954 107.645182,77.2991052 107.661668,77.2834443 C107.698838,77.2473039 107.730613,77.2027306 107.768982,77.168096 C107.771679,77.164482 107.774377,77.1608679 107.776775,77.1569527 C107.805852,77.1111748 107.834928,77.065698 107.861007,77.0178119 C107.864005,77.0123908 107.8703,77.0006451 107.877494,76.9873936 C107.877794,76.9789609 107.922757,76.8759605 107.930551,76.8500598 C107.94434,76.8048842 107.95603,76.7591063 107.966522,76.7130272 C107.971318,76.6904394 107.974016,76.6223748 107.984507,76.5904508 C107.984807,76.5865355 107.985107,76.5826203 107.985407,76.5787051 C107.990503,76.4802223 107.98181,76.3844501 107.977913,76.2868708 C107.975814,76.2745228 107.974016,76.2630783 107.973416,76.2594643 C107.960827,76.2064582 107.949436,76.1534522 107.934448,76.1010485 C107.920359,76.05256 107.902374,76.0058786 107.886487,75.9579925 C107.883789,75.9534749 107.88259,75.9519691 107.879292,75.9459456 C107.868201,75.9260684 107.82054,75.8236704 107.778874,75.7525941 C107.777075,75.7513894 107.77048,75.7447637 107.753694,75.7272958 C107.734809,75.7074185 107.717723,75.6851319 107.698838,75.6649535 C107.666165,75.6291142 107.631393,75.5947807 107.595721,75.5616519 C107.583132,75.5502075 107.569942,75.538763 107.556753,75.5276197 C107.519283,75.505333 107.483912,75.4773242 107.446742,75.4550375 C107.396982,75.4255228 107.33763,75.4053444 107.290568,75.372818 C107.430255,75.4697949 107.315448,75.3830578 107.244705,75.3601688 C107.191948,75.3430021 107.138591,75.3285459 107.084634,75.3158967 C107.055258,75.3089698 107.021685,75.3032475 107.000702,75.2993323 C106.766591,75.2806598 106.548967,75.3065604 106.313657,75.3288471 C106.243214,75.3354728 106.172771,75.3381833 106.102328,75.3445079 C105.69076,75.3809496 105.279193,75.4137772 104.866726,75.436365 C103.560081,75.5074412 102.237549,75.5249091 100.941996,75.3125838 C100.886241,75.3035487 100.835282,75.2860808 100.78822,75.2628907 C100.449194,75.0951387 100.350274,74.5973036 100.524733,74.281978 C100.757645,73.8615438 100.963279,73.4582764 101.146431,73.0504913 C101.410517,72.462004 101.625744,71.8638791 101.793009,71.1883534 C101.838272,71.005844 101.87844,70.8218288 101.911413,70.6366089 C101.924602,70.5634244 101.934794,70.4899388 101.947384,70.4164531 C101.949782,70.3947689 101.952779,70.3733857 101.954878,70.3517015 C101.970465,70.2071396 101.983355,70.0616742 101.980357,69.9162087 C101.979158,69.8526617 101.987551,69.7568895 101.96507,69.6957519 C101.972564,69.7165326 101.977659,69.7303865 101.982456,69.7433368 C101.969266,69.7056905 101.950381,69.6508774 101.943787,69.6234709 C101.923703,69.5382396 101.897025,69.45602 101.869747,69.372897 C101.863452,69.3533209 101.859855,69.3418764 101.856857,69.3316366 C101.852361,69.3226015 101.847864,69.3150722 101.84037,69.2997125 C101.775623,69.1693056 101.703081,69.046428 101.623046,68.9247551 C101.614353,68.9127083 101.60566,68.9006614 101.596967,68.8883134 C101.579881,68.8684362 101.563694,68.8476554 101.546608,68.8280793 C101.499546,68.7738686 101.450385,68.7214649 101.399127,68.6711694 C101.348168,68.6208739 101.295111,68.5738913 101.241154,68.5269087 C101.229164,68.5160666 101.223169,68.5106455 101.215975,68.5040197 C101.207282,68.4985987 101.19739,68.4925752 101.180603,68.4814319 C101.106863,68.4323411 101.031324,68.3883702 100.954886,68.3462063 C100.897932,68.3148846 100.840678,68.2841652 100.782225,68.2537469 C100.778028,68.2516388 100.776829,68.2507352 100.773532,68.2489282 C100.752849,68.243206 100.732165,68.2383872 100.720175,68.2341709 C100.656327,68.2130889 100.591279,68.1944163 100.525632,68.1793578 C100.493858,68.1721297 100.461484,68.1667086 100.42971,68.1600829 C100.421616,68.1600829 100.413823,68.1594805 100.406029,68.1591794 C100.349674,68.1576735 100.29332,68.1522525 100.236965,68.1532839 C100.210587,68.1540595 100.184208,68.1564688 100.157829,68.15677 C100.135347,68.1570712 100.121259,68.1564688 100.110767,68.1555653 C100.061907,68.1679133 100.006152,68.1874894 99.9908642,68.1917058 C99.953994,68.2019456 99.9174235,68.2176065 99.8802535,68.2272439 C99.8229998,68.2603727 99.7627484,68.2877792 99.7066937,68.3233174 C99.6959024,68.3302443 99.6848114,68.3374724 99.6740201,68.3453028 C99.66173,68.3540368 99.6491402,68.3630719 99.6362506,68.3706011 C99.6359509,68.3709023 99.6359509,68.3709023 99.6356511,68.3712035 C99.5816947,68.4275224 99.5205441,68.4760109 99.4671872,68.5332333 C99.4336143,68.5693738 99.4033387,68.6073213 99.3706651,68.6440641 C99.489669,68.5094408 99.3781591,68.6356313 99.3568763,68.6666519 C99.3499818,68.6765905 99.3442864,68.6877338 99.3376918,68.6976724 C99.2939271,68.7633276 99.2516613,68.8301875 99.2132923,68.8994567 C99.1710264,68.9753517 99.1338564,69.0539573 99.097286,69.132864 C99.1032811,69.1271417 99.0247445,69.3219991 99.013054,69.3554291 C98.803823,69.8794659 98.5742085,70.3959735 98.2744506,70.8745336 C97.8050298,71.6247496 97.1773368,72.3047929 96.3829784,72.7107709 C95.7654772,73.0266989 95.1030123,73.1781877 94.4195643,73.2417347 C94.3536176,73.2477581 94.2879706,73.2540827 94.2217241,73.2586002 C93.6836587,73.2953431 93.1443943,73.2790798 92.6054296,73.2763693 C92.6138229,73.3387116 92.6231153,73.4010539 92.6309091,73.4633963 C92.7699967,74.5849556 92.7202369,75.7297051 92.6048301,76.8509633 C92.5523725,77.3647604 92.4783323,77.8761481 92.3949996,78.3863311 C92.3761149,78.5561914 92.3509352,78.7248469 92.3155638,78.8907919 C92.3050722,78.9410874 92.2930819,78.9907806 92.2816911,79.0407749 C92.268202,79.1118512 92.2586098,79.1835298 92.2445212,79.2543049 C92.1524955,79.7238298 92.0514771,80.1915478 91.9315739,80.6541459 C91.7736015,81.2622093 91.5877516,81.8717787 91.3635328,82.4650848 C91.2831976,82.7268021 91.2031623,82.9882181 91.1228272,83.2496342 C91.0706693,83.4194945 91.0197105,83.589957 90.9717492,83.7616243 C90.944771,83.8573965 90.9177928,83.95347 90.8950112,84.0507481 C90.9708499,84.0917073 91.0652737,84.1392922 91.0820601,84.1287513 C91.0745662,84.1332688 90.9144955,84.0597832 91.0044228,84.0956225 C91.0361972,84.1082717 91.0679715,84.1218243 91.0997458,84.1347747 C91.1569996,84.1576636 91.2145531,84.1805526 91.2721066,84.2025381 C91.9693434,84.4711823 92.6869638,84.6880251 93.4087807,84.8792684 C95.5760302,85.4545043 97.6584482,85.7674206 99.8931431,85.7903096 C100.525632,85.7966341 101.158721,85.7773592 101.789411,85.7270637 C102.065189,85.7050783 102.340366,85.6767682 102.614945,85.6421336 C102.653613,85.6367125 102.737546,85.6255692 102.738145,85.6255692 C102.784907,85.6186423 102.83167,85.6114142 102.878132,85.6041861 C102.99174,85.586417 103.104749,85.5671421 103.217758,85.5466625 C103.6611,85.4659488 104.100844,85.3632496 104.531596,85.229831 C104.717746,85.1720063 104.902097,85.1081581 105.08405,85.0376842 C105.128115,85.0208186 105.17158,85.0030496 105.215344,84.9855817 C105.290883,84.9476342 105.370019,84.9160113 105.446158,84.8789673 C105.707547,84.7518733 105.960842,84.6070102 106.19855,84.4392582 C106.206344,84.4335359 106.227926,84.4208868 106.250408,84.4067317 C106.255804,84.4016118 106.263897,84.3940826 106.275888,84.3838428 C106.324149,84.3425824 106.373609,84.3031291 106.42097,84.2609652 C106.441054,84.2428949 106.459339,84.2227165 106.478824,84.2043451 C106.537876,84.149532 106.596928,84.0944178 106.652084,84.0356895 C106.685657,83.9995491 106.717131,83.9622039 106.749505,83.9251599 C106.756699,83.9167272 106.764193,83.9082944 106.771387,83.8998616 C106.773486,83.8977534 106.776483,83.8932358 106.779781,83.8884171 C106.790872,83.8718527 106.801363,83.854686 106.812454,83.8384228 C106.852022,83.7799957 106.892789,83.7227733 106.927861,83.6610333 C106.949144,83.6239893 106.968628,83.586343 106.987813,83.5480943 C106.99051,83.5426733 106.993508,83.5378545 106.996206,83.5324334 C107.002201,83.5089421 107.007297,83.4860532 107.017788,83.4613572 C107.032476,83.4261202 107.048963,83.3908833 107.057656,83.3595615 C107.067248,83.3264327 107.075042,83.2930028 107.082536,83.259874 C107.083735,83.2538506 107.085534,83.2478272 107.087032,83.2418038 C107.087032,83.2390933 107.087032,83.2363827 107.087032,83.2336722 C107.087332,83.2336722 107.087932,83.2339734 107.088231,83.2342745 C107.094227,83.2026516 107.094227,83.1770521 107.091829,83.1616924 C107.093028,83.1505491 107.093927,83.1391046 107.094526,83.1282625 C107.024383,83.1267566 106.95364,83.1297683 106.883497,83.1306718 C106.679062,83.13278 106.474627,83.1409116 106.269892,83.1565725 C106.185361,83.1686193 106.100529,83.1800638 106.015997,83.1918095 C105.576253,83.2526459 105.135908,83.3002309 104.693765,83.319807 C104.463851,83.3300468 104.233637,83.3348655 104.002224,83.3252281 C103.934779,83.3225175 103.867333,83.3152894 103.799588,83.3107719 C103.11614,83.305652 102.430594,83.2390933 101.783716,83.0333937 C101.410817,82.9147325 101.20938,82.5527254 101.29601,82.1702388 C101.336477,81.9919458 101.445889,81.8630447 101.584977,81.7790181 C101.751042,81.6787283 101.960273,81.6437925 102.155116,81.6802342 C102.367644,81.7196875 102.580472,81.7582374 102.7939,81.792872 C102.890722,81.808834 102.987843,81.8232902 103.084965,81.8380476 C103.104149,81.8410593 103.123334,81.8437698 103.135324,81.8452757 C103.170995,81.8500944 103.206667,81.854612 103.242338,81.8588283 C103.376629,81.8750916 103.51152,81.8874395 103.646411,81.8985829 C103.909899,81.9055098 104.173386,81.9037028 104.436573,81.893463 C104.953056,81.8738869 105.46864,81.8326265 105.983923,81.7892579 C106.023791,81.7829333 106.063659,81.7772111 106.103527,81.7708865 C106.44645,81.7172781 106.795068,81.6721026 107.129898,81.5784385 C107.194346,81.5603683 107.258494,81.5407922 107.321743,81.5191079 C107.341827,81.512181 107.408373,81.4868826 107.442545,81.4742335 C107.471022,81.460982 107.515686,81.4408035 107.527676,81.4347801 C107.580734,81.4085783 107.633191,81.3805694 107.68475,81.3510547 C107.741404,81.3182271 107.796859,81.2835925 107.851115,81.2465485 C107.867602,81.2354052 107.881391,81.2251654 107.892182,81.2170338 C107.95693,81.1613172 108.022277,81.1071065 108.082528,81.0459688 C108.123595,81.003805 108.161664,80.9595329 108.200933,80.9158631 C108.202431,80.9140561 108.20393,80.9122491 108.205429,80.9104421 C108.249194,80.8366553 108.302251,80.7682895 108.344217,80.6926957 C108.370296,80.6454119 108.392178,80.5960199 108.417658,80.548435 C108.417957,80.5478326 108.417957,80.5478326 108.418257,80.5472303 C108.446135,80.4659142 108.473712,80.3852005 108.494695,80.3017763 C108.505487,80.25901 108.514779,80.2159426 108.523172,80.1725741 C108.520475,80.1578167 108.519276,80.1430593 108.520175,80.1304102 C108.521374,80.0686702 108.539959,79.9930764 108.540606,79.9403715 C108.541458,79.8611636 108.529467,79.7813534 108.529467,79.7024467" id="Fill-44" fill="#FFFFFF"></path>
            <path d="M90.9863174,78.422562 C90.9890153,78.4075034 90.9923126,78.3927461 90.9950104,78.3779887 C91.0447702,78.0927801 91.0888346,77.8066681 91.1296017,77.5199536 C91.1311005,77.508208 91.1319998,77.5018834 91.1331988,77.494053 C91.1373954,77.4627312 91.1412923,77.4314095 91.1454889,77.4000877 C91.1544816,77.3287103 91.1631746,77.2573329 91.1712681,77.1859554 C91.1868555,77.0543439 91.2012438,76.9224311 91.2144332,76.7905184 C91.3190487,75.7442517 91.3652114,74.6796136 91.2537015,73.6321422 C91.2495049,73.5941947 91.2447087,73.4026501 91.2405121,73.5095657 C91.2363155,73.6140719 91.2351165,73.4737264 91.2297208,73.4399953 C91.2138337,73.3357903 91.1955484,73.2318864 91.1748651,73.1285849 C91.1454889,72.9828183 91.1089184,72.8388588 91.0669523,72.6964051 C91.0543625,72.6533377 91.0432714,72.6096679 91.0294826,72.5669017 C91.0135954,72.5187144 90.9959097,72.4711294 90.9788235,72.4232433 C90.9773247,72.4190269 90.9770249,72.4178222 90.9758259,72.4145094 C90.9728283,72.4096906 90.97073,72.4069801 90.9659339,72.399752 C90.9602385,72.3904157 90.9551426,72.3804771 90.9491475,72.3708396 C90.9296632,72.3389155 90.9101789,72.3060879 90.8921935,72.2735615 C90.8897954,72.2690439 90.8894956,72.2678393 90.8876971,72.2642252 C90.882901,72.2597077 90.8799034,72.2572983 90.873009,72.2503714 C90.8388366,72.2163391 90.8013668,72.1832103 90.7668947,72.1485757 C90.7531058,72.1386371 90.739317,72.1293008 90.7252283,72.1214703 C90.6883581,72.1009907 90.6493896,72.0817158 90.6134186,72.0600315 C90.6086225,72.0585257 90.606824,72.0585257 90.6011286,72.0567187 C90.5465726,72.0410578 90.4932157,72.0235899 90.4380603,72.0115431 C90.417377,72.0070255 90.3963939,72.0037126 90.3760104,71.9988939 C90.3544278,71.993774 90.3445358,71.9910635 90.3391402,71.9895576 C90.2755915,71.9898588 90.2021508,71.9988939 90.1691775,72.0007009 C90.1607843,72.0013033 90.132607,72.0070255 90.1080269,72.0103384 C90.0789504,72.0163618 90.0498738,72.022084 90.0219964,72.0296133 C89.987824,72.0392508 89.9542511,72.0525023 89.9200787,72.0627421 C89.9170811,72.0645491 89.9161818,72.0654526 89.9125847,72.0675608 C89.9077886,72.0702713 89.8859063,72.0847275 89.8625252,72.0994849 C89.8658225,72.1055083 89.8682206,72.1118329 89.8712181,72.1178563 C89.9473566,72.270851 90.0136031,72.4295679 90.0684588,72.5909953 C90.3577252,73.4433082 90.397593,74.4007296 90.3871014,75.2933993 C90.3727131,76.4974794 90.2207358,77.7048724 89.981529,78.8836542 C89.9590472,78.9959908 89.9296709,79.1065204 89.904791,79.2182547 C89.6419034,80.406674 89.2744002,81.5667832 88.7908908,82.6841262 C88.6646927,82.9756593 88.5295019,83.2635784 88.3844191,83.5460765 C88.3295634,83.6523897 88.2720099,83.7574983 88.2144564,83.8623056 C88.1967706,83.8948321 88.1799842,83.928262 88.161699,83.9607884 C88.1287256,84.0195167 88.094853,84.0779438 88.0609803,84.1360697 C88.0636782,84.1378767 88.0684743,84.1408884 88.0699731,84.141792 C88.0726709,84.143599 88.0729706,84.1442013 88.0756685,84.1460083 C88.1080423,84.1550435 88.1407159,84.1655844 88.17279,84.1749207 C88.1823823,84.1776313 88.1862791,84.1794383 88.1931736,84.1815465 L88.1934733,84.1815465 C88.2444322,84.1803418 88.2968898,84.1818476 88.3478486,84.18245 C88.3562418,84.1827512 88.3592394,84.1830523 88.3652346,84.1833535 C88.3676326,84.1827512 88.3679324,84.18245 88.3706302,84.1818476 C88.4182917,84.1688973 88.4668525,84.1598622 88.514514,84.145406 C88.5175116,84.1445025 88.571468,84.1258299 88.5966477,84.1176983 C88.6545009,84.0863766 88.7129537,84.057163 88.7690084,84.0222272 C88.7911905,84.0083734 88.8694273,83.9514521 88.8826167,83.944224 C88.9200864,83.9129023 88.9563571,83.8797735 88.9917285,83.8463436 C89.0040186,83.8342968 89.0178075,83.8237558 89.0300975,83.811709 C89.2135494,83.6313078 89.3052753,83.5066231 89.4431639,83.2810463 C89.5450816,83.1148002 89.6371072,82.9425306 89.7231378,82.7675504 C89.7734971,82.6645501 89.8217581,82.5606462 89.8679208,82.4558389 C89.8874051,82.4121691 89.9056903,82.3681982 89.9248748,82.3245285 C89.8487363,82.4983039 89.922177,82.3293472 89.9386637,82.2886892 C89.9797305,82.1865923 90.0148022,82.0820861 90.0528714,81.9790858 C90.0987344,81.855907 90.1472951,81.7333305 90.1898608,81.6089471 C90.3643199,81.096957 90.5127,80.576233 90.6430947,80.0509915 C90.7084419,79.787166 90.7686932,79.5218347 90.8247479,79.2555999 C90.8766061,79.0119529 90.9230685,78.7668 90.9674327,78.5216471 C90.9734279,78.4885183 90.9803223,78.4556907 90.9863174,78.422562" id="Fill-45" fill="#FFFFFF"></path>
        </g>
    </g>
</svg>