<?xml version="1.0" encoding="UTF-8"?>
<svg width="278px" height="234px" viewBox="0 0 278 234" version="1.1" xmlns="http://www.w3.org/2000/svg" xmlns:xlink="http://www.w3.org/1999/xlink">
    <title>Group 45</title>
    <g id="Page-1" stroke="none" stroke-width="1" fill="none" fill-rule="evenodd">
        <g id="Group-45" transform="translate(0.5003, 0.6871)">
            <path d="M244.614,202.2868 C246.219,203.6308 247.053,205.2098 247.053,207.0308 L247.053,215.9738 C247.053,220.0928 242.619,223.0218 237.787,223.0218 C233.063,223.0218 228.549,220.0928 228.549,215.9738 L228.549,207.0308 C228.549,202.9998 233.063,199.9158 237.787,199.9158 C240.468,199.9158 242.693,200.7008 244.614,202.2868 M237.787,190.0178 C232.822,190.0178 228.455,191.5238 224.794,194.7688 C220.888,198.0948 218.901,202.2068 218.901,207.0308 L218.901,215.9738 C218.901,225.3938 227.703,232.9998 237.787,232.9998 C241.786,232.9998 245.75,231.8918 248.887,229.3518 C249.888,231.0248 251.414,231.8108 253.335,231.8108 L256.614,231.8108 L256.614,207.0308 C256.614,202.2068 254.626,198.1688 250.742,194.7688 C247.053,191.5238 242.766,190.0178 237.787,190.0178 M180.232,206.3988 L180.232,216.6058 C180.232,225.4748 188.275,232.9998 198.373,232.9998 C205.865,232.9998 213.061,228.4108 215.743,221.0398 L211.603,218.8298 C209.46,217.6328 207.169,218.1178 205.57,219.9378 C203.648,222.1488 201.203,223.0218 198.373,223.0218 C193.77,223.0218 189.875,220.2538 189.875,216.6058 L189.875,206.3988 C189.875,202.9998 193.77,199.9158 198.373,199.9158 C201.203,199.9158 203.648,200.9368 205.57,203.0798 C207.324,205.0548 209.46,205.3638 211.683,204.1828 L215.743,202.0458 C213.061,194.6878 205.636,190.0178 198.373,190.0178 C188.423,190.0178 180.232,197.4558 180.232,206.3988 M140.521,196.3468 L140.521,216.6058 C140.521,225.4748 148.638,232.9998 158.503,232.9998 C163.328,232.9998 167.533,231.4878 170.973,228.4908 C174.722,225.2328 176.631,221.2818 176.631,216.6058 L176.631,191.2008 L172.196,191.2008 C168.757,191.2008 167.002,192.9478 167.002,196.3468 L167.002,216.6058 C167.002,220.4088 162.871,223.0218 158.503,223.0218 C154.068,223.0218 150.091,220.4088 150.091,216.6058 L150.091,191.2008 L145.656,191.2008 C142.216,191.2008 140.521,192.9478 140.521,196.3468 M126.816,207.0308 L126.816,226.6638 C126.816,230.0638 128.496,231.8108 131.934,231.8108 L136.296,231.8108 L136.296,207.0308 C136.296,196.5888 130.178,190.0178 120.301,190.0178 C115.79,190.0178 112.125,191.5238 109.215,194.4528 C106.218,191.5238 102.478,190.0178 97.961,190.0178 C87.859,190.0178 82.043,196.8248 82.043,207.0308 L82.043,226.6638 C82.043,230.0638 83.719,231.8108 87.17,231.8108 L91.607,231.8108 L91.607,207.0308 C91.607,202.2868 93.449,199.9158 97.961,199.9158 C102.021,199.9158 104.386,202.8378 104.386,207.0308 L104.386,226.6638 C104.386,230.0638 106.08,231.8108 109.517,231.8108 L113.955,231.8108 L113.955,207.0308 C113.955,202.8378 116.243,199.9158 120.301,199.9158 C124.893,199.9158 126.816,202.2868 126.816,207.0308 M66.29,202.2868 C67.889,203.6308 68.739,205.2098 68.739,207.0308 L68.739,215.9738 C68.739,220.0928 64.294,223.0218 59.476,223.0218 C54.726,223.0218 50.215,220.0928 50.215,215.9738 L50.215,207.0308 C50.215,202.9998 54.726,199.9158 59.476,199.9158 C62.151,199.9158 64.369,200.7008 66.29,202.2868 M59.476,190.0178 C54.505,190.0178 50.137,191.5238 46.465,194.7688 C42.564,198.0948 40.583,202.2068 40.583,207.0308 L40.583,215.9738 C40.583,225.3938 49.375,232.9998 59.476,232.9998 C64.369,232.9998 68.812,231.2598 72.404,228.3308 C76.083,225.0788 78.3,220.7248 78.3,215.9738 L78.3,207.0308 C78.3,202.2068 76.307,198.1688 72.404,194.7688 C68.739,191.5238 64.453,190.0178 59.476,190.0178 M9.638,215.9738 L9.638,207.0308 C9.638,202.9998 14.153,199.9158 18.901,199.9158 C23.718,199.9158 28.086,202.9998 28.086,207.0308 L28.086,215.9738 C28.086,220.0928 23.648,223.0218 18.901,223.0218 C14.153,223.0218 9.638,220.0928 9.638,215.9738 M4.54747351e-13,182.5728 L4.54747351e-13,215.9738 C4.54747351e-13,225.1588 8.489,232.9998 18.901,232.9998 C29.003,232.9998 37.723,225.3938 37.723,215.9738 L37.723,207.0308 C37.723,202.2068 35.742,198.0948 31.835,194.7688 C28.156,191.5238 23.876,190.0178 18.901,190.0178 C15.454,190.0178 12.476,190.6498 9.638,192.2358 L9.638,177.4268 L5.2,177.4268 C1.757,177.4268 4.54747351e-13,179.1738 4.54747351e-13,182.5728" id="Fill-2" fill="#357334"></path>
            <path d="M111.8962,61.99 C114.4622,61.083 117.7102,60.437 119.5552,60.235 C120.9102,60.082 124.1072,60.303 124.1072,64.771 L124.1072,87.495 C123.7922,91.87 121.9852,94.803 117.9502,98.221 C112.8052,102.145 109.8462,107.097 109.8462,113.784 C109.8462,123.916 118.1772,132.248 128.4552,132.248 C138.7492,132.248 146.8912,123.419 147.0802,114.435 C147.2422,106.849 144.5272,102.664 139.1112,98.262 C135.2342,95.125 133.0972,91.386 133.0972,87.804 L133.1252,64.636 C133.1252,60.088 136.8682,60.216 137.8882,60.397 C155.3182,63.462 177.6122,77.9 177.6122,102.295 L177.6122,122.485 C177.6122,151.324 151.0382,167.718 128.1062,167.718 C104.4232,167.382 79.0092,152.136 79.0092,122.76 L79.0092,16.24 C79.0802,6.98 86.1892,0.429 93.8992,4.54747351e-13 L111.8442,4.54747351e-13 L111.8962,61.99 Z" id="Fill-4" fill="#357334"></path>
            <path d="M268.6003,225.6628 L269.2023,225.6628 C270.0563,225.6628 270.5873,225.6298 270.7933,225.5628 C270.9993,225.4978 271.1633,225.3838 271.2833,225.2188 C271.4023,225.0548 271.4613,224.8668 271.4613,224.6578 C271.4613,224.4548 271.4033,224.2738 271.2873,224.1158 C271.1703,223.9568 271.0043,223.8428 270.7893,223.7748 C270.5743,223.7058 270.0453,223.6718 269.2023,223.6718 L268.6003,223.6718 L268.6003,225.6628 Z M267.1213,229.8068 L267.1213,222.5138 L268.6003,222.5138 C269.9883,222.5138 270.7643,222.5188 270.9323,222.5328 C271.4233,222.5738 271.8033,222.6718 272.0773,222.8238 C272.3483,222.9758 272.5763,223.2098 272.7573,223.5218 C272.9403,223.8378 273.0313,224.1848 273.0313,224.5688 C273.0313,225.0948 272.8603,225.5448 272.5163,225.9188 C272.1723,226.2918 271.6893,226.5238 271.0663,226.6138 C271.2883,226.6968 271.4593,226.7888 271.5793,226.8878 C271.6973,226.9858 271.8623,227.1728 272.0713,227.4478 C272.1263,227.5188 272.3053,227.8148 272.6093,228.3358 L273.4703,229.8068 L271.6403,229.8068 L271.0313,228.6228 C270.6203,227.8268 270.2773,227.3268 270.0093,227.1208 C269.7403,226.9138 269.3993,226.8098 268.9853,226.8098 L268.6003,226.8098 L268.6003,229.8068 L267.1213,229.8068 Z M270.2333,220.6028 C269.2883,220.6028 268.3823,220.8398 267.5143,221.3118 C266.6483,221.7848 265.9643,222.4628 265.4653,223.3488 C264.9663,224.2338 264.7163,225.1608 264.7163,226.1288 C264.7163,227.0918 264.9603,228.0098 265.4473,228.8838 C265.9353,229.7558 266.6153,230.4368 267.4883,230.9288 C268.3613,231.4188 269.2753,231.6628 270.2333,231.6628 C271.1953,231.6628 272.1123,231.4188 272.9823,230.9288 C273.8523,230.4368 274.5333,229.7558 275.0223,228.8838 C275.5133,228.0098 275.7583,227.0918 275.7583,226.1288 C275.7583,225.1608 275.5083,224.2338 275.0093,223.3488 C274.5103,222.4628 273.8263,221.7848 272.9553,221.3118 C272.0853,220.8398 271.1773,220.6028 270.2333,220.6028 L270.2333,220.6028 Z M270.2243,219.2588 C271.4023,219.2588 272.5333,219.5528 273.6153,220.1418 C274.6963,220.7308 275.5473,221.5758 276.1663,222.6758 C276.7863,223.7758 277.0943,224.9268 277.0943,226.1288 C277.0943,227.3248 276.7913,228.4658 276.1843,229.5508 C275.5783,230.6368 274.7313,231.4828 273.6463,232.0898 C272.5603,232.6968 271.4203,232.9998 270.2243,232.9998 C269.0273,232.9998 267.8873,232.6968 266.8013,232.0898 C265.7163,231.4828 264.8713,230.6368 264.2633,229.5508 C263.6563,228.4658 263.3523,227.3248 263.3523,226.1288 C263.3523,224.9268 263.6633,223.7758 264.2813,222.6758 C264.9003,221.5758 265.7513,220.7308 266.8333,220.1418 C267.9153,219.5528 269.0453,219.2588 270.2243,219.2588 L270.2243,219.2588 Z" id="Fill-6" fill="#317334"></path>
        </g>
    </g>
</svg>