<?xml version="1.0" encoding="UTF-8"?>
<svg width="43px" height="43px" viewBox="0 0 43 43" version="1.1" xmlns="http://www.w3.org/2000/svg" xmlns:xlink="http://www.w3.org/1999/xlink">
    <title>Artboard</title>
    <g id="Artboard" stroke="none" stroke-width="1" fill="none" fill-rule="evenodd">
        <g id="Group-3-Copy" transform="translate(21.5, 21.5) scale(-1, 1) translate(-21.5, -21.5)translate(2, 7)" fill="#000000">
            <path d="M17.6570028,14.6864336 C18.7524615,15.5705676 20.2475385,15.5705676 21.3429972,14.6864336 L34.752433,2.25215894 C34.752433,2.25215894 4.24756695,2.25215894 4.24756695,2.25215894 L17.6570028,14.6864336 Z M22.6786923,16.4552086 C20.7833846,17.9841925 18.2171054,17.9841925 16.3222877,16.4552086 L2.18062678,3.42982134 C2.17854416,3.45922488 2.17793162,3.48926211 2.17793162,3.51917261 L2.17793162,25.4808274 C2.17793162,26.1867658 2.73742165,26.7478411 3.40263533,26.7478411 L35.5989573,26.7478411 C36.2753191,26.7478411 36.823661,26.1806823 36.823661,25.4808274 L36.823661,3.51917261 C36.8230484,3.48926211 36.8225584,3.45985858 36.8203533,3.42982134 L22.6786923,16.4552086 Z M35.5983447,0 C37.4668234,0 39,1.58677715 39,3.51917261 L39,25.4808274 C39,27.4138565 37.4668234,29 35.5983447,29 L3.4021453,29 C1.52937892,29 0,27.4132229 0,25.4808274 L0,3.51917261 C0,2.55405216 0.383569801,1.67448081 1.00039316,1.03508059 L0.998310541,1.03292602 C1.61464387,0.395807111 2.46545584,0 3.4021453,0 L35.5983447,0 Z" id="Fill-1"></path>
        </g>
    </g>
</svg>