<?xml version="1.0" encoding="UTF-8"?>
<svg width="33px" height="33px" viewBox="0 0 33 33" version="1.1" xmlns="http://www.w3.org/2000/svg" xmlns:xlink="http://www.w3.org/1999/xlink">
    <title>Artboard Copy 8</title>
    <g id="Artboard-Copy-8" stroke="none" stroke-width="1" fill="none" fill-rule="evenodd">
        <path d="M16.4884928,10.9530355 C14.2904905,10.9638845 12.5226575,12.7419524 12.528415,14.9359093 C12.5342622,17.1324436 14.3109981,18.8995267 16.508632,18.8945053 C18.7050994,18.889401 20.4752041,17.1110876 20.4689578,14.9157807 C20.4627399,12.721517 18.6755045,10.9423445 16.4884928,10.9530355 M16.4950626,27.5275807 C18.6728643,27.5083726 20.6709478,26.9213291 22.5010404,25.7524584 C22.7000383,25.6253659 22.7241071,25.5032442 22.6757238,25.2967418 C21.9462287,22.1818398 19.1675652,20.1458434 15.9697844,20.389596 C13.2097865,20.5999031 10.8633801,22.6589737 10.3055598,25.3536297 C10.2689653,25.530246 10.309735,25.6286798 10.4656913,25.7293228 C12.3046256,26.915806 14.3175679,27.5098454 16.4950626,27.5275807 M19.4974068,19.4878589 C21.7670631,20.5043536 23.2632618,22.1835581 24.0009231,24.5403849 C26.7995417,22.0638297 28.4372677,17.6204396 27.019784,13.1771722 C25.4992094,8.41117207 21.1423167,5.32775169 16.0911111,5.47871624 C11.272305,5.62268488 7.08616603,8.95734465 5.8294893,13.6768894 C4.66300938,18.0580527 6.40984345,22.2912584 9.00442931,24.5375619 C9.33930569,23.4021366 9.89202979,22.3914105 10.6762938,21.5109681 C11.4633823,20.6273958 12.4101111,19.9610039 13.5136558,19.4881657 C10.6200513,17.5545921 10.2913149,13.6066848 12.5067549,11.2377686 C14.624323,8.97348436 18.1310694,8.90677766 20.3281508,11.0656936 C22.7112131,13.4073011 22.4532097,17.5697499 19.4974068,19.4878589 M15.7174298,4 L17.2801248,4 C17.3428144,4.01356226 17.4050127,4.03049975 17.4683163,4.04031858 C18.1098864,4.13991837 18.7607279,4.19901547 19.3920442,4.34329095 C24.2067978,5.44342981 27.9945727,9.47129919 28.8104578,14.3407039 C28.8867167,14.796175 28.9373719,15.2559419 29,15.7136836 L29,17.2754917 C28.985571,17.3464942 28.9678877,17.4170057 28.9573269,17.4885604 C28.8756647,18.0425267 28.8257464,18.603182 28.7100071,19.1499683 C27.0730793,26.8863495 18.5277757,31.1761976 11.3365296,27.8779903 C6.02529436,25.4420606 3.12849699,19.8143965 4.23302417,14.0776819 C5.20376044,9.03607942 9.27661615,5.05049239 14.344277,4.18882843 C14.799559,4.11144375 15.2595689,4.06228822 15.7174298,4" id="Fill-9" fill="#FFFFFF"></path>
    </g>
</svg>