<?xml version="1.0" encoding="UTF-8"?>
<svg width="33px" height="33px" viewBox="0 0 33 33" version="1.1" xmlns="http://www.w3.org/2000/svg" xmlns:xlink="http://www.w3.org/1999/xlink">
    <title>Artboard Copy 7</title>
    <g id="Artboard-Copy-7" stroke="none" stroke-width="1" fill="none" fill-rule="evenodd">
        <g id="Group-18" transform="translate(3, 6)" fill="#FFFFFF">
            <path d="M18.3910972,19.1596876 C18.3882787,18.7726824 18.5477938,18.3872177 18.8286118,18.1022182 C19.1071534,17.8195294 19.4828783,17.658048 19.8609881,17.658048 C19.8644028,17.658048 19.8677632,17.658048 19.8711779,17.658103 C20.6593222,17.6640451 21.3239411,18.3485942 21.3225882,19.1528102 C21.3212311,19.9565861 20.6527096,20.6371738 19.8627225,20.6389345 L19.8596872,20.6389345 C19.0691039,20.6388794 18.3968426,19.962198 18.3910972,19.1596876 L18.3910972,19.1596876 Z M9.49813243,19.1551761 C9.4964119,18.768666 9.65679418,18.3840266 9.93820845,18.1000174 C10.2168042,17.8187591 10.5918787,17.658213 10.9693381,17.658213 C10.973891,17.658213 10.9784439,17.6582681 10.9829426,17.6583231 C11.7715205,17.6663559 12.4348386,18.3528307 12.4315446,19.1573768 C12.428226,19.9606575 11.7572655,20.6389895 10.9662486,20.6389895 L10.9655981,20.6389895 C10.1736598,20.6386043 9.50161525,19.9591169 9.49813243,19.1551761 L9.49813243,19.1551761 Z M5.36045696,3.5571713 L25.4725792,3.5571713 C25.4670507,3.59480445 25.4609259,3.630732 25.4526331,3.66440377 C25.3031995,4.2741268 25.1529529,4.88357473 25.0025979,5.49307768 C24.9017831,5.90198055 24.8009683,6.31088342 24.7003703,6.7198413 C24.6646515,6.86520209 24.6286075,7.01039782 24.5925092,7.15564857 C24.5471426,7.33853246 24.5017217,7.52136134 24.4570055,7.70430026 L24.4567887,7.70430026 L23.0355707,13.4961739 L23.0291208,13.5216478 C23.0226166,13.5476719 23.0160582,13.5736409 23.0091204,13.599555 C22.8763809,14.0948931 22.837952,14.1242733 22.3246637,14.1243919 C17.7238766,14.1243919 13.1231436,14.1243919 8.52235649,14.1243919 C7.97519221,14.1243919 7.94180407,14.0978641 7.80781793,13.5574103 C7.5346423,12.4562005 7.26146667,11.341456 7.01821027,10.3485791 L7.01831867,10.3485241 L5.36045696,3.5571713 Z M26.8844203,2.42944229 C26.7515724,2.25629679 26.5210533,2.17910482 26.1370898,2.17910482 L5.02793067,2.1790498 C5.01681936,2.14713865 5.00619586,2.11588774 4.99568077,2.08518701 C4.95275317,1.95941307 4.91226464,1.84062656 4.85865934,1.72536129 C4.352363,0.635540521 3.5006946,0.0587740054 2.32728602,0.0109072813 C1.93768554,-0.00493825489 1.5425023,-7.36753191e-05 1.16027322,0.00424995536 C1.03485091,0.00573547438 0.909482812,0.0072209934 0.78411471,0.00799126252 C0.313753969,0.0109623006 0.0134233792,0.2631154 0.000415015758,0.665966151 C-0.00554715081,0.851986144 0.05282788,1.01533822 0.169252733,1.1383612 C0.309309445,1.28630789 0.521887784,1.36553557 0.783952105,1.36735121 C0.987316187,1.36878171 1.19062607,1.36801144 1.39399015,1.36713113 C1.69741022,1.36592071 2.01129119,1.36460025 2.31888479,1.37142263 C2.97840881,1.3859477 3.51364876,1.81036599 3.68237808,2.45271542 C3.7438968,2.68671217 3.80373527,2.92582572 3.86167669,3.15707151 C3.91338493,3.36366869 3.96671922,3.5769232 4.02146275,3.78726169 L5.15107651,8.3827423 L5.15329877,8.3936361 C5.15535843,8.40381466 5.15741809,8.41399322 5.16001976,8.42450189 C5.3369877,9.14536375 5.51487707,9.86633565 5.69287485,10.5876377 L5.75271332,10.8302724 L5.75282172,10.8302724 C5.94296063,11.5999914 6.13358736,12.3704255 6.3246477,13.1427854 L6.6899117,14.6195013 C5.58317098,15.5593947 5.21367926,16.5922156 5.56013534,17.7747437 C5.90209269,18.9415914 6.84926415,19.6724668 8.23194478,19.8398353 C8.70349795,21.2425504 9.64801354,21.9832191 10.9683624,21.9834942 L10.9691212,21.9834942 C12.2836706,21.9833842 13.2262349,21.2454664 13.6997393,19.8478131 L17.1337847,19.8478131 C17.6713553,21.2536092 18.6092041,21.997249 19.8507982,22 L19.857736,22 C21.1016065,22 22.0455259,21.250088 22.592365,19.8292716 C22.6237476,19.8293266 22.6552929,19.8294917 22.6870008,19.8296017 C22.8292798,19.8300418 22.9763827,19.830592 23.123323,19.8286113 C23.5929791,19.8221741 23.888269,19.5651243 23.8938517,19.157762 C23.8994887,18.7469884 23.6029522,18.476569 23.1384452,18.4689213 C22.9848923,18.4663354 22.8318273,18.4669956 22.6836403,18.4676558 C22.6513904,18.4678209 22.6193031,18.4679309 22.5874326,18.468041 C22.1092669,17.1159986 21.1475152,16.3269679 19.9364908,16.2982479 C18.6587443,16.2690327 17.717264,16.9942961 17.1297196,18.4572022 L13.6922595,18.4572022 C13.1940934,17.0948162 12.2839416,16.332855 11.1211565,16.3083714 C9.70557555,16.2792662 8.73363399,17.0000731 8.22966832,18.4532958 C7.82548762,18.4411916 7.4453182,18.2692015 7.17501525,17.9733081 C6.89230015,17.6636599 6.75538713,17.2443034 6.79961556,16.8228012 C6.88194766,16.0362463 7.51849025,15.4867143 8.34744821,15.4863292 C11.0029972,15.4852838 13.6588714,15.4851738 16.3142036,15.4852838 C18.3822623,15.4853939 20.4496707,15.4853389 22.5174043,15.4848437 C23.3862003,15.4846786 24.0599252,14.9524227 24.275593,14.0959934 L24.3015555,13.9930525 L24.3025311,13.9933276 L24.3425861,13.8301406 C24.377004,13.6935278 24.4100669,13.556585 24.4426963,13.4201923 L25.579844,8.76551103 L25.5840717,8.74845507 C25.5866734,8.73816648 25.5892751,8.72782286 25.5910637,8.71979006 L25.9687399,7.17694101 C26.2854393,5.88574988 26.6129249,4.55059839 26.939218,3.23855498 C27.0350463,2.85320034 27.0181354,2.60368817 26.8844203,2.42944229 L26.8844203,2.42944229 Z" id="Fill-1"></path>
        </g>
    </g>
</svg>