<?xml version="1.0" encoding="UTF-8"?>
<svg width="33px" height="33px" viewBox="0 0 33 33" version="1.1" xmlns="http://www.w3.org/2000/svg" xmlns:xlink="http://www.w3.org/1999/xlink">
    <title>Artboard Copy 10</title>
    <g id="Artboard-Copy-10" stroke="none" stroke-width="1" fill="none" fill-rule="evenodd">
        <path d="M6.62959683,8.5424352 C6.71254147,8.63279655 6.76486668,8.69430758 6.82181882,8.75125973 C9.86960905,11.7998665 12.9175354,14.8483371 15.9662102,17.8961274 C16.6026861,18.5324672 17.3244882,18.5313785 17.9628693,17.8931335 C21.0114761,14.8452752 24.0594024,11.7967365 27.1071246,8.74799365 C27.1633282,8.69172194 27.2140885,8.62993873 27.2928825,8.5424352 L6.62959683,8.5424352 Z M5.63079096,9.59962213 C5.59758588,9.62588679 5.56431277,9.65215146 5.53103965,9.67841613 C5.5270251,9.76728053 5.51954035,9.85621297 5.51954035,9.94514541 C5.51896677,15.547753 5.51896677,18.4668055 5.51920014,24.0694812 C5.51926818,24.9591458 6.04177178,25.4793359 6.93844484,25.479404 C13.6206936,25.4800844 20.3029424,25.4800844 26.9851912,25.479472 C27.8813199,25.4793359 28.4050483,24.9583973 28.4051163,24.0697534 C28.4054027,18.4671458 28.4054027,15.5480252 28.4048441,9.94541758 C28.4048441,9.85668927 28.3970192,9.768029 28.3929366,9.67930069 C28.3601398,9.65392059 28.327479,9.62847244 28.2947503,9.60302429 C28.2443303,9.69005152 28.2099004,9.79300085 28.1412449,9.86179251 C25.1250947,12.8834542 22.1086724,15.9048436 19.0824518,18.9162988 C18.8172195,19.1801703 18.5110252,19.4285279 18.1791786,19.5949615 C17.0617054,20.1555693 15.8265856,19.9073478 14.8903794,18.971822 C11.8525235,15.9360755 8.8161645,12.8989 5.78211899,9.85934295 C5.71366755,9.79068738 5.68046248,9.68692153 5.63079096,9.59962213 L5.63079096,9.59962213 Z M4,24.5775596 L4,9.43699892 C4.01000235,9.42386659 4.02578837,9.41202707 4.02925857,9.39732974 C4.41356646,7.78409393 5.39801523,7.00649644 7.05779258,7.00649644 C12.3874109,7.0064284 17.7170973,7.0064284 23.0467157,7.00649644 C24.4128867,7.00649644 25.7793299,6.98832891 27.1450246,7.01275641 C28.3127137,7.03357763 29.1620287,7.5992206 29.6680658,8.65232494 C29.7861888,8.898233 29.8406914,9.17469245 29.9244525,9.43699892 L29.9244525,24.5775596 C29.8459307,24.8236038 29.7935375,25.0818957 29.6846003,25.3136508 C29.1488283,26.4541906 28.2288845,26.9978556 26.9807003,26.9981959 C20.428346,26.9996928 13.8759236,26.9989443 7.32356925,26.9988763 C7.14652089,26.9988763 6.9692684,27.0022784 6.79235612,26.9972432 C5.54049765,26.9615886 4.5165158,26.2129095 4.13805962,25.0560393 C4.08648288,24.8983832 4.04572502,24.7371209 4,24.5775596 L4,24.5775596 Z" id="Fill-3" fill="#FFFFFF"></path>
    </g>
</svg>