<?xml version="1.0" encoding="UTF-8"?>
<svg width="68px" height="68px" viewBox="0 0 68 68" version="1.1" xmlns="http://www.w3.org/2000/svg" xmlns:xlink="http://www.w3.org/1999/xlink">
    <title>icons copy 3</title>
    <g id="icons-copy-3" stroke="none" stroke-width="1" fill="none" fill-rule="evenodd">
        <g id="Group-3" transform="translate(5.5, 14.4971)" fill="#FFFFFF">
            <path d="M57.5015561,0.000133337983 C57.6386496,-0.00307234738 57.7574222,0.0517723084 57.8449417,0.137919283 L57.8699551,0.165788834 C57.8744718,0.170657258 57.8788958,0.17561331 57.8832234,0.180654279 C57.8896526,0.187900572 57.8955651,0.195596229 57.9012636,0.203448391 C57.9558904,0.274331195 57.9918292,0.360160799 58.0002685,0.454054932 C58.0112148,0.5507227 57.9950359,0.651056737 57.9447127,0.741559625 L43.838737,38.0633631 C43.7381397,38.3295322 43.4360067,38.4582091 43.17439,38.3463052 L28.3490178,32.0038652 L20.195,38.5837963 L20.1882493,38.6157307 C20.1185894,38.9163624 19.8449348,39.0394228 19.6031505,38.9935771 C19.2969014,39.060069 18.9772906,38.8125924 19.0002008,38.4747313 L19.0130444,38.3894772 L19.112,37.9647963 L18.3311971,32.9464078 L17.4450178,27.2488652 L16.8968757,27.0131104 L16.8830178,27.0058652 L1.02813999,20.1888016 L0.302142662,19.8759458 C-0.119937407,19.6940578 -0.0936656327,19.0869565 0.34254924,18.9422105 L57.3200989,0.0345332556 C57.3801076,0.0104637486 57.4414555,-0.000371127463 57.5015561,0.000133337983 Z M54.1060178,5.13286517 L25.2710178,28.1988652 L42.3580178,35.5378652 L54.1060178,5.13286517 Z M23.5020178,29.9558652 L22.5410178,33.7568652 L25.9570178,31.0068652 L23.5020178,29.9558652 Z M47.431,7.79879635 L19.6560178,26.2728652 L20.54,31.8297963 L21.2780178,28.6588652 L21.2775192,28.6287819 C21.282053,28.5187241 21.3225248,28.4093335 21.4013528,28.32048 L21.4677034,28.2580009 L47.431,7.79879635 Z M46.6260178,5.80686517 L5.30301784,19.5188652 L17.6930178,24.8468652 L46.6260178,5.80686517 Z" id="Combined-Shape"></path>
        </g>
    </g>
</svg>