<?xml version="1.0" encoding="UTF-8"?>
<svg width="70px" height="70px" viewBox="0 0 70 70" version="1.1" xmlns="http://www.w3.org/2000/svg" xmlns:xlink="http://www.w3.org/1999/xlink">
    <title>Artboard</title>
    <g id="Artboard" stroke="none" stroke-width="1" fill="none" fill-rule="evenodd">
        <g id="Group" transform="translate(10, 6)">
            <g id="?" transform="translate(18, 13)" fill="#C8102E" fill-rule="nonzero">
                <path d="M6.87065003,16.3250346 L4.09717663,16.3250346 L3.98686802,14.6058091 C3.93434012,13.4799447 4.07353907,12.5949746 4.40446487,11.950899 C4.73539068,11.3068234 5.41562705,10.7159982 6.445174,10.1784232 L7.17005909,9.90456432 C7.68483257,9.71184878 8,9.40502536 8.11556139,8.98409405 C8.23112278,8.56316275 8.28890348,8.08390964 8.28890348,7.54633472 L8.28890348,4.39695712 C8.28890348,3.43337944 7.5009849,2.95159059 5.92514773,2.95159059 C4.49638871,2.95159059 3.73998687,3.43337944 3.65594222,4.39695712 C3.61391989,5.07653296 3.59028234,5.73835869 3.58502955,6.3824343 C3.57977676,7.02650991 3.59290873,7.65790687 3.62442548,8.27662517 L0.0472751149,8.27662517 C0.0367695338,7.83033656 0.0236375575,7.33333333 0.00787918582,6.78561549 C-0.00787918582,6.23789765 0,5.6648225 0.0315167433,5.06639004 C0.115561392,3.25080682 0.609323703,1.95251268 1.51280368,1.17150761 C2.41628365,0.390502536 3.87655942,0 5.89363099,0 C8.0577807,0 9.6126067,0.387966805 10.558109,1.16390041 C11.5036113,1.93983402 11.9763624,3.23559244 11.9763624,5.05117566 C11.9763624,5.61917935 11.9816152,6.08068234 11.9921208,6.43568465 C12.0026264,6.79068695 12.0026264,7.16090364 11.9921208,7.54633472 C11.9711097,8.82434302 11.8214051,9.78031351 11.5430072,10.4142462 C11.2646093,11.0481789 10.896914,11.499539 10.4399212,11.7683264 C9.98292843,12.0371139 9.47603414,12.2577225 8.91923835,12.4301521 L8.13131976,12.7496542 C7.62705187,12.9525127 7.32239002,13.2238359 7.21733421,13.5636238 C7.1122784,13.9034117 7.04399212,14.2508068 7.01247538,14.6058091 L6.87065003,16.3250346 Z M7.40643467,22 L3.70321733,22 L3.70321733,18.4854772 L7.40643467,18.4854772 L7.40643467,22 Z" id="Shape"></path>
            </g>
            <circle id="Oval" stroke="#A5A5A5" stroke-width="2.8" cx="23.5" cy="23.5" r="22.1"></circle>
            <line x1="36" y1="41" x2="50" y2="58" id="Path-2" stroke="#A5A5A5" stroke-width="2.8" stroke-linejoin="round"></line>
        </g>
    </g>
</svg>