<?xml version="1.0" encoding="UTF-8"?>
<svg width="200px" height="200px" viewBox="0 0 200 200" version="1.1" xmlns="http://www.w3.org/2000/svg" xmlns:xlink="http://www.w3.org/1999/xlink">
    <title>Artboard Copy 12</title>
    <g id="Artboard-Copy-12" stroke="none" stroke-width="1" fill="none" fill-rule="evenodd">
        <g id="Group-3" transform="translate(12, 12)">
            <path d="M75.022727,130.177515 C43.9638007,130.199671 18.7679552,105.272985 18.7455621,74.5016418 C18.7231989,43.7309505 43.8828444,18.7677479 74.9411125,18.7455621 C106.000039,18.7234059 131.195884,43.6500917 131.218935,74.4214351 C131.232742,93.6273597 121.261293,111.486724 104.831767,121.681456 C95.8949783,127.224849 85.5661362,130.168371 75.022727,130.177515 L75.022727,130.177515 Z M135.740991,115.160497 C135.763993,115.1278 135.788433,115.096523 135.811435,115.063826 C158.988359,81.5209054 150.279132,35.7497359 116.359437,12.8307425 C82.4390242,-10.0882508 36.1527444,-1.47594668 12.9751011,32.0662627 C-10.2018233,65.609183 -1.49259598,111.380353 32.4278174,134.299346 C57.7331688,151.398139 91.0533672,151.398139 116.359437,134.299346 C116.391784,134.27731 116.423413,134.252432 116.456478,134.230396 L152.721183,172.050413 C158.046204,177.316884 166.680674,177.316173 172.005695,172.050413 C177.331435,166.783942 177.331435,158.246274 172.005695,152.980514 L135.740991,115.160497 Z" id="Fill-1-Copy-2" fill="#9F9F9F"></path>
            <g id="Group" transform="translate(48, 31)" fill="#DA1B5C">
                <path d="M56.9181646,25.8737407 C57.3109746,30.9014725 56.2896686,35.6935295 53.8542468,40.2499115 C51.418825,44.8062935 47.8049733,48.8520464 43.0126917,52.3871704 C41.9128238,53.1727535 40.9700798,54.4296865 40.1844599,56.1579693 C39.3988399,57.8862521 39.00603,59.5359766 39.00603,61.1071429 L19.0905645,61.1071429 C19.0905645,58.7503935 19.385172,56.3740047 19.974387,53.9779762 C20.5636019,51.5819477 21.3885028,49.3037567 22.4490898,47.1434032 C23.5096767,44.9830497 24.8059496,42.9601732 26.3379085,41.0747737 C27.8698673,39.1893743 29.5393097,37.5789289 31.3462356,36.2434376 C35.3528973,33.3367801 37.2383851,30.3122852 37.0026991,27.1699528 C36.9241371,25.9130198 36.4724057,24.7346452 35.6475047,23.6348288 C34.8226038,22.5350125 33.7423764,21.6315919 32.4068225,20.9245671 C30.7570206,19.9818674 29.2250617,19.6676341 27.8109458,19.9818674 C26.39683,20.2961006 25.336243,20.6888922 24.6291851,21.160242 C23.1365072,22.0243834 21.9777178,23.1831185 21.1528169,24.6364473 C20.3279159,26.089776 19.9154655,27.7198609 19.9154655,29.5267021 L19.9154655,35.5364128 L0,35.5364128 L0,29.5267021 C0,24.1061787 1.2766324,19.1766447 3.8298972,14.7381002 C6.38316201,10.2995556 9.89881123,6.70551292 14.3768449,3.95597206 C18.6977546,1.44210613 23.2543502,0.126254427 28.0466318,0.00841696183 C32.8389135,-0.109420504 37.4740711,1.01003542 41.9521047,3.36678473 C46.4301384,5.72353404 49.9654281,8.88550603 52.5579739,12.8527007 C55.1505197,16.8198954 56.6039166,21.160242 56.9181646,25.8737407 Z" id="Shape" fill-rule="nonzero"></path>
                <path d="M29.5363636,67.3214286 C32.2390374,67.3214286 34.555615,68.2804233 36.4860963,70.1984127 C38.4165775,72.1164021 39.3818182,74.4563492 39.3818182,77.218254 C39.3818182,79.9034392 38.4165775,82.2050265 36.4860963,84.1230159 C34.555615,86.0410053 32.2390374,87 29.5363636,87 C26.8336898,87 24.5171123,86.0410053 22.586631,84.1230159 C20.6561497,82.2050265 19.6909091,79.9034392 19.6909091,77.218254 C19.6909091,74.4563492 20.6561497,72.1164021 22.586631,70.1984127 C24.5171123,68.2804233 26.8336898,67.3214286 29.5363636,67.3214286 Z" id="Path"></path>
            </g>
        </g>
    </g>
</svg>