<?xml version="1.0" encoding="UTF-8"?>
<svg width="210px" height="42px" viewBox="0 0 210 42" version="1.1" xmlns="http://www.w3.org/2000/svg" xmlns:xlink="http://www.w3.org/1999/xlink">
    <title>Group 48 Copy 2</title>
    <g id="Page-1" stroke="none" stroke-width="1" fill="none" fill-rule="evenodd">
        <g id="Group-48-Copy-2">
            <path d="M20.0693177,31.9892886 L12.243454,36.1035887 C11.2657648,36.6175903 10.0565105,36.2416972 9.54250891,35.2640081 C9.33783077,34.8746871 9.26720142,34.428751 9.34155511,33.9952357 L10.8361621,25.2810084 C10.947438,24.6322202 10.732341,23.9702198 10.2609688,23.5107455 L3.92971206,17.3392954 C3.1387449,16.568293 3.12256029,15.3020665 3.89356271,14.5110993 C4.20057992,14.1961321 4.60286475,13.9911577 5.03813881,13.9279087 L13.7877205,12.6565201 C14.4391408,12.5618631 15.002272,12.1527244 15.293596,11.5624374 L19.2065278,3.6339715 C19.6953724,2.64346418 20.8946241,2.23678618 21.8851314,2.72563077 C22.2795566,2.92029125 22.5988117,3.23954629 22.7934722,3.6339715 L26.706404,11.5624374 C26.997728,12.1527244 27.5608592,12.5618631 28.2122795,12.6565201 L36.9618612,13.9279087 C38.0549509,14.0867439 38.8123138,15.1016296 38.6534786,16.1947194 C38.5902296,16.6299934 38.3852552,17.0322782 38.0702879,17.3392954 L31.7390312,23.5107455 C31.267659,23.9702198 31.052562,24.6322202 31.1638379,25.2810084 L32.6584449,33.9952357 C32.8451669,35.0839086 32.1139913,36.1178204 31.0253184,36.3045425 C30.5918031,36.3788962 30.1458669,36.3082668 29.756546,36.1035887 L21.9306823,31.9892886 C21.3480342,31.6829724 20.6519658,31.6829724 20.0693177,31.9892886 Z" id="Star" fill="#0E380C"></path>
            <path d="M62.0693177,31.9892886 L54.243454,36.1035887 C53.2657648,36.6175903 52.0565105,36.2416972 51.5425089,35.2640081 C51.3378308,34.8746871 51.2672014,34.428751 51.3415551,33.9952357 L52.8361621,25.2810084 C52.947438,24.6322202 52.732341,23.9702198 52.2609688,23.5107455 L45.9297121,17.3392954 C45.1387449,16.568293 45.1225603,15.3020665 45.8935627,14.5110993 C46.2005799,14.1961321 46.6028647,13.9911577 47.0381388,13.9279087 L55.7877205,12.6565201 C56.4391408,12.5618631 57.002272,12.1527244 57.293596,11.5624374 L61.2065278,3.6339715 C61.6953724,2.64346418 62.8946241,2.23678618 63.8851314,2.72563077 C64.2795566,2.92029125 64.5988117,3.23954629 64.7934722,3.6339715 L68.706404,11.5624374 C68.997728,12.1527244 69.5608592,12.5618631 70.2122795,12.6565201 L78.9618612,13.9279087 C80.0549509,14.0867439 80.8123138,15.1016296 80.6534786,16.1947194 C80.5902296,16.6299934 80.3852552,17.0322782 80.0702879,17.3392954 L73.7390312,23.5107455 C73.267659,23.9702198 73.052562,24.6322202 73.1638379,25.2810084 L74.6584449,33.9952357 C74.8451669,35.0839086 74.1139913,36.1178204 73.0253184,36.3045425 C72.5918031,36.3788962 72.1458669,36.3082668 71.756546,36.1035887 L63.9306823,31.9892886 C63.3480342,31.6829724 62.6519658,31.6829724 62.0693177,31.9892886 Z" id="Star-Copy" fill="#0E380C"></path>
            <path d="M104.069318,31.9892886 L96.243454,36.1035887 C95.2657648,36.6175903 94.0565105,36.2416972 93.5425089,35.2640081 C93.3378308,34.8746871 93.2672014,34.428751 93.3415551,33.9952357 L94.8361621,25.2810084 C94.947438,24.6322202 94.732341,23.9702198 94.2609688,23.5107455 L87.9297121,17.3392954 C87.1387449,16.568293 87.1225603,15.3020665 87.8935627,14.5110993 C88.2005799,14.1961321 88.6028647,13.9911577 89.0381388,13.9279087 L97.7877205,12.6565201 C98.4391408,12.5618631 99.002272,12.1527244 99.293596,11.5624374 L103.206528,3.6339715 C103.695372,2.64346418 104.894624,2.23678618 105.885131,2.72563077 C106.279557,2.92029125 106.598812,3.23954629 106.793472,3.6339715 L110.706404,11.5624374 C110.997728,12.1527244 111.560859,12.5618631 112.21228,12.6565201 L120.961861,13.9279087 C122.054951,14.0867439 122.812314,15.1016296 122.653479,16.1947194 C122.59023,16.6299934 122.385255,17.0322782 122.070288,17.3392954 L115.739031,23.5107455 C115.267659,23.9702198 115.052562,24.6322202 115.163838,25.2810084 L116.658445,33.9952357 C116.845167,35.0839086 116.113991,36.1178204 115.025318,36.3045425 C114.591803,36.3788962 114.145867,36.3082668 113.756546,36.1035887 L105.930682,31.9892886 C105.348034,31.6829724 104.651966,31.6829724 104.069318,31.9892886 Z" id="Star-Copy-2" fill="#0E380C"></path>
            <path d="M146.069318,31.9892886 L138.243454,36.1035887 C137.265765,36.6175903 136.056511,36.2416972 135.542509,35.2640081 C135.337831,34.8746871 135.267201,34.428751 135.341555,33.9952357 L136.836162,25.2810084 C136.947438,24.6322202 136.732341,23.9702198 136.260969,23.5107455 L129.929712,17.3392954 C129.138745,16.568293 129.12256,15.3020665 129.893563,14.5110993 C130.20058,14.1961321 130.602865,13.9911577 131.038139,13.9279087 L139.78772,12.6565201 C140.439141,12.5618631 141.002272,12.1527244 141.293596,11.5624374 L145.206528,3.6339715 C145.695372,2.64346418 146.894624,2.23678618 147.885131,2.72563077 C148.279557,2.92029125 148.598812,3.23954629 148.793472,3.6339715 L152.706404,11.5624374 C152.997728,12.1527244 153.560859,12.5618631 154.21228,12.6565201 L162.961861,13.9279087 C164.054951,14.0867439 164.812314,15.1016296 164.653479,16.1947194 C164.59023,16.6299934 164.385255,17.0322782 164.070288,17.3392954 L157.739031,23.5107455 C157.267659,23.9702198 157.052562,24.6322202 157.163838,25.2810084 L158.658445,33.9952357 C158.845167,35.0839086 158.113991,36.1178204 157.025318,36.3045425 C156.591803,36.3788962 156.145867,36.3082668 155.756546,36.1035887 L147.930682,31.9892886 C147.348034,31.6829724 146.651966,31.6829724 146.069318,31.9892886 Z" id="Star-Copy-3" fill="#0E380C"></path>
            <path d="M188.678853,3.57207355 C188.921219,3.48988488 189.194939,3.5001557 189.442566,3.62236685 C189.639778,3.71969709 189.799406,3.87932461 189.896736,4.07653721 L193.809668,12.0050032 C194.246654,12.8904336 195.091351,13.5041417 196.068481,13.6461271 L204.818063,14.9175157 C205.091335,14.9572245 205.322642,15.1039396 205.475703,15.3090457 C205.628764,15.5141517 205.70358,15.7776486 205.663872,16.050921 C205.632247,16.2685581 205.52976,16.4697005 205.372276,16.6232091 L199.041019,22.7946592 C198.333961,23.4838706 198.011316,24.4768712 198.17823,25.4500534 L199.672837,34.1642808 C199.719517,34.436449 199.65146,34.7017721 199.503691,34.9107232 C199.355923,35.1196744 199.128442,35.2722536 198.856273,35.3189341 C198.639516,35.356111 198.416548,35.3207963 198.221887,35.2184572 L190.396023,31.1041572 C189.522051,30.6446829 188.477949,30.6446829 187.603977,31.1041572 L179.778113,35.2184572 C179.533691,35.3469576 179.260323,35.3642212 179.015935,35.2882541 C178.771548,35.212287 178.556141,35.0430892 178.42764,34.7986669 C178.325301,34.6040065 178.289987,34.3810384 178.327163,34.1642808 L179.82177,25.4500534 C179.988684,24.4768712 179.666039,23.4838706 178.958981,22.7946592 L172.627724,16.6232091 C172.429982,16.4304585 172.329088,16.1758049 172.325817,15.9199034 C172.322546,15.664002 172.416898,15.4068528 172.609649,15.209111 C172.763158,15.0516274 172.9643,14.9491402 173.181937,14.9175157 L181.931519,13.6461271 C182.908649,13.5041417 183.753346,12.8904336 184.190332,12.0050032 L188.103264,4.07653721 C188.225475,3.82891038 188.436487,3.65426222 188.678853,3.57207355 Z" id="Star-Copy-4" stroke="#0E380C" stroke-width="2"></path>
        </g>
    </g>
</svg>