<?xml version="1.0" encoding="UTF-8"?>
<svg width="16px" height="16px" viewBox="0 0 16 16" version="1.1" xmlns="http://www.w3.org/2000/svg" xmlns:xlink="http://www.w3.org/1999/xlink">
    <title>Combined Shape</title>
    <g id="Page-1" stroke="none" stroke-width="1" fill="none" fill-rule="evenodd">
        <g id="1_Home" transform="translate(-600, -75)" fill="#92E47F">
            <g id="Group-22" transform="translate(540, 69)">
                <path d="M74.5,6 C74.5233125,6.009375 74.5458125,6.02278125 74.5700312,6.0275625 C75.2317187,6.15846875 75.6753125,6.54428125 75.9070313,7.17478125 C75.9458437,7.2803125 75.9694063,7.3914375 76,7.5 L76,13.90625 C75.9387813,13.9946875 75.8894375,14.0949687 75.8146562,14.1698438 C73.3839375,16.6047187 70.9505312,19.0369375 68.5182813,21.4702812 C68.2728438,21.7158125 67.9849062,21.8816562 67.6462813,21.9594687 C67.5970313,21.9707813 67.54875,21.986375 67.5,22 L67.0625,22 C66.5004375,21.912875 66.1111563,21.5585313 65.7281562,21.1725625 C64.0976875,19.5293125 62.4606562,17.8925313 60.816875,16.2626562 C60.4335625,15.8825937 60.0865938,15.4939688 60,14.9375 L60,14.5 C60.0929062,13.9458437 60.4439375,13.5607187 60.82575,13.1807812 C63.139,10.8790313 65.443125,8.568125 67.752875,6.26284375 C67.8535938,6.1623125 67.9795625,6.08703125 68.09375,6 L74.5,6 Z M73.2652122,8.00046841 L70.8903446,8.00036221 C70.0810467,8.00036221 69.2717222,7.99829144 68.4624509,8.00405243 C68.3932887,8.00453029 68.306929,8.03936166 68.2581227,8.08794504 C66.957126,9.38291783 65.6600306,10.6817667 64.3622452,11.9799783 C63.6492595,12.6931983 62.9351856,13.4053564 62.2237922,14.1201958 C61.929999,14.4154128 61.9246115,14.8114338 62.2127252,15.1001199 C63.7749775,16.6653544 65.3382117,18.2296065 66.905188,19.7900623 C66.9862399,19.8707691 67.0979715,19.9359983 67.2073677,19.9697677 C67.4912085,20.0573505 67.7199531,19.9464052 67.9228747,19.7430718 C69.9193941,17.7424453 71.9187267,15.7446329 73.9138926,13.7426525 C73.9623539,13.694016 73.9961122,13.6067783 73.996298,13.5374341 C74.0008894,11.9359878 74,10.334515 73.9996951,8.73306864 C73.9995889,8.27208402 73.7272132,8.00070734 73.2652122,8.00046841 Z M70.7702849,9.82352941 C71.5453431,9.82705248 72.1783257,10.4647954 72.1764706,11.2404141 C72.1746673,12.0182817 71.5429142,12.6470288 70.7631482,12.6470588 C69.9801137,12.6471188 69.3554073,12.024159 69.3529412,11.2408039 C69.3504596,10.4557096 69.9862009,9.82000576 70.7702849,9.82352941 Z M70.7564544,10.764746 C70.49648,10.7681895 70.291498,10.9803945 70.294143,11.2433435 C70.2968154,11.5070088 70.5040841,11.7086903 70.7694861,11.7058528 C71.0305626,11.7030428 71.2390986,11.4902318 71.2352415,11.230506 C71.2314394,10.9731768 71.0136736,10.7613575 70.7564544,10.764746 Z" id="Combined-Shape"></path>
            </g>
        </g>
    </g>
</svg>