<?xml version="1.0" encoding="UTF-8"?>
<svg width="43px" height="43px" viewBox="0 0 43 43" version="1.1" xmlns="http://www.w3.org/2000/svg" xmlns:xlink="http://www.w3.org/1999/xlink">
    <title>Artboard Copy 8</title>
    <g id="Artboard-Copy-8" stroke="none" stroke-width="1" fill="none" fill-rule="evenodd">
        <path d="M19.5417033,29.4888679 C13.8978644,29.4928864 9.31942885,24.9719081 9.31535972,19.3908783 C9.311296,13.8099668 13.8831535,9.2823654 19.5268728,9.27834155 C25.1707117,9.27432306 29.7491472,13.7953013 29.7533358,19.3763311 C29.7558449,22.8597292 27.9438938,26.0989002 24.9584204,27.947929 C23.3344816,28.9533399 21.4575874,29.4872094 19.5417033,29.4888679 L19.5417033,29.4888679 Z M30.6801801,26.9382722 C30.6843623,26.9323272 30.6888059,26.9266406 30.6929882,26.9206956 C34.9069744,20.8219828 33.3234785,12.499952 27.1562614,8.33286227 C20.9889135,4.16577257 12.5732263,5.73164606 8.3591093,11.8302296 C4.14512304,17.9289424 5.72861891,26.2509732 11.8959668,30.4180629 C16.4969398,33.5269344 22.5551577,33.5269344 27.1562614,30.4180629 C27.1621426,30.4140564 27.1678932,30.409533 27.1739051,30.4055266 L33.7674878,37.2818933 C34.7356734,38.2394335 36.3055771,38.2393043 37.2737627,37.2818933 C38.2420791,36.3243532 38.2420791,34.7720499 37.2737627,33.814639 L30.6801801,26.9382722 Z" id="Fill-1-Copy" fill="#FFFFFF"></path>
    </g>
</svg>