<?xml version="1.0" encoding="UTF-8"?>
<svg width="44px" height="44px" viewBox="0 0 44 44" version="1.1" xmlns="http://www.w3.org/2000/svg" xmlns:xlink="http://www.w3.org/1999/xlink">
    <title>Artboard</title>
    <g id="Artboard" stroke="none" stroke-width="1" fill="none" fill-rule="evenodd">
        <g id="Search-Icon" transform="translate(7, 6)" fill="#000000" fill-rule="nonzero">
            <path d="M29.5438697,28.2360882 L22.1483565,20.5625461 C24.0498729,18.3074465 25.0917249,15.4700699 25.0917249,12.5162378 C25.0917249,5.61489309 19.4635419,0 12.5458625,0 C5.62818299,0 0,5.61489309 0,12.5162378 C0,19.4175824 5.62818299,25.0324755 12.5458625,25.0324755 C15.142856,25.0324755 17.6176637,24.2510269 19.7335507,22.7675807 L27.1852475,30.4993505 C27.4967122,30.8220518 27.9156349,31 28.3645586,31 C28.7894815,31 29.1925855,30.8383773 29.4985955,30.5445178 C30.1487984,29.9203384 30.1695264,28.8853 29.5438697,28.2360882 Z M12.5458625,3.2651055 C17.6591196,3.2651055 21.8188912,7.41505459 21.8188912,12.5162378 C21.8188912,17.6174209 17.6591196,21.76737 12.5458625,21.76737 C7.4326053,21.76737 3.27283368,17.6174209 3.27283368,12.5162378 C3.27283368,7.41505459 7.4326053,3.2651055 12.5458625,3.2651055 Z" id="Shape"></path>
        </g>
    </g>
</svg>