<?xml version="1.0" encoding="UTF-8"?>
<svg width="24px" height="24px" viewBox="0 0 24 24" version="1.1" xmlns="http://www.w3.org/2000/svg" xmlns:xlink="http://www.w3.org/1999/xlink">
    <title>Artboard 3</title>
    <g id="Artboard" stroke="none" stroke-width="1" fill="none" fill-rule="evenodd">
        <path d="M11.7426718,8.12686032 C11.7426718,8.03222975 11.7426718,7.9490626 11.7426718,7.86589545 C11.7427326,6.64274803 11.740177,5.41954328 11.7438279,4.19639586 C11.7457142,3.56029042 12.1288202,3.11619734 12.76445,3.01600701 C13.186682,2.94946183 13.5352865,3.09447415 13.8336297,3.37521342 C14.8757315,4.35596673 15.9208149,5.33379687 16.9650464,6.31248676 C18.488343,7.74014168 20.0123698,9.1671088 21.5350578,10.5953369 C22.1520069,11.1739533 22.1553536,11.8020916 21.5427857,12.3766385 C18.9762312,14.7839004 16.4094332,17.1909903 13.8405665,19.5960168 C13.2224004,20.1748051 12.2771095,20.0802892 11.8962549,19.3884715 C11.7931157,19.2011592 11.7516166,18.9648406 11.7492435,18.7503027 C11.7356741,17.5415991 11.7426718,16.3326664 11.7426718,15.1237909 L11.7426718,14.8372053 C11.3411894,14.8558334 10.9637424,14.8612212 10.588851,14.8929175 C8.80439007,15.0436042 7.1181396,15.4961229 5.57829208,16.3782335 C3.77472453,17.411432 2.46640786,18.8424113 1.69490202,20.7001166 C1.67561286,20.7466581 1.66837181,20.8075862 1.63253169,20.8361301 C1.54758634,20.903879 1.44864569,21 1.3554857,21 C1.28842999,21 1.17780631,20.8705204 1.1614379,20.7859203 C0.974570288,19.8223048 0.953394799,18.8510662 1.07996094,17.8804007 C1.36844656,15.6679024 2.26797892,13.6922384 3.76036414,11.968254 C5.446858,10.0201022 7.55631402,8.70220961 10.2209573,8.25473482 C10.4670919,8.21340917 10.7164516,8.18566769 10.9655678,8.16480425 C11.2132845,8.14399814 11.4625833,8.13981399 11.7426718,8.12686032" id="Fill-1" fill="#3C7630"></path>
    </g>
</svg>