<?xml version="1.0" encoding="UTF-8"?>
<svg width="24px" height="24px" viewBox="0 0 24 24" version="1.1" xmlns="http://www.w3.org/2000/svg" xmlns:xlink="http://www.w3.org/1999/xlink">
    <title>Artboard</title>
    <g id="Artboard" stroke="none" stroke-width="1" fill="none" fill-rule="evenodd">
        <g id="6615ccfaffae36680a8ec5d6_icon_twitter" transform="translate(3, 3)" fill="#3C7630" fill-rule="nonzero">
            <path d="M19,18 C18.882716,18 18.7654321,18 18.7654321,18 C17.0061728,18 15.2469136,18 13.4876543,18 C13.2530864,18 13.2530864,18 13.2530864,17.7647059 C11.6111111,15.5294118 9.9691358,13.4117647 8.32716049,11.1764706 C8.20987654,11.0588235 8.20987654,10.9411765 8.09259259,10.9411765 C7.74074074,11.2941176 7.27160494,11.7647059 7.03703704,12.1176471 C5.27777778,14 3.51851852,16 1.75925926,17.7647059 C1.64197531,17.8823529 1.52469136,18 1.40740741,18 C0.938271605,18 0.469135802,18 0,18 C2.46296296,15.2941176 4.92592593,12.5882353 7.38888889,10 C4.92592593,6.70588235 2.34567901,3.41176471 0,0.117647059 C0.117283951,0.117647059 0.117283951,0.117647059 0.234567901,0.117647059 C1.99382716,0.117647059 3.75308642,0.117647059 5.62962963,0.117647059 C5.74691358,0.117647059 5.86419753,0.117647059 5.86419753,0.235294118 C7.38888889,2.23529412 8.91358025,4.35294118 10.4382716,6.35294118 C10.4382716,6.47058824 10.5555556,6.47058824 10.6728395,6.58823529 C10.6728395,6.47058824 10.7901235,6.35294118 10.7901235,6.35294118 C12.6666667,4.35294118 14.6604938,2.23529412 16.4197531,0.235294118 C16.537037,0.117647059 16.654321,0 16.7716049,0 C17.1234568,0 17.5925926,0 17.9444444,0 C18.0617284,0 18.0617284,0 18.1790123,0 C15.8333333,2.47058824 13.6049383,4.94117647 11.2592593,7.41176471 C13.8395062,11.0588235 16.4197531,14.4705882 19,18 Z M16.537037,16.8235294 C16.4197531,16.7058824 16.4197531,16.5882353 16.4197531,16.5882353 C15.1296296,14.8235294 13.8395062,13.1764706 12.5493827,11.4117647 C9.9691358,8.11764706 7.62345679,4.70588235 5.16049383,1.52941176 C5.04320988,1.41176471 4.92592593,1.29411765 4.92592593,1.29411765 C4.10493827,1.29411765 3.40123457,1.29411765 2.69753086,1.29411765 C2.58024691,1.29411765 2.58024691,1.29411765 2.46296296,1.29411765 C2.46296296,1.41176471 2.46296296,1.52941176 2.58024691,1.52941176 C5.27777778,5.05882353 7.85802469,8.58823529 10.5555556,12.1176471 C11.7283951,13.6470588 12.7839506,15.0588235 13.8395062,16.5882353 C13.8395062,16.7058824 13.9567901,16.7058824 14.0740741,16.7058824 C14.8950617,16.8235294 15.5987654,16.8235294 16.537037,16.8235294 Z" id="Shape"></path>
        </g>
    </g>
</svg>