<?xml version="1.0" encoding="UTF-8"?>
<svg width="210px" height="42px" viewBox="0 0 210 42" version="1.1" xmlns="http://www.w3.org/2000/svg" xmlns:xlink="http://www.w3.org/1999/xlink">
    <title>Group 48</title>
    <g id="Page-1" stroke="none" stroke-width="1" fill="none" fill-rule="evenodd">
        <g id="Group-48" fill="#0E380C">
            <path d="M20.0693177,31.9892886 L12.243454,36.1035887 C11.2657648,36.6175903 10.0565105,36.2416972 9.54250891,35.2640081 C9.33783077,34.8746871 9.26720142,34.428751 9.34155511,33.9952357 L10.8361621,25.2810084 C10.947438,24.6322202 10.732341,23.9702198 10.2609688,23.5107455 L3.92971206,17.3392954 C3.1387449,16.568293 3.12256029,15.3020665 3.89356271,14.5110993 C4.20057992,14.1961321 4.60286475,13.9911577 5.03813881,13.9279087 L13.7877205,12.6565201 C14.4391408,12.5618631 15.002272,12.1527244 15.293596,11.5624374 L19.2065278,3.6339715 C19.6953724,2.64346418 20.8946241,2.23678618 21.8851314,2.72563077 C22.2795566,2.92029125 22.5988117,3.23954629 22.7934722,3.6339715 L26.706404,11.5624374 C26.997728,12.1527244 27.5608592,12.5618631 28.2122795,12.6565201 L36.9618612,13.9279087 C38.0549509,14.0867439 38.8123138,15.1016296 38.6534786,16.1947194 C38.5902296,16.6299934 38.3852552,17.0322782 38.0702879,17.3392954 L31.7390312,23.5107455 C31.267659,23.9702198 31.052562,24.6322202 31.1638379,25.2810084 L32.6584449,33.9952357 C32.8451669,35.0839086 32.1139913,36.1178204 31.0253184,36.3045425 C30.5918031,36.3788962 30.1458669,36.3082668 29.756546,36.1035887 L21.9306823,31.9892886 C21.3480342,31.6829724 20.6519658,31.6829724 20.0693177,31.9892886 Z" id="Star"></path>
            <path d="M62.0693177,31.9892886 L54.243454,36.1035887 C53.2657648,36.6175903 52.0565105,36.2416972 51.5425089,35.2640081 C51.3378308,34.8746871 51.2672014,34.428751 51.3415551,33.9952357 L52.8361621,25.2810084 C52.947438,24.6322202 52.732341,23.9702198 52.2609688,23.5107455 L45.9297121,17.3392954 C45.1387449,16.568293 45.1225603,15.3020665 45.8935627,14.5110993 C46.2005799,14.1961321 46.6028647,13.9911577 47.0381388,13.9279087 L55.7877205,12.6565201 C56.4391408,12.5618631 57.002272,12.1527244 57.293596,11.5624374 L61.2065278,3.6339715 C61.6953724,2.64346418 62.8946241,2.23678618 63.8851314,2.72563077 C64.2795566,2.92029125 64.5988117,3.23954629 64.7934722,3.6339715 L68.706404,11.5624374 C68.997728,12.1527244 69.5608592,12.5618631 70.2122795,12.6565201 L78.9618612,13.9279087 C80.0549509,14.0867439 80.8123138,15.1016296 80.6534786,16.1947194 C80.5902296,16.6299934 80.3852552,17.0322782 80.0702879,17.3392954 L73.7390312,23.5107455 C73.267659,23.9702198 73.052562,24.6322202 73.1638379,25.2810084 L74.6584449,33.9952357 C74.8451669,35.0839086 74.1139913,36.1178204 73.0253184,36.3045425 C72.5918031,36.3788962 72.1458669,36.3082668 71.756546,36.1035887 L63.9306823,31.9892886 C63.3480342,31.6829724 62.6519658,31.6829724 62.0693177,31.9892886 Z" id="Star-Copy"></path>
            <path d="M104.069318,31.9892886 L96.243454,36.1035887 C95.2657648,36.6175903 94.0565105,36.2416972 93.5425089,35.2640081 C93.3378308,34.8746871 93.2672014,34.428751 93.3415551,33.9952357 L94.8361621,25.2810084 C94.947438,24.6322202 94.732341,23.9702198 94.2609688,23.5107455 L87.9297121,17.3392954 C87.1387449,16.568293 87.1225603,15.3020665 87.8935627,14.5110993 C88.2005799,14.1961321 88.6028647,13.9911577 89.0381388,13.9279087 L97.7877205,12.6565201 C98.4391408,12.5618631 99.002272,12.1527244 99.293596,11.5624374 L103.206528,3.6339715 C103.695372,2.64346418 104.894624,2.23678618 105.885131,2.72563077 C106.279557,2.92029125 106.598812,3.23954629 106.793472,3.6339715 L110.706404,11.5624374 C110.997728,12.1527244 111.560859,12.5618631 112.21228,12.6565201 L120.961861,13.9279087 C122.054951,14.0867439 122.812314,15.1016296 122.653479,16.1947194 C122.59023,16.6299934 122.385255,17.0322782 122.070288,17.3392954 L115.739031,23.5107455 C115.267659,23.9702198 115.052562,24.6322202 115.163838,25.2810084 L116.658445,33.9952357 C116.845167,35.0839086 116.113991,36.1178204 115.025318,36.3045425 C114.591803,36.3788962 114.145867,36.3082668 113.756546,36.1035887 L105.930682,31.9892886 C105.348034,31.6829724 104.651966,31.6829724 104.069318,31.9892886 Z" id="Star-Copy-2"></path>
            <path d="M146.069318,31.9892886 L138.243454,36.1035887 C137.265765,36.6175903 136.056511,36.2416972 135.542509,35.2640081 C135.337831,34.8746871 135.267201,34.428751 135.341555,33.9952357 L136.836162,25.2810084 C136.947438,24.6322202 136.732341,23.9702198 136.260969,23.5107455 L129.929712,17.3392954 C129.138745,16.568293 129.12256,15.3020665 129.893563,14.5110993 C130.20058,14.1961321 130.602865,13.9911577 131.038139,13.9279087 L139.78772,12.6565201 C140.439141,12.5618631 141.002272,12.1527244 141.293596,11.5624374 L145.206528,3.6339715 C145.695372,2.64346418 146.894624,2.23678618 147.885131,2.72563077 C148.279557,2.92029125 148.598812,3.23954629 148.793472,3.6339715 L152.706404,11.5624374 C152.997728,12.1527244 153.560859,12.5618631 154.21228,12.6565201 L162.961861,13.9279087 C164.054951,14.0867439 164.812314,15.1016296 164.653479,16.1947194 C164.59023,16.6299934 164.385255,17.0322782 164.070288,17.3392954 L157.739031,23.5107455 C157.267659,23.9702198 157.052562,24.6322202 157.163838,25.2810084 L158.658445,33.9952357 C158.845167,35.0839086 158.113991,36.1178204 157.025318,36.3045425 C156.591803,36.3788962 156.145867,36.3082668 155.756546,36.1035887 L147.930682,31.9892886 C147.348034,31.6829724 146.651966,31.6829724 146.069318,31.9892886 Z" id="Star-Copy-3"></path>
            <path d="M188.069318,31.9892886 L180.243454,36.1035887 C179.265765,36.6175903 178.056511,36.2416972 177.542509,35.2640081 C177.337831,34.8746871 177.267201,34.428751 177.341555,33.9952357 L178.836162,25.2810084 C178.947438,24.6322202 178.732341,23.9702198 178.260969,23.5107455 L171.929712,17.3392954 C171.138745,16.568293 171.12256,15.3020665 171.893563,14.5110993 C172.20058,14.1961321 172.602865,13.9911577 173.038139,13.9279087 L181.78772,12.6565201 C182.439141,12.5618631 183.002272,12.1527244 183.293596,11.5624374 L187.206528,3.6339715 C187.695372,2.64346418 188.894624,2.23678618 189.885131,2.72563077 C190.279557,2.92029125 190.598812,3.23954629 190.793472,3.6339715 L194.706404,11.5624374 C194.997728,12.1527244 195.560859,12.5618631 196.21228,12.6565201 L204.961861,13.9279087 C206.054951,14.0867439 206.812314,15.1016296 206.653479,16.1947194 C206.59023,16.6299934 206.385255,17.0322782 206.070288,17.3392954 L199.739031,23.5107455 C199.267659,23.9702198 199.052562,24.6322202 199.163838,25.2810084 L200.658445,33.9952357 C200.845167,35.0839086 200.113991,36.1178204 199.025318,36.3045425 C198.591803,36.3788962 198.145867,36.3082668 197.756546,36.1035887 L189.930682,31.9892886 C189.348034,31.6829724 188.651966,31.6829724 188.069318,31.9892886 Z" id="Star-Copy-4"></path>
        </g>
    </g>
</svg>