<?xml version="1.0" encoding="UTF-8"?>
<svg width="60px" height="13px" viewBox="0 0 60 13" version="1.1" xmlns="http://www.w3.org/2000/svg" xmlns:xlink="http://www.w3.org/1999/xlink">
    <title>Group 19 Copy 4</title>
    <g id="Page-1" stroke="none" stroke-width="1" fill="none" fill-rule="evenodd">
        <g id="4_VIP-de-Producto-Copy" transform="translate(-1294, -1514)" fill="#000000">
            <g id="Group-33" transform="translate(50, 1140)">
                <g id="Group-19-Copy-4" transform="translate(1244, 374)">
                    <polygon id="Star" points="6.61764706 9.36853609 2.72789171 11.7586105 3.84012902 7.3864264 0.323890701 4.49138954 4.90104651 4.17930556 6.61764706 0 8.33424761 4.17930556 12.9114034 4.49138954 9.39516509 7.3864264 10.5074024 11.7586105"></polygon>
                    <polygon id="Star-Copy" points="18.0882353 9.36853609 14.1984799 11.7586105 15.3107173 7.3864264 11.7944789 4.49138954 16.3716347 4.17930556 18.0882353 0 19.8048358 4.17930556 24.3819917 4.49138954 20.8657533 7.3864264 21.9779906 11.7586105"></polygon>
                    <polygon id="Star-Copy-2" points="29.5588235 9.36853609 25.6690682 11.7586105 26.7813055 7.3864264 23.2650672 4.49138954 27.842223 4.17930556 29.5588235 0 31.2754241 4.17930556 35.8525799 4.49138954 32.3363416 7.3864264 33.4485789 11.7586105"></polygon>
                    <polygon id="Star-Copy-3" points="41.9117647 9.36853609 38.0220094 11.7586105 39.1342467 7.3864264 35.6180083 4.49138954 40.1951642 4.17930556 41.9117647 0 43.6283653 4.17930556 48.2055211 4.49138954 44.6892827 7.3864264 45.8015201 11.7586105"></polygon>
                    <polygon id="Star-Copy-4" points="53.3823529 9.36853609 49.4925976 11.7586105 50.6048349 7.3864264 47.0885966 4.49138954 51.6657524 4.17930556 53.3823529 0 55.0989535 4.17930556 59.6761093 4.49138954 56.159871 7.3864264 57.2721083 11.7586105"></polygon>
                </g>
            </g>
        </g>
    </g>
</svg>