<?xml version="1.0" encoding="UTF-8"?>
<svg id="Capa_2" data-name="Capa 2" xmlns="http://www.w3.org/2000/svg" viewBox="0 0 280.56 253.46">
  <defs>
    <style>
      .cls-1 {
        fill: #000;
      }

      .cls-1, .cls-2, .cls-3, .cls-4 {
        stroke-width: 0px;
      }

      .cls-2 {
        fill: #d3d3d3;
      }

      .cls-3 {
        fill: #f31739;
      }

      .cls-4 {
        fill: #fff;
      }
    </style>
  </defs>
  <g id="Capa_1-2" data-name="Capa 1">
    <g>
      <g>
        <rect class="cls-2" x="92.68" y="214.29" width="93.29" height="38.17"/>
        <path class="cls-1" d="M184.97,215.29v36.17h-91.29v-36.17h91.29M186.97,213.29h-95.29v40.17h95.29v-40.17h0Z"/>
      </g>
      <g>
        <rect class="cls-2" x="92.68" y="137.74" width="93.29" height="38.17"/>
        <path class="cls-1" d="M184.97,138.74v36.17h-91.29v-36.17h91.29M186.97,136.74h-95.29v40.17h95.29v-40.17h0Z"/>
      </g>
      <g>
        <rect class="cls-2" x="92.83" y="61.19" width="93.29" height="38.17"/>
        <path class="cls-1" d="M185.12,62.19v36.17h-91.29v-36.17h91.29M187.12,60.19h-95.29v40.17h95.29v-40.17h0Z"/>
      </g>
      <g>
        <rect class="cls-2" x="186.12" y="214.29" width="93.29" height="38.17"/>
        <path class="cls-1" d="M278.41,215.29v36.17h-91.29v-36.17h91.29M280.41,213.29h-95.29v40.17h95.29v-40.17h0Z"/>
      </g>
      <g>
        <rect class="cls-2" x="186.12" y="137.74" width="93.29" height="38.17"/>
        <path class="cls-1" d="M278.41,138.74v36.17h-91.29v-36.17h91.29M280.41,136.74h-95.29v40.17h95.29v-40.17h0Z"/>
      </g>
      <g>
        <rect class="cls-2" x="186.27" y="61.19" width="93.29" height="38.17"/>
        <path class="cls-1" d="M278.56,62.19v36.17h-91.29v-36.17h91.29M280.56,60.19h-95.29v40.17h95.29v-40.17h0Z"/>
      </g>
      <path class="cls-3" d="M91.73,62.19v36.17H2v-36.17h89.73M93.73,60.19H0v40.17h93.73v-40.17h0Z"/>
      <path class="cls-3" d="M91.73,100.46v36.17H2v-36.17h89.73M93.73,98.46H0v40.17h93.73v-40.17h0Z"/>
      <path class="cls-3" d="M91.73,138.74v36.17H2v-36.17h89.73M93.73,136.74H0v40.17h93.73v-40.17h0Z"/>
      <path class="cls-3" d="M91.73,177.02v36.17H2v-36.17h89.73M93.73,175.02H0v40.17h93.73v-40.17h0Z"/>
      <path class="cls-3" d="M91.73,215.29v36.17H2v-36.17h89.73M93.73,213.29H0v40.17h93.73v-40.17h0Z"/>
      <rect class="cls-3" width="280.56" height="62.07"/>
      <g>
        <g>
          <path class="cls-4" d="M116.81,30.81h-2.86V13.38h4.72c1.77,0,3.04.31,3.83.93.79.62,1.22,1.64,1.29,3.06.06.68.09,1.3.09,1.86s-.03,1.17-.09,1.82c-.07,1.42-.51,2.43-1.3,3.05-.79.62-2.08.93-3.86.93h-1.83v5.77ZM116.81,15.97v6.48h1.83c.79,0,1.36-.11,1.72-.32.35-.21.55-.52.58-.92.06-.6.09-1.27.09-2.01s-.03-1.4-.09-2c-.03-.41-.22-.72-.57-.93-.35-.21-.91-.32-1.68-.32h-1.87Z"/>
          <path class="cls-4" d="M133.74,30.81h-8.53V13.38h8.53v2.59h-5.68v4.7h5.35v2.59h-5.35v4.97h5.68v2.59Z"/>
          <path class="cls-4" d="M140.04,31c-1.77,0-3.03-.32-3.78-.95-.75-.63-1.15-1.68-1.19-3.14-.03-.91-.05-1.94-.07-3.1-.01-1.16-.01-2.31,0-3.47.01-1.16.03-2.19.07-3.11.03-1.26.44-2.25,1.21-2.98.77-.72,2.02-1.09,3.75-1.09s2.99.32,3.78.95c.79.63,1.2,1.68,1.25,3.14.02.37.02.79.01,1.28,0,.48-.02.91-.04,1.29h-2.86c.02-.43.03-.95.03-1.56,0-.61,0-1.12-.02-1.54,0-.38-.18-.67-.52-.86-.34-.19-.89-.29-1.64-.29s-1.24.1-1.57.29c-.33.19-.51.48-.53.86-.04,1.09-.07,2.26-.09,3.5-.02,1.24-.02,2.48,0,3.73.02,1.25.04,2.41.09,3.5.02.38.2.67.54.87.33.2.86.29,1.57.29.79,0,1.36-.1,1.72-.29.36-.2.54-.48.56-.87.02-.43.02-.95.01-1.57,0-.61-.02-1.14-.04-1.57h2.87c.02.4.04.83.04,1.29,0,.46,0,.9-.03,1.31-.06,1.46-.48,2.51-1.28,3.14-.79.63-2.08.95-3.86.95Z"/>
          <path class="cls-4" d="M149.58,30.81h-2.86V13.38h2.86v7.29h4.43v-7.29h2.86v17.43h-2.86v-7.56h-4.43v7.56Z"/>
          <path class="cls-4" d="M163.7,31c-1.8,0-3.09-.32-3.88-.95-.79-.63-1.2-1.68-1.25-3.14-.06-1.55-.09-3.16-.09-4.83s.03-3.28.09-4.83c.04-1.46.46-2.5,1.25-3.14.79-.63,2.08-.95,3.88-.95s3.1.32,3.89.95c.79.63,1.2,1.68,1.24,3.14.06,1.56.09,3.18.09,4.84s-.03,3.27-.09,4.82c-.04,1.46-.45,2.51-1.24,3.14-.79.63-2.08.95-3.89.95ZM163.7,28.61c.8,0,1.37-.1,1.72-.29.35-.2.53-.48.55-.85.06-1.07.11-2.24.12-3.5.02-1.26.01-2.52,0-3.78-.02-1.26-.06-2.42-.12-3.48-.02-.38-.2-.67-.56-.86-.36-.19-.93-.29-1.71-.29s-1.34.1-1.7.29c-.36.19-.55.48-.57.86-.07,1.06-.11,2.22-.12,3.48-.02,1.26-.01,2.52.01,3.78.02,1.26.06,2.42.11,3.5.02.37.22.66.57.85.36.2.92.29,1.7.29Z"/>
        </g>
        <g>
          <path class="cls-4" d="M133.68,52.9h-.83c-.54-.57-.99-1.22-1.36-1.95s-.65-1.5-.84-2.32c-.19-.82-.29-1.64-.29-2.48,0-.78.09-1.56.27-2.36.18-.8.46-1.56.83-2.3s.83-1.41,1.38-2h.83c-.74,1.03-1.3,2.12-1.68,3.27-.38,1.16-.57,2.3-.57,3.43s.19,2.28.57,3.46c.38,1.17.94,2.25,1.68,3.25Z"/>
          <path class="cls-4" d="M139.2,45.48h-.95c.02-.18.03-.38.03-.6s0-.4,0-.53c0-.27-.11-.45-.31-.55-.2-.1-.53-.15-1-.15s-.81.05-1.01.15-.3.28-.31.55c-.04.79-.05,1.52-.05,2.2s.02,1.41.05,2.19c0,.28.11.47.31.57.2.1.53.16,1,.16s.79-.05,1-.16c.21-.11.31-.3.32-.57,0-.14,0-.3,0-.49,0-.19,0-.4-.03-.63h.95c.03.15.04.31.03.51,0,.19,0,.37-.02.52-.03.59-.21,1.02-.55,1.28-.34.26-.91.39-1.7.39s-1.38-.13-1.72-.39-.53-.69-.56-1.28c-.02-.37-.03-.81-.04-1.31s0-1,0-1.51.02-.95.04-1.32c.02-.61.21-1.04.57-1.3.35-.26.93-.39,1.72-.39s1.36.13,1.71.38c.35.25.53.68.54,1.26.01.15.02.32.02.51,0,.19,0,.36-.03.51Z"/>
          <path class="cls-4" d="M141.4,50.22h-.97v-7.31h.97v.68h.19c.17-.26.37-.46.6-.59.23-.13.54-.19.94-.19.81,0,1.3.28,1.49.84h.2c.17-.26.38-.47.63-.62s.58-.23.98-.23c.54,0,.94.12,1.2.37s.4.66.4,1.24v5.79h-.96v-5.88c-.01-.25-.09-.43-.23-.54-.15-.11-.39-.17-.72-.17-.67,0-1.13.24-1.39.71v5.88h-.96v-5.88c-.01-.25-.09-.43-.23-.54-.15-.11-.38-.17-.71-.17-.71,0-1.19.23-1.43.68v5.91Z"/>
          <path class="cls-4" d="M149.91,52.9h-.83c.75-.99,1.31-2.07,1.68-3.25.37-1.17.56-2.32.56-3.46s-.19-2.28-.56-3.43c-.37-1.15-.93-2.25-1.68-3.27h.83c.55.6,1.01,1.26,1.38,2,.37.74.64,1.51.82,2.3.18.8.27,1.58.27,2.36,0,.83-.1,1.66-.29,2.48-.19.82-.47,1.59-.83,2.32s-.82,1.38-1.35,1.95Z"/>
        </g>
      </g>
      <g>
        <g>
          <path class="cls-4" d="M201.95,31c-1.77,0-3.03-.32-3.78-.95-.75-.63-1.15-1.68-1.19-3.14-.03-.91-.05-1.94-.07-3.1-.01-1.16-.01-2.31,0-3.47.01-1.16.03-2.19.07-3.11.03-1.26.44-2.25,1.21-2.98.77-.72,2.02-1.09,3.75-1.09s2.99.32,3.78.95c.79.63,1.2,1.68,1.25,3.14.02.37.02.79.01,1.28,0,.48-.02.91-.04,1.29h-2.86c.02-.43.03-.95.03-1.56,0-.61,0-1.12-.02-1.54,0-.38-.18-.67-.52-.86-.34-.19-.89-.29-1.64-.29s-1.24.1-1.57.29c-.33.19-.51.48-.53.86-.04,1.09-.07,2.26-.09,3.5-.02,1.24-.02,2.48,0,3.73.02,1.25.04,2.41.09,3.5.02.38.2.67.54.87.33.2.86.29,1.57.29.79,0,1.36-.1,1.72-.29.36-.2.54-.48.56-.87.02-.43.02-.95.01-1.57,0-.61-.02-1.14-.04-1.57h2.87c.02.4.04.83.04,1.29,0,.46,0,.9-.03,1.31-.06,1.46-.48,2.51-1.28,3.14-.79.63-2.08.95-3.86.95Z"/>
          <path class="cls-4" d="M211.82,30.81h-2.86V13.38h2.86v17.43Z"/>
          <path class="cls-4" d="M216.66,30.81h-2.77V13.38h4.41l1.42,5.55,1.71,9.29h.67l-.52-7.61-.21-7.24h2.77v17.43h-4.59l-1.5-5.81-1.39-9.05h-.7l.48,8.19.23,6.67Z"/>
          <path class="cls-4" d="M231.3,30.81h-2.86v-14.84h-3.32v-2.59h9.48v2.59h-3.31v14.84Z"/>
          <path class="cls-4" d="M240.69,31c-1.84,0-3.16-.32-3.96-.95-.8-.63-1.21-1.68-1.23-3.14-.1-4.52-.1-9.03,0-13.54h2.86c-.06,2.23-.09,4.58-.09,7.04s.02,4.81.05,7.05c0,.76.79,1.15,2.37,1.15s2.31-.38,2.31-1.15c.04-2.24.06-4.59.07-7.05,0-2.46-.02-4.81-.07-7.04h2.86c.1,4.51.1,9.02,0,13.54,0,1.46-.42,2.51-1.22,3.14s-2.12.95-3.94.95Z"/>
          <path class="cls-4" d="M250.32,30.81h-2.86V13.38h4.68c1.75,0,3.02.31,3.8.93.79.62,1.21,1.64,1.28,3.06.06.68.08,1.25.08,1.73,0,.48-.03,1.05-.08,1.7-.04.9-.25,1.64-.62,2.2-.37.57-.95,1-1.72,1.29l2.84,6.52h-3.05l-2.51-6.03h-1.83v6.03ZM250.32,15.97v6.23h1.78c.77,0,1.33-.11,1.68-.32.35-.21.54-.52.57-.92.11-1.25.11-2.5,0-3.75-.03-.41-.22-.72-.57-.93-.35-.21-.9-.32-1.65-.32h-1.82Z"/>
          <path class="cls-4" d="M261.27,30.81h-2.94l2.95-17.43h4.96l2.95,17.43h-2.93l-.62-3.91h-3.74l-.63,3.91ZM262.7,20.47l-.54,3.85h3.21l-.52-3.85-.63-4.5h-.88l-.63,4.5Z"/>
        </g>
        <g>
          <path class="cls-4" d="M225.07,52.89h-.83c-.54-.57-.99-1.22-1.36-1.95-.37-.73-.65-1.5-.84-2.32s-.29-1.64-.29-2.48c0-.78.09-1.56.27-2.36.18-.8.46-1.56.83-2.3.37-.74.83-1.41,1.38-2h.83c-.74,1.03-1.3,2.12-1.68,3.27-.38,1.15-.57,2.3-.57,3.43s.19,2.28.57,3.46c.38,1.17.94,2.25,1.68,3.25Z"/>
          <path class="cls-4" d="M230.59,45.48h-.95c.02-.17.03-.38.03-.6s0-.4,0-.53c0-.27-.11-.45-.31-.55-.2-.1-.53-.15-1-.15s-.81.05-1.01.15c-.2.1-.3.28-.31.55-.04.79-.05,1.52-.05,2.2s.02,1.41.05,2.19c0,.28.11.47.31.57.2.11.53.16,1,.16s.79-.05,1-.16c.21-.1.31-.29.32-.57,0-.13,0-.3,0-.49,0-.19,0-.41-.03-.64h.95c.03.15.04.31.03.51,0,.19,0,.37-.02.52-.03.59-.21,1.02-.55,1.28-.34.26-.91.39-1.7.39s-1.38-.13-1.72-.39c-.35-.26-.53-.69-.56-1.28-.02-.37-.03-.81-.04-1.31s0-1,0-1.51.02-.95.04-1.32c.02-.61.21-1.04.57-1.3.35-.26.93-.39,1.72-.39s1.36.13,1.71.38c.35.26.53.68.54,1.26.01.15.02.32.02.51,0,.19,0,.36-.03.51Z"/>
          <path class="cls-4" d="M232.79,50.22h-.97v-7.31h.97v.68h.19c.17-.27.37-.46.6-.59.23-.13.54-.19.94-.19.81,0,1.3.28,1.49.84h.2c.17-.26.38-.47.63-.62.26-.15.58-.23.98-.23.54,0,.94.12,1.2.37s.4.66.4,1.24v5.79h-.96v-5.88c-.01-.25-.09-.43-.23-.54-.15-.11-.39-.17-.72-.17-.67,0-1.13.24-1.39.71v5.88h-.96v-5.88c-.01-.25-.09-.43-.23-.54-.15-.11-.38-.17-.71-.17-.71,0-1.19.23-1.43.68v5.91Z"/>
          <path class="cls-4" d="M241.3,52.89h-.83c.75-.99,1.31-2.07,1.68-3.25.37-1.17.56-2.32.56-3.46s-.19-2.28-.56-3.43c-.37-1.15-.93-2.25-1.68-3.27h.83c.55.6,1.01,1.26,1.38,2,.37.74.64,1.51.82,2.3.18.8.27,1.58.27,2.36,0,.83-.1,1.66-.29,2.48-.19.82-.47,1.59-.83,2.32-.37.73-.82,1.38-1.35,1.95Z"/>
        </g>
      </g>
      <g>
        <g>
          <path class="cls-4" d="M18.79,40.6h-2.86v-14.84h-3.32v-2.59h9.48v2.59h-3.31v14.84Z"/>
          <path class="cls-4" d="M25.38,40.6h-2.94l2.95-17.43h4.96l2.95,17.43h-2.93l-.62-3.91h-3.74l-.63,3.91ZM26.81,30.26l-.54,3.84h3.21l-.52-3.84-.63-4.5h-.88l-.63,4.5Z"/>
          <path class="cls-4" d="M37.23,40.6h-2.86v-17.43h4.53l1.17,6.7.13,8.13h.45l.12-8.13,1.18-6.7h4.52v17.43h-2.87v-5.31l.56-9.53h-.48l-.63,9.72-1.14,5.1h-2.99l-1.12-5.1-.67-9.72h-.44l.52,9.53v5.31Z"/>
          <path class="cls-4" d="M50.49,40.6h-2.94l2.95-17.43h4.96l2.95,17.43h-2.93l-.62-3.91h-3.74l-.63,3.91ZM51.92,30.26l-.54,3.84h3.21l-.52-3.84-.63-4.5h-.88l-.63,4.5Z"/>
          <path class="cls-4" d="M62.26,40.6h-2.77v-17.43h4.41l1.42,5.55,1.71,9.29h.67l-.52-7.6-.21-7.24h2.77v17.43h-4.59l-1.5-5.81-1.39-9.04h-.7l.48,8.19.23,6.67ZM65.71,20.08h.95c-.04.76-.16,1.33-.37,1.68-.21.36-.51.54-.9.54-.29,0-.49-.08-.63-.25-.13-.17-.25-.33-.35-.49-.1-.16-.24-.24-.42-.24s-.28.08-.3.23c-.02.15-.04.37-.04.63h-.98c.03-.83.16-1.43.37-1.79.22-.36.51-.54.89-.54.28,0,.49.08.65.24.15.16.29.32.41.48.12.16.26.24.42.24.14,0,.22-.06.24-.19.02-.13.04-.31.07-.54Z"/>
          <path class="cls-4" d="M76.56,40.8c-1.8,0-3.09-.32-3.88-.95-.79-.63-1.2-1.68-1.25-3.14-.06-1.55-.09-3.16-.09-4.83s.03-3.28.09-4.83c.04-1.46.46-2.5,1.25-3.14.79-.63,2.08-.95,3.88-.95s3.1.32,3.89.95c.79.63,1.2,1.68,1.24,3.14.06,1.56.09,3.18.09,4.84s-.03,3.27-.09,4.82c-.04,1.46-.45,2.51-1.24,3.14-.79.63-2.08.95-3.89.95ZM76.56,38.4c.8,0,1.37-.1,1.72-.29.35-.2.53-.48.55-.85.06-1.07.11-2.24.12-3.5.02-1.26.01-2.52,0-3.78-.02-1.26-.06-2.42-.12-3.48-.02-.38-.2-.67-.56-.86-.36-.19-.93-.29-1.71-.29s-1.34.1-1.7.29c-.36.19-.55.48-.57.86-.07,1.06-.11,2.22-.12,3.48-.02,1.26-.01,2.52.01,3.78.02,1.26.06,2.42.11,3.5.02.38.22.66.57.85.36.2.92.29,1.7.29Z"/>
        </g>
        <g>
          <path class="cls-1" d="M36.11,88.07h-2.23l2.55-7.23-2.44-6.72h2.23l1.04,3.27.6,2.51h.51l.59-2.51,1.03-3.27h2.23l-2.37,6.8,2.47,7.15h-2.23l-1.09-3.45-.62-2.65h-.51l-.62,2.65-1.11,3.45Z"/>
          <path class="cls-1" d="M47.15,88.22c-1.41,0-2.42-.25-3.02-.76s-.92-1.34-.95-2.51c-.03-.73-.04-1.56-.05-2.48s0-1.85,0-2.77.03-1.75.05-2.49c.03-1.01.35-1.8.97-2.38s1.62-.87,3-.87,2.39.25,3.02.76.96,1.34,1,2.51c.01.29.02.63,0,1.02s-.02.73-.03,1.03h-2.29c.01-.34.02-.76.02-1.25s0-.9-.01-1.24c0-.31-.15-.54-.42-.69s-.71-.23-1.31-.23-.99.08-1.25.23-.41.38-.42.69c-.03.87-.06,1.8-.07,2.8s-.01,1.99,0,2.98.04,1.93.07,2.8c.02.31.16.54.43.69s.69.23,1.26.23c.63,0,1.09-.08,1.38-.23s.44-.39.45-.69c.01-.34.02-.76,0-1.25s-.02-.91-.03-1.25h2.29c.02.32.03.66.03,1.04s0,.72-.02,1.04c-.05,1.17-.39,2.01-1.02,2.51s-1.67.76-3.09.76Z"/>
          <path class="cls-1" d="M54.78,88.07h-2.29v-13.95h2.29v5.83h3.54v-5.83h2.29v13.95h-2.29v-6.04h-3.54v6.04Z"/>
        </g>
        <g>
          <path class="cls-1" d="M42.75,126.73c-1.41,0-2.42-.25-3.02-.76s-.92-1.34-.95-2.51c-.03-.73-.04-1.56-.05-2.48s0-1.85,0-2.77.03-1.75.05-2.49c.03-1.01.35-1.8.97-2.38s1.62-.87,3-.87,2.39.25,3.02.76.96,1.34,1,2.51c.01.29.02.63,0,1.02s-.02.73-.03,1.03h-2.29c.01-.34.02-.76.02-1.25s0-.9-.01-1.24c0-.31-.15-.54-.42-.69s-.71-.23-1.31-.23-.99.08-1.25.23-.41.38-.42.69c-.03.87-.06,1.8-.07,2.8s-.01,1.99,0,2.98.04,1.93.07,2.8c.02.31.16.54.43.69s.69.23,1.26.23c.63,0,1.09-.08,1.38-.23s.44-.39.45-.69c.01-.34.02-.76,0-1.25s-.02-.91-.03-1.25h2.29c.02.32.03.66.03,1.04s0,.72-.02,1.04c-.05,1.17-.39,2.01-1.02,2.51s-1.67.76-3.09.76Z"/>
          <path class="cls-1" d="M50.38,126.57h-2.29v-13.95h2.29v5.83h3.54v-5.83h2.29v13.95h-2.29v-6.04h-3.54v6.04Z"/>
        </g>
        <path class="cls-1" d="M44.95,164.65h-2.29v-13.95h3.62l.94,5.36.11,6.5h.36l.1-6.5.95-5.36h3.61v13.95h-2.29v-4.25l.45-7.63h-.38l-.51,7.77-.91,4.08h-2.39l-.9-4.08-.54-7.77h-.35l.42,7.63v4.25Z"/>
        <path class="cls-1" d="M47.53,204.51c-1.43,0-2.45-.25-3.06-.76s-.93-1.35-.97-2.52c-.03-.72-.05-1.54-.06-2.45s0-1.82,0-2.72.03-1.7.06-2.41c.04-1.24.37-2.11.98-2.63s1.63-.78,3.04-.78,2.33.25,2.95.76.96,1.34,1.03,2.51c.03.3.05.64.04,1.02s-.02.72-.04,1.03h-2.29c.03-.35.04-.77.04-1.25s-.01-.89-.04-1.25c-.05-.61-.62-.92-1.69-.92s-1.71.31-1.74.92c-.05.87-.07,1.81-.09,2.8s-.01,1.99,0,2.99.04,1.93.08,2.8c.01.3.16.53.44.69s.72.24,1.31.24c1.15,0,1.76-.31,1.84-.93.01-.25.02-.57.02-.96s0-.71-.02-.95h-1.75v-2.04h3.98c.03.51.04,1.08.04,1.71s-.02,1.23-.06,1.81c-.05,1.18-.38,2.02-1.02,2.52s-1.64.76-3.04.76Z"/>
        <g>
          <path class="cls-1" d="M40.83,242.41h-2.23l2.55-7.23-2.44-6.72h2.23l1.04,3.27.6,2.51h.51l.59-2.51,1.03-3.27h2.23l-2.37,6.8,2.47,7.15h-2.23l-1.09-3.45-.62-2.65h-.51l-.62,2.65-1.11,3.45Z"/>
          <path class="cls-1" d="M51.93,242.57c-1.43,0-2.45-.25-3.06-.76s-.93-1.35-.97-2.52c-.03-.72-.05-1.54-.06-2.45s0-1.82,0-2.72.03-1.7.06-2.41c.04-1.24.37-2.11.98-2.63s1.63-.78,3.04-.78,2.33.25,2.95.76.96,1.34,1.03,2.51c.03.3.05.64.04,1.02s-.02.72-.04,1.03h-2.29c.03-.35.04-.77.04-1.25s-.01-.89-.04-1.25c-.05-.61-.62-.92-1.69-.92s-1.71.31-1.74.92c-.05.87-.07,1.81-.09,2.8s-.01,1.99,0,2.99.04,1.93.08,2.8c.01.3.16.53.44.69s.72.24,1.31.24c1.15,0,1.76-.31,1.84-.93.01-.25.02-.57.02-.96s0-.71-.02-.95h-1.75v-2.04h3.98c.03.51.04,1.08.04,1.71s-.02,1.23-.06,1.81c-.05,1.18-.38,2.02-1.02,2.52s-1.64.76-3.04.76Z"/>
        </g>
      </g>
      <rect class="cls-1" x="185.27" y="62.07" width="2" height="189.58"/>
      <rect class="cls-1" x="278.41" y="62.07" width="2" height="189.58"/>
      <g>
        <g>
          <path class="cls-1" d="M128.86,73.47v1.35c-1.56,3.02-2.79,6.98-3.33,11.65h-1.83c.46-4.25,1.85-8.62,3.33-11.42h-3.82v-1.58h5.65Z"/>
          <path class="cls-1" d="M133.75,76.42v-.16c0-.58-.11-1.44-1.03-1.44s-1.16.66-1.16,2.15v1.83c.32-.51.84-.94,1.8-.94,1.64,0,2.25,1.3,2.25,3v2.24c0,1.99-.62,3.54-2.93,3.54s-2.89-1.75-2.89-3.58v-5.89c0-2.21.59-3.86,2.93-3.86s2.72,1.75,2.72,3.02v.09h-1.69ZM133.83,83.36v-2.24c0-1.01-.21-1.68-1.09-1.68s-1.19.71-1.19,1.88v2.04c0,.96.21,1.8,1.14,1.8.85,0,1.14-.63,1.14-1.8Z"/>
          <path class="cls-1" d="M142.78,80.39v1.65h-3.51v-1.65h3.51Z"/>
          <path class="cls-1" d="M146.46,83.42v-1.36c0-1.63.69-2.15,1.31-2.54-.71-.44-1.12-1.1-1.12-2.48v-.63c0-2.05,1.05-3.08,2.85-3.08,1.58,0,2.72.85,2.72,3.11v.56c0,1.61-.53,2.15-1.13,2.5.78.39,1.3,1.06,1.3,2.55v1.24c0,2.41-1.06,3.34-3,3.34-1.65,0-2.93-.75-2.93-3.22ZM150.6,83.51v-1.67c0-1.12-.42-1.54-1.19-1.54s-1.17.49-1.17,1.54v1.66c0,.95.34,1.6,1.18,1.6s1.18-.54,1.18-1.59ZM148.35,76.3v1.05c0,.87.37,1.42,1.09,1.42s1.06-.43,1.06-1.45v-1.02c0-.81-.21-1.45-1.07-1.45-.81,0-1.08.63-1.08,1.45Z"/>
          <path class="cls-1" d="M154.46,86.48v-10.93c-.36.1-1.08.19-1.39.2v-1.38c.8-.11,1.52-.55,1.88-.97h1.31v13.07h-1.79Z"/>
        </g>
        <g>
          <path class="cls-1" d="M113.5,121.92v-1.36c0-1.63.69-2.15,1.31-2.54-.71-.44-1.12-1.1-1.12-2.48v-.62c0-2.05,1.05-3.08,2.85-3.08,1.58,0,2.72.85,2.72,3.11v.56c0,1.61-.53,2.15-1.13,2.5.78.39,1.3,1.06,1.3,2.55v1.24c0,2.41-1.06,3.34-3,3.34-1.65,0-2.93-.75-2.93-3.22ZM117.64,122.02v-1.67c0-1.12-.42-1.54-1.19-1.54s-1.17.49-1.17,1.54v1.66c0,.95.34,1.59,1.18,1.59s1.18-.54,1.18-1.59ZM115.39,114.81v1.05c0,.87.37,1.42,1.09,1.42s1.06-.43,1.06-1.45v-1.02c0-.81-.21-1.45-1.07-1.45-.81,0-1.08.63-1.08,1.45Z"/>
          <path class="cls-1" d="M124.61,114.93v-.16c0-.58-.11-1.44-1.03-1.44s-1.16.66-1.16,2.15v1.83c.32-.51.84-.94,1.8-.94,1.64,0,2.25,1.3,2.25,3v2.24c0,1.99-.62,3.54-2.93,3.54s-2.89-1.75-2.89-3.58v-5.89c0-2.21.59-3.86,2.93-3.86s2.72,1.75,2.72,3.02v.09h-1.69ZM124.69,121.87v-2.24c0-1.01-.21-1.68-1.09-1.68s-1.19.71-1.19,1.88v2.04c0,.96.21,1.8,1.14,1.8.85,0,1.14-.63,1.14-1.8Z"/>
          <path class="cls-1" d="M127.64,124.98v-2.88h1.79v2.88h-1.79Z"/>
          <path class="cls-1" d="M133.98,124.98v-3.36h-3.67v-1.33l2.94-8.32h2.38v8.17h1l-.14,1.48h-.85v3.36h-1.65ZM133.98,117.49c0-1.27.05-2.56.07-3.83h-.02c-.63,2.18-1.31,4.31-2.02,6.48h1.96v-2.66Z"/>
          <path class="cls-1" d="M143.4,118.89v1.65h-3.51v-1.65h3.51Z"/>
          <path class="cls-1" d="M148.93,122.07v.19c0,.9.32,1.39,1.02,1.39.85,0,1.09-.61,1.09-2.5v-2.02c-.31.55-.77.87-1.68.87-1.67,0-2.32-1.25-2.32-3.12v-1.82c0-2.01.96-3.24,2.89-3.24s2.86,1.15,2.86,3.34v5.58c0,2.36-.23,4.41-2.87,4.41-2.26,0-2.76-1.51-2.76-2.99v-.08h1.76ZM148.82,114.87v2.04c0,.85.2,1.54,1.07,1.54.92,0,1.15-.77,1.15-2v-1.57c0-1.03-.29-1.58-1.1-1.58s-1.11.5-1.11,1.57Z"/>
          <path class="cls-1" d="M154.9,124.98v-10.93c-.36.1-1.08.19-1.39.2v-1.38c.8-.11,1.52-.55,1.88-.97h1.31v13.08h-1.79Z"/>
          <path class="cls-1" d="M158.4,124.98v-2.88h1.79v2.88h-1.79Z"/>
          <path class="cls-1" d="M164.73,124.98v-3.36h-3.67v-1.33l2.94-8.32h2.38v8.17h1l-.14,1.48h-.85v3.36h-1.65ZM164.73,117.49c0-1.27.05-2.56.07-3.83h-.02c-.63,2.18-1.31,4.31-2.02,6.48h1.96v-2.66Z"/>
        </g>
        <g>
          <path class="cls-1" d="M112.63,160.14v.19c0,.9.32,1.39,1.02,1.39.85,0,1.09-.61,1.09-2.5v-2.01c-.31.55-.77.87-1.68.87-1.67,0-2.32-1.25-2.32-3.12v-1.82c0-2.01.96-3.24,2.89-3.24s2.86,1.15,2.86,3.33v5.58c0,2.36-.23,4.41-2.87,4.41-2.26,0-2.76-1.51-2.76-2.99v-.08h1.76ZM112.52,152.95v2.04c0,.85.2,1.54,1.07,1.54.92,0,1.15-.77,1.15-2v-1.57c0-1.03-.29-1.58-1.1-1.58-.77,0-1.11.5-1.11,1.57Z"/>
          <path class="cls-1" d="M121.77,153v-.16c0-.58-.11-1.44-1.03-1.44s-1.16.66-1.16,2.15v1.83c.32-.51.84-.94,1.8-.94,1.64,0,2.25,1.3,2.25,3v2.24c0,1.99-.62,3.54-2.93,3.54s-2.89-1.75-2.89-3.58v-5.89c0-2.21.59-3.86,2.93-3.86s2.72,1.75,2.72,3.02v.09h-1.69ZM121.85,159.94v-2.24c0-1.01-.21-1.68-1.09-1.68s-1.19.71-1.19,1.88v2.04c0,.96.21,1.8,1.14,1.8.85,0,1.14-.63,1.14-1.8Z"/>
          <path class="cls-1" d="M124.8,163.06v-2.88h1.79v2.88h-1.79Z"/>
          <path class="cls-1" d="M133.35,151.64h-3.23c-.07,1.1-.18,2.62-.26,3.46.27-.39.86-.66,1.59-.66,1.73,0,2.37,1.28,2.37,3.45v1.42c0,2.23-.63,3.92-3.04,3.92-2.2,0-2.92-1.43-2.92-3.19v-.27h1.78v.42c0,.75.23,1.56,1.13,1.56.98,0,1.18-.76,1.18-2.18v-1.59c0-1.33-.21-2-1.13-2-.76,0-1.05.44-1.21,1.31l-1.6-.17c.19-1.83.45-5.42.54-7.04h4.98l-.19,1.58Z"/>
          <path class="cls-1" d="M140.98,156.97v1.65h-3.51v-1.65h3.51Z"/>
          <path class="cls-1" d="M145.58,163.06v-10.93c-.36.1-1.08.19-1.39.2v-1.38c.8-.11,1.52-.55,1.88-.97h1.31v13.07h-1.79Z"/>
          <path class="cls-1" d="M155.07,153.29v6.41c0,2.07-.7,3.52-2.98,3.52-2.11,0-2.86-1.42-2.86-3.49v-6.32c0-2.34,1.05-3.51,2.96-3.51s2.88,1.14,2.88,3.39ZM151,153.21v6.7c0,1.11.34,1.67,1.16,1.67s1.13-.52,1.13-1.73v-6.68c0-1.11-.38-1.64-1.14-1.64s-1.15.47-1.15,1.68Z"/>
          <path class="cls-1" d="M157.34,163.06v-10.93c-.36.1-1.08.19-1.39.2v-1.38c.8-.11,1.52-.55,1.88-.97h1.31v13.07h-1.79Z"/>
          <path class="cls-1" d="M160.84,163.06v-2.88h1.79v2.88h-1.79Z"/>
          <path class="cls-1" d="M167.85,153v-.16c0-.58-.11-1.44-1.03-1.44s-1.16.66-1.16,2.15v1.83c.32-.51.84-.94,1.8-.94,1.64,0,2.25,1.3,2.25,3v2.24c0,1.99-.62,3.54-2.93,3.54s-2.89-1.75-2.89-3.58v-5.89c0-2.21.59-3.86,2.93-3.86s2.72,1.75,2.72,3.02v.09h-1.69ZM167.93,159.94v-2.24c0-1.01-.21-1.68-1.09-1.68s-1.19.71-1.19,1.88v2.04c0,.96.21,1.8,1.14,1.8.85,0,1.14-.63,1.14-1.8Z"/>
        </g>
        <g>
          <path class="cls-1" d="M111.37,202.76v-10.93c-.36.1-1.08.19-1.39.2v-1.38c.8-.11,1.52-.55,1.88-.97h1.31v13.07h-1.79Z"/>
          <path class="cls-1" d="M120.86,192.99v6.41c0,2.07-.7,3.52-2.98,3.52-2.11,0-2.86-1.42-2.86-3.49v-6.32c0-2.34,1.05-3.51,2.96-3.51s2.88,1.14,2.88,3.39ZM116.79,192.92v6.7c0,1.11.34,1.67,1.16,1.67s1.13-.52,1.13-1.73v-6.68c0-1.11-.38-1.64-1.14-1.64s-1.15.47-1.15,1.68Z"/>
          <path class="cls-1" d="M126.14,192.71v-.16c0-.58-.11-1.44-1.03-1.44s-1.16.66-1.16,2.15v1.83c.32-.51.84-.94,1.8-.94,1.64,0,2.25,1.3,2.25,3v2.24c0,1.99-.62,3.54-2.93,3.54s-2.89-1.75-2.89-3.58v-5.89c0-2.21.59-3.86,2.93-3.86s2.72,1.75,2.72,3.02v.09h-1.69ZM126.22,199.65v-2.24c0-1.01-.21-1.68-1.09-1.68s-1.19.71-1.19,1.88v2.04c0,.96.21,1.8,1.14,1.8.85,0,1.14-.63,1.14-1.8Z"/>
          <path class="cls-1" d="M129.17,202.76v-2.88h1.79v2.88h-1.79Z"/>
          <path class="cls-1" d="M137.61,189.76v1.35c-1.56,3.02-2.79,6.98-3.33,11.65h-1.83c.46-4.25,1.85-8.62,3.33-11.42h-3.82v-1.58h5.65Z"/>
          <path class="cls-1" d="M144.39,196.67v1.65h-3.51v-1.65h3.51Z"/>
          <path class="cls-1" d="M148.99,202.76v-10.93c-.36.1-1.08.19-1.39.2v-1.38c.8-.11,1.52-.55,1.88-.97h1.31v13.07h-1.79Z"/>
          <path class="cls-1" d="M153.33,202.76v-10.93c-.36.1-1.08.19-1.39.2v-1.38c.8-.11,1.52-.55,1.88-.97h1.31v13.07h-1.79Z"/>
          <path class="cls-1" d="M157.67,202.76v-10.93c-.36.1-1.08.19-1.39.2v-1.38c.8-.11,1.52-.55,1.88-.97h1.31v13.07h-1.79Z"/>
          <path class="cls-1" d="M161.17,202.76v-2.88h1.79v2.88h-1.79Z"/>
          <path class="cls-1" d="M164.09,199.71v-1.36c0-1.63.69-2.15,1.31-2.54-.71-.44-1.12-1.1-1.12-2.48v-.63c0-2.05,1.05-3.08,2.85-3.08,1.58,0,2.72.85,2.72,3.11v.56c0,1.61-.53,2.15-1.13,2.5.78.39,1.3,1.06,1.3,2.55v1.24c0,2.41-1.07,3.34-3,3.34-1.65,0-2.92-.75-2.92-3.22ZM168.23,199.8v-1.67c0-1.12-.42-1.54-1.19-1.54s-1.17.49-1.17,1.54v1.66c0,.95.34,1.6,1.18,1.6s1.18-.54,1.18-1.59ZM165.98,192.59v1.05c0,.87.37,1.42,1.09,1.42s1.06-.43,1.06-1.45v-1.02c0-.81-.21-1.45-1.07-1.45-.81,0-1.08.63-1.08,1.45Z"/>
        </g>
        <g>
          <path class="cls-1" d="M111.15,240.82v-10.93c-.36.1-1.08.19-1.39.2v-1.38c.8-.11,1.52-.55,1.88-.97h1.31v13.07h-1.79Z"/>
          <path class="cls-1" d="M115.49,240.82v-10.93c-.36.1-1.08.19-1.39.2v-1.38c.8-.11,1.52-.55,1.88-.97h1.31v13.07h-1.79Z"/>
          <path class="cls-1" d="M122.96,230.76v-.16c0-.58-.11-1.44-1.03-1.44s-1.16.66-1.16,2.15v1.83c.32-.51.84-.94,1.8-.94,1.64,0,2.25,1.3,2.25,3v2.24c0,1.99-.62,3.54-2.93,3.54s-2.89-1.75-2.89-3.58v-5.89c0-2.21.59-3.86,2.93-3.86s2.72,1.75,2.72,3.02v.09h-1.69ZM123.04,237.71v-2.24c0-1.01-.21-1.68-1.09-1.68s-1.19.71-1.19,1.88v2.04c0,.96.21,1.8,1.14,1.8.85,0,1.14-.63,1.14-1.8Z"/>
          <path class="cls-1" d="M125.99,240.82v-2.88h1.79v2.88h-1.79Z"/>
          <path class="cls-1" d="M128.91,237.76v-1.36c0-1.63.69-2.15,1.31-2.54-.71-.44-1.12-1.1-1.12-2.48v-.63c0-2.05,1.05-3.08,2.85-3.08,1.58,0,2.72.85,2.72,3.11v.56c0,1.61-.53,2.15-1.13,2.5.78.39,1.3,1.06,1.3,2.55v1.24c0,2.41-1.07,3.34-3,3.34-1.65,0-2.92-.75-2.92-3.22ZM133.05,237.85v-1.67c0-1.12-.42-1.54-1.19-1.54s-1.17.49-1.17,1.54v1.66c0,.95.34,1.6,1.18,1.6s1.18-.54,1.18-1.59ZM130.8,230.65v1.05c0,.87.37,1.42,1.09,1.42s1.06-.43,1.06-1.45v-1.02c0-.81-.21-1.45-1.07-1.45-.81,0-1.08.63-1.08,1.45Z"/>
          <path class="cls-1" d="M142.03,234.73v1.65h-3.51v-1.65h3.51Z"/>
          <path class="cls-1" d="M146.63,240.82v-10.93c-.36.1-1.08.19-1.39.2v-1.38c.8-.11,1.52-.55,1.88-.97h1.31v13.07h-1.79Z"/>
          <path class="cls-1" d="M149.89,240.82v-.22c.01-2.29.97-3.88,2.39-5.92,1.07-1.52,1.41-2.05,1.41-3.5s-.19-2.01-1.01-2.01c-.76,0-1.04.58-1.04,1.65v.65h-1.66v-.7c0-1.47.46-3.1,2.79-3.1,2.15,0,2.73,1.42,2.73,3.41s-.62,2.9-1.69,4.36c-1.04,1.45-1.81,2.77-1.91,3.84h3.86l-.25,1.55h-5.62Z"/>
          <path class="cls-1" d="M157.89,240.82v-10.93c-.36.1-1.08.19-1.39.2v-1.38c.8-.11,1.52-.55,1.88-.97h1.31v13.07h-1.79Z"/>
          <path class="cls-1" d="M161.39,240.82v-2.88h1.79v2.88h-1.79Z"/>
          <path class="cls-1" d="M166.28,237.91v.19c0,.9.32,1.39,1.02,1.39.85,0,1.09-.61,1.09-2.5v-2.01c-.31.55-.77.87-1.68.87-1.67,0-2.32-1.25-2.32-3.12v-1.82c0-2.01.96-3.24,2.89-3.24s2.86,1.15,2.86,3.33v5.58c0,2.36-.23,4.41-2.87,4.41-2.26,0-2.76-1.51-2.76-2.99v-.08h1.76ZM166.17,230.71v2.04c0,.85.2,1.54,1.07,1.54.92,0,1.15-.77,1.15-2v-1.57c0-1.03-.29-1.58-1.1-1.58s-1.11.5-1.11,1.57Z"/>
        </g>
      </g>
      <g>
        <g>
          <path class="cls-1" d="M221.2,76.42v-.16c0-.58-.11-1.44-1.03-1.44s-1.16.66-1.16,2.15v1.83c.32-.51.84-.94,1.8-.94,1.64,0,2.25,1.3,2.25,3v2.24c0,1.99-.62,3.54-2.93,3.54s-2.89-1.75-2.89-3.58v-5.89c0-2.21.59-3.86,2.93-3.86s2.72,1.75,2.72,3.02v.09h-1.69ZM221.28,83.36v-2.24c0-1.01-.21-1.68-1.08-1.68s-1.19.71-1.19,1.88v2.04c0,.96.21,1.8,1.14,1.8.85,0,1.13-.63,1.13-1.8Z"/>
          <path class="cls-1" d="M229.56,73.47v1.35c-1.56,3.02-2.79,6.98-3.33,11.65h-1.83c.46-4.25,1.85-8.62,3.33-11.42h-3.82v-1.58h5.65Z"/>
          <path class="cls-1" d="M236.35,80.39v1.65h-3.51v-1.65h3.51Z"/>
          <path class="cls-1" d="M245.18,73.47v1.35c-1.56,3.02-2.79,6.98-3.33,11.65h-1.83c.46-4.25,1.85-8.62,3.33-11.42h-3.82v-1.58h5.65Z"/>
          <path class="cls-1" d="M251.97,76.71v6.41c0,2.07-.7,3.52-2.98,3.52-2.11,0-2.86-1.42-2.86-3.49v-6.32c0-2.34,1.05-3.51,2.96-3.51s2.88,1.14,2.88,3.39ZM247.91,76.63v6.7c0,1.11.34,1.67,1.16,1.67s1.13-.52,1.13-1.73v-6.68c0-1.11-.38-1.64-1.14-1.64s-1.15.47-1.15,1.68Z"/>
        </g>
        <g>
          <path class="cls-1" d="M215.43,111.98v1.35c-1.56,3.02-2.79,6.98-3.33,11.65h-1.83c.46-4.25,1.85-8.62,3.33-11.42h-3.82v-1.58h5.65Z"/>
          <path class="cls-1" d="M217.68,124.98v-10.93c-.36.1-1.08.19-1.39.2v-1.38c.8-.11,1.52-.55,1.88-.97h1.31v13.07h-1.79Z"/>
          <path class="cls-1" d="M221.18,124.98v-2.88h1.79v2.88h-1.79Z"/>
          <path class="cls-1" d="M224.74,124.98v-10.93c-.36.1-1.08.19-1.39.2v-1.38c.8-.11,1.52-.55,1.88-.97h1.31v13.07h-1.79Z"/>
          <path class="cls-1" d="M234.24,118.89v1.65h-3.51v-1.65h3.51Z"/>
          <path class="cls-1" d="M243.07,111.98v1.35c-1.56,3.02-2.79,6.98-3.33,11.65h-1.83c.46-4.25,1.85-8.62,3.33-11.42h-3.82v-1.58h5.65Z"/>
          <path class="cls-1" d="M244.04,115.24v-.38c0-1.36.42-3.04,2.73-3.04,1.98,0,2.65,1.25,2.65,3.03v.5c0,1.49-.48,2.19-1.24,2.5v.02c.95.33,1.55,1.04,1.55,2.64v1.07c0,2.08-.64,3.57-2.98,3.57-2.11,0-2.88-1.19-2.88-3.01v-.4h1.67v.39c0,.81.27,1.54,1.2,1.54s1.2-.69,1.2-1.85v-1.28c0-1.36-.47-1.84-1.59-1.84h-.55v-1.54h.54c.97,0,1.34-.39,1.34-1.63v-.7c0-.85-.16-1.53-.99-1.53s-1.03.67-1.03,1.44v.48h-1.62Z"/>
          <path class="cls-1" d="M250.91,124.98v-2.88h1.79v2.88h-1.79Z"/>
          <path class="cls-1" d="M259.35,111.98v1.35c-1.56,3.02-2.79,6.98-3.33,11.65h-1.83c.46-4.25,1.85-8.62,3.33-11.42h-3.82v-1.58h5.65Z"/>
        </g>
        <g>
          <path class="cls-1" d="M213.21,150.06v1.35c-1.56,3.02-2.79,6.98-3.33,11.65h-1.83c.46-4.25,1.85-8.62,3.33-11.42h-3.82v-1.58h5.65Z"/>
          <path class="cls-1" d="M218.11,153v-.16c0-.58-.11-1.44-1.03-1.44s-1.16.66-1.16,2.15v1.83c.32-.51.84-.94,1.8-.94,1.64,0,2.25,1.3,2.25,3v2.24c0,1.99-.62,3.54-2.93,3.54s-2.89-1.75-2.89-3.58v-5.89c0-2.21.59-3.86,2.93-3.86s2.72,1.75,2.72,3.02v.09h-1.69ZM218.19,159.94v-2.24c0-1-.21-1.68-1.08-1.68s-1.19.71-1.19,1.88v2.04c0,.96.21,1.8,1.14,1.8.85,0,1.13-.63,1.13-1.8Z"/>
          <path class="cls-1" d="M221.14,163.06v-2.88h1.79v2.88h-1.79Z"/>
          <path class="cls-1" d="M224.02,163.06v-.22c.01-2.29.97-3.88,2.39-5.92,1.07-1.52,1.41-2.05,1.41-3.5s-.19-2.01-1.01-2.01c-.76,0-1.04.58-1.04,1.65v.65h-1.66v-.7c0-1.47.46-3.1,2.79-3.1,2.16,0,2.73,1.42,2.73,3.41s-.62,2.9-1.69,4.36c-1.04,1.45-1.81,2.76-1.91,3.84h3.86l-.25,1.55h-5.62Z"/>
          <path class="cls-1" d="M237.06,156.97v1.65h-3.51v-1.65h3.51Z"/>
          <path class="cls-1" d="M240.74,160v-1.36c0-1.63.69-2.15,1.31-2.54-.71-.44-1.12-1.1-1.12-2.48v-.62c0-2.05,1.05-3.08,2.85-3.08,1.58,0,2.72.85,2.72,3.11v.56c0,1.61-.53,2.15-1.13,2.5.78.39,1.3,1.06,1.3,2.55v1.24c0,2.41-1.06,3.34-3,3.34-1.65,0-2.93-.76-2.93-3.22ZM244.87,160.09v-1.67c0-1.12-.42-1.54-1.19-1.54s-1.17.49-1.17,1.54v1.66c0,.95.34,1.59,1.18,1.59s1.18-.54,1.18-1.59ZM242.62,152.88v1.05c0,.87.37,1.42,1.09,1.42s1.06-.43,1.06-1.45v-1.02c0-.81-.21-1.45-1.07-1.45-.81,0-1.08.63-1.08,1.45Z"/>
          <path class="cls-1" d="M248.74,163.06v-10.93c-.36.1-1.08.19-1.39.2v-1.38c.8-.11,1.52-.55,1.88-.97h1.31v13.08h-1.79Z"/>
          <path class="cls-1" d="M252.24,163.06v-2.88h1.79v2.88h-1.79Z"/>
          <path class="cls-1" d="M255.46,153.31v-.38c0-1.36.42-3.04,2.73-3.04,1.98,0,2.65,1.25,2.65,3.04v.5c0,1.49-.48,2.19-1.24,2.5v.02c.95.33,1.55,1.04,1.55,2.64v1.07c0,2.08-.64,3.57-2.98,3.57-2.11,0-2.88-1.19-2.88-3.01v-.4h1.67v.39c0,.81.27,1.55,1.2,1.55s1.2-.69,1.2-1.85v-1.28c0-1.36-.47-1.84-1.59-1.84h-.55v-1.54h.54c.97,0,1.34-.39,1.34-1.63v-.7c0-.85-.16-1.53-.99-1.53s-1.03.67-1.03,1.44v.48h-1.62Z"/>
        </g>
        <g>
          <path class="cls-1" d="M207.88,199.71v-1.36c0-1.63.69-2.15,1.31-2.54-.71-.44-1.12-1.1-1.12-2.48v-.62c0-2.05,1.05-3.08,2.85-3.08,1.58,0,2.72.85,2.72,3.11v.56c0,1.61-.53,2.15-1.13,2.5.78.39,1.3,1.06,1.3,2.55v1.24c0,2.41-1.07,3.34-3,3.34-1.65,0-2.92-.75-2.92-3.22ZM212.02,199.8v-1.67c0-1.12-.42-1.54-1.19-1.54s-1.17.49-1.17,1.54v1.66c0,.95.34,1.6,1.18,1.6s1.18-.54,1.18-1.59ZM209.77,192.59v1.05c0,.87.37,1.42,1.09,1.42s1.06-.43,1.06-1.45v-1.02c0-.81-.21-1.45-1.07-1.45-.81,0-1.08.63-1.08,1.45Z"/>
          <path class="cls-1" d="M218.99,192.71v-.16c0-.58-.11-1.44-1.03-1.44s-1.16.65-1.16,2.15v1.83c.32-.51.84-.94,1.8-.94,1.64,0,2.25,1.3,2.25,3v2.24c0,1.99-.62,3.54-2.93,3.54s-2.89-1.75-2.89-3.58v-5.89c0-2.21.59-3.86,2.93-3.86s2.72,1.75,2.72,3.02v.09h-1.69ZM219.07,199.65v-2.24c0-1-.21-1.68-1.08-1.68s-1.19.71-1.19,1.88v2.04c0,.96.21,1.8,1.14,1.8.85,0,1.13-.63,1.13-1.8Z"/>
          <path class="cls-1" d="M222.02,202.76v-2.88h1.79v2.88h-1.79Z"/>
          <path class="cls-1" d="M228.35,202.76v-3.36h-3.67v-1.33l2.94-8.32h2.38v8.17h1l-.14,1.48h-.85v3.36h-1.65ZM228.35,195.27c0-1.27.05-2.56.07-3.82h-.02c-.63,2.18-1.31,4.31-2.01,6.48h1.96v-2.66Z"/>
          <path class="cls-1" d="M237.78,196.67v1.65h-3.51v-1.65h3.51Z"/>
          <path class="cls-1" d="M243.3,199.85v.19c0,.9.32,1.39,1.02,1.39.85,0,1.09-.61,1.09-2.5v-2.02c-.31.55-.77.87-1.68.87-1.67,0-2.32-1.25-2.32-3.12v-1.82c0-2.01.96-3.24,2.89-3.24s2.86,1.15,2.86,3.33v5.58c0,2.36-.23,4.41-2.87,4.41-2.26,0-2.76-1.51-2.76-2.99v-.08h1.76ZM243.2,192.65v2.04c0,.85.2,1.54,1.07,1.54.92,0,1.15-.77,1.15-2v-1.57c0-1.03-.29-1.58-1.1-1.58-.77,0-1.11.5-1.11,1.57Z"/>
          <path class="cls-1" d="M249.28,202.76v-10.93c-.36.1-1.08.19-1.39.2v-1.38c.8-.11,1.52-.55,1.88-.97h1.31v13.07h-1.79Z"/>
          <path class="cls-1" d="M252.78,202.76v-2.88h1.79v2.88h-1.79Z"/>
          <path class="cls-1" d="M259.11,202.76v-3.36h-3.67v-1.33l2.94-8.32h2.38v8.17h1l-.14,1.48h-.85v3.36h-1.65ZM259.11,195.27c0-1.27.05-2.56.07-3.82h-.02c-.63,2.18-1.31,4.31-2.01,6.48h1.96v-2.66Z"/>
        </g>
        <g>
          <path class="cls-1" d="M207,237.91v.19c0,.9.32,1.39,1.02,1.39.85,0,1.09-.61,1.09-2.5v-2.01c-.31.55-.77.87-1.68.87-1.67,0-2.32-1.25-2.32-3.12v-1.82c0-2.01.96-3.24,2.89-3.24s2.86,1.15,2.86,3.33v5.58c0,2.36-.23,4.41-2.87,4.41-2.26,0-2.76-1.51-2.76-2.99v-.08h1.76ZM206.9,230.71v2.04c0,.85.2,1.54,1.07,1.54.92,0,1.15-.77,1.15-2v-1.57c0-1.03-.29-1.58-1.1-1.58s-1.11.5-1.11,1.57Z"/>
          <path class="cls-1" d="M216.15,230.76v-.16c0-.58-.11-1.44-1.03-1.44s-1.16.66-1.16,2.15v1.83c.32-.51.84-.94,1.8-.94,1.64,0,2.25,1.3,2.25,3v2.24c0,1.99-.62,3.54-2.93,3.54s-2.89-1.75-2.89-3.58v-5.89c0-2.21.59-3.86,2.93-3.86s2.72,1.75,2.72,3.02v.09h-1.69ZM216.23,237.71v-2.24c0-1.01-.21-1.68-1.08-1.68s-1.19.71-1.19,1.88v2.04c0,.96.21,1.8,1.14,1.8.85,0,1.13-.63,1.13-1.8Z"/>
          <path class="cls-1" d="M219.18,240.82v-2.88h1.79v2.88h-1.79Z"/>
          <path class="cls-1" d="M227.73,229.4h-3.23c-.07,1.1-.18,2.62-.26,3.46.27-.39.86-.66,1.59-.66,1.73,0,2.37,1.28,2.37,3.45v1.42c0,2.23-.63,3.92-3.04,3.92-2.2,0-2.92-1.43-2.92-3.19v-.27h1.78v.42c0,.75.23,1.56,1.14,1.56.98,0,1.18-.76,1.18-2.18v-1.59c0-1.33-.21-2-1.13-2-.76,0-1.05.44-1.22,1.31l-1.6-.17c.19-1.83.45-5.42.54-7.04h4.98l-.19,1.58Z"/>
          <path class="cls-1" d="M235.36,234.73v1.65h-3.51v-1.65h3.51Z"/>
          <path class="cls-1" d="M239.96,240.82v-10.93c-.36.1-1.08.19-1.39.2v-1.38c.8-.11,1.52-.55,1.88-.97h1.31v13.07h-1.79Z"/>
          <path class="cls-1" d="M249.44,231.05v6.41c0,2.07-.7,3.52-2.98,3.52-2.11,0-2.86-1.42-2.86-3.49v-6.32c0-2.34,1.05-3.51,2.96-3.51s2.88,1.14,2.88,3.39ZM245.38,230.97v6.7c0,1.11.34,1.67,1.16,1.67s1.13-.52,1.13-1.73v-6.68c0-1.11-.38-1.64-1.14-1.64s-1.15.47-1.15,1.68Z"/>
          <path class="cls-1" d="M251.71,240.82v-10.93c-.36.1-1.08.19-1.39.2v-1.38c.8-.11,1.52-.55,1.88-.97h1.31v13.07h-1.79Z"/>
          <path class="cls-1" d="M255.22,240.82v-2.88h1.79v2.88h-1.79Z"/>
          <path class="cls-1" d="M262.22,230.76v-.16c0-.58-.11-1.44-1.03-1.44s-1.16.66-1.16,2.15v1.83c.32-.51.84-.94,1.8-.94,1.64,0,2.25,1.3,2.25,3v2.24c0,1.99-.62,3.54-2.93,3.54s-2.89-1.75-2.89-3.58v-5.89c0-2.21.59-3.86,2.93-3.86s2.72,1.75,2.72,3.02v.09h-1.69ZM262.31,237.71v-2.24c0-1.01-.21-1.68-1.08-1.68s-1.19.71-1.19,1.88v2.04c0,.96.21,1.8,1.14,1.8.85,0,1.13-.63,1.13-1.8Z"/>
        </g>
      </g>
    </g>
  </g>
</svg>